<svg width="371" height="318" viewBox="0 0 371 318" fill="none" xmlns="http://www.w3.org/2000/svg">
<path d="M344.296 1.60181L358.522 24.0461L372.749 46.5198L386.976 68.9924L401.201 91.4661L415.49 114.083H415.491L429.749 136.585V136.586L443.975 159.086L458.232 181.473L458.722 182.241H400.504L400.356 182.008L386.13 159.506V159.507L357.614 114.503L343.781 92.6731L330.009 114.788L330.007 114.792L315.749 137.294L301.49 159.794L301.491 159.795L287.265 182.297V182.298L273.038 204.771V204.772L258.78 227.244L244.522 249.718L244.521 249.717L230.296 272.191L216.07 294.663L201.844 317.137L201.696 317.369H0.905273L1.3877 316.603L15.582 294.043L15.583 294.042L29.8408 271.54L29.9883 271.308H172.567L186.646 249.067L200.872 226.594V226.593L215.13 204.12L229.388 181.475V181.474L243.614 158.972L286.388 91.4661L286.39 91.4631L300.806 68.9905L315.03 46.5198L329.257 24.0461L343.451 1.60181L343.873 0.934814L344.296 1.60181Z" stroke="#007BFF"/>
</svg>
