<svg width="188" height="40" viewBox="0 0 188 40" fill="none" xmlns="http://www.w3.org/2000/svg">
<g clip-path="url(#clip0_84_1484)">
<path d="M33.1403 26.0027L32.074 24.0052L31.0053 22.0078L29.9343 20.0001L28.868 18.0052L27.8017 16.0104L26.7354 14.0155L25.6691 12.0232L24.6051 14.0155L23.5388 16.0104L22.4725 18.0052L21.392 20.0001L20.3233 21.9976L19.2546 23.995L18.1859 25.9924L17.1196 27.9898L16.0509 30.0001L14.9823 31.995L13.916 33.9898L12.8497 35.9847H2.16288L1.0942 37.9821L0.0302734 39.9847H14.9918L16.0581 37.9898L17.1244 35.995L18.1907 34.0001L19.2594 32.0052L20.328 30.0103L21.3943 28.0155L22.4606 26.018L23.5293 24.0206L24.598 22.0232L25.6619 20.0001L26.7306 21.9976L27.7993 23.995L28.868 25.9924L29.9343 27.9898H34.209L33.1403 26.0027Z" fill="url(#paint0_linear_84_1484)"/>
<path d="M14.9924 39.9999H0L2.15635 35.9666H12.8431L25.6673 11.9768L33.1646 25.9948L34.2333 27.9948V28.0127H29.923L25.6649 20.064L23.5442 24.0101L14.9924 39.9999ZM12.855 39.9614H14.9615L25.6483 19.9999V19.9845H25.7053V20.005L29.9681 27.9768H32.0603H34.1573L33.1076 26.0153H33.0886V25.9973L25.6625 12.0512L19.2742 24.0101L18.2174 25.9896V26.0076H18.1984L17.1392 27.9845L17.1535 28.005H17.1297L16.0729 29.9999V30.0204H16.0492L14.9924 31.9999V32.0178H14.9734L13.9166 33.9948V34.0153H13.8952L12.836 35.9922V36.0127H2.17773L0.0617458 39.9665H8.56367H10.6773H12.7909V39.946L12.855 39.9614ZM13.9118 38.0024H13.8833L13.8952 37.9717L13.9094 37.946L13.9451 37.9999L13.9118 38.0024ZM11.7745 38.0024H11.7412L11.7578 37.9691L11.7745 37.946L11.803 37.9999L11.7745 38.0024ZM9.6371 38.0024H9.60385L9.62047 37.9691L9.63472 37.9435L9.6656 37.9973L9.6371 38.0024ZM7.49974 38.0024H7.46887L7.48312 37.9691L7.49974 37.9409L7.52587 37.9973L7.49974 38.0024ZM15.0042 36.005H14.9615L14.9781 35.9742L14.9947 35.946L15.0114 35.9768L15.0042 36.005ZM16.0444 34.0076H16.0135L16.0278 33.9768L16.042 33.9486L16.0729 34.005L16.0444 34.0076ZM17.1107 32.0076H17.0751L17.1107 31.9563L17.144 32.0076H17.1107ZM18.1794 30.0101H18.1509L18.177 29.9486L18.2055 30.0101H18.1794ZM19.2457 28.0127H19.2053L19.2504 27.9614L19.2742 28.0127H19.2457ZM30.994 26.0153H30.9513L30.9988 25.964L31.0225 26.0153H30.994ZM20.3073 26.0153H20.2788L20.3073 25.9537L20.3358 26.0153H20.3073ZM23.5323 20.0537L23.4943 19.9999H23.5513L23.5323 20.0537ZM27.807 20.0537L27.769 19.9922H27.826L27.807 20.0537ZM24.5986 18.0563L24.5677 17.9948H24.6247V18.0204L24.5986 18.0563ZM26.7359 18.0563L26.7169 18.0281L26.6979 17.9999H26.7597L26.7478 18.0255L26.7359 18.0563ZM25.6649 16.0614L25.6316 15.9999H25.6958L25.6649 16.0614Z" fill="url(#paint1_linear_84_1484)"/>
<path d="M45.9581 37.9871L44.8846 35.9896L43.8183 33.9948L42.7497 31.9999L41.681 30.005L40.6099 27.9999L39.5436 26.0025L38.4726 24.005L37.4039 22.0076L36.3352 19.9999L35.2689 18.005L34.1979 16.0153L33.1316 14.0204L32.0676 12.0281L31.0037 10.0358L29.9398 8.04346L28.8782 6.05628L27.8143 4.0691V4.05628L26.7504 2.07166V2.05884L25.6627 0.0383301L24.6011 2.02294V2.03577L23.5373 4.02038V4.0332L22.4733 6.02038L21.4094 8.01012L20.3431 10.0024L19.2768 11.9947L18.2105 13.987L17.1228 16.0127L16.0542 18.0101L14.9855 19.9999L13.9168 22.0076L12.8481 24.005L11.7794 26.0025L10.7108 27.9999L9.64449 29.9999H5.36978L4.3011 31.9948L3.23242 33.9922H11.7818L12.8505 31.9973L13.9144 29.9999L14.9808 28.005L16.0494 26.0076L17.1181 24.0101L18.1844 22.0127L19.2555 19.9999L20.3241 18.005L21.3928 16.0101L22.4591 14.0153L23.5254 12.0229L24.5916 10.0306L25.6556 8.03833L26.7219 10.0306L27.7882 12.0229L28.8545 14.0153L29.9208 16.0101L30.9871 18.005L32.0605 19.9999L33.1268 21.9973L34.1955 23.9947L35.2642 25.9922L36.3328 27.9896L37.3991 29.9845H22.4377L21.3714 31.9819L20.3051 33.9768H39.5412L40.6076 35.9717L41.6739 37.9666L42.7402 39.9614H47.0149L45.9581 37.9871Z" fill="url(#paint2_linear_84_1484)"/>
<path d="M47.0222 40H42.7475V39.9872L39.551 34.0077H20.3148V33.9872L22.4522 29.9846H37.3851L34.1981 24.0231L29.9234 16.0154L25.67 8.06667L23.5565 12.0231L22.4807 14.0359L21.4191 16.018L17.1444 24.0128L11.7939 34.0026H3.2041L5.36046 29.9692H9.63517L25.6629 0L39.57 26.0051L41.7073 29.9949L43.8447 33.9923L47.0483 39.9821V40H47.0222ZM5.93754 33.9744H7.49544L7.50731 33.9564V33.9744H7.70442M11.7227 33.9744H11.7535L19.2366 20L20.2958 18.0231V18.0051H20.3148L21.374 16.0154V15.9923L22.4308 14.0179V13.9949H22.4545L23.5114 12.0205L23.4971 11.9974H23.5114L24.5657 10.0231L24.5515 9.99744H24.58L25.6487 8.02564L25.6344 8H25.7033L25.689 8.02564L26.7387 10H26.7648V10.0256L27.8193 12H27.843V12.0231L28.8998 13.9974H28.9236V14.0205L29.9804 15.9949H29.9994V16.018L31.0562 17.9949H31.0728V18.0128L32.0821 20H32.0963V20.018L37.4469 30.018H22.4854L21.4286 31.9949L21.4429 32.0154H21.4191L20.3528 33.9744H22.4498V33.9564L22.4617 33.9744H24.5752H26.6912H28.8048H30.9208H33.032V33.9513L33.0439 33.9744H35.1575V33.9564L35.1694 33.9744H37.2806L37.2925 33.9513L37.3044 33.9744H39.418L39.4299 33.9564L39.4441 33.9821L42.6454 39.9667H44.8849V39.9462L44.8967 39.9667H46.9913L45.944 38.0077H45.9203V37.9846L44.8659 36.0103H44.8445V35.9872L43.7877 34.0128H43.7639L43.7758 33.9897L42.7475 32.0128H42.7261V31.9923L41.6693 30.0154H41.6503V29.9974L40.6101 28.018H40.5888L40.6007 27.9974L39.5438 26.0205H39.5106L39.532 26L38.4728 24.0231L25.6629 0.0769231L12.8649 24.0103L11.8081 25.9897V26.0077H11.7891L10.7323 27.9846L10.7442 28.0051H10.7228L9.66367 30V30.018H5.38183L4.32503 31.9949V32.0154H4.30365L4.05192 32.4872M43.8114 38.0103H43.7806L43.7948 37.9769L43.8114 37.9487L43.8376 38.0051L43.8114 38.0103ZM42.7428 36.0128H42.7143V35.9821L42.7309 35.9513L42.7594 36.0103L42.7428 36.0128ZM41.6741 34.0154H41.6456V33.9846L41.6622 33.9513L41.6907 34.0128L41.6741 34.0154ZM40.6078 32.0154H40.5769L40.5912 31.9872L40.6054 31.959L40.6363 32.0154H40.6078ZM38.4704 32.0154H38.4395L38.4704 31.959L38.5013 32.0154H38.4704ZM36.3331 32.0154H36.3022L36.3331 31.959L36.3639 32.0154H36.3331ZM34.1957 32.0154H34.1648L34.1791 31.9872L34.1933 31.959L34.2242 32.0154H34.1957ZM32.0584 32.0154H32.0275L32.0584 31.959L32.0892 32.0154H32.0584ZM29.921 32.0154H29.8901L29.9186 31.959L29.9495 32.0154H29.921ZM27.7836 32.0154H27.7528L27.7694 31.9872L27.7836 31.959L27.8145 32.0154H27.7836ZM25.6463 32.0154H25.6154L25.6463 31.959L25.6748 32.0154H25.6463ZM23.509 32.0154H23.4781L23.4947 31.9872L23.5114 31.9538L23.5351 32.0154H23.509ZM8.55936 32.0154H8.54986L8.56411 31.9872L8.57836 31.959L8.60924 32.0154H8.55936ZM6.42201 32.0154H6.41251L6.44338 31.959L6.47426 32.0154H6.42201ZM39.5296 30.018H39.494L39.532 29.9641L39.5581 30.018H39.5296ZM11.763 30.018H11.7274L11.7654 29.9641L11.7891 30.018H11.763ZM38.4942 28.0205H38.4277L38.4609 27.9692L38.4942 28.0205ZM12.8293 28.0205H12.8246L12.8554 27.9667L12.8887 28.0205H12.8293ZM37.3922 26.0231H37.3637L37.3922 25.9641L37.4231 26.0231H37.3922ZM13.898 26.0231H13.8695L13.898 25.9615L13.9265 26.0231H13.898ZM34.1981 20.0513L34.1791 19.9897H34.2361L34.1981 20.0513ZM33.1365 18.0513L33.1057 17.9923H33.1627V18.0179L33.1365 18.0513ZM32.0679 16.0538L32.0346 15.9923H32.0963L32.0821 16.0256L32.0679 16.0538ZM19.2438 16.0538L19.2366 16.0231L19.22 15.9923H19.2818V16.0205L19.2438 16.0538ZM20.3077 14.0615L20.2744 13.9974H20.3386L20.3077 14.0615ZM30.9944 14.0615L30.9588 14H31.0229L30.9944 14.0615ZM29.9352 12.0513L29.9044 11.9897H29.9709L29.9352 12.0513ZM21.3859 12.0513L21.3526 11.9897H21.4167L21.3859 12.0513ZM28.8618 10.0564L28.8286 9.98974H28.8951L28.8618 10.0564ZM22.4498 10.0564L22.4261 10H22.4949L22.4498 10.0564ZM27.7908 8.05898L27.7551 7.99487H27.824L27.7908 8.05898ZM23.5161 8.05898L23.4805 7.99487H23.5494L23.5161 8.05898ZM26.7197 6.06154L26.6865 5.99744H26.7553L26.7197 6.06154ZM24.5824 6.06154L24.5467 5.99744H24.6156L24.5824 6.06154ZM25.6487 4.0641L25.613 3.99744H25.6867L25.6487 4.0641Z" fill="url(#paint3_linear_84_1484)"/>
<path d="M63.9943 25.5639H56.8531L55.642 28.8075H52.0488L58.7483 12.1409H62.3414L68.9316 28.8075H65.2078L63.9943 25.5639ZM62.871 22.5409L60.4463 16.0691L58.0002 22.5409H62.871Z" fill="white"/>
<path d="M83.3013 22.4691C83.3013 26.3486 81.1188 28.9435 77.7916 28.9435C76.1292 28.9435 74.8373 28.2281 73.9776 26.9435V33.423H70.584V15.9871H73.9776V17.8666C74.816 16.5845 76.115 15.8691 77.7251 15.8691C81.0523 15.8794 83.3013 18.5204 83.3013 22.4691ZM79.8625 22.3512C79.8625 20.2999 78.6751 18.8307 76.9319 18.8307C75.1888 18.8307 73.9776 20.282 73.9776 22.3512C73.9776 24.4691 75.1912 25.8973 76.9319 25.8973C78.6727 25.8973 79.8625 24.4486 79.8625 22.3512Z" fill="white"/>
<path d="M89.0538 11.1436V28.8077H85.6602V11.1436H89.0538Z" fill="white"/>
<path d="M104.151 22.3973C104.151 26.2998 101.596 28.9409 97.8029 28.9409C94.0103 28.9409 91.4336 26.2998 91.4336 22.3973C91.4336 18.4947 93.9913 15.8767 97.8029 15.8767C101.615 15.8767 104.151 18.4716 104.151 22.3973ZM94.851 22.4434C94.851 24.5383 96.0384 25.9665 97.8029 25.9665C99.5674 25.9665 100.757 24.5383 100.757 22.4434C100.757 20.3486 99.546 18.9229 97.8029 18.9229C96.0598 18.9229 94.851 20.346 94.851 22.446V22.4434Z" fill="white"/>
<path d="M126.367 20.7564V28.8076H122.997V21.8281C122.997 20.1871 122.116 19.2102 120.705 19.2102C119.074 19.2332 118.093 20.6153 118.093 22.4692V28.8076H114.709V21.8281C114.709 20.1871 113.828 19.2102 112.439 19.2102C110.776 19.2332 109.793 20.6153 109.793 22.4692V28.8076H106.399V15.9871H109.793V18.1999C110.631 16.6307 112.018 15.8691 113.804 15.8435C115.811 15.8435 117.243 16.9384 117.815 18.7948C118.587 16.8204 120.086 15.8691 122.09 15.8435C124.714 15.8538 126.367 17.7589 126.367 20.7564Z" fill="white"/>
<path d="M142.126 22.4692C142.126 26.3487 139.944 28.9436 136.617 28.9436C134.954 28.9436 133.663 28.2282 132.803 26.9436V28.8077H129.409V11.1436H132.803V17.8769C133.641 16.5948 134.94 15.8795 136.55 15.8795C139.877 15.8795 142.126 18.5205 142.126 22.4692ZM138.688 22.3513C138.688 20.3 137.5 18.8307 135.757 18.8307C134.014 18.8307 132.803 20.282 132.803 22.3513C132.803 24.4692 134.016 25.8974 135.757 25.8974C137.498 25.8974 138.688 24.4487 138.688 22.3513Z" fill="white"/>
<path d="M149.686 14.9024C148.296 14.9024 147.394 15.4512 147.394 16.4742C147.394 19.8538 155.68 18.0127 155.658 23.9922C155.658 27.1102 153.146 28.9179 149.752 28.9179C147.351 28.8999 145.036 27.9507 143.229 26.2435L144.463 23.5538C146.05 25.0768 148.142 26.005 149.795 26.005C151.448 26.005 152.445 25.3486 152.445 24.1922C152.445 20.7179 144.159 22.6922 144.159 16.7563C144.159 13.8537 146.473 11.9973 149.933 11.9973C151.908 12.0058 153.841 12.6164 155.509 13.7589L154.321 16.5178C152.661 15.4512 150.876 14.9024 149.686 14.9024Z" fill="white"/>
<path d="M169.72 22.423C169.72 26.3024 167.186 28.9178 163.484 28.9178C159.781 28.9178 157.269 26.3024 157.269 22.423C157.269 18.5435 159.807 15.9871 163.484 15.9871C167.16 15.9871 169.72 18.5665 169.72 22.423ZM160.178 22.4691C160.178 24.7537 161.543 26.3153 163.484 26.3153C165.424 26.3153 166.808 24.7435 166.808 22.4691C166.808 20.1948 165.443 18.6383 163.484 18.6383C161.524 18.6383 160.178 20.1871 160.178 22.4691Z" fill="white"/>
<path d="M175.496 15.2846V16.5923H178.448V18.8539H175.496V28.8077H172.632V18.8539H171.088V16.5923H172.632V15.3795C172.632 12.4513 174.638 11 176.821 11C177.819 10.997 178.797 11.3041 179.637 11.8846L178.581 14.2385C178.12 13.8922 177.576 13.698 177.015 13.6795C176.177 13.6795 175.496 14.1667 175.496 15.2846Z" fill="white"/>
<path d="M187.066 28.0153C186.179 28.612 185.157 28.933 184.112 28.9435C182.195 28.9435 180.652 27.7538 180.652 25.1358V18.8537H178.989L178.968 16.5922H180.63V13.0947H183.48V16.5922H186.852V18.8537H183.48V24.5871C183.48 25.8025 183.955 26.2051 184.715 26.2051C185.297 26.1669 185.864 25.992 186.377 25.6922L187.066 28.0153Z" fill="white"/>
</g>
<defs>
<linearGradient id="paint0_linear_84_1484" x1="17.3332" y1="26.0039" x2="32.2388" y2="42.0175" gradientUnits="userSpaceOnUse">
<stop stop-color="#007BFF"/>
<stop offset="1" stop-color="#00D4FF"/>
</linearGradient>
<linearGradient id="paint1_linear_84_1484" x1="17.3306" y1="25.9883" x2="32.2695" y2="42.028" gradientUnits="userSpaceOnUse">
<stop stop-color="#007BFF"/>
<stop offset="1" stop-color="#00D4FF"/>
</linearGradient>
<linearGradient id="paint2_linear_84_1484" x1="25.3974" y1="19.9999" x2="46.7194" y2="40.5518" gradientUnits="userSpaceOnUse">
<stop stop-color="#007BFF"/>
<stop offset="1" stop-color="#00D4FF"/>
</linearGradient>
<linearGradient id="paint3_linear_84_1484" x1="25.4003" y1="20" x2="46.7632" y2="40.5806" gradientUnits="userSpaceOnUse">
<stop stop-color="#007BFF"/>
<stop offset="1" stop-color="#00D4FF"/>
</linearGradient>
<clipPath id="clip0_84_1484">
<rect width="187.048" height="40" fill="white"/>
</clipPath>
</defs>
</svg>
