<svg width="217" height="44" viewBox="0 0 217 44" fill="none" xmlns="http://www.w3.org/2000/svg">
<path d="M39.4459 28.603L38.1767 26.4058L36.9047 24.2087L35.6298 22.0002L34.3606 19.8058L33.0915 17.6115L31.8223 15.4171L30.5531 13.2256L29.2867 15.4171L28.0175 17.6115L26.7483 19.8058L25.4622 22.0002L24.1902 24.1974L22.9182 26.3946L21.6462 28.5917L20.377 30.7889L19.105 33.0002L17.833 35.1945L16.5638 37.3889L15.2946 39.5833H2.5745L1.30249 41.7804L0.0361328 43.9833H17.8443L19.1135 41.7889L20.3826 39.5945L21.6518 37.4002L22.9238 35.2058L24.1958 33.0115L25.465 30.8171L26.7342 28.6199L28.0062 26.4228L29.2783 24.2256L30.5446 22.0002L31.8166 24.1974L33.0886 26.3946L34.3606 28.5917L35.6298 30.7889H40.7179L39.4459 28.603Z" fill="url(#paint0_linear_606_1858)"/>
<path d="M17.8449 43.9997H0L2.56663 39.563H15.2867L30.5509 13.1743L39.4747 28.5941L40.7467 30.7941V30.8138H35.6163L30.548 22.0702L28.0238 26.411L17.8449 43.9997ZM15.3009 43.9574H17.8081L30.5282 21.9997V21.9828H30.5961V22.0053L35.67 30.7743H38.1603H40.6563L39.4069 28.6166H39.3843V28.5969L30.5452 13.2561L22.9414 26.411L21.6835 28.5884V28.6082H21.6609L20.4002 30.7828L20.4172 30.8053H20.3889L19.131 32.9997V33.0223H19.1028L17.8449 35.1997V35.2194H17.8223L16.5644 37.3941V37.4166H16.539L15.2783 39.5912V39.6138H2.59207L0.0734939 43.963H10.193H12.7088H15.2245V43.9405L15.3009 43.9574ZM16.5587 41.8025H16.5248L16.539 41.7687L16.5559 41.7405L16.5983 41.7997L16.5587 41.8025ZM14.0147 41.8025H13.9751L13.9949 41.7659L14.0147 41.7405L14.0486 41.7997L14.0147 41.8025ZM11.4707 41.8025H11.4311L11.4509 41.7659L11.4679 41.7376L11.5046 41.7969L11.4707 41.8025ZM8.92668 41.8025H8.88994L8.9069 41.7659L8.92668 41.7348L8.95778 41.7969L8.92668 41.8025ZM17.859 39.6053H17.8081L17.8279 39.5715L17.8477 39.5405L17.8675 39.5743L17.859 39.6053ZM19.0971 37.4082H19.0604L19.0773 37.3743L19.0943 37.3433L19.131 37.4053L19.0971 37.4082ZM20.3663 35.2082H20.3239L20.3663 35.1518L20.4059 35.2082H20.3663ZM21.6383 33.011H21.6044L21.6355 32.9433L21.6694 33.011H21.6383ZM22.9075 30.8138H22.8594L22.9131 30.7574L22.9414 30.8138H22.9075ZM36.8911 28.6166H36.8402L36.8968 28.5602L36.925 28.6166H36.8911ZM24.171 28.6166H24.1371L24.171 28.5489L24.2049 28.6166H24.171ZM28.0097 22.0589L27.9644 21.9997H28.0323L28.0097 22.0589ZM33.0977 22.0589L33.0525 21.9912H33.1203L33.0977 22.0589ZM29.2788 19.8618L29.2421 19.7941H29.3099V19.8223L29.2788 19.8618ZM31.8229 19.8618L31.8002 19.8307L31.7776 19.7997H31.8511L31.837 19.8279L31.8229 19.8618ZM30.548 17.6674L30.5085 17.5997H30.5848L30.548 17.6674Z" fill="url(#paint1_linear_606_1858)"/>
<path d="M54.7025 41.7856L53.4248 39.5884L52.1557 37.3941L50.8836 35.1997L49.6116 33.0054L48.3368 30.7997L47.0676 28.6025L45.7928 26.4053L44.5208 24.2081L43.2488 21.9997L41.9796 19.8053L40.7047 17.6166L39.4356 15.4222L38.1692 13.2307L36.9028 11.0392L35.6365 8.84763L34.373 6.66173L33.1066 4.47584V4.46173L31.8402 2.27866V2.26456L30.5456 0.0419922L29.2821 2.22507V2.23917L28.0158 4.42225V4.43635L26.7495 6.62225L25.4831 8.81097L24.214 11.0025L22.9447 13.194L21.6756 15.3856L20.3809 17.6138L19.1089 19.811L17.8369 21.9997L16.5649 24.2081L15.2929 26.4053L14.0209 28.6025L12.7489 30.7997L11.4797 32.9997H6.39168L5.11967 35.1941L3.84766 37.3913H14.0237L15.2957 35.1969L16.5621 32.9997L17.8313 30.8054L19.1033 28.6082L20.3753 26.411L21.6445 24.2138L22.9193 21.9997L24.1913 19.8053L25.4633 17.611L26.7325 15.4166L28.0017 13.2251L29.2708 11.0335L30.5371 8.84199L31.8063 11.0335L33.0755 13.2251L34.3447 15.4166L35.6139 17.611L36.8831 19.8053L38.1607 21.9997L39.4299 24.1969L40.7019 26.394L41.9739 28.5912L43.2459 30.7884L44.5151 32.9828H26.7071L25.4379 35.18L24.1687 37.3743H47.0648L48.334 39.5687L49.6032 41.763L50.8723 43.9574H55.9604L54.7025 41.7856Z" fill="url(#paint2_linear_606_1858)"/>
<path d="M55.9691 44H50.8811V43.9859L47.0764 37.4085H24.1803V37.3859L26.7243 32.9831H44.4984L40.705 26.4254L35.617 17.6169L30.5544 8.87333L28.0387 13.2254L26.7582 15.4395L25.4947 17.6197L20.4066 26.4141L14.0381 37.4028H3.81396L6.3806 32.9662H11.4686L30.5459 0L47.099 28.6056L49.643 32.9944L52.187 37.3915L56.0002 43.9803V44H55.9691ZM7.06748 37.3718H8.92179L8.93592 37.3521V37.3718H9.17054M13.9533 37.3718H13.99L22.8969 22L24.1576 19.8254V19.8056H24.1803L25.441 17.6169V17.5915L26.6988 15.4197V15.3944H26.7271L27.985 13.2226L27.968 13.1972H27.985L29.24 11.0254L29.223 10.9972H29.2569L30.5289 8.82821L30.512 8.8H30.594L30.577 8.82821L31.8264 11H31.8575V11.0282L33.1125 13.2H33.1408V13.2254L34.3987 15.3972H34.4269V15.4226L35.6848 17.5944H35.7074V17.6197L36.9653 19.7944H36.9851V19.8141L38.1864 22H38.2034V22.0197L44.5719 33.0197H26.7639L25.506 35.1944L25.5229 35.2169H25.4947L24.2255 37.3718H26.7214V37.3521L26.7356 37.3718H29.2513H31.7699H34.2856H36.8042H39.3171V37.3464L39.3312 37.3718H41.847V37.3521L41.8611 37.3718H44.3741L44.3882 37.3464L44.4023 37.3718H46.9181L46.9322 37.3521L46.9492 37.3803L50.7596 43.9633H53.4251V43.9408L53.4393 43.9633H55.9324L54.6858 41.8085H54.6576V41.7831L53.4025 39.6113H53.3771V39.5859L52.1192 37.4141H52.0909L52.1051 37.3887L50.8811 35.2141H50.8557V35.1915L49.5978 33.0169H49.5752V32.9972L48.3371 30.8197H48.3116L48.3258 30.7972L47.0679 28.6226H47.0283L47.0538 28.6L45.7931 26.4254L30.5459 0.0846154L15.3129 26.4113L14.0551 28.5887V28.6085H14.0324L12.7746 30.7831L12.7887 30.8056H12.7633L11.5026 33V33.0197H6.40604L5.14816 35.1944V35.2169H5.12272L4.82309 35.7359M52.1475 41.8113H52.1107L52.1277 41.7746L52.1475 41.7436L52.1785 41.8056L52.1475 41.8113ZM50.8754 39.6141H50.8415V39.5803L50.8613 39.5464L50.8952 39.6113L50.8754 39.6141ZM49.6034 37.4169H49.5695V37.3831L49.5893 37.3464L49.6232 37.4141L49.6034 37.4169ZM48.3343 35.2169H48.2975L48.3145 35.1859L48.3314 35.1549L48.3682 35.2169H48.3343ZM45.7902 35.2169H45.7535L45.7902 35.1549L45.827 35.2169H45.7902ZM43.2462 35.2169H43.2095L43.2462 35.1549L43.283 35.2169H43.2462ZM40.7022 35.2169H40.6654L40.6824 35.1859L40.6994 35.1549L40.7361 35.2169H40.7022ZM38.1582 35.2169H38.1214L38.1582 35.1549L38.1949 35.2169H38.1582ZM35.6142 35.2169H35.5774L35.6113 35.1549L35.6481 35.2169H35.6142ZM33.0701 35.2169H33.0334L33.0532 35.1859L33.0701 35.1549L33.1069 35.2169H33.0701ZM30.5261 35.2169H30.4894L30.5261 35.1549L30.56 35.2169H30.5261ZM27.9822 35.2169H27.9454L27.9652 35.1859L27.985 35.1492L28.0132 35.2169H27.9822ZM10.1881 35.2169H10.1768L10.1938 35.1859L10.2108 35.1549L10.2475 35.2169H10.1881ZM7.64413 35.2169H7.63282L7.66957 35.1549L7.70632 35.2169H7.64413ZM47.0509 33.0197H47.0085L47.0538 32.9605L47.0849 33.0197H47.0509ZM14.0014 33.0197H13.959L14.0042 32.9605L14.0324 33.0197H14.0014ZM45.8185 30.8226H45.7394L45.7789 30.7662L45.8185 30.8226ZM15.2705 30.8226H15.2649L15.3016 30.7633L15.3412 30.8226H15.2705ZM44.5069 28.6254H44.473L44.5069 28.5605L44.5437 28.6254H44.5069ZM16.5425 28.6254H16.5086L16.5425 28.5577L16.5765 28.6254H16.5425ZM40.705 22.0564L40.6824 21.9887H40.7502L40.705 22.0564ZM39.4415 19.8564L39.4047 19.7915H39.4726V19.8197L39.4415 19.8564ZM38.1695 17.6592L38.1299 17.5915H38.2034L38.1864 17.6282L38.1695 17.6592ZM22.9054 17.6592L22.8969 17.6254L22.8772 17.5915H22.9506V17.6226L22.9054 17.6592ZM24.1718 15.4677L24.1322 15.3972H24.2085L24.1718 15.4677ZM36.8918 15.4677L36.8494 15.4H36.9257L36.8918 15.4677ZM35.6311 13.2564L35.5944 13.1887H35.6735L35.6311 13.2564ZM25.4551 13.2564L25.4155 13.1887H25.4918L25.4551 13.2564ZM34.3535 11.0621L34.3139 10.9887H34.393L34.3535 11.0621ZM26.7214 11.0621L26.6932 11H26.7752L26.7214 11.0621ZM33.0786 8.86487L33.0362 8.79436H33.1182L33.0786 8.86487ZM27.9906 8.86487L27.9482 8.79436H28.0302L27.9906 8.86487ZM31.8038 6.66769L31.7642 6.59718H31.8462L31.8038 6.66769ZM29.2598 6.66769L29.2174 6.59718H29.2993L29.2598 6.66769ZM30.5289 4.47051L30.4865 4.39718H30.5742L30.5289 4.47051Z" fill="url(#paint3_linear_606_1858)"/>
<path d="M64.9027 31.5H60.6186L67.1463 12.5909H72.2983L78.8168 31.5H74.5327L69.7962 16.9119H69.6484L64.9027 31.5ZM64.6349 24.0675H74.7543V27.1882H64.6349V24.0675ZM81.5388 36.8182V17.3182H85.4167V19.7003H85.5921C85.7644 19.3187 86.0137 18.9309 86.34 18.5369C86.6723 18.1368 87.1032 17.8045 87.6326 17.5398C88.1681 17.2689 88.8329 17.1335 89.6269 17.1335C90.661 17.1335 91.6151 17.4044 92.4891 17.946C93.3632 18.4815 94.0618 19.291 94.585 20.3743C95.1082 21.4515 95.3698 22.8026 95.3698 24.4276C95.3698 26.0095 95.1143 27.3452 94.6035 28.4347C94.0987 29.518 93.4093 30.3397 92.5353 30.8999C91.6674 31.4538 90.6948 31.7308 89.6177 31.7308C88.8544 31.7308 88.205 31.6046 87.6695 31.3523C87.1401 31.0999 86.7062 30.7829 86.3677 30.4013C86.0291 30.0135 85.7706 29.6226 85.5921 29.2287H85.4721V36.8182H81.5388ZM85.389 24.4091C85.389 25.2524 85.5059 25.9879 85.7398 26.6158C85.9737 27.2436 86.3123 27.733 86.7554 28.0838C87.1986 28.4285 87.7372 28.6009 88.3712 28.6009C89.0114 28.6009 89.553 28.4254 89.9962 28.0746C90.4394 27.7176 90.7749 27.2251 91.0026 26.5973C91.2365 25.9633 91.3535 25.2339 91.3535 24.4091C91.3535 23.5904 91.2396 22.8703 91.0118 22.2486C90.7841 21.6269 90.4486 21.1406 90.0054 20.7898C89.5623 20.4389 89.0175 20.2635 88.3712 20.2635C87.7311 20.2635 87.1894 20.4328 86.7462 20.7713C86.3092 21.1098 85.9737 21.59 85.7398 22.2116C85.5059 22.8333 85.389 23.5658 85.389 24.4091ZM102.445 12.5909V31.5H98.5119V12.5909H102.445ZM112.524 31.777C111.089 31.777 109.849 31.4723 108.803 30.8629C107.762 30.2474 106.959 29.3918 106.393 28.2962C105.827 27.1944 105.543 25.9171 105.543 24.4645C105.543 22.9995 105.827 21.7192 106.393 20.6236C106.959 19.5218 107.762 18.6662 108.803 18.0568C109.849 17.4413 111.089 17.1335 112.524 17.1335C113.958 17.1335 115.195 17.4413 116.235 18.0568C117.282 18.6662 118.088 19.5218 118.654 20.6236C119.221 21.7192 119.504 22.9995 119.504 24.4645C119.504 25.9171 119.221 27.1944 118.654 28.2962C118.088 29.3918 117.282 30.2474 116.235 30.8629C115.195 31.4723 113.958 31.777 112.524 31.777ZM112.542 28.7301C113.195 28.7301 113.739 28.5455 114.176 28.1761C114.613 27.8007 114.943 27.2898 115.164 26.6435C115.392 25.9972 115.506 25.2616 115.506 24.4368C115.506 23.612 115.392 22.8764 115.164 22.2301C114.943 21.5838 114.613 21.0729 114.176 20.6974C113.739 20.322 113.195 20.1342 112.542 20.1342C111.883 20.1342 111.329 20.322 110.88 20.6974C110.437 21.0729 110.101 21.5838 109.874 22.2301C109.652 22.8764 109.541 23.612 109.541 24.4368C109.541 25.2616 109.652 25.9972 109.874 26.6435C110.101 27.2898 110.437 27.8007 110.88 28.1761C111.329 28.5455 111.883 28.7301 112.542 28.7301ZM122.581 31.5V17.3182H126.33V19.8203H126.496C126.791 18.9893 127.284 18.3338 127.973 17.8537C128.663 17.3736 129.487 17.1335 130.448 17.1335C131.42 17.1335 132.248 17.3767 132.931 17.8629C133.615 18.343 134.07 18.9955 134.298 19.8203H134.446C134.735 19.0078 135.258 18.3584 136.015 17.8722C136.778 17.3797 137.68 17.1335 138.72 17.1335C140.044 17.1335 141.118 17.5552 141.943 18.3984C142.774 19.2356 143.189 20.4235 143.189 21.9624V31.5H139.265V22.7379C139.265 21.95 139.056 21.3591 138.637 20.9652C138.219 20.5713 137.696 20.3743 137.068 20.3743C136.354 20.3743 135.797 20.602 135.397 21.0575C134.996 21.5069 134.796 22.1009 134.796 22.8395V31.5H130.983V22.6548C130.983 21.9593 130.783 21.4053 130.383 20.9929C129.989 20.5805 129.469 20.3743 128.823 20.3743C128.386 20.3743 127.992 20.4851 127.641 20.7067C127.296 20.9221 127.022 21.2268 126.819 21.6207C126.616 22.0085 126.514 22.464 126.514 22.9872V31.5H122.581ZM146.89 31.5V12.5909H150.823V19.7003H150.943C151.116 19.3187 151.365 18.9309 151.691 18.5369C152.023 18.1368 152.454 17.8045 152.984 17.5398C153.519 17.2689 154.184 17.1335 154.978 17.1335C156.012 17.1335 156.966 17.4044 157.84 17.946C158.714 18.4815 159.413 19.291 159.936 20.3743C160.459 21.4515 160.721 22.8026 160.721 24.4276C160.721 26.0095 160.465 27.3452 159.955 28.4347C159.45 29.518 158.76 30.3397 157.886 30.8999C157.019 31.4538 156.046 31.7308 154.969 31.7308C154.206 31.7308 153.556 31.6046 153.021 31.3523C152.491 31.0999 152.057 30.7829 151.719 30.4013C151.38 30.0135 151.122 29.6226 150.943 29.2287H150.768V31.5H146.89ZM150.74 24.4091C150.74 25.2524 150.857 25.9879 151.091 26.6158C151.325 27.2436 151.663 27.733 152.107 28.0838C152.55 28.4285 153.088 28.6009 153.722 28.6009C154.362 28.6009 154.904 28.4254 155.347 28.0746C155.791 27.7176 156.126 27.2251 156.354 26.5973C156.588 25.9633 156.705 25.2339 156.705 24.4091C156.705 23.5904 156.591 22.8703 156.363 22.2486C156.135 21.6269 155.8 21.1406 155.357 20.7898C154.913 20.4389 154.369 20.2635 153.722 20.2635C153.082 20.2635 152.541 20.4328 152.097 20.7713C151.66 21.1098 151.325 21.59 151.091 22.2116C150.857 22.8333 150.74 23.5658 150.74 24.4091ZM174.197 18.0291C174.123 17.2843 173.806 16.7057 173.246 16.2933C172.686 15.8809 171.926 15.6747 170.966 15.6747C170.313 15.6747 169.762 15.767 169.313 15.9517C168.863 16.1302 168.519 16.3795 168.279 16.6996C168.045 17.0196 167.928 17.3828 167.928 17.7891C167.916 18.1276 167.986 18.4231 168.14 18.6754C168.3 18.9278 168.519 19.1463 168.796 19.331C169.073 19.5095 169.393 19.6664 169.756 19.8018C170.119 19.9311 170.507 20.0419 170.919 20.1342L172.618 20.5405C173.443 20.7251 174.2 20.9714 174.89 21.2791C175.579 21.5869 176.176 21.9654 176.681 22.4148C177.185 22.8641 177.576 23.3935 177.853 24.0028C178.136 24.6122 178.281 25.3108 178.287 26.0987C178.281 27.2559 177.986 28.2592 177.401 29.1087C176.822 29.9519 175.985 30.6075 174.89 31.0753C173.8 31.5369 172.486 31.7678 170.947 31.7678C169.421 31.7678 168.091 31.5339 166.958 31.0661C165.832 30.5982 164.952 29.9058 164.318 28.9886C163.69 28.0653 163.361 26.9235 163.33 25.5632H167.198C167.242 26.1972 167.423 26.7266 167.743 27.1513C168.069 27.5698 168.503 27.8868 169.045 28.1023C169.593 28.3116 170.212 28.4162 170.901 28.4162C171.578 28.4162 172.166 28.3177 172.664 28.1207C173.169 27.9238 173.56 27.6499 173.837 27.299C174.114 26.9482 174.252 26.545 174.252 26.0895C174.252 25.6648 174.126 25.3078 173.874 25.0185C173.628 24.7292 173.265 24.483 172.784 24.2798C172.31 24.0767 171.729 23.892 171.039 23.7259L168.98 23.2088C167.386 22.821 166.127 22.2147 165.204 21.3899C164.281 20.5651 163.822 19.4541 163.828 18.0568C163.822 16.9119 164.127 15.9117 164.743 15.0561C165.364 14.2005 166.217 13.5327 167.3 13.0526C168.383 12.5724 169.614 12.3324 170.993 12.3324C172.397 12.3324 173.622 12.5724 174.668 13.0526C175.721 13.5327 176.539 14.2005 177.124 15.0561C177.709 15.9117 178.01 16.9027 178.029 18.0291H174.197ZM187.83 31.777C186.396 31.777 185.156 31.4723 184.109 30.8629C183.069 30.2474 182.266 29.3918 181.699 28.2962C181.133 27.1944 180.85 25.9171 180.85 24.4645C180.85 22.9995 181.133 21.7192 181.699 20.6236C182.266 19.5218 183.069 18.6662 184.109 18.0568C185.156 17.4413 186.396 17.1335 187.83 17.1335C189.264 17.1335 190.502 17.4413 191.542 18.0568C192.588 18.6662 193.395 19.5218 193.961 20.6236C194.527 21.7192 194.81 22.9995 194.81 24.4645C194.81 25.9171 194.527 27.1944 193.961 28.2962C193.395 29.3918 192.588 30.2474 191.542 30.8629C190.502 31.4723 189.264 31.777 187.83 31.777ZM187.849 28.7301C188.501 28.7301 189.046 28.5455 189.483 28.1761C189.92 27.8007 190.249 27.2898 190.471 26.6435C190.699 25.9972 190.812 25.2616 190.812 24.4368C190.812 23.612 190.699 22.8764 190.471 22.2301C190.249 21.5838 189.92 21.0729 189.483 20.6974C189.046 20.322 188.501 20.1342 187.849 20.1342C187.19 20.1342 186.636 20.322 186.187 20.6974C185.744 21.0729 185.408 21.5838 185.18 22.2301C184.959 22.8764 184.848 23.612 184.848 24.4368C184.848 25.2616 184.959 25.9972 185.18 26.6435C185.408 27.2898 185.744 27.8007 186.187 28.1761C186.636 28.5455 187.19 28.7301 187.849 28.7301ZM205.514 17.3182V20.2727H196.761V17.3182H205.514ZM198.765 31.5V16.2933C198.765 15.2654 198.965 14.4129 199.365 13.7358C199.771 13.0587 200.325 12.5509 201.027 12.2124C201.729 11.8738 202.526 11.7045 203.418 11.7045C204.022 11.7045 204.572 11.7507 205.071 11.843C205.576 11.9354 205.951 12.0185 206.197 12.0923L205.496 15.0469C205.342 14.9976 205.151 14.9515 204.923 14.9084C204.702 14.8653 204.474 14.8438 204.24 14.8438C203.661 14.8438 203.258 14.9792 203.031 15.25C202.803 15.5147 202.689 15.8871 202.689 16.3672V31.5H198.765ZM215.98 17.3182V20.2727H207.44V17.3182H215.98ZM209.379 13.9205H213.312V27.142C213.312 27.5052 213.367 27.7884 213.478 27.9915C213.589 28.1884 213.743 28.3269 213.94 28.407C214.143 28.487 214.377 28.527 214.642 28.527C214.826 28.527 215.011 28.5116 215.196 28.4808C215.38 28.4439 215.522 28.4162 215.62 28.3977L216.239 31.3246C216.042 31.3861 215.765 31.4569 215.408 31.5369C215.051 31.6231 214.617 31.6754 214.106 31.6939C213.158 31.7308 212.327 31.6046 211.613 31.3153C210.905 31.026 210.354 30.5767 209.961 29.9673C209.567 29.358 209.373 28.5885 209.379 27.6591V13.9205Z" fill="#062343"/>
<defs>
<linearGradient id="paint0_linear_606_1858" x1="20.6313" y1="28.6044" x2="36.885" y2="47.4992" gradientUnits="userSpaceOnUse">
<stop stop-color="#007BFF"/>
<stop offset="1" stop-color="#00D4FF"/>
</linearGradient>
<linearGradient id="paint1_linear_606_1858" x1="20.628" y1="28.587" x2="36.9189" y2="47.5135" gradientUnits="userSpaceOnUse">
<stop stop-color="#007BFF"/>
<stop offset="1" stop-color="#00D4FF"/>
</linearGradient>
<linearGradient id="paint2_linear_606_1858" x1="30.2299" y1="21.9997" x2="53.6792" y2="46.4569" gradientUnits="userSpaceOnUse">
<stop stop-color="#007BFF"/>
<stop offset="1" stop-color="#00D4FF"/>
</linearGradient>
<linearGradient id="paint3_linear_606_1858" x1="30.2333" y1="22" x2="53.7286" y2="46.4922" gradientUnits="userSpaceOnUse">
<stop stop-color="#007BFF"/>
<stop offset="1" stop-color="#00D4FF"/>
</linearGradient>
</defs>
</svg>
