<svg width="240" height="60" viewBox="0 0 240 60" fill="none" xmlns="http://www.w3.org/2000/svg">
<rect width="60" height="60" rx="12" fill="#F0EAFF"/>
<path d="M36.3643 23.6365C36.7549 23.2459 36.757 22.61 36.3413 22.2463C35.1133 21.1721 33.7166 20.3038 32.2051 19.6778C30.3852 18.9239 28.4347 18.536 26.4648 18.536C24.495 18.536 22.5445 18.9239 20.7246 19.6778C18.9047 20.4316 17.2511 21.5365 15.8582 22.9294C14.4654 24.3222 13.3605 25.9758 12.6067 27.7957C11.8528 29.6156 11.4648 31.5661 11.4648 33.536C11.4648 35.5058 11.8528 37.4563 12.6067 39.2762C13.2327 40.7877 14.101 42.1844 15.1752 43.4124C15.5389 43.8281 16.1748 43.826 16.5653 43.4355L19.9361 40.0647C20.3266 39.6742 20.321 39.0443 19.9807 38.6093C19.5223 38.0234 19.1444 37.3768 18.8585 36.6866C18.4447 35.6877 18.2318 34.6171 18.2318 33.536C18.2318 32.4548 18.4447 31.3842 18.8585 30.3853C19.2722 29.3864 19.8787 28.4788 20.6432 27.7143C21.4077 26.9498 22.3153 26.3433 23.3142 25.9296C24.3131 25.5158 25.3837 25.3029 26.4648 25.3029C27.546 25.3029 28.6166 25.5158 29.6155 25.9296C30.3057 26.2155 30.9523 26.5934 31.5382 27.0518C31.9732 27.3921 32.6031 27.3977 32.9936 27.0072L36.3643 23.6365Z" fill="url(#paint0_linear_1485_3660)"/>
<path d="M23.6361 36.3645C23.2456 36.755 23.2435 37.391 23.6592 37.7547C24.8872 38.8289 26.2839 39.6971 27.7954 40.3232C29.6153 41.077 31.5658 41.465 33.5356 41.465C35.5055 41.465 37.456 41.077 39.2759 40.3232C41.0958 39.5694 42.7494 38.4645 44.1422 37.0716C45.5351 35.6787 46.64 34.0252 47.3938 32.2053C48.1477 30.3854 48.5356 28.4348 48.5356 26.465C48.5356 24.4952 48.1477 22.5447 47.3938 20.7248C46.7678 19.2133 45.8995 17.8165 44.8253 16.5886C44.4616 16.1729 43.8257 16.175 43.4351 16.5655L40.0644 19.9363C39.6739 20.3268 39.6795 20.9567 40.0198 21.3916C40.4782 21.9776 40.8561 22.6242 41.142 23.3144C41.5558 24.3132 41.7687 25.3838 41.7687 26.465C41.7687 27.5462 41.5558 28.6168 41.142 29.6157C40.7283 30.6146 40.1218 31.5222 39.3573 32.2867C38.5928 33.0512 37.6852 33.6576 36.6863 34.0714C35.6874 34.4851 34.6168 34.6981 33.5356 34.6981C32.4545 34.6981 31.3839 34.4851 30.385 34.0714C29.6948 33.7855 29.0482 33.4076 28.4623 32.9492C28.0273 32.6088 27.3974 32.6033 27.0069 32.9938L23.6361 36.3645Z" fill="url(#paint1_linear_1485_3660)"/>
<path d="M76.9027 39.5H72.6186L79.1463 20.5909H84.2983L90.8168 39.5H86.5327L81.7962 24.9119H81.6484L76.9027 39.5ZM76.6349 32.0675H86.7543V35.1882H76.6349V32.0675ZM93.5388 44.8182V25.3182H97.4167V27.7003H97.5921C97.7644 27.3187 98.0137 26.9309 98.34 26.5369C98.6723 26.1368 99.1032 25.8045 99.6326 25.5398C100.168 25.2689 100.833 25.1335 101.627 25.1335C102.661 25.1335 103.615 25.4044 104.489 25.946C105.363 26.4815 106.062 27.291 106.585 28.3743C107.108 29.4515 107.37 30.8026 107.37 32.4276C107.37 34.0095 107.114 35.3452 106.603 36.4347C106.099 37.518 105.409 38.3397 104.535 38.8999C103.667 39.4538 102.695 39.7308 101.618 39.7308C100.854 39.7308 100.205 39.6046 99.6695 39.3523C99.1401 39.0999 98.7062 38.7829 98.3677 38.4013C98.0291 38.0135 97.7706 37.6226 97.5921 37.2287H97.4721V44.8182H93.5388ZM97.389 32.4091C97.389 33.2524 97.5059 33.9879 97.7398 34.6158C97.9737 35.2436 98.3123 35.733 98.7554 36.0838C99.1986 36.4285 99.7372 36.6009 100.371 36.6009C101.011 36.6009 101.553 36.4254 101.996 36.0746C102.439 35.7176 102.775 35.2251 103.003 34.5973C103.237 33.9633 103.353 33.2339 103.353 32.4091C103.353 31.5904 103.24 30.8703 103.012 30.2486C102.784 29.6269 102.449 29.1406 102.005 28.7898C101.562 28.4389 101.018 28.2635 100.371 28.2635C99.7311 28.2635 99.1894 28.4328 98.7462 28.7713C98.3092 29.1098 97.9737 29.59 97.7398 30.2116C97.5059 30.8333 97.389 31.5658 97.389 32.4091ZM114.445 20.5909V39.5H110.512V20.5909H114.445ZM124.524 39.777C123.089 39.777 121.849 39.4723 120.803 38.8629C119.762 38.2474 118.959 37.3918 118.393 36.2962C117.827 35.1944 117.543 33.9171 117.543 32.4645C117.543 30.9995 117.827 29.7192 118.393 28.6236C118.959 27.5218 119.762 26.6662 120.803 26.0568C121.849 25.4413 123.089 25.1335 124.524 25.1335C125.958 25.1335 127.195 25.4413 128.235 26.0568C129.282 26.6662 130.088 27.5218 130.654 28.6236C131.221 29.7192 131.504 30.9995 131.504 32.4645C131.504 33.9171 131.221 35.1944 130.654 36.2962C130.088 37.3918 129.282 38.2474 128.235 38.8629C127.195 39.4723 125.958 39.777 124.524 39.777ZM124.542 36.7301C125.195 36.7301 125.739 36.5455 126.176 36.1761C126.613 35.8007 126.943 35.2898 127.164 34.6435C127.392 33.9972 127.506 33.2616 127.506 32.4368C127.506 31.612 127.392 30.8764 127.164 30.2301C126.943 29.5838 126.613 29.0729 126.176 28.6974C125.739 28.322 125.195 28.1342 124.542 28.1342C123.883 28.1342 123.329 28.322 122.88 28.6974C122.437 29.0729 122.101 29.5838 121.874 30.2301C121.652 30.8764 121.541 31.612 121.541 32.4368C121.541 33.2616 121.652 33.9972 121.874 34.6435C122.101 35.2898 122.437 35.8007 122.88 36.1761C123.329 36.5455 123.883 36.7301 124.542 36.7301ZM134.581 39.5V25.3182H138.33V27.8203H138.496C138.791 26.9893 139.284 26.3338 139.973 25.8537C140.663 25.3736 141.487 25.1335 142.448 25.1335C143.42 25.1335 144.248 25.3767 144.931 25.8629C145.615 26.343 146.07 26.9955 146.298 27.8203H146.446C146.735 27.0078 147.258 26.3584 148.015 25.8722C148.778 25.3797 149.68 25.1335 150.72 25.1335C152.044 25.1335 153.118 25.5552 153.943 26.3984C154.774 27.2356 155.189 28.4235 155.189 29.9624V39.5H151.265V30.7379C151.265 29.95 151.056 29.3591 150.637 28.9652C150.219 28.5713 149.696 28.3743 149.068 28.3743C148.354 28.3743 147.797 28.602 147.397 29.0575C146.996 29.5069 146.796 30.1009 146.796 30.8395V39.5H142.983V30.6548C142.983 29.9593 142.783 29.4053 142.383 28.9929C141.989 28.5805 141.469 28.3743 140.823 28.3743C140.386 28.3743 139.992 28.4851 139.641 28.7067C139.296 28.9221 139.022 29.2268 138.819 29.6207C138.616 30.0085 138.514 30.464 138.514 30.9872V39.5H134.581ZM158.89 39.5V20.5909H162.823V27.7003H162.943C163.116 27.3187 163.365 26.9309 163.691 26.5369C164.023 26.1368 164.454 25.8045 164.984 25.5398C165.519 25.2689 166.184 25.1335 166.978 25.1335C168.012 25.1335 168.966 25.4044 169.84 25.946C170.714 26.4815 171.413 27.291 171.936 28.3743C172.459 29.4515 172.721 30.8026 172.721 32.4276C172.721 34.0095 172.465 35.3452 171.955 36.4347C171.45 37.518 170.76 38.3397 169.886 38.8999C169.019 39.4538 168.046 39.7308 166.969 39.7308C166.206 39.7308 165.556 39.6046 165.021 39.3523C164.491 39.0999 164.057 38.7829 163.719 38.4013C163.38 38.0135 163.122 37.6226 162.943 37.2287H162.768V39.5H158.89ZM162.74 32.4091C162.74 33.2524 162.857 33.9879 163.091 34.6158C163.325 35.2436 163.663 35.733 164.107 36.0838C164.55 36.4285 165.088 36.6009 165.722 36.6009C166.362 36.6009 166.904 36.4254 167.347 36.0746C167.791 35.7176 168.126 35.2251 168.354 34.5973C168.588 33.9633 168.705 33.2339 168.705 32.4091C168.705 31.5904 168.591 30.8703 168.363 30.2486C168.135 29.6269 167.8 29.1406 167.357 28.7898C166.913 28.4389 166.369 28.2635 165.722 28.2635C165.082 28.2635 164.541 28.4328 164.097 28.7713C163.66 29.1098 163.325 29.59 163.091 30.2116C162.857 30.8333 162.74 31.5658 162.74 32.4091Z" fill="#030303"/>
<path d="M186.197 26.0291C186.123 25.2843 185.806 24.7057 185.246 24.2933C184.686 23.8809 183.926 23.6747 182.966 23.6747C182.313 23.6747 181.762 23.767 181.313 23.9517C180.863 24.1302 180.519 24.3795 180.279 24.6996C180.045 25.0196 179.928 25.3828 179.928 25.7891C179.916 26.1276 179.986 26.4231 180.14 26.6754C180.3 26.9278 180.519 27.1463 180.796 27.331C181.073 27.5095 181.393 27.6664 181.756 27.8018C182.119 27.9311 182.507 28.0419 182.919 28.1342L184.618 28.5405C185.443 28.7251 186.2 28.9714 186.89 29.2791C187.579 29.5869 188.176 29.9654 188.681 30.4148C189.185 30.8641 189.576 31.3935 189.853 32.0028C190.136 32.6122 190.281 33.3108 190.287 34.0987C190.281 35.2559 189.986 36.2592 189.401 37.1087C188.822 37.9519 187.985 38.6075 186.89 39.0753C185.8 39.5369 184.486 39.7678 182.947 39.7678C181.421 39.7678 180.091 39.5339 178.958 39.0661C177.832 38.5982 176.952 37.9058 176.318 36.9886C175.69 36.0653 175.361 34.9235 175.33 33.5632H179.198C179.242 34.1972 179.423 34.7266 179.743 35.1513C180.069 35.5698 180.503 35.8868 181.045 36.1023C181.593 36.3116 182.212 36.4162 182.901 36.4162C183.578 36.4162 184.166 36.3177 184.664 36.1207C185.169 35.9238 185.56 35.6499 185.837 35.299C186.114 34.9482 186.252 34.545 186.252 34.0895C186.252 33.6648 186.126 33.3078 185.874 33.0185C185.628 32.7292 185.265 32.483 184.784 32.2798C184.31 32.0767 183.729 31.892 183.039 31.7259L180.98 31.2088C179.386 30.821 178.127 30.2147 177.204 29.3899C176.281 28.5651 175.822 27.4541 175.828 26.0568C175.822 24.9119 176.127 23.9117 176.743 23.0561C177.364 22.2005 178.217 21.5327 179.3 21.0526C180.383 20.5724 181.614 20.3324 182.993 20.3324C184.397 20.3324 185.622 20.5724 186.668 21.0526C187.721 21.5327 188.539 22.2005 189.124 23.0561C189.709 23.9117 190.01 24.9027 190.029 26.0291H186.197ZM195.851 44.8182C195.352 44.8182 194.884 44.7782 194.447 44.6982C194.016 44.6243 193.659 44.5289 193.376 44.4119L194.263 41.4759C194.724 41.6174 195.14 41.6944 195.509 41.7067C195.885 41.719 196.208 41.6328 196.479 41.4482C196.756 41.2635 196.98 40.9496 197.153 40.5064L197.383 39.9062L192.296 25.3182H196.432L199.369 35.733H199.516L202.48 25.3182H206.644L201.132 41.0327C200.867 41.7959 200.507 42.4607 200.052 43.027C199.602 43.5994 199.033 44.0395 198.344 44.3473C197.654 44.6612 196.823 44.8182 195.851 44.8182ZM213.11 31.3011V39.5H209.177V25.3182H212.925V27.8203H213.092C213.406 26.9955 213.932 26.343 214.67 25.8629C215.409 25.3767 216.305 25.1335 217.357 25.1335C218.342 25.1335 219.201 25.349 219.933 25.7798C220.666 26.2107 221.235 26.8262 221.641 27.6264C222.048 28.4205 222.251 29.3684 222.251 30.4702V39.5H218.317V31.1719C218.324 30.304 218.102 29.6269 217.653 29.1406C217.203 28.6482 216.585 28.402 215.797 28.402C215.268 28.402 214.8 28.5159 214.393 28.7436C213.993 28.9714 213.679 29.3037 213.452 29.7408C213.23 30.1716 213.116 30.6918 213.11 31.3011ZM232.278 39.777C230.826 39.777 229.576 39.4692 228.53 38.8537C227.49 38.232 226.689 37.3703 226.129 36.2685C225.575 35.1667 225.298 33.8987 225.298 32.4645C225.298 31.0118 225.578 29.7377 226.138 28.642C226.705 27.5402 227.508 26.6816 228.548 26.0661C229.588 25.4444 230.826 25.1335 232.26 25.1335C233.497 25.1335 234.58 25.3582 235.51 25.8075C236.439 26.2569 237.175 26.8878 237.717 27.7003C238.258 28.5128 238.557 29.4669 238.612 30.5625H234.901C234.796 29.8546 234.519 29.2853 234.07 28.8544C233.626 28.4174 233.045 28.1989 232.325 28.1989C231.715 28.1989 231.183 28.3651 230.727 28.6974C230.278 29.0237 229.927 29.5007 229.675 30.1286C229.422 30.7564 229.296 31.5166 229.296 32.4091C229.296 33.3139 229.419 34.0833 229.665 34.7173C229.918 35.3513 230.272 35.8345 230.727 36.1669C231.183 36.4993 231.715 36.6655 232.325 36.6655C232.774 36.6655 233.177 36.5732 233.534 36.3885C233.897 36.2038 234.196 35.9361 234.43 35.5852C234.67 35.2282 234.827 34.8004 234.901 34.3018H238.612C238.551 35.3852 238.255 36.3393 237.726 37.1641C237.203 37.9827 236.479 38.6229 235.556 39.0845C234.633 39.5462 233.54 39.777 232.278 39.777Z" fill="#6F31FF"/>
<defs>
<linearGradient id="paint0_linear_1485_3660" x1="37.0714" y1="22.9294" x2="15.8582" y2="44.1426" gradientUnits="userSpaceOnUse">
<stop stop-color="#421D99"/>
<stop offset="1" stop-color="#6F31FF"/>
</linearGradient>
<linearGradient id="paint1_linear_1485_3660" x1="44.1422" y1="15.8584" x2="22.929" y2="37.0716" gradientUnits="userSpaceOnUse">
<stop stop-color="#6F31FF"/>
<stop offset="1" stop-color="#421D99"/>
</linearGradient>
</defs>
</svg>
