<svg width="147" height="40" viewBox="0 0 147 40" fill="none" xmlns="http://www.w3.org/2000/svg">
<mask id="mask0_83_369" style="mask-type:luminance" maskUnits="userSpaceOnUse" x="17" y="8" width="20" height="26">
<path d="M20.5213 21.4315C20.5213 15.205 24.6401 10.1575 29.721 10.1575C32.3053 10.1575 34.641 11.4636 36.312 13.5663C34.3946 10.2013 31.2113 8 27.6081 8C21.7494 8 17 13.8202 17 21C17 28.1798 21.7494 34 27.6081 34C29.9471 34 32.1094 33.0723 33.8631 31.5007C32.6184 32.2713 31.2109 32.7052 29.721 32.7052C24.6401 32.7052 20.5213 27.658 20.5213 21.4315Z" fill="white"/>
</mask>
<g mask="url(#mask0_83_369)">
<g filter="url(#filter0_f_83_369)">
<path d="M17.0005 34H35.484V7.99902H17.0005V34Z" fill="url(#paint0_linear_83_369)"/>
</g>
</g>
<mask id="mask1_83_369" style="mask-type:luminance" maskUnits="userSpaceOnUse" x="3" y="11" width="17" height="27">
<path d="M16.3361 24.9483C16.3361 18.4823 12.8575 13.2408 8.56634 13.2408C6.38373 13.2408 4.41131 14.5968 3 16.7803C4.61919 13.286 7.30787 11 10.351 11C15.2989 11 19.31 17.0442 19.31 24.5C19.31 31.9558 15.2989 38 10.351 38C8.37539 38 6.54917 37.0368 5.06807 35.4048C6.11951 36.2048 7.30803 36.6556 8.56634 36.6556C12.8575 36.6556 16.3361 31.4141 16.3361 24.9483Z" fill="white"/>
</mask>
<g mask="url(#mask1_83_369)">
<path d="M3.00049 39.9606H19.31V11.0015H3.00049V39.9606Z" fill="url(#paint1_linear_83_369)"/>
</g>
<circle cx="17" cy="5" r="3" fill="url(#paint2_radial_83_369)"/>
<path d="M41.9043 29V10.8457H50.4102C53.8633 10.8457 55.5898 12.2549 55.5898 15.0732C55.5898 17.1383 54.4642 18.6152 52.2129 19.5039C54.6165 19.9525 55.8184 21.3278 55.8184 23.6299C55.8184 27.21 53.9268 29 50.1436 29H41.9043ZM50.0039 26.0801C51.4935 26.0801 52.2383 25.3184 52.2383 23.7949C52.2383 21.9076 51.1253 20.9639 48.8994 20.9639H47.8838V18.793C50.6768 18.3275 52.0732 17.1595 52.0732 15.2891C52.0732 14.2734 51.4469 13.7656 50.1943 13.7656H45.2685V26.0801H50.0039ZM58.3701 29V15.6699H60.9727L61.3916 17.3711C62.5596 16.237 63.7952 15.6699 65.0986 15.6699V18.3867C63.846 18.3867 62.7246 18.9072 61.7344 19.9482V29H58.3701ZM70.3672 10.8457V13.5117H67.0029V10.8457H70.3672ZM70.3672 15.6699V29H67.0029V15.6699H70.3672ZM81.9961 19.1484C81.3021 18.6914 80.4303 18.4629 79.3809 18.4629C77.2904 18.4629 76.2451 19.6351 76.2451 21.9795C76.2451 24.764 77.3327 26.1562 79.5078 26.1562C80.388 26.1562 81.2174 26.0335 81.9961 25.7881V19.1484ZM85.3604 28.2002C83.3206 28.7334 81.3275 29 79.3809 29C75.0729 29 72.9189 26.6895 72.9189 22.0684C72.9189 17.8027 75.0264 15.6699 79.2412 15.6699C80.1383 15.6699 81.0566 15.8815 81.9961 16.3047V10.8457H85.3604V28.2002ZM97.0654 18.6914C96.5153 18.4883 95.7324 18.3867 94.7168 18.3867C92.3893 18.3867 91.2256 19.6689 91.2256 22.2334C91.2256 24.7132 92.2285 25.9531 94.2344 25.9531C95.1992 25.9531 96.1429 25.7246 97.0654 25.2676V18.6914ZM100.43 27.9844C100.43 31.8776 98.0895 33.8242 93.4092 33.8242C91.7673 33.8242 90.3115 33.6126 89.042 33.1895V30.5234C90.3369 30.9466 91.8011 31.1582 93.4346 31.1582C95.8551 31.1582 97.0654 30.1426 97.0654 28.1113C96.0667 28.5345 94.9919 28.7461 93.8408 28.7461C89.8799 28.7461 87.8994 26.5837 87.8994 22.2588C87.8994 17.8662 90.2057 15.6699 94.8184 15.6699C96.3672 15.6699 98.2376 15.8519 100.43 16.2158V27.9844ZM109.24 15.6699C113.286 15.6699 115.309 17.735 115.309 21.8652C115.309 22.4154 115.271 22.9655 115.194 23.5156H106.346C106.346 25.3945 107.725 26.334 110.484 26.334C111.83 26.334 113.176 26.207 114.521 25.9531V28.6191C113.345 28.873 111.915 29 110.23 29C105.398 29 102.981 26.7275 102.981 22.1826C102.981 17.8408 105.068 15.6699 109.24 15.6699ZM106.346 21.1797H112.033V21.0781C112.033 19.2331 111.102 18.3105 109.24 18.3105C107.463 18.3105 106.498 19.2669 106.346 21.1797Z" fill="#6F31FF"/>
<path d="M118.152 29V10.8457H121.517V18.3359H130.467V10.8457H133.831V29H130.467V21.2559H121.517V29H118.152Z" fill="url(#paint3_linear_83_369)"/>
<path d="M130.904 28.9746V10.8457H139.156C142.863 10.8457 144.717 12.4665 144.717 15.708C144.717 17.9001 143.274 19.7155 140.388 21.1543L146.139 29H141.898L136.376 21.0908V19.5547C139.592 19.0046 141.2 17.7562 141.2 15.8096C141.2 14.4723 140.447 13.8037 138.94 13.8037H134.332V28.9746H130.904Z" fill="url(#paint4_linear_83_369)"/>
<defs>
<filter id="filter0_f_83_369" x="8.00049" y="-1.00098" width="36.4834" height="44.001" filterUnits="userSpaceOnUse" color-interpolation-filters="sRGB">
<feFlood flood-opacity="0" result="BackgroundImageFix"/>
<feBlend mode="normal" in="SourceGraphic" in2="BackgroundImageFix" result="shape"/>
<feGaussianBlur stdDeviation="4.5" result="effect1_foregroundBlur_83_369"/>
</filter>
<linearGradient id="paint0_linear_83_369" x1="26.2422" y1="7.99902" x2="26.2422" y2="34" gradientUnits="userSpaceOnUse">
<stop stop-color="#9A03FF"/>
<stop offset="1" stop-color="#5C0299"/>
</linearGradient>
<linearGradient id="paint1_linear_83_369" x1="8.5" y1="39.5001" x2="10.166" y2="11.0978" gradientUnits="userSpaceOnUse">
<stop stop-color="#A29AFF"/>
<stop offset="1" stop-color="#6F31FF"/>
</linearGradient>
<radialGradient id="paint2_radial_83_369" cx="0" cy="0" r="1" gradientTransform="matrix(2.79963 3.84134 -3.80431 2.70022 16.4001 3.53653)" gradientUnits="userSpaceOnUse">
<stop stop-color="#A9A2FF"/>
<stop offset="1" stop-color="#4A3AFF"/>
</radialGradient>
<linearGradient id="paint3_linear_83_369" x1="125.992" y1="10.8457" x2="125.992" y2="29" gradientUnits="userSpaceOnUse">
<stop stop-color="#9A03FF"/>
<stop offset="1" stop-color="#CC81FF"/>
</linearGradient>
<linearGradient id="paint4_linear_83_369" x1="138.522" y1="10.8457" x2="138.522" y2="29" gradientUnits="userSpaceOnUse">
<stop stop-color="#9A03FF"/>
<stop offset="1" stop-color="#CC81FF"/>
</linearGradient>
</defs>
</svg>
