<svg width="200" height="34" viewBox="0 0 200 34" fill="none" xmlns="http://www.w3.org/2000/svg">
<g clip-path="url(#clip0_84_1114)">
<path d="M34.3488 16.9668C34.3488 26.3375 26.6597 33.9373 17.1763 33.9373C7.68914 33.9373 0 26.3375 0 16.9668C0 7.59614 7.68914 0 17.1763 0C26.6597 0 34.3488 7.59614 34.3488 16.9668Z" fill="url(#paint0_radial_84_1114)"/>
<path d="M124.058 7.76217C124.417 7.69945 124.772 7.95401 124.805 8.34138C124.805 8.4041 124.805 8.46681 124.805 8.53322V25.9169C124.805 25.9796 124.772 26.0128 124.772 26.0755C124.742 26.1751 124.675 26.2379 124.611 26.3006C124.577 26.3338 124.544 26.367 124.514 26.3965C124.447 26.4297 124.383 26.4629 124.32 26.4961H123.83L123.703 26.4297L123.635 26.3965C123.606 26.367 123.572 26.367 123.538 26.3338L123.505 26.3006C115.423 18.3134 110.033 13.023 107.338 10.3594V25.7878C107.304 26.2047 106.949 26.5256 106.526 26.4961C106.138 26.4629 105.842 26.1751 105.812 25.7878V8.53322C105.812 8.46681 105.812 8.4373 105.812 8.37089V8.34138C105.812 8.30818 105.842 8.27497 105.842 8.24177C105.876 8.14585 105.94 8.08313 106.007 8.02042C106.007 8.02042 106.041 7.98721 106.07 7.98721L106.138 7.9245L106.265 7.85809L106.332 7.82489L106.396 7.79537H106.721C106.754 7.79537 106.784 7.82489 106.818 7.82489L106.882 7.85809L106.949 7.89129L107.012 7.9245C107.012 7.9245 107.046 7.95401 107.076 7.98721L107.11 8.02042C115.195 16.0039 120.552 21.298 123.28 23.9616V8.53322C123.213 8.17905 123.475 7.82489 123.83 7.76217C123.897 7.76217 123.961 7.76217 124.058 7.76217Z" fill="#404041"/>
<path d="M106.362 7.76217C106.721 7.69945 107.076 7.95401 107.11 8.34138C107.11 8.4041 107.11 8.46681 107.11 8.53322V25.9169C107.11 25.9796 107.076 26.0128 107.076 26.0755C107.047 26.1751 106.979 26.2379 106.916 26.3006C106.882 26.3338 106.852 26.367 106.819 26.3965C106.755 26.4297 106.688 26.4629 106.624 26.4961H106.138L106.007 26.4297L105.94 26.3965C105.91 26.367 105.877 26.367 105.843 26.3338V26.3006C97.7613 18.3134 92.371 13.023 89.6759 10.3594V25.7878C89.6759 26.2047 89.3507 26.5256 88.9283 26.5256C88.5059 26.5256 88.1807 26.2047 88.1807 25.7878V8.53322C88.1807 8.46681 88.1807 8.4373 88.1807 8.37089V8.34138C88.1807 8.30818 88.2143 8.27497 88.2143 8.24177C88.2479 8.14585 88.3115 8.08313 88.3788 8.02042C88.3788 8.02042 88.4087 7.98721 88.4423 7.98721L88.5059 7.9245L88.5732 7.89129L88.7003 7.82489L88.7675 7.79537H89.0927C89.1226 7.79537 89.1563 7.82489 89.1899 7.82489L89.317 7.89129L89.3843 7.9245C89.3843 7.9245 89.4142 7.95401 89.4479 7.98721L89.4815 8.02042C97.5669 16.0039 102.953 21.298 105.649 23.9616V8.53322C105.585 8.17905 105.843 7.82489 106.202 7.76217C106.202 7.76217 106.265 7.76217 106.362 7.76217Z" fill="#404041"/>
<path d="M130.779 26.4961C130.424 26.5589 130.065 26.3006 130.031 25.9169C130.031 25.8542 130.031 25.7878 130.031 25.7251V8.53326C130.031 8.11637 130.356 7.79541 130.779 7.79541C131.201 7.79541 131.526 8.11637 131.526 8.53326V25.7583C131.59 26.1088 131.332 26.4629 130.973 26.5257C130.91 26.5257 130.842 26.5257 130.779 26.4961Z" fill="#404041"/>
<path d="M136.427 26.4961C136.072 26.5588 135.713 26.3006 135.683 25.9169C135.683 25.8542 135.683 25.7878 135.683 25.725V8.5332C135.616 8.17904 135.878 7.82487 136.233 7.76215C136.3 7.76215 136.364 7.76215 136.427 7.76215H153.865C154.22 7.72895 154.579 7.98719 154.609 8.34136C154.609 8.40408 154.609 8.4668 154.609 8.5332C154.676 8.88368 154.415 9.23785 154.06 9.27105C153.992 9.27105 153.929 9.27105 153.865 9.27105H137.175V16.3913H153.865C154.288 16.3913 154.609 16.7418 154.609 17.1586C154.609 17.5755 154.254 17.8965 153.865 17.8965H137.175V25.0204H153.865C154.288 25.0204 154.609 25.3709 154.609 25.7582C154.609 26.1419 154.254 26.4961 153.865 26.4961H136.427Z" fill="#404041"/>
<path d="M158.702 26.1419C158.343 26.2046 157.988 25.9501 157.954 25.5627C157.954 25.5 157.954 25.4373 157.954 25.3708V8.11629C157.954 8.04989 157.954 8.02037 157.988 7.95397C157.988 7.92445 158.018 7.85805 158.051 7.82484C158.085 7.79533 158.085 7.76213 158.115 7.72892L158.182 7.66621L158.212 7.633C158.246 7.60349 158.246 7.60349 158.279 7.57029C158.313 7.53708 158.343 7.53708 158.376 7.50388L158.474 7.47437L158.605 7.44116H158.833L158.93 7.47437H158.96L159.027 7.50388C159.057 7.50388 159.057 7.53708 159.09 7.53708C159.124 7.53708 159.124 7.57029 159.154 7.57029L159.221 7.633L159.251 7.66621C159.251 7.69941 159.285 7.69941 159.318 7.72892C159.318 7.76213 159.348 7.76213 159.348 7.79533L159.382 7.82484L167.404 23.7033L175.456 7.82484C175.456 7.79533 175.486 7.76213 175.519 7.72892C175.553 7.69941 175.553 7.69941 175.583 7.66621L175.68 7.57029C175.714 7.57029 175.714 7.53708 175.747 7.53708L175.811 7.50388C175.878 7.47437 175.942 7.44116 176.039 7.44116H176.267C176.364 7.44116 176.461 7.47437 176.525 7.53708L176.592 7.57029C176.622 7.57029 176.622 7.60349 176.656 7.633L176.753 7.72892C176.786 7.76213 176.816 7.79533 176.816 7.82484C176.816 7.85805 176.85 7.85805 176.85 7.89125C176.884 7.92445 176.884 7.98717 176.884 8.04989V25.4041C176.884 25.8209 176.558 26.1419 176.136 26.1419C175.714 26.1419 175.388 25.8209 175.388 25.4041V11.3222L168.118 25.6918C168.118 25.725 168.084 25.7582 168.051 25.7877C168.021 25.8209 167.987 25.8541 167.953 25.8837C167.923 25.9169 167.856 25.9501 167.823 25.9796L167.759 26.0128C167.695 26.046 167.628 26.0755 167.565 26.0755H167.273C167.206 26.0755 167.109 26.046 167.045 26.0128C167.011 25.9796 166.948 25.9501 166.914 25.9169L166.817 25.8209C166.787 25.7582 166.753 25.725 166.72 25.6586L159.416 11.2595V25.3081C159.479 25.6586 159.221 26.0128 158.862 26.0755C158.833 26.1751 158.765 26.1751 158.702 26.1419Z" fill="#404041"/>
<path d="M181.785 26.1419C181.43 26.2046 181.071 25.9501 181.041 25.5627C181.041 25.5 181.041 25.4373 181.041 25.3708V8.17901C180.974 7.82484 181.235 7.47436 181.59 7.40796C181.658 7.40796 181.721 7.40796 181.785 7.40796H190.521C191.788 7.40796 193.051 7.66621 194.221 8.14581C199.025 10.1675 201.297 15.6534 199.253 20.431C198.8 21.5562 198.086 22.5486 197.208 23.4156C195.421 25.179 193.021 26.1419 190.521 26.1751H181.785V26.1419ZM182.532 8.91686V24.633H190.487C192.599 24.633 194.61 23.7992 196.105 22.3235C196.849 21.6189 197.402 20.7519 197.825 19.8222C198.669 17.8669 198.669 15.6534 197.825 13.6944C197.436 12.7647 196.849 11.9014 196.105 11.1931C194.61 9.71742 192.599 8.88365 190.487 8.88365L182.532 8.91686Z" fill="#404041"/>
<path d="M46.3331 20.7851C45.3239 18.4424 45.3239 15.812 46.3331 13.473C48.3778 8.69179 53.9625 6.47824 58.7995 8.49995C59.9022 8.97955 60.9077 9.65468 61.7862 10.4884C61.9469 10.6176 62.0441 10.8094 62.0441 11.0012C62.0441 11.1931 61.917 11.3849 61.7862 11.5141C61.6553 11.6764 61.461 11.7723 61.2329 11.7723C61.0386 11.7723 60.8442 11.6764 60.7134 11.5141C57.5958 8.43723 52.5644 8.43723 49.4469 11.5141C46.3331 14.5946 46.3331 19.5677 49.4469 22.6445C52.5644 25.725 57.5958 25.725 60.7134 22.6445C60.8442 22.4858 61.0386 22.3899 61.2329 22.3567C61.6553 22.4194 61.9806 22.7404 62.0441 23.1573C62.0441 23.3491 61.917 23.5447 61.7862 23.7033C60.9077 24.5703 59.9022 25.2417 58.7658 25.6918C56.3959 26.6879 53.7344 26.6879 51.3944 25.6918C49.1217 24.8248 47.305 23.0318 46.3331 20.7851Z" fill="#404041"/>
<path d="M83.2799 13.5025C84.2855 15.8452 84.2855 18.4756 83.2799 20.8183C82.794 21.9398 82.1099 22.9322 81.2352 23.7992C77.5645 27.4552 71.5574 27.4552 67.8568 23.8324L67.8231 23.7992C66.9484 22.9654 66.2681 21.9398 65.7784 20.8183C63.6702 16.0702 65.8457 10.5511 70.6491 8.4667C75.4562 6.38228 81.0408 8.53311 83.1491 13.2775C83.2126 13.3439 83.2463 13.4398 83.2799 13.5025ZM80.1624 22.7108C80.91 22.0025 81.4595 21.1392 81.8819 20.2059C82.7267 18.2506 82.7267 16.037 81.8819 14.0817C81.4931 13.152 80.91 12.2851 80.1624 11.5804C77.0449 8.4999 72.0135 8.4999 68.896 11.5804C65.7784 14.6572 65.7784 19.6303 68.896 22.7108C72.0135 25.7877 77.0785 25.7877 80.1624 22.7108Z" fill="#404041"/>
<path d="M3.50586 23.2531L6.1038 21.4602L8.70173 19.6635C8.73164 19.6303 8.76528 19.6303 8.79892 19.6635L14.3836 22.9322L19.9682 26.2377L19.7738 26.2709L23.7324 22.5153L27.6947 18.7965L27.7283 19.0216L21.1045 14.4027C21.0373 14.3695 21.0373 14.2735 21.0709 14.2108L21.1045 14.1776L25.0631 11.0971L28.9918 8.0498L25.1603 11.2262L21.2989 14.4027V14.1776L27.9227 18.7965C27.9863 18.8593 28.0199 18.9552 27.9526 19.0216L27.9227 19.0511L23.994 22.8067L19.9981 26.5255C19.9345 26.5919 19.871 26.5919 19.8037 26.5587L14.2527 23.1904L8.70173 19.8554H8.83256L6.16734 21.5856L3.50586 23.2531Z" fill="white"/>
<mask id="mask0_84_1114" style="mask-type:luminance" maskUnits="userSpaceOnUse" x="0" y="0" width="200" height="34">
<path d="M200 0H0V34H200V0Z" fill="black" fill-opacity="0.8"/>
</mask>
<g mask="url(#mask0_84_1114)">
<mask id="mask1_84_1114" style="mask-type:luminance" maskUnits="userSpaceOnUse" x="0" y="0" width="200" height="34">
<path d="M200 0H0V34H200V0Z" fill="white"/>
</mask>
<g mask="url(#mask1_84_1114)">
<path d="M13.5393 2.85547L19.3183 6.64062C19.352 6.67014 19.352 6.70334 19.3183 6.70334L14.2196 10.4885L14.1897 10.3299L21.8191 11.7392L29.4821 13.1816C29.5456 13.2148 29.6092 13.2776 29.5792 13.344C29.5792 13.3772 29.5456 13.4399 29.4821 13.4399L16.4924 17.4796L16.5597 17.4169L11.1059 27.5217L11.0722 27.5512L7.46875 28.1304L11.0386 27.4553L11.0049 27.4885L16.3653 17.321C16.3653 17.2878 16.3952 17.2878 16.4288 17.2582L29.4148 13.1816V13.4399L21.7518 11.9974L14.1225 10.5217C14.0589 10.5217 14.0253 10.4553 14.0589 10.4258C14.0589 10.3926 14.0589 10.3926 14.0926 10.3594L19.2548 6.67014V6.73654L13.5393 2.85547Z" fill="white"/>
</g>
</g>
<path d="M20.5178 26.1419C20.5178 26.5256 20.1963 26.8465 19.8038 26.8465C19.4151 26.8465 19.0898 26.5256 19.0898 26.1419C19.0898 25.7582 19.4151 25.4373 19.8038 25.4373C20.1963 25.4373 20.5178 25.725 20.5178 26.1419Z" fill="white"/>
<path d="M28.3457 19.0218C28.3457 19.4055 28.0205 19.7265 27.6318 19.7265C27.2393 19.7265 26.9141 19.4055 26.9141 19.0218C26.9141 18.6344 27.2393 18.3135 27.6318 18.3135C28.0205 18.3135 28.3457 18.6344 28.3457 19.0218Z" fill="white"/>
<path d="M21.9162 14.307C21.9162 14.6906 21.591 15.0116 21.2022 15.0116C20.8135 15.0116 20.4883 14.6906 20.4883 14.307C20.4883 13.9196 20.8135 13.5986 21.2022 13.5986C21.591 13.5986 21.9162 13.8901 21.9162 14.307Z" fill="white"/>
<path d="M9.47969 19.7596C9.47969 20.1433 9.15448 20.4642 8.76572 20.4642C8.37697 20.4642 8.05176 20.1433 8.05176 19.7596C8.05176 19.3722 8.37697 19.0513 8.76572 19.0513C9.15448 19.0513 9.47969 19.3722 9.47969 19.7596Z" fill="white"/>
<mask id="mask2_84_1114" style="mask-type:luminance" maskUnits="userSpaceOnUse" x="0" y="0" width="200" height="34">
<path d="M200 0H0V34H200V0Z" fill="black" fill-opacity="0.701961"/>
</mask>
<g mask="url(#mask2_84_1114)">
<mask id="mask3_84_1114" style="mask-type:luminance" maskUnits="userSpaceOnUse" x="0" y="0" width="200" height="34">
<path d="M200 0H0V34H200V0Z" fill="white"/>
</mask>
<g mask="url(#mask3_84_1114)">
<path d="M11.4943 27.2968C11.4943 27.5513 11.2999 27.7469 11.0382 27.7469C10.7803 27.7469 10.5859 27.5513 10.5859 27.2968C10.5859 27.0385 10.7803 26.8467 11.0382 26.8467C11.2663 26.8467 11.4943 27.0385 11.4943 27.2968Z" fill="white"/>
</g>
</g>
<mask id="mask4_84_1114" style="mask-type:luminance" maskUnits="userSpaceOnUse" x="0" y="0" width="200" height="34">
<path d="M200 0H0V34H200V0Z" fill="black" fill-opacity="0.701961"/>
</mask>
<g mask="url(#mask4_84_1114)">
<mask id="mask5_84_1114" style="mask-type:luminance" maskUnits="userSpaceOnUse" x="0" y="0" width="200" height="34">
<path d="M200 0H0V34H200V0Z" fill="white"/>
</mask>
<g mask="url(#mask5_84_1114)">
<path d="M16.8512 17.4169C16.8512 17.6751 16.6568 17.867 16.3951 17.867C16.1372 17.867 15.9092 17.6751 15.9092 17.4169C15.9092 17.1586 16.1036 16.9668 16.3652 16.9668C16.6568 16.9668 16.8512 17.1586 16.8512 17.4169Z" fill="white"/>
</g>
</g>
<mask id="mask6_84_1114" style="mask-type:luminance" maskUnits="userSpaceOnUse" x="0" y="0" width="200" height="34">
<path d="M200 0H0V34H200V0Z" fill="black" fill-opacity="0.701961"/>
</mask>
<g mask="url(#mask6_84_1114)">
<mask id="mask7_84_1114" style="mask-type:luminance" maskUnits="userSpaceOnUse" x="0" y="0" width="200" height="34">
<path d="M200 0H0V34H200V0Z" fill="white"/>
</mask>
<g mask="url(#mask7_84_1114)">
<path d="M29.7062 13.2147C29.7062 13.473 29.5118 13.6648 29.2539 13.6648C28.9922 13.6648 28.7979 13.473 28.7979 13.2147C28.7979 12.9602 28.9922 12.7646 29.2539 12.7646C29.5118 12.7646 29.7062 12.9897 29.7062 13.2147Z" fill="white"/>
</g>
</g>
<path d="M14.6417 10.4258C14.6417 10.6803 14.4474 10.8722 14.1894 10.8722C13.9278 10.8722 13.7334 10.6803 13.7334 10.4258C13.7334 10.1675 13.9278 9.97568 14.1894 9.97568C14.4137 9.94247 14.6417 10.1675 14.6417 10.4258Z" fill="white"/>
<mask id="mask8_84_1114" style="mask-type:luminance" maskUnits="userSpaceOnUse" x="0" y="0" width="200" height="34">
<path d="M200 0H0V34H200V0Z" fill="black" fill-opacity="0.701961"/>
</mask>
<g mask="url(#mask8_84_1114)">
<mask id="mask9_84_1114" style="mask-type:luminance" maskUnits="userSpaceOnUse" x="0" y="0" width="200" height="34">
<path d="M200 0H0V34H200V0Z" fill="white"/>
</mask>
<g mask="url(#mask9_84_1114)">
<path d="M19.6095 6.64052C19.6095 6.89507 19.4151 7.08691 19.1572 7.08691C18.8956 7.08691 18.7012 6.89507 18.7012 6.64052C18.7012 6.38227 18.8956 6.19043 19.1572 6.19043C19.4151 6.19043 19.6095 6.38227 19.6095 6.64052Z" fill="white"/>
</g>
</g>
</g>
<defs>
<radialGradient id="paint0_radial_84_1114" cx="0" cy="0" r="1" gradientUnits="userSpaceOnUse" gradientTransform="translate(17.1752 16.9618) scale(17.1668 16.9595)">
<stop stop-color="#00C0F0"/>
<stop offset="0.44" stop-color="#00BEEF"/>
<stop offset="0.6" stop-color="#00B7EA"/>
<stop offset="0.72" stop-color="#00ACE1"/>
<stop offset="0.81" stop-color="#009BD4"/>
<stop offset="0.89" stop-color="#0085C4"/>
<stop offset="0.96" stop-color="#006AB1"/>
<stop offset="1" stop-color="#0056A2"/>
</radialGradient>
<clipPath id="clip0_84_1114">
<rect width="200" height="34" fill="white"/>
</clipPath>
</defs>
</svg>
