<svg width="126" height="34" viewBox="0 0 126 34" fill="none" xmlns="http://www.w3.org/2000/svg">
<g clip-path="url(#clip0_84_1089)">
<path d="M12.6268 22.5473H4.22465V25.8156H11.3792V28.1315H4.22465V33.5288H0.685547V20.2314H12.6268V22.5473Z" fill="black"/>
<path d="M27.1356 28.9719C27.1356 30.3539 26.4991 31.4807 25.2261 32.3523C23.953 33.2114 22.3659 33.6409 20.4648 33.6409C18.5637 33.6409 16.9766 33.2114 15.7035 32.3523C14.4305 31.4807 13.7939 30.3539 13.7939 28.9719V20.2314H17.333V28.8785C17.333 29.638 17.6131 30.2356 18.1733 30.6714C18.7334 31.1072 19.4972 31.3251 20.4648 31.3251C21.4323 31.3251 22.1961 31.1072 22.7563 30.6714C23.3334 30.2356 23.622 29.638 23.622 28.8785V20.2314H27.1356V28.9719Z" fill="black"/>
<path d="M41.4725 29.6069C41.4725 30.8644 40.8445 31.8542 39.5884 32.5764C38.3323 33.2861 36.7198 33.6409 34.7508 33.6409C33.308 33.6409 32.0604 33.5102 31.008 33.2487C29.9556 32.9748 28.9965 32.5203 28.1309 31.8853L30.4224 30.2045C31.4408 30.9515 32.8921 31.3251 34.7762 31.3251C35.8286 31.3251 36.6264 31.1819 37.1696 30.8955C37.7297 30.6091 38.0098 30.1983 38.0098 29.6629C38.0098 29.2022 37.8231 28.8349 37.4496 28.561C37.1271 28.3369 36.584 28.1875 35.8201 28.1128L33.6559 27.87C32.1283 27.7081 30.957 27.3408 30.1423 26.7681C29.2766 26.1456 28.8438 25.274 28.8438 24.1535C28.8438 22.9457 29.4124 21.9745 30.5497 21.2399C31.6869 20.4929 33.2231 20.1194 35.1581 20.1194C37.6024 20.1194 39.5544 20.6361 41.0142 21.6695L38.7736 23.2943C37.9249 22.6842 36.6858 22.3792 35.0563 22.3792C34.1567 22.3792 33.4692 22.541 32.9939 22.8648C32.5187 23.176 32.281 23.5745 32.281 24.0601C32.281 24.4585 32.4508 24.776 32.7902 25.0126C33.1807 25.274 33.7323 25.4421 34.4452 25.5168L36.6094 25.7596C38.1541 25.9215 39.3083 26.2701 40.0721 26.8055C41.0057 27.4404 41.4725 28.3742 41.4725 29.6069Z" fill="black"/>
<path d="M46.5479 33.5288H43.0088V20.2314H46.5479V33.5288Z" fill="black"/>
<path d="M61.7482 23.53C61.9519 24.2646 62.0538 25.379 62.0538 26.873C62.0538 28.3671 61.9519 29.4815 61.7482 30.2161C61.5445 30.9507 61.0268 31.623 60.1951 32.2331C58.922 33.1669 57.3095 33.6338 55.3575 33.6338C53.3884 33.6338 51.7674 33.1669 50.4943 32.2331C49.6626 31.623 49.1449 30.9569 48.9412 30.2348C48.7545 29.5001 48.6611 28.3796 48.6611 26.873C48.6611 25.3665 48.7545 24.2522 48.9412 23.53C49.1449 22.7954 49.6626 22.1231 50.4943 21.513C51.7674 20.5792 53.3884 20.1123 55.3575 20.1123C57.3095 20.1123 58.922 20.5792 60.1951 21.513C61.0268 22.1231 61.5445 22.7954 61.7482 23.53ZM58.5147 26.873C58.5147 25.6404 58.4468 24.7813 58.311 24.2957C58.1922 23.8102 57.963 23.4242 57.6235 23.1378C57.0634 22.6647 56.308 22.4281 55.3575 22.4281C54.4239 22.4281 53.6601 22.6647 53.066 23.1378C52.7264 23.4242 52.4973 23.8102 52.3785 24.2957C52.2597 24.7813 52.2002 25.6404 52.2002 26.873C52.2002 28.1057 52.2597 28.9648 52.3785 29.4503C52.4973 29.9235 52.7264 30.3033 53.066 30.5896C53.677 31.0752 54.4408 31.318 55.3575 31.318C56.2911 31.318 57.0464 31.0752 57.6235 30.5896C57.963 30.2908 58.1922 29.9048 58.311 29.4317C58.4468 28.9461 58.5147 28.0932 58.5147 26.873Z" fill="black"/>
<path d="M77.8746 33.5288H74.7174L67.5373 25.3674V33.5288H63.998V20.2314H67.1554L74.3355 28.3743V20.2314H77.8746V33.5288Z" fill="black"/>
<path d="M93.288 33.5149H91.022L86.8973 27.6132H82.5434V33.5149H80.6084V20.2175H87.5593C89.1549 20.2175 90.4449 20.5537 91.4294 21.226C92.4309 21.8859 92.9316 22.7824 92.9316 23.9154C92.9316 24.8616 92.5751 25.646 91.8622 26.2686C91.1493 26.8911 90.1903 27.2958 88.9851 27.4825L93.288 33.5149ZM90.0036 25.7456C90.6656 25.3223 90.9965 24.7185 90.9965 23.9341C90.9965 23.1497 90.6656 22.5458 90.0036 22.1225C89.3416 21.6992 88.4674 21.4875 87.3811 21.4875H82.5434V26.362H87.3811C88.4844 26.362 89.3585 26.1565 90.0036 25.7456Z" fill="#00A1E1"/>
<path d="M111.182 33.5288H109.247V23.4251L104.282 31.4371H102.627L97.5854 23.4251V33.5288H95.6504V20.2314H97.5854L103.492 29.6629L109.247 20.2314H111.182V33.5288Z" fill="#00A1E1"/>
<path d="M125.89 29.8683C125.89 31.0262 125.321 31.9476 124.184 32.6324C123.047 33.3047 121.528 33.6409 119.627 33.6409C118.269 33.6409 117.106 33.5039 116.138 33.23C115.171 32.9561 114.271 32.5079 113.439 31.8853L114.738 30.9329C115.468 31.4682 116.206 31.8418 116.953 32.0534C117.717 32.2651 118.625 32.3709 119.677 32.3709C121.018 32.3709 122.071 32.1593 122.835 31.7359C123.598 31.3002 123.98 30.6901 123.98 29.9057C123.98 29.1835 123.683 28.6295 123.089 28.2435C122.631 27.9322 121.842 27.7144 120.721 27.5899L118.608 27.3657C117.182 27.2039 116.079 26.8677 115.298 26.3572C114.365 25.7472 113.898 24.913 113.898 23.8546C113.898 22.7216 114.415 21.8189 115.451 21.1466C116.503 20.4618 117.921 20.1194 119.703 20.1194C120.84 20.1194 121.825 20.2377 122.656 20.4742C123.505 20.6983 124.32 21.0656 125.101 21.5761L123.853 22.4912C122.75 21.7193 121.341 21.3333 119.627 21.3333C118.421 21.3333 117.479 21.5574 116.8 22.0057C116.121 22.4539 115.782 23.0578 115.782 23.8172C115.782 24.5021 116.053 25.0188 116.597 25.3674C117.123 25.7036 117.912 25.9339 118.965 26.0584L121.078 26.3012C121.927 26.4008 122.58 26.5191 123.038 26.6561C123.514 26.7806 123.955 26.9798 124.362 27.2537C125.381 27.9011 125.89 28.7727 125.89 29.8683Z" fill="#00A1E1"/>
<mask id="mask0_84_1089" style="mask-type:luminance" maskUnits="userSpaceOnUse" x="0" y="0" width="35" height="19">
<path d="M34.554 0.119629H0.601562V18.3533H34.554V0.119629Z" fill="white"/>
</mask>
<g mask="url(#mask0_84_1089)">
<mask id="mask1_84_1089" style="mask-type:luminance" maskUnits="userSpaceOnUse" x="0" y="0" width="35" height="19">
<path d="M34.5539 0.119629H0.601562V18.3533H34.5539V0.119629Z" fill="white"/>
</mask>
<g mask="url(#mask1_84_1089)">
<path fill-rule="evenodd" clip-rule="evenodd" d="M34.5538 0.119629V10.0958H32.097C32.097 10.0764 32.0908 0.151476 32.0908 0.119629H34.5538Z" fill="#00A1DD"/>
<path fill-rule="evenodd" clip-rule="evenodd" d="M24.6807 1.66431H27.156C27.156 1.76553 27.1529 7.05901 27.1529 7.13975H24.6807C24.6807 7.1204 24.6807 3.46936 24.6807 1.66431Z" fill="#00A1DD"/>
<path d="M30.8367 4.18359H28.4062V11.6324H30.8367V4.18359Z" fill="#00A1DD"/>
<path fill-rule="evenodd" clip-rule="evenodd" d="M3.12301 7.72655V10.1265H5.1716V11.671H3.12301V16.2968C3.13384 16.5789 3.4477 16.7461 3.63478 16.7484C3.64251 16.7484 3.75382 16.7484 3.76155 16.7484H5.1716V18.3521H3.12301C1.75317 18.3373 1.03577 17.6845 1.03577 17.6845C0.601323 17.2989 0.655438 16.5084 0.655438 16.5084C0.655438 13.6262 0.652344 10.6053 0.652344 7.72314L3.12301 7.7254V7.72655Z" fill="black"/>
<path d="M13.3381 10.4949H13.2979V10.5245H13.3381V10.4949Z" fill="#231F20"/>
<path fill-rule="evenodd" clip-rule="evenodd" d="M14.4639 12.4091V18.3509H8.85928C6.20152 18.2827 6.30821 16.348 6.30821 16.348V14.8113C6.31903 12.8163 8.99069 12.8675 8.99069 12.8675H12.0041V12.284C12.0041 12.284 12.0056 12.1691 11.933 12.0497C11.933 12.0497 11.7288 11.7358 11.3717 11.671C11.1862 11.6403 11.1027 11.6346 10.9496 11.6334H7.23277V10.1264H11.0795C11.2866 10.132 14.4716 9.91138 14.4515 12.11L14.4654 12.4091H14.4639ZM8.77891 16.0807V14.8534C8.77891 14.8534 8.77271 14.2187 9.64779 14.2199H12.0041V16.7472H9.62768C9.62768 16.7472 8.78661 16.7358 8.77891 16.0818" fill="black"/>
<path fill-rule="evenodd" clip-rule="evenodd" d="M24.6482 11.9188C24.6482 13.5522 24.6637 15.0274 24.6637 16.6607C24.6637 16.6607 24.6529 17.2123 24.1148 17.6661C24.1148 17.6661 23.7855 18.0176 23.0433 18.1984C23.0433 18.1984 22.3708 18.3486 21.5993 18.352H16.375V7.14859C16.375 7.14859 18.8333 7.14404 18.8457 7.14404V10.1297H21.6488C21.6488 10.1297 22.1358 10.1093 22.7001 10.1934C22.963 10.2333 23.2444 10.3174 23.5118 10.4152C24.1226 10.6381 24.6482 11.2694 24.6482 11.9211M22.04 11.986C22.04 11.986 21.7725 11.6732 21.3318 11.6709H18.7638V16.7483H21.1432C22.0972 16.7403 22.1497 16.0681 22.1497 16.0681V12.4045C22.1497 12.4045 22.1374 12.0929 22.04 11.9848" fill="black"/>
</g>
</g>
</g>
<defs>
<clipPath id="clip0_84_1089">
<rect width="126" height="34" fill="white"/>
</clipPath>
</defs>
</svg>
