<svg width="147" height="34" viewBox="0 0 147 34" fill="none" xmlns="http://www.w3.org/2000/svg">
<mask id="mask0_84_1176" style="mask-type:luminance" maskUnits="userSpaceOnUse" x="3" y="0" width="31" height="34">
<path d="M34 0H3.5V34H34V0Z" fill="white"/>
</mask>
<g mask="url(#mask0_84_1176)">
<path d="M32.46 3.78018L32.4632 3.78079C32.8196 3.86668 33.1352 4.07034 33.3567 4.35692C33.5769 4.64179 33.6904 4.99182 33.6806 5.34872L32.856 15.7665C32.5716 19.3728 31.3209 22.8394 29.2333 25.8129L29.0286 26.0988C26.8181 29.1352 23.8044 31.5193 20.3146 32.9922L20.3139 32.9928L18.7558 33.6544L17.1958 32.9221L17.1846 32.9172L16.8588 32.7763C13.507 31.2945 10.6121 28.9649 8.47061 26.0232C6.26017 22.9868 4.93653 19.4137 4.64322 15.6909L3.81792 5.27247C3.80847 4.91575 3.923 4.56593 4.14308 4.28129C4.36452 3.99499 4.67981 3.79162 5.03601 3.70577L5.03725 3.70516L18.749 0.323975L32.46 3.78018Z" fill="#006BFF" stroke="#08D4FF"/>
<mask id="mask1_84_1176" style="mask-type:luminance" maskUnits="userSpaceOnUse" x="7" y="5" width="24" height="24">
<path d="M30.1875 5.6665H7.3125V28.3332H30.1875V5.6665Z" fill="white"/>
</mask>
<g mask="url(#mask1_84_1176)">
<mask id="mask2_84_1176" style="mask-type:luminance" maskUnits="userSpaceOnUse" x="7" y="5" width="24" height="24">
<path d="M30.1875 5.6665H7.3125V28.3332H30.1875V5.6665Z" fill="white"/>
</mask>
<g mask="url(#mask2_84_1176)">
<path d="M18.7498 14.0898C19.7766 14.0898 20.712 14.4639 21.4106 15.0771C21.7863 15.4069 22.4299 15.4298 22.7284 15.0372L29.054 6.7188C29.3897 6.27736 29.0512 5.6665 28.4709 5.6665H23.9848C23.7439 5.6665 23.5192 5.77966 23.3871 5.96752L19.3942 11.6446C19.115 12.0416 18.493 12.0469 18.2061 11.6548L14.0356 5.9573C13.9025 5.77535 13.6815 5.6665 13.4452 5.6665H9.00221C8.42706 5.6665 8.08739 6.26773 8.41261 6.71012L14.615 15.1475C14.9199 15.5623 15.6072 15.5272 15.9863 15.1696C16.6944 14.5021 17.6707 14.0898 18.7498 14.0898Z" fill="white"/>
<path d="M16.6825 21.1519C16.4739 21.0134 16.1514 21.1423 16.1514 21.381V28.066C16.1514 28.2133 16.2794 28.3327 16.4373 28.3327H21.0636C21.2215 28.3327 21.3496 28.2133 21.3496 28.066V21.5451C21.3496 21.3186 21.0592 21.1885 20.8511 21.3055C20.2745 21.6294 19.6056 21.8145 18.8919 21.8145C18.0722 21.8145 17.3113 21.5696 16.6825 21.1519Z" fill="white"/>
<path d="M22.3463 22.2305H19.7729C19.6939 22.2305 19.6299 22.2902 19.6299 22.3638V23.4305C19.6299 23.5041 19.6939 23.5638 19.7729 23.5638H22.3463C22.4253 23.5638 22.4893 23.5041 22.4893 23.4305V22.3638C22.4893 22.2902 22.4253 22.2305 22.3463 22.2305Z" fill="white"/>
<path d="M19.4648 24.4668C19.4648 24.3931 19.5288 24.3335 19.6078 24.3335H22.8961C22.9751 24.3335 23.0391 24.3931 23.0391 24.4668V25.5334C23.0391 25.6071 22.9751 25.6668 22.8961 25.6668H19.6078C19.5288 25.6668 19.4648 25.6071 19.4648 25.5334V24.4668Z" fill="white"/>
<path d="M23.6109 26.3325H19.6078C19.5289 26.3325 19.4648 26.3922 19.4648 26.4659V27.5325C19.4648 27.6061 19.5289 27.6659 19.6078 27.6659H23.6109C23.6899 27.6659 23.7539 27.6061 23.7539 27.5325V26.4659C23.7539 26.3922 23.6899 26.3325 23.6109 26.3325Z" fill="white"/>
<mask id="mask3_84_1176" style="mask-type:luminance" maskUnits="userSpaceOnUse" x="15" y="14" width="8" height="8">
<path d="M22.3232 14.7292H15.1748V21.3959H22.3232V14.7292Z" fill="white"/>
</mask>
<g mask="url(#mask3_84_1176)">
<path fill-rule="evenodd" clip-rule="evenodd" d="M22.322 18.0606C22.322 19.9006 20.7228 21.392 18.7499 21.392C16.777 21.392 15.1777 19.9006 15.1777 18.0606C15.1777 16.2216 16.777 14.7302 18.7499 14.7302C20.7228 14.7302 22.322 16.2216 22.322 18.0606ZM22.1694 18.0606C22.1694 16.2992 20.6386 14.8716 18.7499 14.8716C16.8612 14.8716 15.3304 16.2992 15.3304 18.0606C15.3304 19.822 16.8612 21.2506 18.7499 21.2506C20.6386 21.2506 22.1694 19.822 22.1694 18.0606Z" fill="white"/>
<path d="M20.3607 19.1178H20.3618C20.3965 19.1412 20.4449 19.1325 20.4692 19.0991C20.6839 18.7898 20.7976 18.4324 20.7976 18.0603C20.7976 17.3603 20.3871 16.7162 19.7259 16.3813C19.5985 16.3165 19.4627 16.2645 19.3238 16.2272C19.1385 16.1771 18.9447 16.1506 18.7499 16.1506C18.5341 16.1506 18.3225 16.182 18.1203 16.2429C18.0794 16.2557 18.0572 16.297 18.072 16.3342V16.3352C18.0867 16.3716 18.1277 16.3902 18.1667 16.3784C18.3541 16.3215 18.5499 16.293 18.7499 16.293C18.9363 16.293 19.1205 16.3186 19.2975 16.3676C19.4206 16.4029 19.5395 16.4491 19.6532 16.5061C20.2649 16.8163 20.645 17.4123 20.645 18.0603C20.645 18.404 20.5408 18.7348 20.3418 19.0205C20.3196 19.053 20.3281 19.0952 20.3607 19.1178Z" fill="white"/>
<path d="M16.8938 17.44C16.9327 17.4528 16.9749 17.4351 16.9907 17.3997C17.1581 17.0129 17.4739 16.6879 17.8708 16.4945C17.9077 16.4768 17.9213 16.4346 17.9045 16.4012C17.8855 16.3639 17.8381 16.3492 17.8002 16.3689C17.5866 16.4729 17.396 16.6104 17.2328 16.7772C17.0686 16.9461 16.9401 17.1366 16.8496 17.3467C16.8328 17.384 16.8538 17.4263 16.8938 17.44Z" fill="white"/>
<path d="M16.8232 17.6707C16.7821 17.6619 16.7411 17.6874 16.7337 17.7267C16.7126 17.8366 16.7021 17.9485 16.7021 18.0605C16.7021 18.3187 16.7569 18.569 16.8632 18.8037C16.9664 19.0315 17.1137 19.2358 17.3022 19.4115C17.4896 19.5863 17.7086 19.7237 17.9528 19.8199C18.2055 19.92 18.4729 19.9702 18.7498 19.9702C19.2162 19.9702 19.6678 19.8219 20.031 19.551C20.0637 19.5263 20.0679 19.4802 20.0405 19.4498L20.0394 19.4488C20.0121 19.4203 19.9668 19.4164 19.9342 19.441C19.5994 19.6914 19.1814 19.8288 18.7498 19.8288C17.7044 19.8288 16.8548 19.0355 16.8548 18.0605C16.8548 17.9574 16.8642 17.8533 16.8832 17.7522C16.8905 17.7149 16.8653 17.6786 16.8253 17.6707H16.8232Z" fill="white"/>
<path d="M16.6171 17.0079C16.5971 17.0432 16.6128 17.0874 16.6518 17.1041C16.6886 17.1218 16.7329 17.1081 16.7518 17.0737C17.1456 16.3805 17.9046 15.9524 18.75 15.9524C19.1164 15.9524 19.4765 16.0359 19.7986 16.193C19.8343 16.2107 19.8796 16.1979 19.8997 16.1645C19.9207 16.1301 19.907 16.085 19.868 16.0663C19.5248 15.8994 19.1406 15.811 18.75 15.811C18.29 15.811 17.8425 15.9318 17.4562 16.1616C17.1013 16.3717 16.8129 16.6632 16.6171 17.0079Z" fill="white"/>
<path d="M16.5643 17.2908C16.5242 17.277 16.48 17.2966 16.4653 17.334C16.38 17.5676 16.3369 17.8121 16.3369 18.0605C16.3369 18.3482 16.3937 18.6271 16.5064 18.8912C16.5232 18.9285 16.5685 18.9461 16.6085 18.9294C16.6453 18.9147 16.6632 18.8744 16.6485 18.8381C16.5432 18.5917 16.4895 18.3305 16.4895 18.0605C16.4895 17.8278 16.5296 17.5991 16.6096 17.3811C16.6232 17.3448 16.6033 17.3045 16.5643 17.2908Z" fill="white"/>
<path d="M20.3536 19.7413C20.7725 19.3928 21.0473 18.9215 21.1326 18.409C21.14 18.3697 21.1094 18.3323 21.0673 18.3275C21.0263 18.3226 20.9883 18.3491 20.9821 18.3874C20.8125 19.4075 19.865 20.1684 18.7491 20.1684C18.0553 20.1684 17.3942 19.8669 16.9678 19.3584C16.9425 19.328 16.8961 19.3221 16.8625 19.3446C16.8277 19.3682 16.8203 19.4144 16.8477 19.4458C17.0604 19.6991 17.3331 19.9101 17.6384 20.0584C17.8068 20.1399 17.9848 20.2028 18.169 20.245C18.3574 20.2892 18.5522 20.3108 18.7491 20.3108C19.3417 20.3108 19.9113 20.1085 20.3536 19.7413Z" fill="white"/>
<path d="M21.0896 18.0604C21.1306 18.0585 21.1622 18.0241 21.1601 17.9848C21.1485 17.649 21.0548 17.3172 20.8895 17.0216C20.7295 16.735 20.5011 16.4806 20.2263 16.2814C20.1926 16.2568 20.1431 16.2637 20.1178 16.2961C20.0936 16.3275 20.101 16.3707 20.1336 16.3942C20.6643 16.7781 20.9864 17.3672 21.0085 17.9917C21.0096 18.0319 21.0464 18.0633 21.0896 18.0604Z" fill="white"/>
<path d="M19.2172 20.6269C19.7077 20.5493 20.1657 20.351 20.5479 20.0505C20.9258 19.7539 21.2111 19.3711 21.3764 18.94C21.3912 18.9027 21.369 18.8615 21.3291 18.8487C21.2891 18.837 21.2469 18.8557 21.2333 18.8919C20.9131 19.7226 20.1246 20.3392 19.1919 20.4865C19.1518 20.4933 19.1235 20.5286 19.1298 20.566C19.1351 20.6062 19.175 20.6337 19.2172 20.6269Z" fill="white"/>
<path d="M21.4735 18.6279C21.5177 18.4424 21.5398 18.2518 21.5398 18.0604C21.5398 17.8405 21.5104 17.6215 21.4525 17.4105C21.402 17.2288 21.3314 17.0521 21.2398 16.8852C21.2209 16.8488 21.1735 16.8361 21.1356 16.8547C21.0997 16.8734 21.0851 16.9146 21.104 16.949C21.2904 17.2917 21.3882 17.6746 21.3882 18.0604C21.3882 18.2421 21.3672 18.4217 21.3251 18.5965C21.3167 18.6338 21.3409 18.6711 21.3809 18.6809C21.423 18.6908 21.4651 18.6663 21.4735 18.6279Z" fill="white"/>
<path d="M20.0583 15.7619C19.8614 15.6637 19.6519 15.5881 19.4351 15.537C19.2118 15.485 18.9813 15.4585 18.7497 15.4585C18.437 15.4585 18.1296 15.5066 17.8369 15.6009C17.579 15.6843 17.3358 15.8021 17.1136 15.9524C17.0789 15.9759 17.0715 16.0211 17.0978 16.0535C17.1231 16.0839 17.1695 16.0898 17.2031 16.0672C17.6548 15.7619 18.1875 15.6009 18.7497 15.6009C19.5845 15.6009 20.3709 15.971 20.8679 16.5945C20.8931 16.6249 20.9394 16.6328 20.9732 16.6102C21.0079 16.5876 21.0163 16.5415 20.9911 16.51C20.7437 16.2008 20.4225 15.9426 20.0583 15.7619Z" fill="white"/>
<path d="M16.7758 16.2215C16.5295 16.4511 16.3337 16.7172 16.1947 17.0148C16.0389 17.3446 15.96 17.6972 15.96 18.0604C15.96 18.7172 16.2221 19.3446 16.7001 19.8268C17.157 20.2882 17.7718 20.5779 18.4361 20.6466C18.4793 20.6515 18.5171 20.6221 18.5204 20.5818C18.5246 20.5435 18.494 20.5101 18.453 20.5051C17.1338 20.3677 16.1116 19.3064 16.1116 18.0604C16.1116 17.4006 16.3852 16.786 16.8832 16.3216C16.9128 16.2951 16.9138 16.2509 16.8854 16.2233C16.8558 16.1939 16.8064 16.193 16.7758 16.2215Z" fill="white"/>
<path d="M15.6705 17.7258C15.7116 17.7296 15.7484 17.7032 15.7537 17.6649C15.7968 17.3821 15.8842 17.1092 16.0158 16.8509C16.5148 15.872 17.5887 15.2397 18.7499 15.2397C19.9733 15.2397 21.0903 15.9418 21.5513 16.9943C21.5672 17.0297 21.6103 17.0463 21.6482 17.0326C21.6882 17.0178 21.7082 16.9757 21.6914 16.9383C21.5818 16.688 21.4345 16.4523 21.2556 16.2374C21.0607 16.0056 20.8313 15.8023 20.5733 15.6335C20.0375 15.2829 19.4068 15.0974 18.7499 15.0974C18.1372 15.0974 17.5424 15.2604 17.0307 15.5687C16.5307 15.8681 16.1327 16.2913 15.8789 16.79C15.74 17.061 15.6484 17.3477 15.6031 17.6453C15.5979 17.6845 15.6273 17.7209 15.6705 17.7258Z" fill="white"/>
<path d="M21.8775 17.5352C21.8701 17.4959 21.829 17.4704 21.7869 17.4782C21.7469 17.486 21.7206 17.5224 21.7279 17.5597C21.7585 17.7247 21.7753 17.8926 21.7753 18.0604C21.7753 19.6166 20.4183 20.8823 18.7496 20.8823C17.0809 20.8823 15.7239 19.6166 15.7239 18.0604C15.7239 18.0414 15.7243 18.0225 15.725 18.0035C15.726 17.9642 15.6934 17.9319 15.6523 17.9309C15.6092 17.9289 15.5733 17.9603 15.5723 17.9996C15.5723 18.0205 15.5723 18.0408 15.5723 18.0604C15.5723 18.461 15.6555 18.8489 15.8219 19.2141C15.9818 19.5676 16.2114 19.8847 16.503 20.1567C16.7946 20.4287 17.1346 20.6426 17.5126 20.7919C17.9042 20.946 18.3211 21.0246 18.7496 21.0246C19.1781 21.0246 19.595 20.946 19.9866 20.7919C20.3646 20.6426 20.7047 20.4287 20.9963 20.1567C21.2879 19.8847 21.5174 19.5676 21.6774 19.2141C21.8438 18.8489 21.9269 18.461 21.9269 18.0604C21.9269 17.8847 21.9101 17.708 21.8775 17.5352Z" fill="white"/>
<path fill-rule="evenodd" clip-rule="evenodd" d="M20.4229 18.0604C20.4229 18.9225 19.6744 19.6215 18.7501 19.6215C17.8257 19.6215 17.0771 18.9225 17.0771 18.0604C17.0771 17.1993 17.8257 16.5002 18.7501 16.5002C19.6744 16.5002 20.4229 17.1993 20.4229 18.0604ZM19.2207 17.8022C19.2207 17.5597 19.0101 17.3623 18.7501 17.3623C18.6238 17.3623 18.5058 17.4085 18.4174 17.491C18.3278 17.5734 18.2795 17.6843 18.2795 17.8022C18.2795 17.9387 18.3489 18.0702 18.4668 18.1526L18.4784 18.1605V18.5052C18.4784 18.6446 18.6006 18.7585 18.7501 18.7585C18.8995 18.7585 19.0217 18.6446 19.0217 18.5052V18.1605L19.0333 18.1526C19.1511 18.0702 19.2207 17.9387 19.2207 17.8022Z" fill="white"/>
</g>
</g>
</g>
</g>
<mask id="mask4_84_1176" style="mask-type:luminance" maskUnits="userSpaceOnUse" x="41" y="11" width="64" height="12">
<path d="M104.091 11.3333H41.7939V22.6666H104.091V11.3333Z" fill="white"/>
</mask>
<g mask="url(#mask4_84_1176)">
<path d="M48.5398 22.5102V18.5241L41.7939 11.3333H45.3181L49.9637 16.3981L54.5915 11.3333H58.1157L51.4054 18.5084V22.5102H48.5398ZM62.3716 22.5884C60.7815 22.5884 59.5415 22.2445 58.6516 21.5567C57.7617 20.8585 57.3167 19.8372 57.3167 18.4928C57.3167 17.138 57.7617 16.1167 58.6516 15.4289C59.5415 14.7307 60.7815 14.3815 62.3716 14.3815H65.6644C67.2545 14.3815 68.4945 14.7307 69.3844 15.4289C70.2744 16.1167 70.7194 17.138 70.7194 18.4928C70.7194 19.8372 70.2744 20.8585 69.3844 21.5567C68.4945 22.2445 67.2545 22.5884 65.6644 22.5884H62.3716ZM62.3716 20.7907H65.6644C66.4357 20.7907 67.0231 20.6032 67.4266 20.228C67.8418 19.8528 68.0495 19.2744 68.0495 18.4928C68.0495 17.7008 67.8418 17.1172 67.4266 16.742C67.0231 16.3668 66.4357 16.1793 65.6644 16.1793H62.3716C61.6003 16.1793 61.007 16.3668 60.5917 16.742C60.1883 17.1172 59.9866 17.7008 59.9866 18.4928C59.9866 19.2744 60.1883 19.8528 60.5917 20.228C61.007 20.6032 61.6003 20.7907 62.3716 20.7907ZM73.2152 22.5102V14.4597H85.0876C86.1317 14.4597 86.897 14.689 87.3834 15.1475C87.8698 15.5956 88.1134 16.1896 88.1134 16.9296V22.5102H85.5322V17.211C85.5322 16.5752 85.1647 16.2574 84.429 16.2574H81.9552V22.5102H79.3741V16.2574H75.7963V22.5102H73.2152ZM95.5779 22.5884C93.9876 22.5884 92.7475 22.2445 91.8575 21.5567C90.9676 20.8585 90.523 19.8372 90.523 18.4928C90.523 17.138 90.9676 16.1167 91.8575 15.4289C92.7475 14.7307 93.9876 14.3815 95.5779 14.3815H98.8703C100.461 14.3815 101.701 14.7307 102.591 15.4289C103.481 16.1167 103.925 17.138 103.925 18.4928C103.925 19.8372 103.481 20.8585 102.591 21.5567C101.701 22.2445 100.461 22.5884 98.8703 22.5884H95.5779ZM95.5779 20.7907H98.8703C99.642 20.7907 100.229 20.6032 100.633 20.228C101.049 19.8528 101.255 19.2744 101.255 18.4928C101.255 17.7008 101.049 17.1172 100.633 16.742C100.229 16.3668 99.642 16.1793 98.8703 16.1793H95.5779C94.8069 16.1793 94.2131 16.3668 93.7981 16.742C93.3946 17.1172 93.1928 17.7008 93.1928 18.4928C93.1928 19.2744 93.3946 19.8528 93.7981 20.228C94.2131 20.6032 94.8069 20.7907 95.5779 20.7907Z" fill="#006BFF"/>
</g>
<path d="M106.328 22.6312V14.4243H108.81V17.7738H112.501L116.146 14.4243H119.232L114.673 18.522L119.232 22.6312H116.146L112.486 19.2702H108.81V22.6312H106.328Z" fill="#006BFF"/>
<mask id="mask5_84_1176" style="mask-type:luminance" maskUnits="userSpaceOnUse" x="120" y="14" width="27" height="9">
<path d="M146.325 14.4243H120.071V22.6312H146.325V14.4243Z" fill="white"/>
</mask>
<g mask="url(#mask5_84_1176)">
<path d="M125.126 22.6312C123.536 22.6312 122.296 22.2873 121.406 21.5994C120.516 20.9013 120.071 19.8799 120.071 18.5355C120.071 17.1808 120.516 16.1594 121.406 15.4716C122.296 14.7734 123.536 14.4243 125.126 14.4243H129.576C130.62 14.4243 131.415 14.6432 131.961 15.0808C132.519 15.5082 132.798 16.123 132.798 16.9255C132.798 18.5616 131.724 19.3797 129.576 19.3797H122.848C123.097 20.3489 123.857 20.8335 125.126 20.8335H132.335V22.6312H125.126ZM125.126 16.222C123.904 16.222 123.15 16.6754 122.866 17.582H129.451C129.688 17.582 129.873 17.5194 130.003 17.3944C130.145 17.2694 130.216 17.0974 130.216 16.8785C130.216 16.4408 129.961 16.222 129.451 16.222H125.126ZM135.292 22.553V14.5025H143.284C144.328 14.5025 145.087 14.7318 145.562 15.1903C146.048 15.6384 146.292 16.2324 146.292 16.9724V22.553H143.711V17.2381C143.711 16.6128 143.355 16.3002 142.643 16.3002H137.873V22.553H135.292Z" fill="#006BFF"/>
</g>
</svg>
