<svg width="64" height="39" viewBox="0 0 64 39" fill="none" xmlns="http://www.w3.org/2000/svg">
<path d="M18.0404 13.948C18.0404 14.736 18.1204 15.376 18.2724 15.848C18.4404 16.316 18.6564 16.828 18.9524 17.384C19.0469 17.5309 19.0982 17.7014 19.1004 17.876C19.1004 18.088 18.9724 18.3041 18.7004 18.5161L17.3564 19.4121C17.1951 19.5285 17.0032 19.5953 16.8044 19.604C16.5884 19.604 16.3764 19.5001 16.1644 19.3081C15.8769 18.9987 15.6198 18.6625 15.3964 18.304C15.1585 17.8937 14.9383 17.4733 14.7364 17.0441C13.0764 19.0081 10.9924 19.992 8.48044 19.992C6.69244 19.992 5.26444 19.476 4.22444 18.452C3.18044 17.428 2.64844 16.06 2.64844 14.3521C2.64844 12.5361 3.28844 11.0641 4.58444 9.9521C5.88444 8.8401 7.60844 8.288 9.80044 8.288C10.5204 8.288 11.2684 8.3521 12.0564 8.4561C12.8444 8.5641 13.6564 8.7361 14.5044 8.9281V7.368C14.5044 5.744 14.1644 4.6121 13.5044 3.9521C12.8244 3.2881 11.6724 2.968 10.0324 2.968C9.28844 2.968 8.52444 3.056 7.73644 3.248C6.95353 3.4344 6.18491 3.6763 5.43644 3.972C5.19479 4.0815 4.94626 4.175 4.69244 4.252C4.58245 4.2884 4.46811 4.3099 4.35244 4.316C4.05244 4.316 3.90444 4.1 3.90444 3.652V2.604C3.90444 2.264 3.94444 2.004 4.05244 1.86C4.21363 1.6638 4.41932 1.5088 4.65244 1.408C5.39244 1.024 6.28844 0.704 7.33244 0.448C8.37244 0.168 9.48044 0.0440006 10.6524 0.0440006C13.1844 0.0440006 15.0364 0.6201 16.2284 1.7721C17.4004 2.9241 17.9964 4.676 17.9964 7.028V13.948H18.0364H18.0404ZM9.39644 17.1921C10.0964 17.1921 10.8204 17.0641 11.5884 16.8081C12.3524 16.5521 13.0364 16.0801 13.6084 15.4401C13.9514 15.0471 14.1992 14.5803 14.3324 14.076C14.4604 13.56 14.5484 12.9441 14.5484 12.2161V11.3201C13.9024 11.1634 13.248 11.0432 12.5884 10.96C11.9252 10.8743 11.2572 10.8302 10.5884 10.828C9.16044 10.828 8.11644 11.108 7.41644 11.684C6.71244 12.26 6.37644 13.0721 6.37644 14.1401C6.37644 15.1401 6.62844 15.888 7.16044 16.404C7.67244 16.936 8.41644 17.1921 9.39644 17.1921ZM26.4884 19.5C26.1044 19.5 25.8484 19.436 25.6804 19.284C25.5084 19.156 25.3604 18.86 25.2324 18.452L20.2324 1.944C20.1338 1.6674 20.068 1.3801 20.0364 1.0881C20.0364 0.7481 20.2084 0.556101 20.5484 0.556101H22.6364C23.0364 0.556101 23.3164 0.620101 23.4644 0.768101C23.6364 0.896101 23.7644 1.196 23.8924 1.6L27.4684 15.7401L30.7884 1.6C30.8924 1.176 31.0204 0.896101 31.1884 0.768101C31.4451 0.610801 31.7441 0.536801 32.0444 0.556101H33.7444C34.1524 0.556101 34.4244 0.620101 34.5964 0.768101C34.7684 0.896101 34.9164 1.196 35.0004 1.6L38.3644 15.9121L42.0444 1.6C42.1127 1.2903 42.2602 1.0037 42.4724 0.768101C42.7203 0.611001 43.0116 0.536701 43.3044 0.556101H45.2844C45.6244 0.556101 45.8164 0.7281 45.8164 1.0881C45.8164 1.1961 45.7924 1.304 45.7764 1.432C45.742 1.6136 45.6912 1.7917 45.6244 1.964L40.4924 18.472C40.3644 18.9 40.2164 19.1801 40.0484 19.3081C39.8069 19.4625 39.5227 19.5367 39.2364 19.52H37.4084C37.0044 19.52 36.7284 19.4561 36.5564 19.3081C36.3844 19.1561 36.2364 18.88 36.1524 18.452L32.8524 4.68L29.5724 18.436C29.4684 18.864 29.3404 19.1401 29.1724 19.2881C29.0004 19.4401 28.7004 19.5041 28.3204 19.5041H26.4884V19.5ZM53.8404 20.076C52.7358 20.0775 51.6349 19.9486 50.5604 19.6921C49.4964 19.4361 48.6684 19.1561 48.1124 18.8361C47.7724 18.6441 47.5404 18.432 47.4524 18.236C47.3711 18.0478 47.3289 17.8451 47.3284 17.64V16.5521C47.3284 16.1041 47.4964 15.888 47.8164 15.888C47.9471 15.8883 48.0768 15.91 48.2004 15.952C48.3284 15.996 48.5204 16.08 48.7324 16.168C49.4524 16.488 50.2444 16.744 51.0724 16.916C51.9244 17.084 52.7524 17.172 53.6044 17.172C54.9484 17.172 55.9884 16.9361 56.7124 16.4681C57.0602 16.2575 57.346 15.9585 57.5407 15.6016C57.7353 15.2446 57.8318 14.8425 57.8204 14.436C57.8276 14.1617 57.7804 13.8885 57.6816 13.6325C57.5827 13.3764 57.4341 13.1424 57.2444 12.944C56.8644 12.536 56.1404 12.172 55.0964 11.832L52.0084 10.8721C50.4564 10.3801 49.3044 9.6521 48.6044 8.6921C47.9192 7.805 47.5452 6.7169 47.5404 5.596C47.5404 4.7 47.7324 3.908 48.1124 3.224C48.4964 2.544 49.0084 1.944 49.6484 1.472C50.2884 0.984 51.0084 0.62 51.8604 0.364C52.7124 0.108 53.6044 0 54.5404 0C55.0124 0 55.5004 0.0201007 55.9684 0.0841007C56.4564 0.148101 56.9044 0.2361 57.3524 0.3241C57.7764 0.4281 58.1844 0.532101 58.5644 0.664101C58.9484 0.792101 59.2444 0.92 59.4604 1.048C59.7116 1.1742 59.9305 1.3562 60.1004 1.58C60.2374 1.7883 60.3033 2.0353 60.2884 2.284V3.288C60.2884 3.736 60.1204 3.972 59.8004 3.972C59.5171 3.9397 59.2427 3.8528 58.9924 3.7161C57.7062 3.1457 56.3113 2.8619 54.9044 2.884C53.6924 2.884 52.7324 3.076 52.0724 3.484C51.4124 3.884 51.0724 4.508 51.0724 5.384C51.0724 5.98 51.2844 6.4921 51.7124 6.9001C52.1364 7.3041 52.9244 7.708 54.0524 8.072L57.0764 9.0321C58.6084 9.5241 59.7164 10.2081 60.3764 11.0841C61.0364 11.9601 61.3524 12.964 61.3524 14.076C61.3524 14.996 61.1644 15.8241 60.8004 16.5521C60.4236 17.2825 59.8943 17.9236 59.2484 18.432C58.5884 18.964 57.8004 19.3521 56.8844 19.6281C55.9244 19.9281 54.9244 20.076 53.8404 20.076Z" fill="white"/>
<path fill-rule="evenodd" clip-rule="evenodd" d="M57.8597 30.4519C50.8597 35.6399 40.6837 38.3959 31.9357 38.3959C19.6757 38.3959 8.62772 33.8479 0.283721 26.2879C-0.376279 25.6879 0.219721 24.8759 1.00372 25.3479C10.0317 30.5999 21.1637 33.7839 32.6837 33.7839C40.4477 33.7839 48.9837 32.1599 56.8397 28.8279C58.0117 28.2959 59.0117 29.5959 57.8597 30.4519Z" fill="#FF9900"/>
<path fill-rule="evenodd" clip-rule="evenodd" d="M60.7755 27.1199C59.8835 25.9719 54.8595 26.5679 52.5835 26.8439C51.9035 26.9319 51.7955 26.3319 52.4115 25.8839C56.4115 23.0639 62.9915 23.8759 63.7555 24.8159C64.5235 25.7759 63.5435 32.3759 59.7955 35.5359C59.2235 36.0279 58.6715 35.7759 58.9235 35.1359C59.7755 33.0159 61.6715 28.2559 60.7755 27.1239V27.1199Z" fill="#FF9900"/>
</svg>
