<svg width="256" height="50" viewBox="0 0 256 50" fill="none" xmlns="http://www.w3.org/2000/svg">
<path d="M256 22.619V18.5002H250.409V12.097L250.221 12.15L244.97 13.6199L244.866 13.6487V18.5004H236.578V15.7976C236.578 14.5391 236.885 13.576 237.491 12.9337C238.093 12.2991 238.955 11.9765 240.053 11.9765C240.842 11.9765 241.66 12.1466 242.482 12.4821L242.689 12.5664V8.22876L242.592 8.19613C241.824 7.94375 240.78 7.81665 239.486 7.81665C237.856 7.81665 236.374 8.14131 235.082 8.78473C233.789 9.42906 232.772 10.3489 232.059 11.5184C231.349 12.6865 230.989 14.0356 230.989 15.5287V18.5002H227.096V22.619H230.989V39.9708H236.578V22.619H244.866V33.6457C244.866 38.1871 247.207 40.4884 251.825 40.4884C252.584 40.4884 253.383 40.4071 254.198 40.2478C255.028 40.0843 255.594 39.9209 255.926 39.7465L256 39.7066V35.5497L255.773 35.6872C255.469 35.8721 255.092 36.0232 254.649 36.1356C254.204 36.25 253.833 36.3073 253.545 36.3073C252.463 36.3073 251.663 36.0407 251.166 35.5144C250.664 34.9833 250.409 34.0547 250.409 32.7556V22.619H256ZM214.616 36.308C212.587 36.308 210.988 35.6927 209.861 34.4806C208.727 33.2624 208.153 31.5256 208.153 29.319C208.153 27.0423 208.727 25.2604 209.862 24.0207C210.989 22.7891 212.573 22.1641 214.57 22.1641C216.508 22.1641 218.051 22.761 219.156 23.9394C220.266 25.1238 220.83 26.8914 220.83 29.1946C220.83 31.5261 220.3 33.317 219.255 34.515C218.217 35.704 216.656 36.308 214.616 36.308ZM214.864 17.9829C210.994 17.9829 207.921 19.0204 205.729 21.0664C203.539 23.1127 202.428 25.9444 202.428 29.4837C202.428 32.8453 203.512 35.5493 205.651 37.5192C207.789 39.4898 210.698 40.488 214.298 40.488C218.05 40.488 221.062 39.4361 223.253 37.3617C225.443 35.2896 226.553 32.4846 226.553 29.0281C226.553 25.6138 225.512 22.8897 223.457 20.9329C221.401 18.9753 218.51 17.9829 214.864 17.9829ZM193.418 17.9829C190.786 17.9829 188.608 18.599 186.945 19.8135C185.271 21.0353 184.422 22.6378 184.422 24.5769C184.422 25.5848 184.605 26.4802 184.966 27.2396C185.329 28.0015 185.89 28.6724 186.636 29.2354C187.376 29.7938 188.519 30.3788 190.033 30.974C191.306 31.4531 192.255 31.8584 192.858 32.1779C193.447 32.491 193.866 32.8057 194.102 33.1122C194.331 33.4122 194.448 33.8227 194.448 34.3293C194.448 35.7718 193.267 36.4736 190.838 36.4736C189.936 36.4736 188.908 36.3014 187.782 35.9621C186.664 35.6278 185.609 35.1383 184.654 34.5107L184.422 34.3585V39.2809L184.507 39.3171C185.297 39.6511 186.294 39.9327 187.47 40.1543C188.642 40.3761 189.708 40.4889 190.634 40.4889C193.49 40.4889 195.791 39.8699 197.469 38.6481C199.158 37.4179 200.014 35.7776 200.014 33.7715C200.014 32.3242 199.554 31.0832 198.645 30.0822C197.743 29.0895 196.177 28.178 193.993 27.3724C192.253 26.7335 191.139 26.2031 190.679 25.796C190.235 25.4027 190.01 24.8465 190.01 24.1421C190.01 23.5177 190.288 23.0175 190.859 22.6124C191.433 22.2053 192.233 21.9982 193.237 21.9982C194.168 21.9982 195.121 22.1328 196.068 22.3965C197.015 22.6602 197.847 23.0134 198.541 23.4455L198.769 23.5882V18.9189L198.681 18.8844C198.041 18.6332 197.196 18.4182 196.171 18.2437C195.15 18.0704 194.224 17.9829 193.418 17.9829ZM169.853 36.308C167.825 36.308 166.225 35.6927 165.099 34.4806C163.964 33.2624 163.391 31.5261 163.391 29.319C163.391 27.0423 163.965 25.2604 165.1 24.0207C166.227 22.7891 167.81 22.1641 169.808 22.1641C171.745 22.1641 173.288 22.761 174.393 23.9394C175.504 25.1238 176.067 26.8914 176.067 29.1946C176.067 31.5261 175.537 33.317 174.492 34.515C173.454 35.704 171.894 36.308 169.853 36.308ZM170.102 17.9829C166.231 17.9829 163.157 19.0204 160.967 21.0664C158.777 23.1127 157.666 25.9444 157.666 29.4837C157.666 32.8467 158.75 35.5493 160.888 37.5192C163.026 39.4898 165.936 40.488 169.536 40.488C173.287 40.488 176.3 39.4361 178.491 37.3617C180.681 35.2896 181.791 32.4846 181.791 29.0281C181.791 25.6138 180.749 22.8897 178.694 20.9329C176.638 18.9753 173.747 17.9829 170.102 17.9829ZM149.182 22.2184V18.5002H143.662V39.9703H149.182V28.9875C149.182 27.12 149.645 25.5857 150.558 24.4269C151.46 23.2819 152.662 22.7017 154.129 22.7017C154.626 22.7017 155.184 22.7767 155.789 22.9251C156.387 23.0726 156.82 23.2327 157.076 23.4013L157.308 23.5551V18.4635L157.219 18.4284C156.704 18.2285 155.977 18.1277 155.057 18.1277C153.67 18.1277 152.428 18.5355 151.365 19.3384C150.431 20.0442 149.757 21.0118 149.241 22.2184H149.182ZM133.776 17.9829C131.243 17.9829 128.984 18.4798 127.063 19.4592C125.137 20.4409 123.648 21.8423 122.635 23.6244C121.626 25.4022 121.114 27.4789 121.114 29.7947C121.114 31.8233 121.611 33.6849 122.592 35.3257C123.574 36.9691 124.964 38.2548 126.723 39.1465C128.48 40.0371 130.51 40.4887 132.758 40.4887C135.382 40.4887 137.622 40.0088 139.418 39.0625L139.49 39.0244V34.3975L139.258 34.5524C138.445 35.0946 137.536 35.5273 136.557 35.839C135.582 36.1506 134.692 36.308 133.912 36.308C131.746 36.308 130.007 35.6879 128.745 34.4654C127.48 33.2413 126.838 31.5224 126.838 29.3595C126.838 27.183 127.507 25.4199 128.826 24.119C130.14 22.822 131.882 22.1641 134.003 22.1641C135.818 22.1641 137.586 22.7261 139.259 23.8363L139.49 23.9901V19.1148L139.415 19.0763C138.786 18.7539 137.927 18.4877 136.862 18.2859C135.8 18.0844 134.762 17.9829 133.776 17.9829ZM117.312 18.5004H111.792V39.9703H117.312V18.5004ZM114.608 9.35407C113.7 9.35407 112.907 9.63704 112.256 10.1978C111.602 10.7601 111.271 11.4681 111.271 12.3036C111.271 13.126 111.598 13.8211 112.246 14.3685C112.889 14.9142 113.684 15.1909 114.609 15.1909C115.533 15.1909 116.33 14.9142 116.982 14.3694C117.637 13.8211 117.969 13.1262 117.969 12.3036C117.969 11.4973 117.646 10.7966 117.009 10.2204C116.372 9.64542 115.564 9.35407 114.608 9.35407ZM100.834 16.9163V39.9703H106.468V10.0113H98.6708L88.7596 32.264L79.1414 10.0113H71.0264V39.9701H76.3208V16.914H76.5026L86.6591 39.9703H90.6546L100.653 16.9163H100.834Z" fill="#706D6E"/>
<path d="M25.9698 23.7586H0V0H25.9698V23.7586Z" fill="#F1511B"/>
<path d="M54.6434 23.7586H28.6741V0H54.6434V23.7586Z" fill="#80CC28"/>
<path d="M25.9691 50H0V26.2416H25.9691V50Z" fill="#00ADEF"/>
<path d="M54.6434 50H28.6741V26.2416H54.6434V50Z" fill="#FBBC09"/>
</svg>
