<svg width="203" height="50" viewBox="0 0 203 50" fill="none" xmlns="http://www.w3.org/2000/svg">
<path d="M55.7449 9.87821L57.2881 10.9608C59.972 13.0582 61.5152 15.4263 61.8507 18.1326C64.7359 17.5913 68.4262 17.9973 70.0366 19.0798L71.5127 19.9594L71.2443 20.5007C70.7746 21.5156 70.6404 21.7862 70.5733 21.9215C67.9565 26.9959 62.7901 27.0636 60.3746 26.9959C54.2687 41.8133 41.2519 50 23.6724 50C15.5536 50 9.3807 47.4966 5.22068 42.5575C-0.281294 36.0622 -0.281294 27.6049 0.188387 24.8985L0.322581 24.3572H48.8338C51.3835 24.3572 53.3294 23.6807 54.2687 23.1394C53.2623 21.6509 52.9268 19.9594 52.8597 19.0122C52.6584 16.3058 53.3294 13.4641 54.6713 11.4344L55.7449 9.87821ZM97.778 13.0199C98.3192 13.0199 98.7775 13.1957 99.1527 13.5473C99.5279 13.8989 99.7155 14.3428 99.7155 14.8792V31.6132C99.7155 34.4022 98.7068 36.7621 96.6892 38.693C94.6471 40.6477 92.2114 41.625 89.3819 41.625C86.5278 41.625 84.0921 40.6477 82.0746 38.693C80.057 36.7383 79.0483 34.3784 79.0483 31.6132C79.0483 28.848 80.057 26.4881 82.0746 24.5334C84.0921 22.5787 86.5278 21.6014 89.3819 21.6014C91.83 21.6014 93.989 22.3344 95.8589 23.8004V14.8792C95.8589 14.3428 96.0403 13.8989 96.4032 13.5473C96.7661 13.1957 97.2244 13.0199 97.778 13.0199ZM112.246 21.6014C115.075 21.6014 117.511 22.5787 119.553 24.5334C120.562 25.5108 121.315 26.5894 121.814 27.7694C122.312 28.9494 122.567 30.2306 122.579 31.6132C122.579 34.4022 121.571 36.7621 119.553 38.693C117.511 40.6477 115.075 41.625 112.246 41.625C109.392 41.625 106.956 40.6477 104.938 38.693C102.921 36.7383 101.912 34.3784 101.912 31.6132C101.912 28.848 102.921 26.4881 104.938 24.5334C106.956 22.5787 109.392 21.6014 112.246 21.6014ZM135.073 21.6014C137.668 21.6014 139.914 22.4119 141.808 24.0328C142.251 24.4142 142.472 24.885 142.472 25.4452C142.472 25.9816 142.291 26.4285 141.928 26.7861C141.565 27.1436 141.107 27.3224 140.553 27.3224C140.086 27.3224 139.667 27.1794 139.298 26.8934C138.671 26.3808 138.013 25.9935 137.324 25.7313C136.635 25.4691 135.885 25.3379 135.073 25.3379C134.175 25.3379 133.332 25.5018 132.545 25.8296C131.757 26.1574 131.068 26.6043 130.478 27.1705C129.887 27.7366 129.423 28.4011 129.085 29.1639C128.746 29.9267 128.577 30.7431 128.577 31.6132C128.577 32.4833 128.746 33.2997 129.085 34.0625C129.423 34.8253 129.887 35.4898 130.478 36.0559C131.068 36.6221 131.757 37.069 132.545 37.3968C133.332 37.7246 134.175 37.8885 135.073 37.8885C135.885 37.8885 136.635 37.7603 137.324 37.5041C138.013 37.2478 138.665 36.8634 139.28 36.3509C139.624 36.1006 140.03 35.9695 140.498 35.9576C141.051 35.9576 141.51 36.1334 141.873 36.485C142.236 36.8366 142.417 37.2806 142.417 37.8169C142.417 38.3414 142.214 38.8002 141.808 39.1936C139.901 40.8145 137.656 41.625 135.073 41.625C132.219 41.625 129.783 40.6477 127.765 38.693C125.748 36.7383 124.739 34.3784 124.739 31.6132C124.739 28.848 125.748 26.4881 127.765 24.5334C129.783 22.5787 132.219 21.6014 135.073 21.6014ZM146.588 13.0199C147.117 13.0199 147.569 13.2016 147.944 13.5651C148.32 13.9287 148.507 14.3726 148.507 14.8971V28.8421L159.542 21.8875C159.85 21.6968 160.194 21.6014 160.575 21.6014C160.846 21.6014 161.098 21.6491 161.332 21.7444C161.566 21.8398 161.769 21.9739 161.941 22.1467C162.113 22.3195 162.251 22.5191 162.356 22.7456C162.461 22.9721 162.513 23.2104 162.513 23.4607C162.513 24.1282 162.267 24.6228 161.775 24.9446L154.043 29.8075L161.978 38.4606C162.335 38.842 162.513 39.277 162.513 39.7657C162.513 40.016 162.461 40.2543 162.356 40.4808C162.251 40.7073 162.113 40.9069 161.941 41.0797C161.769 41.2525 161.566 41.3866 161.332 41.482C161.098 41.5773 160.846 41.625 160.575 41.625C160.059 41.625 159.628 41.4641 159.284 41.1423L150.758 31.8635L148.507 33.2938V39.7478C148.507 40.2603 148.32 40.7013 147.944 41.0708C147.569 41.4403 147.117 41.625 146.588 41.625C146.047 41.625 145.589 41.4403 145.213 41.0708C144.838 40.7013 144.651 40.2603 144.651 39.7478V14.8971C144.651 14.3726 144.838 13.9287 145.213 13.5651C145.589 13.2016 146.047 13.0199 146.588 13.0199ZM174.932 21.6014C177.762 21.6014 180.198 22.5787 182.24 24.5334C183.249 25.4989 184.005 26.5745 184.509 27.7604C185.014 28.9464 185.266 30.2306 185.266 31.6132C185.266 32.1496 185.078 32.5935 184.703 32.9451C184.328 33.2967 183.87 33.4725 183.328 33.4725H168.714C168.923 34.1281 169.23 34.727 169.636 35.2693C170.042 35.8116 170.519 36.2764 171.067 36.6638C171.614 37.0512 172.217 37.3521 172.875 37.5666C173.533 37.7812 174.219 37.8885 174.932 37.8885C175.744 37.8885 176.489 37.7693 177.165 37.5309C177.842 37.2925 178.469 36.935 179.047 36.4582C179.416 36.1602 179.841 36.0053 180.321 35.9934C180.874 35.9934 181.332 36.1692 181.695 36.5208C182.058 36.8724 182.24 37.3163 182.24 37.8527C182.24 38.3771 182.055 38.8241 181.686 39.1936C179.779 40.8145 177.528 41.625 174.932 41.625C172.078 41.625 169.643 40.6477 167.625 38.693C165.608 36.7383 164.599 34.3784 164.599 31.6132C164.599 28.848 165.608 26.4881 167.625 24.5334C169.643 22.5787 172.078 21.6014 174.932 21.6014ZM197.722 21.6014C198.264 21.6014 198.845 21.6372 199.466 21.7087C200.088 21.7802 200.66 21.9083 201.182 22.0931C201.705 22.2778 202.139 22.5311 202.483 22.8529C202.828 23.1747 203 23.5918 203 24.1043C203 24.3666 202.948 24.6109 202.843 24.8374C202.739 25.0638 202.6 25.2635 202.428 25.4363C202.256 25.6091 202.053 25.7432 201.819 25.8385C201.585 25.9339 201.333 25.9816 201.062 25.9816C200.829 25.9816 200.558 25.916 200.251 25.7849C199.475 25.4869 198.633 25.3379 197.722 25.3379C196.824 25.3379 195.982 25.5018 195.194 25.8296C194.407 26.1574 193.721 26.6043 193.137 27.1705C192.553 27.7366 192.091 28.4011 191.753 29.1639C191.415 29.9267 191.246 30.7431 191.246 31.6132V39.7657C191.246 40.2782 191.058 40.7162 190.683 41.0797C190.307 41.4432 189.855 41.625 189.326 41.625C188.785 41.625 188.327 41.4432 187.952 41.0797C187.576 40.7162 187.389 40.2782 187.389 39.7657V23.4607C187.389 22.9482 187.576 22.5102 187.952 22.1467C188.327 21.7832 188.785 21.6014 189.326 21.6014C189.855 21.6014 190.307 21.7832 190.683 22.1467C191.058 22.5102 191.246 22.9482 191.246 23.4607V23.8183C192.168 23.1032 193.171 22.5549 194.253 22.1735C195.336 21.7921 196.492 21.6014 197.722 21.6014ZM89.3819 25.3379C88.4715 25.3379 87.6227 25.5048 86.8354 25.8385C86.0481 26.1723 85.3653 26.6222 84.7871 27.1883C84.2089 27.7545 83.7507 28.419 83.4124 29.1818C83.0741 29.9446 82.9049 30.755 82.9049 31.6132C82.9049 32.4714 83.0741 33.2818 83.4124 34.0446C83.7507 34.8074 84.2089 35.4719 84.7871 36.0381C85.3653 36.6042 86.0481 37.0541 86.8354 37.3879C87.6227 37.7216 88.4715 37.8885 89.3819 37.8885C90.2799 37.8885 91.1226 37.7216 91.9099 37.3879C92.6973 37.0541 93.3831 36.6012 93.9674 36.0291C94.5518 35.457 95.0131 34.7925 95.3514 34.0357C95.6897 33.2788 95.8589 32.4714 95.8589 31.6132C95.8589 30.755 95.6897 29.9476 95.3514 29.1907C95.0131 28.4339 94.5518 27.7694 93.9674 27.1973C93.3831 26.6252 92.6973 26.1723 91.9099 25.8385C91.1226 25.5048 90.2799 25.3379 89.3819 25.3379ZM112.246 25.3379C111.335 25.3379 110.487 25.5048 109.699 25.8385C108.912 26.1723 108.229 26.6222 107.651 27.1883C107.073 27.7545 106.615 28.419 106.276 29.1818C105.938 29.9446 105.769 30.755 105.769 31.6132C105.769 32.4714 105.938 33.2818 106.276 34.0446C106.615 34.8074 107.073 35.4719 107.651 36.0381C108.229 36.6042 108.912 37.0541 109.699 37.3879C110.487 37.7216 111.335 37.8885 112.246 37.8885C113.144 37.8885 113.986 37.7216 114.774 37.3879C115.561 37.0541 116.247 36.6012 116.831 36.0291C117.416 35.457 117.877 34.7925 118.215 34.0357C118.554 33.2788 118.723 32.4714 118.723 31.6132C118.723 30.755 118.554 29.9476 118.215 29.1907C117.877 28.4339 117.416 27.7694 116.831 27.1973C116.247 26.6252 115.561 26.1723 114.774 25.8385C113.986 25.5048 113.144 25.3379 112.246 25.3379ZM174.932 25.3379C174.231 25.3379 173.548 25.4452 172.884 25.6598C172.22 25.8743 171.611 26.1752 171.057 26.5626C170.504 26.95 170.024 27.4148 169.618 27.9571C169.212 28.4994 168.911 29.0983 168.714 29.7539H181.151C180.942 29.0983 180.631 28.4994 180.219 27.9571C179.807 27.4148 179.327 26.95 178.78 26.5626C178.232 26.1752 177.63 25.8743 176.971 25.6598C176.313 25.4452 175.634 25.3379 174.932 25.3379ZM12.9369 16.2382V23.0041H5.55616V16.2382H12.9369ZM21.6595 16.2382V23.0041H14.2788V16.2382H21.6595ZM30.3821 16.2382V23.0041H23.0014V16.2382H30.3821ZM39.1048 16.2382V23.0041H31.7241V16.2382H39.1048ZM47.8274 16.2382V23.0041H40.4467V16.2382H47.8274ZM39.1048 8.11908V14.885H31.7241V8.11908H39.1048ZM30.3821 8.11908V14.885H23.0014V8.11908H30.3821ZM21.6595 8.11908V14.885H14.2788V8.11908H21.6595ZM39.1048 0V6.7659H31.7241V0H39.1048Z" fill="#2396ED"/>
</svg>
