<svg width="211" height="50" viewBox="0 0 211 50" fill="none" xmlns="http://www.w3.org/2000/svg">
<path d="M36.307 47.3298C46.3899 45.8647 54.7178 44.6524 54.8135 44.6357L54.9874 44.6054L45.4681 35.2919C40.2325 30.1696 35.9489 25.9586 35.9489 25.9344C35.9489 25.8884 45.7783 3.62395 45.8336 3.54468C45.8521 3.51825 52.5413 13.0175 62.0487 26.5716C70.9498 39.2611 78.2882 49.7237 78.3565 49.8217L78.4805 50L48.2275 49.9968L17.9744 49.9936L36.307 47.3298ZM152.324 45.0774C147.719 44.8346 145.04 42.6777 144.331 38.6405C144.142 37.5665 144.141 37.5386 144.122 30.5665L144.103 23.8186H146.141H148.179L148.195 30.3456C148.21 36.2281 148.219 36.9178 148.287 37.3316C148.565 39.0111 149.117 40.1405 150.058 40.9511C150.81 41.5999 151.692 41.9798 152.911 42.1814C153.487 42.2765 155.124 42.2767 155.649 42.1818C156.885 41.9579 157.876 41.5153 158.751 40.7964C159.747 39.977 160.485 38.8144 160.841 37.4998L160.962 37.0567L160.975 30.4745L160.988 23.8923H163.069H165.15V34.2397V44.587H163.091H161.031V42.9453C161.031 41.8299 161.016 41.3077 160.985 41.3163C160.959 41.3233 160.854 41.4564 160.75 41.6121C160.04 42.6766 158.858 43.6502 157.562 44.2367C156.009 44.9397 154.452 45.1896 152.324 45.0774ZM199.066 45.0607C197.44 44.9602 195.729 44.5005 194.33 43.7887C191.381 42.2884 189.636 39.8154 189.125 36.4122C188.949 35.2345 188.927 33.6527 189.075 32.652C189.405 30.416 190.473 28.221 191.994 26.654C192.384 26.2523 193.268 25.5247 193.757 25.2039C195.076 24.3379 196.618 23.7322 198.256 23.4375C199.21 23.2658 200.891 23.1852 201.905 23.2625C204.452 23.4566 206.786 24.443 208.372 25.9954C209.984 27.5727 210.87 29.7766 210.983 32.4905C211.001 32.9158 211.005 33.6615 210.993 34.1476L210.97 35.0313L202.05 35.0406L193.13 35.0499V35.3773C193.13 36.374 193.425 37.5093 193.934 38.4752C194.373 39.3081 195.129 40.2176 195.748 40.6578C197.017 41.5603 198.571 42.1005 200.271 42.2305C200.901 42.2787 202.507 42.2279 203.225 42.1371C205.274 41.8781 207.223 41.217 208.796 40.2468C208.981 40.1327 209.158 40.026 209.19 40.0098C209.235 39.9861 209.246 40.2844 209.245 41.538L209.244 43.0956L208.822 43.3101C207.042 44.2154 205.004 44.7968 202.845 45.0144C202.201 45.0794 199.836 45.1083 199.066 45.0607ZM206.829 31.9236C206.829 30.2541 205.974 28.3994 204.763 27.4443C203.899 26.7628 202.855 26.3462 201.614 26.1881C201.026 26.1132 199.788 26.1421 199.169 26.245C197.86 26.4626 196.777 26.9359 195.833 27.7035C194.839 28.5113 194.094 29.4925 193.625 30.6104C193.457 31.0124 193.26 31.6723 193.198 32.0394L193.169 32.2143H199.999H206.829V31.9236ZM85.8301 44.5409C85.8405 44.5156 88.8696 37.9703 92.5613 29.9959L99.2735 15.4966H101.43H103.587L103.766 15.874C104.313 17.0274 117.203 44.5555 117.203 44.5698C117.203 44.5793 116.171 44.5867 114.909 44.5867L112.614 44.5863L110.757 40.5177L108.899 36.4491L101.418 36.449L93.9373 36.4489L93.8723 36.587C93.8365 36.663 93.0427 38.4937 92.1083 40.6553L90.4094 44.5856L88.1102 44.5862C86.2903 44.5867 85.815 44.5774 85.8301 44.5409ZM107.533 33.3441C107.533 33.3377 106.283 30.5497 104.755 27.1486C101.896 20.7858 101.736 20.4029 101.51 19.3814C101.404 18.9024 101.351 18.8891 101.288 19.3262C101.243 19.6386 101.048 20.3377 100.898 20.7255C100.823 20.9179 99.5358 23.8242 98.0369 27.1841C96.5379 30.5439 95.3115 33.307 95.3115 33.3244C95.3115 33.3417 98.0614 33.3559 101.422 33.3559C104.783 33.3559 107.533 33.3506 107.533 33.3441ZM118.591 44.0571V43.5272L126.044 35.0998L133.497 26.6724L126.749 26.654L120.001 26.6356L119.989 25.2271L119.978 23.8186H129.738H139.498V24.2943V24.7701L132.044 33.2434C127.944 37.9037 124.59 41.7246 124.59 41.7342C124.59 41.7437 127.904 41.7516 131.954 41.7516H139.319V43.1693V44.587H128.955H118.591V44.0571ZM173.283 44.5624C173.266 44.5489 173.253 39.876 173.253 34.1782V23.8186H175.29H177.327V25.9544C177.327 27.129 177.344 28.0901 177.365 28.0901C177.387 28.0901 177.486 27.8978 177.586 27.6628C178.044 26.5859 178.838 25.5797 179.861 24.7799C180.783 24.0595 181.836 23.6287 183.08 23.4638C183.429 23.4175 183.724 23.4086 184.423 23.4236C185.3 23.4424 185.758 23.4951 186.292 23.6385L186.46 23.6837V25.4228V27.1619L185.978 26.9637C185.128 26.6137 184.289 26.4752 183.281 26.5183C182.625 26.5464 182.194 26.6157 181.669 26.7777C180.59 27.1109 179.714 27.6991 179.102 28.502C178.217 29.6643 177.585 31.1583 177.399 32.5315C177.365 32.7779 177.346 34.7848 177.338 38.7413L177.326 44.587H175.319C174.216 44.587 173.299 44.5759 173.283 44.5624ZM0 44.4897C0 44.4766 4.48543 38.072 9.96763 30.2574L19.9353 16.0489L31.5514 8.03061C37.9402 3.62056 43.1847 0.00694299 43.2057 0.000171477C43.2268 -0.00623643 43.1427 0.167753 43.019 0.386997C42.8952 0.606242 37.2192 10.6202 30.4055 22.6403L18.017 44.4949L9.00851 44.5042C4.05383 44.5093 0 44.5028 0 44.4897Z" fill="#0089D6"/>
</svg>
