<svg width="55" height="20" viewBox="0 0 55 20" fill="none" xmlns="http://www.w3.org/2000/svg">
<g clip-path="url(#clip0_510_2370)">
<path d="M8.32955 15.7954L5 4.15909H7.6875L9.61364 12.2443H9.71023L11.8352 4.15909H14.1364L16.2557 12.2614H16.358L18.2841 4.15909H20.9716L17.6421 15.7954H15.2443L13.0284 8.1875H12.9375L10.7273 15.7954H8.32955ZM25.2827 15.9659C24.385 15.9659 23.6122 15.784 22.9645 15.4204C22.3206 15.053 21.8243 14.534 21.4759 13.8636C21.1274 13.1894 20.9531 12.392 20.9531 11.4716C20.9531 10.5739 21.1274 9.78598 21.4759 9.10795C21.8243 8.42992 22.3149 7.90151 22.9475 7.52272C23.5838 7.14393 24.33 6.95454 25.1861 6.95454C25.7618 6.95454 26.2978 7.04734 26.794 7.23295C27.294 7.41477 27.7297 7.68939 28.1009 8.05681C28.4759 8.42424 28.7675 8.88636 28.9759 9.44318C29.1842 9.99621 29.2884 10.6439 29.2884 11.3864V12.0511H21.919V10.5511H27.01C27.01 10.2027 26.9342 9.89393 26.7827 9.625C26.6312 9.35606 26.4209 9.14583 26.152 8.99431C25.8868 8.83901 25.5781 8.76136 25.2259 8.76136C24.8584 8.76136 24.5327 8.8466 24.2486 9.01705C23.9683 9.18372 23.7486 9.40909 23.5895 9.69318C23.4304 9.97348 23.349 10.286 23.3452 10.6307V12.0568C23.3452 12.4886 23.4247 12.8617 23.5838 13.1761C23.7467 13.4905 23.9759 13.733 24.2713 13.9034C24.5668 14.0738 24.9172 14.159 25.3225 14.159C25.5914 14.159 25.8376 14.1212 26.0611 14.0454C26.2846 13.9697 26.4759 13.8561 26.635 13.7045C26.794 13.553 26.9153 13.3674 26.9986 13.1477L29.2372 13.2955C29.1236 13.8333 28.8906 14.303 28.5384 14.7045C28.1899 15.1022 27.7391 15.4128 27.1861 15.6363C26.6368 15.856 26.0024 15.9659 25.2827 15.9659ZM30.9134 15.7954V4.15909H33.3338V8.53409H33.4077C33.5137 8.29924 33.6672 8.0606 33.8679 7.81818C34.0725 7.57197 34.3376 7.36742 34.6634 7.20454C34.9929 7.03787 35.402 6.95454 35.8906 6.95454C36.527 6.95454 37.1141 7.12121 37.652 7.45454C38.1899 7.78409 38.6198 8.28219 38.9418 8.94886C39.2637 9.61174 39.4247 10.4432 39.4247 11.4432C39.4247 12.4167 39.2675 13.2386 38.9531 13.9091C38.6425 14.5757 38.2183 15.0814 37.6804 15.4261C37.1463 15.767 36.5478 15.9375 35.885 15.9375C35.4153 15.9375 35.0156 15.8598 34.6861 15.7045C34.3603 15.5492 34.0933 15.3541 33.885 15.1193C33.6766 14.8806 33.5175 14.6401 33.4077 14.3977H33.2997V15.7954H30.9134ZM33.2827 11.4318C33.2827 11.9508 33.3547 12.4034 33.4986 12.7898C33.6425 13.1761 33.8509 13.4773 34.1236 13.6932C34.3963 13.9053 34.7278 14.0113 35.1179 14.0113C35.5118 14.0113 35.8452 13.9034 36.1179 13.6875C36.3906 13.4678 36.5971 13.1648 36.7372 12.7784C36.8812 12.3883 36.9531 11.9394 36.9531 11.4318C36.9531 10.928 36.8831 10.4848 36.7429 10.1023C36.6028 9.71969 36.3963 9.42046 36.1236 9.20455C35.8509 8.98864 35.5156 8.88068 35.1179 8.88068C34.724 8.88068 34.3906 8.98484 34.1179 9.19318C33.849 9.40151 33.6425 9.69698 33.4986 10.0795C33.3547 10.4621 33.2827 10.9129 33.2827 11.4318ZM45.3182 15.9545C44.4697 15.9545 43.714 15.8087 43.0511 15.517C42.3921 15.2215 41.8712 14.8162 41.4886 14.3011C41.1099 13.7822 40.9148 13.1837 40.9034 12.5057H43.3807C43.3958 12.7898 43.4886 13.0398 43.6591 13.2557C43.8333 13.4678 44.0644 13.6326 44.3523 13.75C44.6402 13.8674 44.964 13.9261 45.3239 13.9261C45.6989 13.9261 46.0303 13.8598 46.3182 13.7273C46.6061 13.5947 46.8315 13.411 46.9943 13.1761C47.1572 12.9413 47.2386 12.6705 47.2386 12.3636C47.2386 12.053 47.1515 11.7784 46.9773 11.5398C46.8068 11.2973 46.5606 11.108 46.2386 10.9716C45.9205 10.8352 45.5417 10.767 45.1023 10.767H44.0171V8.96022H45.1023C45.4735 8.96022 45.8011 8.89584 46.0852 8.76705C46.3731 8.63826 46.5966 8.46022 46.7557 8.23295C46.9148 8.00189 46.9943 7.73295 46.9943 7.42613C46.9943 7.13447 46.9243 6.87878 46.7841 6.65909C46.6477 6.4356 46.4546 6.26136 46.2046 6.13636C45.9583 6.01136 45.6705 5.94886 45.3409 5.94886C45.0076 5.94886 44.7027 6.00947 44.4261 6.13068C44.1496 6.2481 43.928 6.41666 43.7614 6.63636C43.5947 6.85606 43.5057 7.11363 43.4943 7.40909H41.1364C41.1477 6.73863 41.339 6.14772 41.7102 5.63636C42.0815 5.125 42.5815 4.72538 43.2102 4.4375C43.8428 4.14583 44.5568 4 45.3523 4C46.1553 4 46.858 4.14583 47.4602 4.4375C48.0625 4.72917 48.5303 5.1231 48.8636 5.61931C49.2008 6.11174 49.3674 6.66477 49.3636 7.2784C49.3674 7.92992 49.1648 8.47348 48.7557 8.90909C48.3504 9.34469 47.822 9.62121 47.1705 9.73863V9.82955C48.0265 9.9394 48.678 10.2367 49.125 10.7216C49.5758 11.2027 49.7993 11.8049 49.7955 12.5284C49.7993 13.1913 49.608 13.7803 49.2216 14.2954C48.839 14.8106 48.3106 15.2159 47.6364 15.5113C46.9621 15.8068 46.1894 15.9545 45.3182 15.9545Z" fill="white"/>
</g>
<defs>
<clipPath id="clip0_510_2370">
<rect width="45" height="12" fill="white" transform="translate(5 4)"/>
</clipPath>
</defs>
</svg>
