<svg width="180" height="50" viewBox="0 0 180 50" fill="none" xmlns="http://www.w3.org/2000/svg">
<path d="M39.252 14.0648L46.8002 7.81462L45.4721 6.08957C42.4588 3.35294 38.8308 1.45329 34.9246 0.566811C31.0185 -0.319669 26.9607 -0.164274 23.1276 1.01859C19.3092 2.22007 15.8462 4.41168 13.0631 7.38805C10.28 10.3644 8.2678 14.0281 7.21518 18.0357C7.09517 18.5066 8.46321 17.6274 9.06722 17.8024L19.4995 16.019C19.4995 16.019 20.0075 15.5023 20.3035 15.1648C24.9436 9.88968 32.8078 9.19799 38.164 13.6898L39.252 14.0648Z" fill="#EA4335"/>
<path d="M52.5484 17.9149C51.3467 13.3379 48.8855 9.22717 45.4682 6.08954L38.148 13.6731C39.6701 14.9594 40.891 16.59 41.7178 18.4412C42.5447 20.2923 42.9559 22.3154 42.9201 24.3567V25.7026C46.5202 25.7026 49.4403 28.7235 49.4403 32.4528C49.4403 36.1737 46.5202 39.1988 42.9201 39.1988L29.8918 39.1863L28.5918 39.3322V49.7783L29.8918 49.9992H42.9201C46.5512 50.0362 50.0976 48.8567 53.0362 46.6345C55.9747 44.4122 58.1498 41.265 59.2406 37.6571C60.3174 34.0543 60.2472 30.1853 59.0404 26.6274C57.8337 23.0695 55.555 20.0134 52.5444 17.9149H52.5484Z" fill="#4285F4"/>
<path d="M16.8429 49.995H29.8792V39.1864H16.8389C15.9108 39.1864 14.9948 38.9113 14.1508 38.5155L12.3187 39.0989L7.06661 44.5032L6.6106 46.3657C9.55145 48.6994 13.1419 49.9719 16.8389 49.9908L16.8429 49.995Z" fill="#34A853"/>
<path d="M16.8436 14.8815C13.3205 14.8967 9.88967 16.0561 7.0289 18.1981C4.16813 20.3401 2.01984 23.3581 0.883214 26.8318C-0.241422 30.3034 -0.293293 34.0548 0.734892 37.5586C1.76308 41.0624 3.81961 44.1425 6.61535 46.3657L14.1755 38.5155C12.891 37.9189 11.8281 36.9023 11.148 35.6199C10.4679 34.3375 10.2076 32.8591 10.4066 31.4087C10.6056 29.9583 11.2529 28.6151 12.2506 27.5824C13.2483 26.5497 14.542 25.884 15.9356 25.686C17.3294 25.4777 18.7506 25.745 19.9864 26.4481C21.2223 27.1511 22.2065 28.252 22.7917 29.5861L30.3519 21.7609C28.7592 19.609 26.7114 17.8688 24.3678 16.6757C22.0243 15.4825 19.4521 14.8686 16.8436 14.8815Z" fill="#FBBC05"/>
<path d="M97.3814 20.6882H92.3345C92.1906 19.8606 91.9252 19.1274 91.5384 18.4886C91.1515 17.8409 90.6702 17.2921 90.0945 16.8423C89.5187 16.3925 88.862 16.0552 88.1243 15.8303C87.3956 15.5964 86.6084 15.4794 85.7628 15.4794C84.2604 15.4794 82.929 15.8572 81.7685 16.6129C80.608 17.3596 79.6993 18.4571 79.0426 19.9055C78.3859 21.3449 78.0575 23.1037 78.0575 25.1818C78.0575 27.2959 78.3859 29.0772 79.0426 30.5256C79.7083 31.965 80.617 33.0535 81.7685 33.7912C82.929 34.5199 84.2559 34.8842 85.7493 34.8842C86.5769 34.8842 87.3506 34.7763 88.0703 34.5604C88.799 34.3355 89.4512 34.0071 90.027 33.5753C90.6117 33.1435 91.102 32.6127 91.4979 31.983C91.9027 31.3532 92.1816 30.6335 92.3345 29.8239L97.3814 29.8509C97.1925 31.1643 96.7831 32.3968 96.1534 33.5483C95.5327 34.6998 94.7185 35.7164 93.7109 36.598C92.7034 37.4706 91.5249 38.1544 90.1754 38.6491C88.826 39.1349 87.3281 39.3778 85.6818 39.3778C83.2528 39.3778 81.0848 38.8156 79.1776 37.6911C77.2704 36.5665 75.768 34.9427 74.6705 32.8196C73.5729 30.6965 73.0241 28.1506 73.0241 25.1818C73.0241 22.2041 73.5774 19.6581 74.6839 17.544C75.7905 15.4209 77.2973 13.7971 79.2045 12.6726C81.1117 11.5481 83.2708 10.9858 85.6818 10.9858C87.2202 10.9858 88.6506 11.2017 89.973 11.6335C91.2955 12.0653 92.474 12.6996 93.5085 13.5362C94.5431 14.3639 95.3932 15.3804 96.059 16.5859C96.7337 17.7824 97.1745 19.1499 97.3814 20.6882ZM106.635 11.3636V39H101.75V11.3636H106.635ZM120.7 39.4048C118.675 39.4048 116.921 38.9595 115.437 38.0689C113.952 37.1783 112.801 35.9323 111.982 34.331C111.173 32.7296 110.768 30.8584 110.768 28.7173C110.768 26.5762 111.173 24.7005 111.982 23.0902C112.801 21.4799 113.952 20.2294 115.437 19.3388C116.921 18.4482 118.675 18.0028 120.7 18.0028C122.724 18.0028 124.478 18.4482 125.962 19.3388C127.447 20.2294 128.594 21.4799 129.403 23.0902C130.222 24.7005 130.631 26.5762 130.631 28.7173C130.631 30.8584 130.222 32.7296 129.403 34.331C128.594 35.9323 127.447 37.1783 125.962 38.0689C124.478 38.9595 122.724 39.4048 120.7 39.4048ZM120.727 35.4915C121.824 35.4915 122.742 35.1901 123.479 34.5874C124.217 33.9756 124.766 33.157 125.126 32.1314C125.495 31.1058 125.679 29.9633 125.679 28.7038C125.679 27.4354 125.495 26.2884 125.126 25.2628C124.766 24.2282 124.217 23.4051 123.479 22.7933C122.742 22.1816 121.824 21.8757 120.727 21.8757C119.602 21.8757 118.666 22.1816 117.92 22.7933C117.182 23.4051 116.629 24.2282 116.26 25.2628C115.9 26.2884 115.72 27.4354 115.72 28.7038C115.72 29.9633 115.9 31.1058 116.26 32.1314C116.629 33.157 117.182 33.9756 117.92 34.5874C118.666 35.1901 119.602 35.4915 120.727 35.4915ZM147.988 30.2827V18.2727H152.873V39H148.137V35.3161H147.921C147.453 36.4766 146.684 37.4257 145.613 38.1634C144.552 38.901 143.243 39.2699 141.687 39.2699C140.328 39.2699 139.127 38.9685 138.084 38.3658C137.049 37.754 136.239 36.8679 135.655 35.7074C135.07 34.5379 134.778 33.1255 134.778 31.4702V18.2727H139.662V30.7145C139.662 32.0279 140.022 33.0715 140.742 33.8452C141.462 34.6188 142.406 35.0057 143.576 35.0057C144.296 35.0057 144.993 34.8303 145.667 34.4794C146.342 34.1286 146.895 33.6068 147.327 32.9141C147.768 32.2124 147.988 31.3352 147.988 30.2827ZM165.588 39.3643C163.96 39.3643 162.503 38.946 161.216 38.1094C159.93 37.2727 158.913 36.0582 158.167 34.4659C157.42 32.8736 157.047 30.9394 157.047 28.6634C157.047 26.3603 157.424 24.4171 158.18 22.8338C158.945 21.2415 159.975 20.0405 161.27 19.2308C162.566 18.4122 164.01 18.0028 165.602 18.0028C166.816 18.0028 167.815 18.2098 168.598 18.6236C169.38 19.0284 170.001 19.5187 170.46 20.0945C170.919 20.6612 171.274 21.1965 171.526 21.7003H171.728V11.3636H176.627V39H171.823V35.7344H171.526C171.274 36.2382 170.91 36.7734 170.433 37.3402C169.956 37.898 169.326 38.3748 168.544 38.7706C167.761 39.1664 166.776 39.3643 165.588 39.3643ZM166.951 35.3565C167.986 35.3565 168.868 35.0777 169.596 34.5199C170.325 33.9531 170.878 33.166 171.256 32.1584C171.634 31.1508 171.823 29.9768 171.823 28.6364C171.823 27.2959 171.634 26.1309 171.256 25.1413C170.887 24.1518 170.338 23.3826 169.61 22.8338C168.89 22.285 168.004 22.0107 166.951 22.0107C165.863 22.0107 164.954 22.294 164.225 22.8608C163.497 23.4276 162.948 24.2102 162.579 25.2088C162.21 26.2074 162.026 27.3499 162.026 28.6364C162.026 29.9318 162.21 31.0878 162.579 32.1044C162.957 33.112 163.51 33.9081 164.239 34.4929C164.977 35.0687 165.881 35.3565 166.951 35.3565Z" fill="#706D6E"/>
</svg>
