<svg width="64" height="64" viewBox="0 0 64 64" fill="none" xmlns="http://www.w3.org/2000/svg">
<path d="M33.6624 50.6709H10.4155C5.43173 50.6709 1.3916 46.6307 1.3916 41.647V9.02388C1.3916 4.04013 5.43173 0 10.4155 0H33.6625C38.6462 0 42.6864 4.04013 42.6864 9.02388V41.647C42.6862 46.6307 38.6461 50.6709 33.6624 50.6709Z" fill="#407093"/>
<path d="M19.1111 50.6709H10.4155C5.43198 50.6709 1.3916 46.6305 1.3916 41.647V9.02388C1.3916 4.04038 5.43198 0 10.4155 0H19.1111C14.1276 0 10.0871 4.04038 10.0871 9.02388V41.647C10.0871 46.6305 14.1276 50.6709 19.1111 50.6709Z" fill="#365E7D"/>
<path d="M38.6077 9.024V15.1902C38.6077 17.9175 36.3892 20.136 33.662 20.136H10.4155C7.68823 20.136 5.46973 17.9175 5.46973 15.1902V9.024C5.46973 6.29675 7.68823 4.07825 10.4155 4.07825H33.6619C36.3892 4.07812 38.6077 6.29662 38.6077 9.024Z" fill="#D3EFFB"/>
<path d="M16.3145 20.1359H10.4155C7.68823 20.1359 5.46973 17.9174 5.46973 15.1901V9.02388C5.46973 6.29663 7.68823 4.07812 10.4155 4.07812H16.3145C13.5872 4.07812 11.3687 6.29663 11.3687 9.02388V15.1901C11.3687 17.9174 13.5872 20.1359 16.3145 20.1359Z" fill="#B1E4F9"/>
<path d="M38.6077 29.8317C38.6077 27.5133 36.7283 25.6338 34.4098 25.6338C32.0914 25.6338 30.2119 27.5132 30.2119 29.8317V41.5283C30.2119 43.8467 32.0913 45.7262 34.4098 45.7262C36.7282 45.7262 38.6077 43.8468 38.6077 41.5283V29.8317Z" fill="#F4FBFF"/>
<path d="M35.9534 45.4334C35.4757 45.6227 34.9557 45.726 34.4098 45.726C32.0903 45.726 30.2119 43.8463 30.2119 41.5282V29.8315C30.2119 27.5134 32.0903 25.6337 34.4098 25.6337C34.9557 25.6337 35.4755 25.7372 35.9534 25.9263C34.3989 26.5415 33.2992 28.0579 33.2992 29.8315V41.5282C33.2992 43.3019 34.399 44.8182 35.9534 45.4334Z" fill="#E4F6FF"/>
<path d="M22.5992 45.7262C24.9177 45.7262 26.7971 43.8467 26.7971 41.5283C26.7971 39.2099 24.9177 37.3304 22.5992 37.3304C20.2808 37.3304 18.4014 39.2099 18.4014 41.5283C18.4014 43.8467 20.2808 45.7262 22.5992 45.7262Z" fill="#F4FBFF"/>
<path d="M22.5992 34.0295C24.9177 34.0295 26.7971 32.1501 26.7971 29.8317C26.7971 27.5132 24.9177 25.6338 22.5992 25.6338C20.2808 25.6338 18.4014 27.5132 18.4014 29.8317C18.4014 32.1501 20.2808 34.0295 22.5992 34.0295Z" fill="#F4FBFF"/>
<path d="M24.1431 45.4334C23.6654 45.6227 23.144 45.7261 22.5983 45.7261C20.2801 45.7261 18.4004 43.8463 18.4004 41.5282C18.4004 39.2101 20.2801 37.3303 22.5983 37.3303C23.1441 37.3303 23.6654 37.4338 24.1431 37.6229C22.5886 38.2382 21.4889 39.7546 21.4889 41.5282C21.4889 43.3019 22.5886 44.8182 24.1431 45.4334Z" fill="#E4F6FF"/>
<path d="M24.1431 33.7369C23.6654 33.9262 23.144 34.0295 22.5983 34.0295C20.2801 34.0295 18.4004 32.1498 18.4004 29.8317C18.4004 27.5135 20.2801 25.6338 22.5983 25.6338C23.1441 25.6338 23.6654 25.7373 24.1431 25.9264C22.5886 26.5417 21.4889 28.058 21.4889 29.8317C21.4889 31.6053 22.5886 33.1217 24.1431 33.7369Z" fill="#E4F6FF"/>
<path d="M10.7877 45.7262C13.1061 45.7262 14.9856 43.8467 14.9856 41.5283C14.9856 39.2099 13.1061 37.3304 10.7877 37.3304C8.4693 37.3304 6.58984 39.2099 6.58984 41.5283C6.58984 43.8467 8.4693 45.7262 10.7877 45.7262Z" fill="#F4FBFF"/>
<path d="M10.7877 34.0295C13.1061 34.0295 14.9856 32.1501 14.9856 29.8317C14.9856 27.5132 13.1061 25.6338 10.7877 25.6338C8.4693 25.6338 6.58984 27.5132 6.58984 29.8317C6.58984 32.1501 8.4693 34.0295 10.7877 34.0295Z" fill="#F4FBFF"/>
<path d="M12.3316 45.4334C11.8539 45.6227 11.3325 45.7261 10.7867 45.7261C8.46862 45.7261 6.58887 43.8463 6.58887 41.5282C6.58887 39.2101 8.46862 37.3303 10.7867 37.3303C11.3326 37.3303 11.8539 37.4338 12.3316 37.6229C10.7771 38.2382 9.67737 39.7546 9.67737 41.5282C9.67737 43.3019 10.7772 44.8182 12.3316 45.4334Z" fill="#E4F6FF"/>
<path d="M12.3316 33.7369C11.8539 33.9262 11.3325 34.0295 10.7867 34.0295C8.46862 34.0295 6.58887 32.1498 6.58887 29.8317C6.58887 27.5135 8.46862 25.6338 10.7867 25.6338C11.3326 25.6338 11.8539 25.7373 12.3316 25.9264C10.7771 26.5417 9.67737 28.058 9.67737 29.8317C9.67737 31.6053 10.7772 33.1217 12.3316 33.7369Z" fill="#E4F6FF"/>
<path d="M46.99 63.9997C55.616 63.9997 62.6088 57.0069 62.6088 48.3808C62.6088 39.7548 55.616 32.762 46.99 32.762C38.3639 32.762 31.3711 39.7548 31.3711 48.3808C31.3711 57.0069 38.3639 63.9997 46.99 63.9997Z" fill="#FFE07D"/>
<path d="M48.3042 63.9443C47.8711 63.981 47.4321 64 46.9902 64C38.3641 64 31.3711 57.0068 31.3711 48.3808C31.3711 39.7548 38.3642 32.7617 46.9902 32.7617C47.4321 32.7617 47.8711 32.7807 48.3042 32.8173C40.2927 33.4831 33.9991 40.1967 33.9991 48.3808C33.9991 56.565 40.2927 63.2786 48.3042 63.9443Z" fill="#FFD064"/>
<path d="M46.9903 58.7862C52.7371 58.7862 57.3957 54.1276 57.3957 48.3808C57.3957 42.6341 52.7371 37.9755 46.9903 37.9755C41.2436 37.9755 36.585 42.6341 36.585 48.3808C36.585 54.1276 41.2436 58.7862 46.9903 58.7862Z" fill="#D3EFFB"/>
<path d="M49.3842 58.5097C48.616 58.6912 47.8141 58.7863 46.9903 58.7863C41.2426 58.7863 36.585 54.1272 36.585 48.3808C36.585 42.6345 41.2426 37.9753 46.9903 37.9753C47.8142 37.9753 48.6161 38.0705 49.3842 38.252C44.791 39.3333 41.3713 43.4583 41.3713 48.3808C41.3713 53.3033 44.791 57.4283 49.3842 58.5097Z" fill="#B1E4F9"/>
<path d="M49.691 26.3389H44.2888C42.515 26.3389 41.0771 27.7767 41.0771 29.5505C41.0771 31.3242 42.515 32.7621 44.2888 32.7621H49.691C51.4648 32.7621 52.9026 31.3242 52.9026 29.5505C52.9026 27.7767 51.4648 26.3389 49.691 26.3389Z" fill="#FFE07D"/>
<path d="M45.9353 31.8213C46.5161 32.4037 47.3195 32.7622 48.2063 32.7622H44.289C43.4023 32.7622 42.5989 32.4037 42.018 31.8213C41.4371 31.2405 41.0771 30.4371 41.0771 29.5503C41.0771 27.7768 42.5155 26.3398 44.289 26.3398H48.2063C46.4328 26.3398 44.9944 27.7768 44.9944 29.5503C44.9944 30.4371 45.3544 31.2405 45.9353 31.8213Z" fill="#FFD064"/>
<path d="M46.9902 41.8076C46.4568 41.8076 46.0244 41.3753 46.0244 40.8419V37.9755C46.0244 37.4421 46.4568 37.0098 46.9902 37.0098C47.5235 37.0098 47.9559 37.4421 47.9559 37.9755V40.8419C47.9559 41.3751 47.5235 41.8076 46.9902 41.8076Z" fill="#9DC6FB"/>
<path d="M46.9902 59.7521C46.4568 59.7521 46.0244 59.3197 46.0244 58.7863V55.92C46.0244 55.3866 46.4568 54.9542 46.9902 54.9542C47.5235 54.9542 47.9559 55.3866 47.9559 55.92V58.7863C47.9559 59.3196 47.5235 59.7521 46.9902 59.7521Z" fill="#9DC6FB"/>
<path d="M39.4513 49.3467H36.5849C36.0515 49.3467 35.6191 48.9143 35.6191 48.3809C35.6191 47.8475 36.0515 47.4152 36.5849 47.4152H39.4513C39.9846 47.4152 40.417 47.8475 40.417 48.3809C40.4171 48.9143 39.9846 49.3467 39.4513 49.3467Z" fill="#9DC6FB"/>
<path d="M57.3956 49.3467H54.5292C53.9959 49.3467 53.5635 48.9143 53.5635 48.3809C53.5635 47.8475 53.9959 47.4152 54.5292 47.4152H57.3956C57.929 47.4152 58.3614 47.8475 58.3614 48.3809C58.3614 48.9143 57.929 49.3467 57.3956 49.3467Z" fill="#9DC6FB"/>
<path d="M45.4378 49.9328C44.5806 49.0757 44.5806 47.686 45.4378 46.8287L47.8784 44.3881C48.7355 43.531 50.1254 43.531 50.9825 44.3881C51.8396 45.2452 51.8396 46.6351 50.9825 47.4922L48.5419 49.9328C47.6848 50.79 46.295 50.79 45.4378 49.9328Z" fill="#407093"/>
<path d="M51.4983 45.2044C50.7246 44.9282 49.8283 45.0994 49.2083 45.7182L46.7671 48.1594C46.1483 48.7794 45.9771 49.6757 46.2533 50.4494C45.9546 50.3432 45.6758 50.1719 45.4371 49.9332C44.5796 49.0757 44.5796 47.6869 45.4371 46.8294L47.8783 44.3882C48.7346 43.5319 50.1246 43.5319 50.9821 44.3882C51.2208 44.6269 51.3921 44.9057 51.4983 45.2044Z" fill="#365E7D"/>
<path d="M46.9904 59.7521C40.7203 59.7521 35.6191 54.651 35.6191 48.3809C35.6191 42.1108 40.7203 37.0096 46.9904 37.0096C53.2605 37.0096 58.3616 42.1108 58.3616 48.3809C58.3616 54.651 53.2605 59.7521 46.9904 59.7521ZM46.9904 38.9413C41.7854 38.9413 37.5508 43.1759 37.5508 48.3809C37.5508 53.5859 41.7854 57.8205 46.9904 57.8205C52.1954 57.8205 56.43 53.5859 56.43 48.3809C56.43 43.1759 52.1954 38.9413 46.9904 38.9413Z" fill="#FFD064"/>
<path d="M33.0397 11.1006C32.3186 10.8458 31.5225 10.5389 31.0855 10.1961C30.9901 10.1214 30.9494 9.91638 30.9885 9.70875C31.0097 9.59588 31.1084 9.21888 31.4846 9.10563C32.2666 8.87 32.7727 9.26538 32.8279 9.31125C33.2379 9.65213 33.8467 9.5965 34.188 9.18638C34.5291 8.77625 34.4732 8.16738 34.0631 7.82625C33.7542 7.56938 33.3265 7.33763 32.8201 7.20813V7.00213C32.8201 6.46875 32.3877 6.03638 31.8544 6.03638C31.321 6.03638 30.8886 6.46875 30.8886 7.00213V7.26938C29.9651 7.56388 29.2776 8.35713 29.0902 9.351C28.9146 10.2834 29.2222 11.1896 29.8934 11.716C30.5484 12.2298 31.4832 12.5991 32.396 12.9218C33.079 13.1631 33.0994 13.6848 33.0506 13.9741C32.9685 14.463 32.5571 14.9915 31.8481 14.9963C31.0906 15.0025 30.8751 14.9673 30.3051 14.5945C29.8589 14.3024 29.2602 14.4275 28.9682 14.874C28.6762 15.3204 28.8014 15.9189 29.2477 16.2109C29.8716 16.619 30.3427 16.8021 30.8885 16.8786V17.1103C30.8885 17.6436 31.3209 18.076 31.8542 18.076C32.3876 18.076 32.82 17.6436 32.82 17.1103V16.7769C34.0155 16.3938 34.78 15.3371 34.9552 14.2943C35.1944 12.8735 34.4245 11.5901 33.0397 11.1006Z" fill="#80B4FB"/>
</svg>
