<svg width="64" height="64" viewBox="0 0 64 64" fill="none" xmlns="http://www.w3.org/2000/svg">
<path fill-rule="evenodd" clip-rule="evenodd" d="M33.2318 61.8471C34.4303 62.8526 36.1424 62.9546 37.2499 61.8471C37.7351 61.3591 38.0269 60.7117 38.0712 60.025C38.1154 59.3382 37.909 58.6587 37.4904 58.1126C38.0047 58.6136 38.6898 58.9011 39.4076 58.9171C40.1255 58.933 40.8226 58.6762 41.3586 58.1984C41.8946 57.7207 42.2296 57.0575 42.2959 56.3425C42.3623 55.6276 42.1552 54.9141 41.7163 54.3458L41.8913 54.5208C42.4002 55.0323 43.0849 55.3307 43.806 55.3553C44.5271 55.38 45.2305 55.1289 45.7731 54.6533C46.3157 54.1777 46.6568 53.5132 46.7269 52.7951C46.7969 52.077 46.5908 51.3591 46.1504 50.7876C46.6729 51.317 47.3823 51.6201 48.1261 51.6318C48.8698 51.6435 49.5884 51.3629 50.1273 50.8502C50.6662 50.3375 50.9824 49.6337 51.0077 48.8903C51.0331 48.1469 50.7656 47.4233 50.2629 46.8751C49.9754 46.5473 49.5963 46.1721 49.1445 45.7531L36.6855 33.2941L32.4123 29.0172C28.7038 24.8278 15.4031 27.9389 11.1518 28.0773L6.34277 43.4573L13.8803 45.6248L33.2318 61.8471Z" fill="#FBBD80"/>
<path fill-rule="evenodd" clip-rule="evenodd" d="M50.3973 47.0055L57.3555 42.6084L52.8455 28.0765C48.6015 27.9345 38.1387 23.949 33.9455 27.6539L32.776 28.6849L23.5128 37.173C22.8827 37.7454 22.5052 38.5442 22.463 39.3944C22.4207 40.2445 22.7172 41.0768 23.2875 41.7088C23.8577 42.3408 24.6553 42.7209 25.5053 42.766C26.3554 42.811 27.1886 42.5172 27.8225 41.949L36.6858 33.2897L50.1825 46.7875C50.259 46.864 50.3172 46.9369 50.3973 47.0062V47.0055Z" fill="#F5AD65"/>
<path d="M0.400391 44.3461L5.97414 23.5374L13.7884 25.6321L8.21827 46.4407L0.400391 44.3461Z" fill="#69A7FF"/>
<path d="M50.2109 25.6321L58.0288 23.5374L63.5989 44.3497L55.7847 46.4407L50.2109 25.6321Z" fill="#FF3D50"/>
<path fill-rule="evenodd" clip-rule="evenodd" d="M27.7746 59.8907C27.255 60.4358 26.5402 60.7524 25.7873 60.771C25.0345 60.7896 24.305 60.5086 23.7591 59.9898C23.2133 59.4709 22.8956 58.7566 22.876 58.0038C22.8563 57.2509 23.1363 56.5211 23.6543 55.9744C23.658 55.9672 23.6653 55.9634 23.669 55.9562L25.7236 53.8105C26.2435 53.2677 26.9571 52.9529 27.7085 52.9348C28.4598 52.9167 29.1878 53.1968 29.7333 53.7138C30.2787 54.2309 30.5973 54.9428 30.6194 55.6941C30.6415 56.4453 30.3652 57.1748 29.8511 57.7229C29.8447 57.7301 29.8373 57.7362 29.8292 57.7412L27.7746 59.8907Z" fill="#F5AD65"/>
<path fill-rule="evenodd" clip-rule="evenodd" d="M23.6684 55.9563C23.4109 56.2299 23.1017 56.4497 22.7587 56.6031C22.4157 56.7565 22.0457 56.8404 21.6702 56.8499C21.2946 56.8595 20.9208 56.7945 20.5705 56.6587C20.2201 56.5229 19.9002 56.319 19.6292 56.0588C19.3581 55.7986 19.1413 55.4873 18.9913 55.1428C18.8413 54.7984 18.7611 54.4276 18.7552 54.0519C18.7494 53.6762 18.8181 53.3031 18.9573 52.9542C19.0965 52.6052 19.3035 52.2873 19.5664 52.0188L21.621 49.8767C21.8793 49.6073 22.1882 49.3915 22.5299 49.2415C22.8717 49.0916 23.2396 49.0104 23.6127 49.0026C23.9859 48.9948 24.3569 49.0606 24.7046 49.1962C25.0523 49.3318 25.3698 49.5345 25.6392 49.7929C25.9085 50.0512 26.1244 50.36 26.2743 50.7018C26.4243 51.0435 26.5055 51.4115 26.5133 51.7846C26.5211 52.1577 26.4553 52.5287 26.3197 52.8764C26.1841 53.2241 25.9813 53.5417 25.723 53.811L23.6684 55.9563Z" fill="#F5AD65"/>
<path fill-rule="evenodd" clip-rule="evenodd" d="M19.7233 51.8543C19.201 52.3941 18.4862 52.7052 17.7352 52.7195C16.9842 52.7339 16.258 52.4503 15.7155 51.9309C15.1729 51.4114 14.858 50.6983 14.8397 49.9474C14.8214 49.1965 15.1011 48.4688 15.6177 47.9235L16.9947 46.4881C17.253 46.219 17.5618 46.0034 17.9035 45.8537C18.2451 45.7039 18.6129 45.6229 18.9859 45.6153C19.3589 45.6077 19.7297 45.6737 20.0772 45.8093C20.4246 45.945 20.742 46.1479 21.0111 46.4062C21.2802 46.6645 21.4958 46.9734 21.6455 47.315C21.7953 47.6567 21.8763 48.0245 21.8839 48.3974C21.8915 48.7704 21.8256 49.1412 21.6899 49.4887C21.5542 49.8362 21.3514 50.1535 21.093 50.4226L19.7233 51.8543Z" fill="#F5AD65"/>
<path fill-rule="evenodd" clip-rule="evenodd" d="M32.5461 63.1293C32.0684 63.632 31.4228 63.9418 30.7318 63.9999H30.2363C29.7029 63.9543 29.1931 63.7588 28.7659 63.436C28.3388 63.1132 28.0115 62.6763 27.8218 62.1756C27.6322 61.6748 27.5879 61.1307 27.6941 60.6059C27.8003 60.0811 28.0527 59.597 28.4221 59.2094C28.4295 59.2058 28.4331 59.1984 28.4403 59.1912L29.8175 57.7594C30.342 57.2255 31.0559 56.9198 31.8043 56.9086C32.5527 56.8975 33.2753 57.1818 33.8156 57.6999C34.3558 58.218 34.67 58.9281 34.6901 59.6763C34.7103 60.4245 34.4347 61.1506 33.9231 61.6969L32.5461 63.1293Z" fill="#F5AD65"/>
<path d="M46.732 52.6411L39.9706 45.8834C39.802 45.7143 39.7075 45.4852 39.7078 45.2464C39.7082 45.0076 39.8034 44.7788 39.9724 44.6102C40.1415 44.4416 40.3706 44.3471 40.6094 44.3474C40.8482 44.3478 41.077 44.4429 41.2456 44.612L48.273 51.6394C47.8792 51.6533 47.4869 51.5847 47.1213 51.438C46.7556 51.2913 46.4247 51.0697 46.1497 50.7875C46.5555 51.3181 46.7618 51.9744 46.7326 52.6418L46.732 52.6411ZM38.0726 59.9635C38.1024 59.2971 37.896 58.6416 37.4897 58.1125C37.7637 58.3782 38.0886 58.5859 38.4448 58.723C38.801 58.8601 39.1812 58.9238 39.5626 58.9104L33.2529 52.6008C33.1694 52.517 33.0703 52.4505 32.9612 52.4051C32.852 52.3596 32.735 52.3362 32.6168 52.3361C32.4986 52.3359 32.3815 52.3591 32.2722 52.4043C32.163 52.4495 32.0637 52.5158 31.9801 52.5994C31.8965 52.683 31.8302 52.7822 31.785 52.8915C31.7399 53.0007 31.7167 53.1178 31.7168 53.236C31.7169 53.3543 31.7404 53.4713 31.7858 53.5804C31.8312 53.6896 31.8977 53.7887 31.9815 53.8721L38.0726 59.9635ZM42.2985 56.2C42.33 55.5324 42.1234 54.8753 41.7156 54.3458L41.8906 54.5208C42.1658 54.7951 42.4943 55.01 42.8559 55.1522C43.2175 55.2945 43.6044 55.361 43.9927 55.3476L37.2497 48.6048C37.166 48.5213 37.0667 48.4551 36.9574 48.41C36.8481 48.3649 36.731 48.3418 36.6128 48.342C36.4945 48.3421 36.3775 48.3656 36.2683 48.411C36.1592 48.4564 36.06 48.5229 35.9766 48.6066C35.8931 48.6903 35.8269 48.7896 35.7818 48.8989C35.7367 49.0082 35.7136 49.1253 35.7138 49.2435C35.7139 49.3618 35.7374 49.4788 35.7828 49.588C35.8282 49.6971 35.8946 49.7963 35.9784 49.8798L42.2985 56.2Z" fill="#F5AD65"/>
<path fill-rule="evenodd" clip-rule="evenodd" d="M8.80114 44.2622L2.76464 42.6447L7.75189 24.0146L5.97414 23.5374L0.400391 44.3461L8.21827 46.4407L8.80114 44.2622Z" fill="#5F96E6"/>
<path fill-rule="evenodd" clip-rule="evenodd" d="M63.0526 42.306L57.0488 43.9162L56.7938 42.9617L52.8084 28.0728L52.0216 25.1475L50.2109 25.6321L50.8011 27.8361L55.1327 44.0108L55.7847 46.4407L63.5989 44.3497L63.0526 42.306Z" fill="#E82E41"/>
</svg>
