<svg width="64" height="64" viewBox="0 0 64 64" fill="none" xmlns="http://www.w3.org/2000/svg">
<path d="M50.399 49.1466C52.7028 46.3838 54.8787 43.7743 54.8787 36.8405C54.8787 30.8549 52.2974 25.2066 47.786 21.284C47.7617 13.003 41.0178 6.27362 32.7312 6.27362C24.4445 6.27362 17.6758 13.0274 17.6757 21.329C17.6757 22.022 17.743 22.6997 17.8649 23.3662C15.1659 26.6116 13.7358 30.6699 13.7237 35.1312C13.5129 35.9511 10.9432 41.3802 9.96778 43.4409C9.67953 44.05 9.45941 44.5153 9.35316 44.7453C9.33578 44.7829 9.32166 44.8219 9.31066 44.862C9.14928 45.4531 8.94841 46.1886 9.38453 46.9439C9.79291 47.6514 10.5244 48.0739 11.3415 48.0739H14.1977V54.2796C14.1977 56.0805 15.6629 57.5456 17.4638 57.5456H20.3137C21.1277 57.5456 22.246 57.8176 22.56 60.1696C22.6409 60.7759 22.7273 61.4294 22.8155 62.0981C22.8648 62.4712 23.1828 62.7501 23.559 62.7501H46.2764C46.4942 62.7501 46.7012 62.6554 46.8438 62.4907C46.9863 62.326 47.0499 62.1074 47.0185 61.8919C46.6367 59.2759 46.2869 56.0599 46.977 54.396C47.9223 52.1172 49.1814 50.607 50.399 49.1468V49.1466ZM32.7313 7.7735C40.2058 7.7735 46.2867 13.8544 46.2867 21.3289C46.2867 24.5699 44.6172 27.4784 42.6839 30.8464C41.6819 32.592 40.6483 34.3927 39.7829 36.3706H36.4624V21.367C36.4624 21.2334 36.427 21.1082 36.3659 20.9996H36.3662L33.4442 15.803C33.3114 15.5668 33.0614 15.4205 32.7905 15.4205C32.5197 15.4205 32.2697 15.5668 32.1369 15.803L29.215 20.9995H29.2152C29.1539 21.1082 29.1185 21.2335 29.1185 21.367V36.3706H25.6798C24.8144 34.3926 23.7808 32.5917 22.7787 30.8461C20.8454 27.4784 19.176 24.5697 19.1759 21.3289C19.1759 13.8544 25.2568 7.7735 32.7313 7.7735ZM28.4058 46.5406H37.0565V47.7964C37.0565 48.4888 36.4933 49.0521 35.8009 49.0521H29.6615C28.9692 49.0521 28.4058 48.4888 28.4058 47.7964V46.5406ZM38.4928 45.0406H26.9694V42.2056H38.4928V45.0406ZM39.5277 40.7056H25.9347V37.8706H39.5277V40.7056ZM30.6183 32.8288V22.117H32.0403V32.8288H30.6183ZM33.5403 22.117H34.9623V32.8288H33.5403V22.117ZM31.1505 20.617L32.7903 17.7008L34.4302 20.617H31.1505ZM30.6183 34.3288H34.9623V36.3706H30.6183V34.3288ZM45.5915 53.821C44.8433 55.6252 45.0303 58.4077 45.4134 61.2499H24.2164C24.1582 60.8088 24.1012 60.3791 24.0468 59.971C23.5908 56.5555 21.5122 56.0455 20.3137 56.0455H17.4638C16.4899 56.0455 15.6977 55.2533 15.6977 54.2795V47.3237C15.6977 46.9096 15.3618 46.5737 14.9477 46.5737H11.3415C11.0545 46.5737 10.8272 46.4424 10.6835 46.1937C10.5764 46.0082 10.6167 45.7793 10.7413 45.317C10.854 45.0744 11.0602 44.6391 11.3235 44.0825C14.9519 36.4169 15.2234 35.5841 15.2234 35.1885C15.2234 31.455 16.296 28.0322 18.3384 25.2022C19.0484 27.3602 20.2409 29.4389 21.4774 31.593C22.5109 33.3934 23.5773 35.2549 24.4345 37.2767V41.4557C24.4345 41.8699 24.7704 42.2057 25.1845 42.2057H25.4693V45.7907C25.4693 46.2049 25.8052 46.5407 26.2193 46.5407H26.9055V47.7965C26.9055 49.316 28.1418 50.5522 29.6613 50.5522H35.8007C37.32 50.5522 38.5563 49.316 38.5563 47.7965V46.5407H39.2425C39.6567 46.5407 39.9925 46.2049 39.9925 45.7907V42.2057H40.2774C40.6915 42.2057 41.0274 41.8699 41.0274 41.4557V37.2767C41.8847 35.255 42.951 33.3935 43.9844 31.5933C45.6023 28.7747 47.1448 26.0854 47.6292 23.1785C51.2989 26.766 53.3783 31.6676 53.3783 36.8405C53.3783 43.231 51.4637 45.5273 49.2465 48.1861C47.9572 49.7326 46.6238 51.3317 45.5912 53.8213L45.5915 53.821ZM22.4139 22.0788C21.9998 22.0788 21.6639 21.7429 21.6639 21.3288C21.6639 15.2264 26.6287 10.2616 32.7312 10.2616C33.1453 10.2616 33.4812 10.5975 33.4812 11.0116C33.4812 11.4258 33.1453 11.7616 32.7312 11.7616C27.4558 11.7616 23.1639 16.0534 23.1639 21.3288C23.1639 21.7429 22.828 22.0788 22.4139 22.0788ZM31.9813 4.03288V2C31.9813 1.58588 32.3172 1.25 32.7313 1.25C33.1454 1.25 33.4813 1.58588 33.4813 2V4.03288C33.4813 4.447 33.1454 4.78288 32.7313 4.78288C32.3172 4.78288 31.9813 4.447 31.9813 4.03288ZM22.4172 4.96462C22.2102 4.606 22.3329 4.14725 22.6917 3.94012C23.0505 3.73338 23.5092 3.856 23.7162 4.21462L24.7327 5.975C24.9397 6.33362 24.8169 6.79237 24.4582 6.9995C24.3402 7.06762 24.211 7.10012 24.0839 7.10012C23.8247 7.10012 23.5725 6.96562 23.4337 6.725L22.4172 4.96462ZM15.3423 11.2896C15.5494 10.931 16.0079 10.8079 16.3668 11.0151L18.1273 12.0315C18.4859 12.2386 18.6089 12.6972 18.4018 13.056C18.2629 13.2966 18.0108 13.4311 17.7515 13.4311C17.6243 13.4311 17.4954 13.3987 17.3773 13.3305L15.6168 12.3141C15.2582 12.107 15.1352 11.6484 15.3423 11.2896ZM12.6522 21.329C12.6522 20.9149 12.988 20.579 13.4022 20.579H15.4349C15.849 20.579 16.1849 20.9149 16.1849 21.329C16.1849 21.7431 15.849 22.079 15.4349 22.079H13.4022C12.988 22.079 12.6522 21.7431 12.6522 21.329ZM40.7298 5.975L41.7462 4.21462C41.9533 3.856 42.4118 3.73325 42.7707 3.94012C43.1294 4.14725 43.2523 4.60588 43.0452 4.96462L42.0288 6.725C41.8899 6.96562 41.6378 7.10012 41.3785 7.10012C41.2513 7.10012 41.1224 7.06762 41.0043 6.9995C40.6455 6.79237 40.5227 6.33375 40.7298 5.975ZM47.0605 13.0559C46.8535 12.6971 46.9764 12.2385 47.335 12.0314L49.0955 11.015C49.4548 10.8081 49.9132 10.9309 50.12 11.2895C50.327 11.6483 50.2042 12.1069 49.8455 12.314L48.085 13.3304C47.9669 13.3985 47.8379 13.431 47.7108 13.431C47.4515 13.431 47.1994 13.2965 47.0605 13.0559ZM50.0273 20.579H52.0602C52.4743 20.579 52.8102 20.9149 52.8102 21.329C52.8102 21.7431 52.4743 22.079 52.0602 22.079H50.0273C49.6132 22.079 49.2773 21.7431 49.2773 21.329C49.2773 20.9149 49.6132 20.579 50.0273 20.579Z" fill="url(#paint0_linear_133_5896)"/>
<defs>
<linearGradient id="paint0_linear_133_5896" x1="32.2859" y1="32.0001" x2="62.397" y2="51.6905" gradientUnits="userSpaceOnUse">
<stop stop-color="#007BFF"/>
<stop offset="1" stop-color="#00D4FF"/>
</linearGradient>
</defs>
</svg>
