<svg width="64" height="64" viewBox="0 0 64 64" fill="none" xmlns="http://www.w3.org/2000/svg">
<path fill-rule="evenodd" clip-rule="evenodd" d="M42.5256 23.8324L35.5596 29.6091L39.2953 38.283C39.4154 38.5616 39.7983 38.59 39.9583 38.3324L42.3699 34.4463L46.8504 35.3639C47.1481 35.4246 47.3902 35.1271 47.2701 34.8481L42.5256 23.8324Z" fill="#FE646F"/>
<path fill-rule="evenodd" clip-rule="evenodd" d="M42.5255 23.8324L41.6045 24.5963L46.02 34.8483C46.0719 34.9686 46.0563 35.0924 45.9979 35.1894L46.8504 35.364C47.148 35.4248 47.3901 35.1273 47.27 34.8483L42.5255 23.8324ZM39.0674 37.7538L41.2609 34.2191L42.37 34.4463L39.9584 38.3324C39.7984 38.5901 39.4154 38.5616 39.2954 38.283L39.0674 37.7538Z" fill="#FD4755"/>
<path fill-rule="evenodd" clip-rule="evenodd" d="M32.2486 29.1611L27.24 39.919C27.112 40.194 26.7282 40.2114 26.5757 39.9491L24.2779 35.9948L19.7725 36.782C19.4732 36.8343 19.2397 36.5296 19.368 36.2543L24.3217 25.6141L32.2486 29.1611Z" fill="#FE646F"/>
<path fill-rule="evenodd" clip-rule="evenodd" d="M32.2486 29.1611L27.24 39.919C27.112 40.194 26.7282 40.2114 26.5757 39.9491L24.2779 35.9948L19.7725 36.782C19.4732 36.8343 19.2397 36.5296 19.368 36.2543L19.6725 35.6001L23.6451 34.906L25.943 38.8604C26.0954 39.1226 26.4791 39.1053 26.6072 38.8303L31.3054 28.7391L32.2486 29.1611Z" fill="#FD4755"/>
<path fill-rule="evenodd" clip-rule="evenodd" d="M35.2205 2.64577C38.2154 4.88752 37.5362 4.64027 41.2714 4.84814C42.7061 4.92789 43.8712 5.90564 44.199 7.30464C44.5085 8.62602 44.66 10.292 45.6689 11.2389L47.4186 12.8811C48.4664 13.8645 48.7304 15.3624 48.0822 16.6448C46.3946 19.9834 46.5201 19.2716 46.9641 22.9861C47.1346 24.4129 46.3741 25.7301 45.0532 26.2959C41.6144 27.7686 42.1681 27.304 40.1205 30.4349C39.334 31.6374 37.9047 32.1576 36.5292 31.742C32.9482 30.6598 33.671 30.6598 30.09 31.742C28.7145 32.1576 27.2852 31.6375 26.4987 30.4349C24.4511 27.304 25.0049 27.7686 21.566 26.2959C20.2451 25.7303 19.4846 24.4129 19.6551 22.9861C20.0991 19.2716 20.2246 19.9834 18.537 16.6448C17.8887 15.3624 18.1529 13.8644 19.2006 12.8811C21.9284 10.321 21.567 10.9469 22.4202 7.30452C22.748 5.90552 23.9132 4.92777 25.3479 4.84802C29.083 4.64027 28.4039 4.88739 31.3987 2.64564C32.5491 1.78477 34.0701 1.78477 35.2205 2.64577Z" fill="#FFE177"/>
<path fill-rule="evenodd" clip-rule="evenodd" d="M35.2201 2.64571C38.215 4.88746 37.5358 4.64021 41.271 4.84809C42.7057 4.92784 43.8708 5.90559 44.1986 7.30459C44.5081 8.62596 44.6596 10.292 45.6685 11.2388L47.4182 12.8811C48.466 13.8645 48.73 15.3623 48.0818 16.6447C46.3942 19.9833 46.5197 19.2716 46.9637 22.9861C47.1342 24.4128 46.3737 25.7301 45.0528 26.2958C41.614 27.7686 42.1677 27.304 40.1201 30.4348C39.3568 31.602 37.988 32.1263 36.6505 31.7762C37.3831 31.5795 38.0361 31.117 38.4822 30.4348C40.5298 27.304 39.9761 27.7686 43.415 26.2958C44.7358 25.7302 45.4963 24.4128 45.3258 22.9861C44.8818 19.2716 44.7563 19.9833 46.444 16.6447C47.0922 15.3623 46.8281 13.8643 45.7803 12.8811L44.0306 11.2388C43.0217 10.292 42.8703 8.62596 42.5607 7.30459C42.233 5.90559 41.0677 4.92784 39.6331 4.84809C35.898 4.64034 36.5771 4.88746 33.5822 2.64571C33.244 2.39259 32.8737 2.21384 32.4903 2.10959C33.4111 1.85921 34.408 2.03784 35.2201 2.64571ZM32.4902 31.0351C31.9432 31.1596 31.2377 31.3951 30.0896 31.7421C29.4943 31.922 28.8891 31.9265 28.3301 31.7763C28.3707 31.7657 28.4112 31.7543 28.4517 31.7421C30.8845 31.0068 31.3313 30.7713 32.4902 31.0351Z" fill="#FFD064"/>
<path d="M42.1106 18.3695C42.8992 13.5047 39.5948 8.92162 34.7299 8.133C29.8651 7.34437 25.282 10.6488 24.4934 15.5137C23.7047 20.3785 27.0092 24.9616 31.874 25.7502C36.7389 26.5388 41.322 23.2344 42.1106 18.3695Z" fill="#ECEFF1"/>
<path fill-rule="evenodd" clip-rule="evenodd" d="M33.3095 8.01709C33.5496 8.01709 33.7874 8.02684 34.0226 8.04546C29.4271 8.40884 25.8111 12.253 25.8111 16.9418C25.8111 21.6307 29.4273 25.4748 34.0226 25.8382C33.7873 25.8568 33.5495 25.8666 33.3095 25.8666C28.3805 25.8666 24.3848 21.8708 24.3848 16.942C24.3848 12.0131 28.3806 8.01709 33.3095 8.01709Z" fill="#D1D1D6"/>
<path fill-rule="evenodd" clip-rule="evenodd" d="M27.7821 17.9359C27.3916 17.5454 27.3916 16.9123 27.7821 16.5219C28.1726 16.1314 28.8058 16.1314 29.1961 16.5219L31.3353 18.661L37.4574 13.105C37.8651 12.734 38.4965 12.7637 38.8675 13.1714C39.2386 13.5792 39.2089 14.2105 38.8011 14.5815L32.0131 20.7418L32.0076 20.7474C31.6171 21.1379 30.984 21.1379 30.5935 20.7474L27.7821 17.9359Z" fill="#8AC9FE"/>
<path fill-rule="evenodd" clip-rule="evenodd" d="M39.7734 58.9556L39.7588 49.257C39.7561 47.4367 39.9964 45.7263 41.3484 44.508C42.8556 43.1495 45.5953 41.092 47.7044 38.5983C48.6359 37.7586 50.0424 37.7117 50.9291 38.5985C51.8159 39.4853 51.8451 40.6841 50.9293 41.8232L51.6468 40.9401C52.4689 39.9281 52.9074 38.8158 52.9027 37.512L52.8671 28.1747C52.8396 20.9168 58.1668 22.9288 58.2361 25.3766L58.7231 42.5651C58.7677 44.1458 58.1984 45.5187 57.0801 46.637L49.3053 54.4117V58.9534C49.3053 59.8265 48.5931 60.5387 47.7199 60.5387H41.3589C40.4864 60.5387 39.7747 59.8281 39.7734 58.9556Z" fill="#F6DCCD"/>
<path fill-rule="evenodd" clip-rule="evenodd" d="M51.2682 39.0155C51.803 39.8421 51.708 40.8543 50.929 41.8233C49.6607 43.0999 48.3835 44.3689 47.111 45.6414C46.7701 45.9823 46.2176 45.9823 45.8767 45.6414C45.5359 45.3006 45.5359 44.748 45.8767 44.4071L51.2682 39.0155Z" fill="#F1CBBC"/>
<path fill-rule="evenodd" clip-rule="evenodd" d="M39.7734 58.9556L39.7588 49.257C39.7561 47.4367 39.9964 45.7263 41.3484 44.508C42.1547 43.7812 43.3139 42.8542 44.5406 41.7675V60.5388H41.3589C40.4864 60.5387 39.7747 59.8281 39.7734 58.9556Z" fill="#F1CBBC"/>
<path fill-rule="evenodd" clip-rule="evenodd" d="M37.8982 56.907L51.4102 57.0231C52.0635 57.0288 52.5934 57.5679 52.5879 58.2213L52.5655 60.8224C52.5599 61.4758 52.0208 62.0057 51.3674 62.0002L37.8554 61.884C37.202 61.8784 36.6722 61.3393 36.6778 60.6859L36.7002 58.0848C36.7057 57.4314 37.2448 56.9014 37.8982 56.907Z" fill="#D1D1D6"/>
<path fill-rule="evenodd" clip-rule="evenodd" d="M46.646 57.9153L49.0376 57.9358L51.4026 57.956C52.0546 57.9617 52.5837 58.4985 52.5803 59.15L52.5883 58.2209C52.594 57.5675 52.064 57.0284 51.4106 57.0228L49.0376 57.0024L44.2728 56.9615L39.5027 56.9205L37.8986 56.9068C37.3327 56.9019 36.8525 57.299 36.7305 57.83L39.5078 57.8539L44.2726 57.8948L46.6456 57.9152L46.646 57.9153Z" fill="#B1B1B5"/>
<path fill-rule="evenodd" clip-rule="evenodd" d="M38.6589 59.1033C38.4941 59.518 38.6966 59.988 39.1114 60.1529C39.5262 60.3178 39.9962 60.1153 40.1611 59.7004C40.3261 59.2855 40.1234 58.8156 39.7086 58.6508C39.2938 58.4859 38.8238 58.6884 38.6589 59.1033Z" fill="#685E68"/>
<path fill-rule="evenodd" clip-rule="evenodd" d="M24.2275 58.9556L24.2421 49.257C24.2448 47.4367 24.0044 45.7263 22.6525 44.508C21.1453 43.1495 18.4056 41.092 16.2965 38.5983C15.365 37.7586 13.9585 37.7117 13.0718 38.5985C12.185 39.4853 12.1558 40.6841 13.0716 41.8232L12.3541 40.9401C11.532 39.9281 11.0935 38.8158 11.0982 37.512L11.1338 28.1747C11.1613 20.9168 5.83408 22.9288 5.76483 25.3766L5.27783 42.5651C5.2332 44.1458 5.80245 45.5187 6.92083 46.637L14.6956 54.4117V58.9534C14.6956 59.8265 15.4078 60.5387 16.281 60.5387H22.642C23.5145 60.5387 24.2262 59.8281 24.2275 58.9556Z" fill="#F6DCCD"/>
<path fill-rule="evenodd" clip-rule="evenodd" d="M12.732 39.0155C12.1973 39.8421 12.2923 40.8543 13.0713 41.8233C14.3395 43.0999 15.6168 44.3689 16.8893 45.6414C17.2302 45.9823 17.7827 45.9823 18.1235 45.6414C18.4644 45.3006 18.4644 44.748 18.1235 44.4071L12.732 39.0155Z" fill="#F1CBBC"/>
<path fill-rule="evenodd" clip-rule="evenodd" d="M24.2281 58.9556L24.2427 49.257C24.2454 47.4367 24.0051 45.7263 22.6531 44.508C21.8468 43.7812 20.6877 42.8542 19.4609 41.7675V60.5388H22.6426C23.5149 60.5387 24.2267 59.8281 24.2281 58.9556Z" fill="#F1CBBC"/>
<path fill-rule="evenodd" clip-rule="evenodd" d="M26.1019 56.907L12.5899 57.0231C11.9365 57.0288 11.4067 57.5679 11.4122 58.2213L11.4345 60.8224C11.4402 61.4758 11.9793 62.0057 12.6325 62.0002L26.1445 61.884C26.7979 61.8784 27.3278 61.3393 27.3222 60.6859L27.2998 58.0848C27.2944 57.4314 26.7553 56.9014 26.1019 56.907Z" fill="#D1D1D6"/>
<path fill-rule="evenodd" clip-rule="evenodd" d="M17.3545 57.9153L14.9629 57.9358L12.5979 57.956C11.9459 57.9617 11.4168 58.4985 11.4202 59.15L11.4122 58.2209C11.4065 57.5675 11.9365 57.0284 12.5899 57.0228L14.9629 57.0024L19.7277 56.9615L24.4978 56.9205L26.1019 56.9068C26.6678 56.9019 27.148 57.299 27.27 57.83L24.4927 57.8539L19.7279 57.8948L17.3549 57.9152L17.3545 57.9153Z" fill="#B1B1B5"/>
<path fill-rule="evenodd" clip-rule="evenodd" d="M25.3408 59.1033C25.5056 59.518 25.3031 59.988 24.8883 60.1529C24.4735 60.3178 24.0035 60.1153 23.8386 59.7004C23.6738 59.2855 23.8763 58.8156 24.2911 58.6508C24.7059 58.4859 25.1759 58.6884 25.3408 59.1033Z" fill="#685E68"/>
</svg>
