<svg width="64" height="64" viewBox="0 0 64 64" fill="none" xmlns="http://www.w3.org/2000/svg">
<path fill-rule="evenodd" clip-rule="evenodd" d="M39.2168 52.6771C38.6919 52.6771 38.092 52.6396 37.4171 52.4896L27.2566 49.7527C26.3193 49.4902 26.6942 48.028 27.6316 48.2905L37.7921 51.0274C43.0036 52.3022 42.3287 46.6783 38.4294 45.741L26.2068 42.3666C23.6948 41.6543 21.2953 40.9794 19.0832 42.3666L12.1096 46.7158C11.2847 47.2407 10.4974 45.9659 11.3222 45.441L18.2959 41.0919C21.2203 39.2547 24.1822 40.267 27.0692 41.0544C29.1688 41.6543 36.2924 43.6789 38.8044 44.2788C43.9409 45.516 44.6907 52.6771 39.2168 52.6771Z" fill="url(#paint0_linear_133_5885)"/>
<path fill-rule="evenodd" clip-rule="evenodd" d="M17.209 62.3877C16.4217 62.3877 13.2348 62.2752 11.2477 60.5881C10.4978 59.9507 11.4351 58.8259 12.2225 59.4258C14.0221 61.0005 17.3215 60.888 17.359 60.888H31.7562L59.2008 45.0661C61.4504 43.7539 61.0005 40.342 58.4885 39.6672C57.7011 39.4422 56.9138 39.5547 56.2389 39.9296L42.1416 48.0655C41.2793 48.5904 40.5295 47.2782 41.3918 46.7908L55.489 38.6549C58.9009 36.7052 63.0251 39.8171 62.0128 43.6414C61.7128 44.8037 60.963 45.7785 59.9507 46.3783L32.3561 62.3127C31.8687 62.5752 19.0837 62.3502 17.359 62.3877C17.359 62.3877 17.284 62.3877 17.209 62.3877Z" fill="url(#paint1_linear_133_5885)"/>
<path fill-rule="evenodd" clip-rule="evenodd" d="M10.8352 64H3.4491C2.54927 64 1.83691 63.2502 1.83691 62.3503V43.4165C1.83691 42.5167 2.54927 41.7668 3.4491 41.7668H10.8352C11.735 41.7668 12.4848 42.5167 12.4848 43.4165V62.3503C12.4848 63.2502 11.735 64 10.8352 64ZM3.4491 43.2666C3.37411 43.2666 3.33662 43.3415 3.33662 43.4165V62.3503C3.33662 62.4253 3.37411 62.5003 3.4491 62.5003H10.8352C10.9101 62.5003 10.9851 62.4253 10.9851 62.3503V43.4165C10.9851 43.3415 10.9101 43.2666 10.8352 43.2666H3.4491Z" fill="url(#paint2_linear_133_5885)"/>
<path fill-rule="evenodd" clip-rule="evenodd" d="M7.16067 61.2255C3.97379 61.2255 3.97379 56.3889 7.16067 56.3889C10.3101 56.3889 10.3101 61.2255 7.16067 61.2255ZM7.16067 57.8886C5.92341 57.8886 5.92341 59.7258 7.16067 59.7258C8.36043 59.7258 8.36043 57.8886 7.16067 57.8886Z" fill="url(#paint3_linear_133_5885)"/>
<path fill-rule="evenodd" clip-rule="evenodd" d="M14.6966 44.9913C14.2842 44.9913 13.9467 44.6539 13.9467 44.2415V34.3434C12.447 34.3434 10.9473 34.6058 10.4224 33.3686C10.16 32.7312 10.3474 31.9814 10.9473 31.419L16.3088 26.0575C17.0586 25.3077 18.2959 25.3077 19.0457 26.0575L24.4072 31.419C25.457 32.4688 25.1195 34.3434 23.3574 34.3434H21.4078V40.9421C21.4078 41.9169 19.9081 41.9169 19.9081 40.9421V33.5935C19.9081 33.1811 20.2455 32.8437 20.6579 32.8437H23.5074C23.5074 32.8062 23.4699 32.6187 23.3574 32.5062L17.9584 27.1073C17.8085 26.9573 17.546 26.9573 17.3586 27.1073C16.7962 27.6697 11.7721 32.5437 11.8096 32.8062C12.7095 33.1811 15.4464 32.2438 15.4464 33.5935V44.2415C15.4464 44.6539 15.109 44.9913 14.6966 44.9913Z" fill="url(#paint4_linear_133_5885)"/>
<path fill-rule="evenodd" clip-rule="evenodd" d="M38.5794 45.741C38.167 45.741 37.8296 45.4036 37.8296 44.9912V27.7446C37.8296 27.3321 38.167 26.9947 38.5794 26.9947L41.4663 26.9572C41.4289 26.9572 41.4289 26.7697 41.2789 26.6198L35.9174 21.2208C35.73 21.0709 35.4675 21.0709 35.3175 21.2208C34.7552 21.7832 29.6936 26.6573 29.7686 26.9197C30.631 27.2946 33.3679 26.3573 33.3679 27.7446V43.4165C33.3679 44.3913 31.8682 44.3913 31.8682 43.4165V28.4944C30.3685 28.4944 28.8688 28.7194 28.3814 27.4821C28.119 26.8822 28.3064 26.1324 28.8688 25.57L34.2303 20.171C34.9801 19.4212 36.2174 19.4212 36.9672 20.171L42.3287 25.57C43.3785 26.6198 43.041 28.4944 41.2789 28.4944H39.3293V44.9912C39.3293 45.4036 38.9918 45.741 38.5794 45.741Z" fill="url(#paint5_linear_133_5885)"/>
<path fill-rule="evenodd" clip-rule="evenodd" d="M50.5399 43.1165C50.1275 43.1165 49.7901 42.7791 49.7901 42.3667V22.833C48.3279 22.833 46.7907 23.0579 46.3033 21.8207C46.0408 21.2208 46.2283 20.4709 46.7907 19.9086L52.1896 14.5096C52.902 13.7973 54.1767 13.7973 54.8891 14.5096L60.288 19.9086C61.3378 20.9584 60.9629 22.833 59.2008 22.833H57.2886V38.9923C57.2886 39.9671 55.7889 39.9671 55.7889 38.9923V22.0831C55.7889 21.6707 56.1264 21.3333 56.5388 21.3333L59.3882 21.2958C59.3882 21.2958 59.3507 21.1083 59.2008 20.9584L53.8393 15.5594C53.6893 15.4094 53.3894 15.4094 53.2394 15.5594C52.677 16.1218 47.6155 20.9958 47.6905 21.2583C48.5528 21.6332 51.2898 20.6959 51.2898 22.0831V42.3667C51.2898 42.7791 50.9524 43.1165 50.5399 43.1165Z" fill="url(#paint6_linear_133_5885)"/>
<path fill-rule="evenodd" clip-rule="evenodd" d="M12.1471 25.27C11.2848 25.27 11.0973 24.0703 11.9222 23.8078C31.4184 17.734 41.7288 0.562367 41.8413 0.374903C42.3287 -0.487428 43.641 0.299918 43.1161 1.12476C43.0411 1.31222 32.3932 19.0088 12.3721 25.2325C12.2971 25.27 12.2221 25.27 12.1471 25.27Z" fill="url(#paint7_linear_133_5885)"/>
<path fill-rule="evenodd" clip-rule="evenodd" d="M42.7791 8.09834C42.4042 8.09834 42.0668 7.7609 42.0293 7.38598L41.7668 1.76208L35.543 3.89916C34.6057 4.1991 34.1183 2.77438 35.0556 2.47444L42.2542 0.0374123C42.7041 -0.112558 43.229 0.224876 43.229 0.712281L43.529 7.31099C43.5665 7.72341 43.229 8.09834 42.7791 8.09834Z" fill="url(#paint8_linear_133_5885)"/>
<defs>
<linearGradient id="paint0_linear_133_5885" x1="27.1872" y1="46.3671" x2="32.2226" y2="57.5991" gradientUnits="userSpaceOnUse">
<stop stop-color="#007BFF"/>
<stop offset="1" stop-color="#00D4FF"/>
</linearGradient>
<linearGradient id="paint1_linear_133_5885" x1="36.8906" y1="50.2489" x2="47.81" y2="70.3971" gradientUnits="userSpaceOnUse">
<stop stop-color="#007BFF"/>
<stop offset="1" stop-color="#00D4FF"/>
</linearGradient>
<linearGradient id="paint2_linear_133_5885" x1="7.22743" y1="52.8834" x2="15.7251" y2="56.4603" gradientUnits="userSpaceOnUse">
<stop stop-color="#007BFF"/>
<stop offset="1" stop-color="#00D4FF"/>
</linearGradient>
<linearGradient id="paint3_linear_133_5885" x1="7.17631" y1="58.8072" x2="9.73363" y2="61.0156" gradientUnits="userSpaceOnUse">
<stop stop-color="#007BFF"/>
<stop offset="1" stop-color="#00D4FF"/>
</linearGradient>
<linearGradient id="paint4_linear_133_5885" x1="17.7457" y1="35.2432" x2="27.3401" y2="41.5989" gradientUnits="userSpaceOnUse">
<stop stop-color="#007BFF"/>
<stop offset="1" stop-color="#00D4FF"/>
</linearGradient>
<linearGradient id="paint5_linear_133_5885" x1="35.6852" y1="32.6748" x2="46.7632" y2="38.1362" gradientUnits="userSpaceOnUse">
<stop stop-color="#007BFF"/>
<stop offset="1" stop-color="#00D4FF"/>
</linearGradient>
<linearGradient id="paint6_linear_133_5885" x1="53.6201" y1="28.5459" x2="65.1528" y2="33.6533" gradientUnits="userSpaceOnUse">
<stop stop-color="#007BFF"/>
<stop offset="1" stop-color="#00D4FF"/>
</linearGradient>
<linearGradient id="paint7_linear_133_5885" x1="27.5143" y1="12.6353" x2="40.9492" y2="27.5161" gradientUnits="userSpaceOnUse">
<stop stop-color="#007BFF"/>
<stop offset="1" stop-color="#00D4FF"/>
</linearGradient>
<linearGradient id="paint8_linear_133_5885" x1="39.0974" y1="4.0499" x2="43.4234" y2="8.26719" gradientUnits="userSpaceOnUse">
<stop stop-color="#007BFF"/>
<stop offset="1" stop-color="#00D4FF"/>
</linearGradient>
</defs>
</svg>
