<svg width="64" height="64" viewBox="0 0 64 64" fill="none" xmlns="http://www.w3.org/2000/svg">
<path fill-rule="evenodd" clip-rule="evenodd" d="M17.6348 45.4491H24.8875V62.9782H17.6348V45.4491ZM28.9097 62.9782H36.1625V40.586H28.9091L28.9097 62.9782ZM40.1805 62.9782H47.4333V35.7192H40.1799L40.1805 62.9782ZM51.4555 62.9782H58.7082V30.8561H51.4543L51.4555 62.9782ZM4.95 16.5181L14.5706 22.0733C15.0441 22.3375 15.4374 22.7249 15.7089 23.1943C15.9803 23.6637 16.1197 24.1978 16.1125 24.74V37.4095C19.3875 35.7738 22.6284 34.069 25.8351 32.2951C26.5345 31.9125 27.2303 31.5227 27.9298 31.1326V24.74C27.9217 24.1981 28.0603 23.6642 28.331 23.1948C28.6017 22.7253 28.9943 22.3378 29.4673 22.0733L39.0914 16.5181C39.725 16.149 40.1866 15.5438 40.375 14.8351C40.5634 14.1264 40.4633 13.3719 40.0966 12.7368C39.7299 12.1017 39.1266 11.6378 38.4186 11.4467C37.7106 11.2555 36.9557 11.3527 36.3192 11.717C31.9297 14.2523 28.4545 15.8442 25.1796 16.4707C25.1918 16.5552 25.1931 16.641 25.1834 16.7258L24.7971 19.8731C24.7527 20.2349 24.5794 20.5686 24.309 20.813L24.8809 28.4005C24.8911 28.5372 24.8701 28.6744 24.8197 28.8018C24.7692 28.9293 24.6905 29.0437 24.5895 29.1363L22.658 31.1C22.5757 31.1842 22.4775 31.2514 22.3691 31.2976C22.2607 31.3438 22.1443 31.3681 22.0264 31.3691C21.9086 31.3701 21.7918 31.3478 21.6826 31.3035C21.5735 31.2592 21.4741 31.1937 21.3904 31.1108L19.4125 29.0967C19.3227 29.0065 19.2534 28.898 19.2094 28.7785C19.1653 28.6591 19.1477 28.5315 19.1575 28.4046V28.4008L19.7294 20.8133C19.459 20.5689 19.2857 20.2352 19.2412 19.8735L18.8551 16.7188C18.8448 16.6327 18.8473 16.5456 18.8625 16.4602C15.6204 15.8337 12.1269 14.2637 7.71912 11.7173C7.08283 11.3558 6.32934 11.2606 5.62312 11.4526C4.91691 11.6446 4.31531 12.1081 3.94964 12.7421C3.58397 13.376 3.48393 14.1289 3.67135 14.8363C3.85877 15.5437 4.31843 16.1483 4.95 16.5181ZM20.665 16.7148L21.011 19.5307C21.0287 19.5376 21.0458 19.5459 21.062 19.5557C21.1611 19.5863 21.2644 19.6011 21.3681 19.5995H22.6681C22.7718 19.6013 22.8751 19.5866 22.9741 19.5557C22.9904 19.546 23.0075 19.5376 23.0251 19.5307L23.3713 16.7182C22.4709 16.7935 21.5657 16.7924 20.6655 16.7148H20.665ZM21.4888 21.4L20.9788 28.1318L22.0206 29.1918L23.0588 28.1318L22.5489 21.4H21.4888ZM21.9586 13.2625C23.169 13.2625 24.3522 12.9036 25.3585 12.2311C26.3649 11.5587 27.1493 10.603 27.6126 9.48479C28.0758 8.36659 28.197 7.13613 27.961 5.94902C27.7249 4.76191 27.1422 3.67145 26.2864 2.81553C25.4306 1.95961 24.3402 1.37667 23.1532 1.14042C21.9661 0.904172 20.7356 1.02522 19.6173 1.48827C18.4991 1.95131 17.5432 2.73556 16.8706 3.74183C16.198 4.74811 15.8389 5.93123 15.8387 7.14158C15.8416 8.76379 16.4873 10.3187 17.6344 11.4658C18.7815 12.6129 20.3364 13.2586 21.9586 13.2615V13.2625ZM56.6561 13.0875L49.316 14.286L51.9642 17.5281C40.8829 26.8855 14.0101 41.555 0 46.4582C15.9044 45.1613 44.0812 31.1366 56.2118 22.7218L58.7326 25.8036L61.3662 18.8458L64 11.8882L56.6561 13.0875ZM6.36025 62.9782H13.6131V49.4707H6.36025V62.9782Z" fill="#45BF64"/>
</svg>
