<svg width="64" height="64" viewBox="0 0 64 64" fill="none" xmlns="http://www.w3.org/2000/svg">
<path fill-rule="evenodd" clip-rule="evenodd" d="M31.9811 61.338C28.3068 61.338 27.0321 57.0264 28.7567 57.0264H35.2429C36.9676 57.0264 35.6554 61.338 31.9811 61.338Z" fill="#4A4A49"/>
<path fill-rule="evenodd" clip-rule="evenodd" d="M37.7173 58.5261H26.2821C25.8697 58.5261 25.5322 58.1887 25.5322 57.7762V52.8647C25.5322 52.3023 25.9821 52.1523 26.4695 52.1523H37.5299C38.0173 52.1523 38.4672 52.3023 38.4672 52.8647V57.7762C38.4672 58.1887 38.1298 58.5261 37.7173 58.5261Z" fill="#D7D7D7"/>
<path fill-rule="evenodd" clip-rule="evenodd" d="M39.3294 53.6521H24.6698C24.2574 53.6521 23.9199 53.3146 23.9199 52.9022V47.5407C23.9199 46.9034 24.4448 46.7909 24.8947 46.7909H39.1045C39.5544 46.7909 40.0793 46.9034 40.0793 47.5407V52.9022C40.0793 53.3146 39.7418 53.6521 39.3294 53.6521Z" fill="#4A4A49"/>
<path fill-rule="evenodd" clip-rule="evenodd" d="M37.0805 51.7399H26.8825C25.9077 51.7399 25.9077 50.2402 26.8825 50.2402H37.0805C38.0928 50.2402 38.0928 51.7399 37.0805 51.7399Z" fill="#3C3C3C"/>
<path fill-rule="evenodd" clip-rule="evenodd" d="M35.1311 56.8389H28.8698C27.895 56.8389 27.895 55.3392 28.8698 55.3392H35.1311C36.1059 55.3392 36.1059 56.8389 35.1311 56.8389Z" fill="#AFAFAF"/>
<path fill-rule="evenodd" clip-rule="evenodd" d="M55.3017 17.584H47.4657C45.666 17.584 45.666 14.8471 47.4657 14.8471H55.3017C56.9513 14.8471 58.2636 13.4973 58.2636 11.8476C58.2636 10.9478 58.0386 9.18567 59.6508 9.18567C61.263 9.18567 61.038 10.9478 61.038 11.8476C61.038 15.0345 58.451 17.584 55.3017 17.584ZM4.34911 23.2454C2.73692 23.2454 2.96188 21.5208 2.96188 20.5834C2.96188 17.4341 5.51138 14.8471 8.69826 14.8471H16.4967C18.3339 14.8471 18.3339 17.584 16.4967 17.584H8.69826C7.04858 17.584 5.69885 18.9338 5.69885 20.5834C5.69885 21.5208 5.9238 23.2454 4.34911 23.2454ZM21.6332 44.5413H14.0222C10.8353 44.5413 8.28584 41.9543 8.28584 38.8049C8.28584 37.8676 8.02339 36.1429 9.63558 36.1429C11.2478 36.1429 11.0228 37.8676 11.0228 38.8049C11.0228 40.4546 12.3725 41.8043 14.0222 41.8043H21.6332C23.4329 41.8043 23.4329 44.5413 21.6332 44.5413ZM54.3269 50.2027C52.7522 50.2027 52.9771 48.4405 52.9771 47.5407C52.9771 45.891 51.6274 44.5413 49.9777 44.5413H42.3667C40.567 44.5413 40.567 41.8043 42.3667 41.8043H49.9777C53.1271 41.8043 55.7141 44.3538 55.7141 47.5407C55.7141 48.4405 55.939 50.2027 54.3269 50.2027Z" fill="#BFDDF1"/>
<path fill-rule="evenodd" clip-rule="evenodd" d="M39.1048 48.3281H24.8951C22.683 48.3281 20.9209 46.5284 20.9209 44.3164C20.9209 33.6684 13.7598 36.2179 13.7598 24.3703C13.7598 14.3222 21.9332 6.11133 31.9812 6.11133C42.0667 6.11133 50.2401 14.3222 50.2401 24.3703C50.2401 36.2179 43.079 33.6684 43.079 44.3164C43.079 46.5284 41.2794 48.3281 39.1048 48.3281Z" fill="#FFA725"/>
<path fill-rule="evenodd" clip-rule="evenodd" d="M4.34915 29.8067C1.94962 29.8067 0 27.8571 0 25.4575C0 23.0955 1.94962 21.1459 4.34915 21.1459C6.71119 21.1459 8.66081 23.0955 8.66081 25.4575C8.66081 27.8571 6.71119 29.8067 4.34915 29.8067Z" fill="#175D67"/>
<path fill-rule="evenodd" clip-rule="evenodd" d="M59.6505 11.3228C57.251 11.3228 55.3389 9.37318 55.3389 6.97365C55.3389 4.61161 57.251 2.66199 59.6505 2.66199C62.0501 2.66199 63.9997 4.61161 63.9997 6.97365C63.9997 9.37318 62.0501 11.3228 59.6505 11.3228Z" fill="#FF6633"/>
<path fill-rule="evenodd" clip-rule="evenodd" d="M54.3273 56.7265C51.9652 56.7265 50.0156 54.7769 50.0156 52.4148C50.0156 50.0153 51.9652 48.0657 54.3273 48.0657C56.7268 48.0657 58.6764 50.0153 58.6764 52.4148C58.6764 54.7769 56.7268 56.7265 54.3273 56.7265Z" fill="#B739A4"/>
<path fill-rule="evenodd" clip-rule="evenodd" d="M9.63588 38.2426C7.27384 38.2426 5.32422 36.293 5.32422 33.9309C5.32422 31.5314 7.27384 29.5818 9.63588 29.5818C12.0354 29.5818 13.985 31.5314 13.985 33.9309C13.985 36.293 12.0354 38.2426 9.63588 38.2426Z" fill="#C33F69"/>
<path fill-rule="evenodd" clip-rule="evenodd" d="M34.531 37.9426H29.432C28.5696 37.9426 27.8573 37.0803 28.0072 36.1805L28.2697 34.6808C27.8573 34.5308 27.4823 34.3808 27.0699 34.1934C26.395 35.1307 25.9826 36.068 24.9328 36.068C24.5579 36.068 24.183 35.918 23.9205 35.6931L20.3212 32.0563C19.7214 31.4564 19.8338 30.3316 20.5837 29.8067L21.8209 28.9444C21.6335 28.532 21.446 28.1196 21.3335 27.7446C20.1713 27.9321 19.2339 28.307 18.5216 27.5947C18.2216 27.2947 18.0342 26.9198 18.0342 26.5449V21.4459C18.0342 20.5835 18.8965 19.8712 19.8338 20.0211L21.3335 20.2836C21.446 19.8712 21.6335 19.4963 21.8209 19.0838C20.9211 18.4465 20.0213 18.0715 19.9463 17.0967C19.9088 16.6468 20.0588 16.2344 20.3212 15.9344L23.9205 12.3351C24.5579 11.7353 25.6827 11.8477 26.2076 12.5976L27.0699 13.8349C27.4823 13.6474 27.8573 13.4974 28.2697 13.3475C28.0822 12.2602 27.7448 11.3228 28.3447 10.6105C28.6446 10.2731 29.0195 10.0481 29.432 10.0481H34.531C35.4308 10.0481 36.1431 10.9479 35.9557 11.8477L35.6932 13.3475C36.1057 13.4974 36.5181 13.6474 36.9305 13.8349C37.5679 12.8975 37.9803 11.9602 39.0301 11.9602C39.4425 11.9602 39.7799 12.1102 40.0424 12.3351L43.6417 15.9344C44.2791 16.5718 44.1666 17.6966 43.4167 18.2215L42.1795 19.0838C42.3669 19.4963 42.5169 19.8712 42.6669 20.2836L44.1666 20.0211C45.1039 19.8712 45.9287 20.5835 45.9287 21.4459V26.5449C45.9287 27.4447 45.1039 28.1571 44.1666 28.0071L42.6669 27.7446C42.5169 28.1196 42.3669 28.532 42.1795 28.9444C43.0793 29.5818 43.9791 29.9567 44.0541 30.9315C44.0916 31.3814 43.9416 31.7938 43.6417 32.0563L40.0424 35.6931C39.4425 36.293 38.3177 36.1805 37.7928 35.4306L36.9305 34.1934C36.5181 34.3808 36.1057 34.5308 35.6932 34.6808C35.9182 35.7681 36.2556 36.7054 35.6182 37.4178C35.3558 37.7552 34.9434 37.9426 34.531 37.9426Z" fill="#374354"/>
<path fill-rule="evenodd" clip-rule="evenodd" d="M31.9812 31.4564C27.8945 31.4564 24.5576 28.1195 24.5576 23.9953C24.5576 19.9086 27.8945 16.5718 31.9812 16.5718C36.1054 16.5718 39.4422 19.9086 39.4422 23.9953C39.4422 28.1195 36.1054 31.4564 31.9812 31.4564Z" fill="#535E70"/>
<path fill-rule="evenodd" clip-rule="evenodd" d="M31.9814 18.7463C29.0945 18.7463 26.7324 21.1084 26.7324 23.9953C26.7324 26.9197 29.0945 29.2818 31.9814 29.2818C34.9058 29.2818 37.2679 26.9197 37.2679 23.9953C37.2679 21.1084 34.9058 18.7463 31.9814 18.7463Z" fill="#FEFEFE"/>
<path fill-rule="evenodd" clip-rule="evenodd" d="M17.659 15.4845C21.4458 8.9983 28.9443 5.32402 36.6678 6.74874C25.0076 3.63685 13.7598 12.5226 13.7598 24.3703C13.7598 36.2555 20.9209 33.6685 20.9209 44.3164C20.9209 46.491 22.6455 48.2156 24.7451 48.3281C23.0954 47.6158 22.3456 46.191 22.3081 44.3539C22.1956 34.0434 15.147 36.4429 15.147 24.6702C15.147 21.3709 16.0468 18.2215 17.659 15.4845Z" fill="#FD9925"/>
</svg>
