<svg width="64" height="64" viewBox="0 0 64 64" fill="none" xmlns="http://www.w3.org/2000/svg">
<path d="M13.0986 50.9145L1.63672 46.7606L4.99959 44L4.36247 39.2394L15.8245 43.3933L13.0986 50.9145Z" fill="#E21F2A"/>
<path d="M50.9007 50.9145L48.1748 43.3933L59.6368 39.2394L58.9997 44L62.3626 46.7606L50.9007 50.9145Z" fill="#E21F2A"/>
<path d="M32 61C25.1136 57.7065 19.2996 52.5319 15.2297 46.0739C11.1597 39.616 9 32.1383 9 24.5049V10H10.8196C18.1721 9.99999 25.4237 8.28814 32 5C38.5763 8.28814 45.8279 9.99999 53.1804 10H55V24.5049C55 32.1383 52.8403 39.616 48.7703 46.0739C44.7004 52.5319 38.8864 57.7065 32 61Z" fill="#3A69FF"/>
<path d="M32 58.7697C25.6802 55.5505 20.3738 50.6461 16.6676 44.5989C12.9615 38.5517 11 31.5974 11 24.5049V12C18.2651 11.9643 25.4338 10.3343 32 7.22498C38.5662 10.3343 45.7349 11.9643 53 12V24.5049C53 31.5974 51.0385 38.5517 47.3324 44.5989C43.6262 50.6461 38.3198 55.5505 32 58.7697Z" fill="#5B83FE"/>
<path d="M31.9993 51C25.6082 51.0018 19.2587 49.9714 13.1962 47.9486L6.73438 45.7947L9.26413 38.2052L15.726 40.3591C20.9728 42.1098 26.468 43.0016 31.9993 43C37.5305 43.0015 43.0256 42.1098 48.2725 40.3592L54.7344 38.2052L57.2641 45.7947L50.8016 47.9486C44.7393 49.9714 38.3901 51.0018 31.9993 51Z" fill="#F2444E"/>
<path d="M31.9998 49C25.8237 49.0018 19.6878 48.0061 13.8293 46.0512L9.26465 44.5297L10.5295 40.735L15.0941 42.2565C20.5449 44.0752 26.2536 45.0016 31.9998 45C37.7459 45.0016 43.4546 44.0752 48.9054 42.2566L53.47 40.7351L54.7349 44.5297L50.1703 46.0512C44.3117 48.0061 38.1759 49.0018 31.9998 49Z" fill="#E21F2A"/>
<path d="M23 30L32 40L48 15H47L32 35L24 29L23 30Z" fill="white"/>
</svg>
