<svg width="64" height="64" viewBox="0 0 64 64" fill="none" xmlns="http://www.w3.org/2000/svg">
<path fill-rule="evenodd" clip-rule="evenodd" d="M24.2661 30.5369H4.47563C3.871 30.5369 3.374 31.0341 3.374 31.6386V59.2719C3.374 59.8764 3.871 60.3736 4.47563 60.3736H24.2661C24.8776 60.3736 25.3678 59.8861 25.3678 59.2337V31.6384C25.3678 31.0339 24.8708 30.5369 24.2661 30.5369ZM8.86687 43.1906V44.8717H6.90375V43.1906H8.86687ZM6.21663 41.8166H9.55387C9.93325 41.8166 10.2409 42.1242 10.2409 42.5036V45.5587C10.2409 45.9382 9.93325 46.2457 9.55387 46.2457H6.21663C5.83725 46.2457 5.52962 45.9381 5.52962 45.5587V42.5036C5.52962 42.1242 5.83725 41.8166 6.21663 41.8166ZM15.4078 43.1906V44.8717H13.4446V43.1906H15.4078ZM12.7575 41.8166H16.0947C16.4741 41.8166 16.7817 42.1242 16.7817 42.5036V45.5587C16.7817 45.9382 16.4741 46.2457 16.0947 46.2457H12.7575C12.3781 46.2457 12.0705 45.9381 12.0705 45.5587V42.5036C12.0705 42.1242 12.3781 41.8166 12.7575 41.8166ZM21.9486 43.1906V44.8717H19.9855V43.1906H21.9486ZM19.2984 41.8166H22.6356C23.015 41.8166 23.3226 42.1242 23.3226 42.5036V45.5587C23.3226 45.9382 23.015 46.2457 22.6356 46.2457H19.2984C18.919 46.2457 18.6114 45.9381 18.6114 45.5587V42.5036C18.6114 42.1242 18.919 41.8166 19.2984 41.8166ZM8.867 49.0826V50.7637H6.90387V49.0826H8.867ZM6.21675 47.7086H9.554C9.93337 47.7086 10.241 48.0162 10.241 48.3956V51.4507C10.241 51.8302 9.93337 52.1377 9.554 52.1377H6.21675C5.83738 52.1377 5.52975 51.8301 5.52975 51.4507V48.3956C5.52975 48.0162 5.83738 47.7086 6.21675 47.7086ZM15.4079 49.0826V50.7637H13.4447V49.0826H15.4079ZM12.7576 47.7086H16.0949C16.4743 47.7086 16.7819 48.0162 16.7819 48.3956V51.4507C16.7819 51.8302 16.4743 52.1377 16.0949 52.1377H12.7576C12.3782 52.1377 12.0706 51.8301 12.0706 51.4507V48.3956C12.0706 48.0162 12.3782 47.7086 12.7576 47.7086ZM8.867 54.9746V56.6557H6.90387V54.9746H8.867ZM6.21675 53.6006H9.554C9.93337 53.6006 10.241 53.9082 10.241 54.2876V57.3427C10.241 57.7222 9.93337 58.0297 9.554 58.0297H6.21675C5.83738 58.0297 5.52975 57.7221 5.52975 57.3427V54.2876C5.52975 53.9082 5.83738 53.6006 6.21675 53.6006ZM15.4079 54.9746V56.6557H13.4447V54.9746H15.4079ZM12.7576 53.6006H16.0949C16.4743 53.6006 16.7819 53.9082 16.7819 54.2876V57.3427C16.7819 57.7222 16.4743 58.0297 16.0949 58.0297H12.7576C12.3782 58.0297 12.0706 57.7221 12.0706 57.3427V54.2876C12.0706 53.9082 12.3782 53.6006 12.7576 53.6006ZM21.9487 49.0827V56.6557H19.9856V49.0827H21.9487ZM19.2985 47.7087H22.6357C23.0151 47.7087 23.3228 48.0163 23.3228 48.3957V57.3428C23.3228 57.7223 23.0151 58.0298 22.6357 58.0298H19.2985C18.9191 58.0298 18.6115 57.7222 18.6115 57.3428V48.3957C18.6115 48.0163 18.9191 47.7087 19.2985 47.7087ZM21.9487 34.2239V38.8351H6.90375V34.2239H21.9487ZM6.21688 32.8499H22.6359C23.0153 32.8499 23.3229 33.1576 23.3229 33.5369V39.5221C23.3229 39.9014 23.0153 40.2091 22.6359 40.2091H6.21675C5.83738 40.2091 5.52975 39.9014 5.52975 39.5221V33.5369C5.52975 33.1576 5.8375 32.8499 6.21688 32.8499ZM58.8141 53.6858H41.6205C41.4597 53.6858 41.3259 53.8197 41.3259 53.9804V56.0483C41.3259 56.2089 41.4597 56.3429 41.6205 56.3429H58.8141C58.9749 56.3429 59.1087 56.2091 59.1087 56.0483V53.9804C59.1087 53.8197 58.9749 53.6858 58.8141 53.6858ZM57.0402 52.3118C57.201 52.3118 57.3349 52.1779 57.3349 52.0172V49.9493C57.3349 49.7886 57.201 49.6547 57.0402 49.6547H39.8466C39.686 49.6547 39.552 49.7886 39.552 49.9493V52.0172C39.552 52.1778 39.6859 52.3118 39.8466 52.3118H57.0402ZM57.0402 48.2807H58.8141C58.9749 48.2807 59.1087 48.1468 59.1087 47.9861V45.9182C59.1087 45.7574 58.9749 45.6236 58.8141 45.6236H41.6205C41.4597 45.6236 41.3259 45.7574 41.3259 45.9182V47.9861C41.3259 48.1468 41.4597 48.2807 41.6205 48.2807H57.0402ZM48.893 25.8079C48.893 25.4286 49.2006 25.1209 49.58 25.1209C49.9594 25.1209 50.267 25.4286 50.267 25.8079V26.3032C51.3347 26.5523 52.2111 27.3629 52.2111 28.6809C52.2111 29.0603 51.9035 29.3679 51.5241 29.3679C51.1447 29.3679 50.8371 29.0603 50.8371 28.6809C50.8371 27.2312 48.3229 27.2312 48.3229 28.6809C48.3229 30.5754 52.2113 28.8974 52.2113 32.2573C52.2113 33.5753 51.3349 34.3859 50.2671 34.6351V35.1303C50.2671 35.5097 49.9595 35.8173 49.5801 35.8173C49.2007 35.8173 48.8931 35.5097 48.8931 35.1303V34.6351C47.8256 34.3864 46.949 33.5752 46.949 32.2573C46.949 31.8779 47.2566 31.5703 47.636 31.5703C48.0154 31.5703 48.323 31.8779 48.323 32.2573C48.323 33.7071 50.8372 33.7071 50.8372 32.2573C50.8372 30.3469 46.9489 32.0319 46.9489 28.6809C46.9489 27.3631 47.8256 26.5519 48.893 26.3032V25.8079ZM54.5151 25.5339C51.7897 22.8086 47.3704 22.8086 44.6451 25.5339C41.9199 28.2592 41.9198 32.6787 44.6451 35.4041C48.0225 38.7813 53.7061 37.8372 55.8325 33.5734C57.1751 30.8812 56.6204 27.6393 54.5151 25.5341V25.5339ZM21.75 29.1632V24.5682H29.0917V58.5471H26.7419V31.6388C26.7419 30.2759 25.6293 29.1631 24.2663 29.1631L21.75 29.1632ZM42.4282 26.1511C41.6659 27.4112 41.2269 28.8888 41.2269 30.4689C41.2269 32.0491 41.6657 33.5267 42.4282 34.7868V40.2184H40.0931C39.174 40.2184 38.4245 40.9681 38.4245 41.8871V43.9549C38.4245 44.8331 39.11 45.5603 39.9787 45.6197C39.9611 45.7166 39.9519 45.8164 39.9519 45.9182C39.9519 46.3218 39.9272 47.9981 39.978 48.2806H39.8467C38.9276 48.2806 38.1781 49.0302 38.1781 49.9493V52.0172C38.1781 52.4767 38.3656 52.8941 38.6678 53.1962C39.0435 53.5719 39.4478 53.6858 39.978 53.6858C39.9272 53.9683 39.9519 55.6447 39.9519 56.0482C39.9519 56.9226 40.6319 57.6481 41.4961 57.7123C41.4549 57.9386 41.4691 58.3052 41.4691 58.5472H35.0865V14.6889H42.4282V26.1508V26.1511ZM42.8431 59.2291V60.0793C42.8431 60.2401 42.9771 60.3739 43.1377 60.3739H60.3314C60.4921 60.3739 60.626 60.2401 60.626 60.0793V58.0114C60.626 57.8508 60.4921 57.7168 60.3314 57.7168H43.1377C42.9771 57.7168 42.8431 57.8507 42.8431 58.0114V59.2289V59.2291ZM47.049 40.2183H43.8022V36.5012C44.7121 37.3729 45.8189 38.0407 47.049 38.4314V40.2182V40.2183ZM55.7648 40.2183H48.423V38.7424C51.2274 39.1314 53.9439 38.0879 55.7648 36.0834V40.2183ZM56.4569 41.5923H56.4468C53.5537 41.5738 50.624 41.6108 47.731 41.5923H40.0931C39.9325 41.5923 39.7985 41.7262 39.7985 41.8869V43.9548C39.7985 44.1156 39.9324 44.2494 40.0931 44.2494H57.2868C57.4475 44.2494 57.5814 44.1156 57.5814 43.9548V41.8869C57.5814 41.7263 57.4475 41.5923 57.2868 41.5923H56.4569ZM55.7648 24.8543C53.944 22.8497 51.2274 21.8064 48.423 22.1953V6.19644H55.7648V24.8541V24.8543ZM47.049 22.5063V5.50944C47.049 5.13007 47.3566 4.82244 47.736 4.82244H56.4518C56.8311 4.82244 57.1387 5.13007 57.1387 5.50944V26.9092C57.6482 27.9891 57.9331 29.1956 57.9331 30.4687C57.9331 31.7418 57.6481 32.9483 57.1387 34.0282V40.2181C57.6754 40.2181 58.0805 40.3226 58.4656 40.7077C58.7677 41.0098 58.9552 41.4272 58.9552 41.8867C58.9552 42.2932 58.9804 43.9672 58.9284 44.2531C59.7972 44.3124 60.4826 45.0398 60.4826 45.9178V47.9857C60.4826 48.9048 59.733 49.6544 58.8139 49.6544H58.6826C58.7334 49.9369 58.7088 51.6132 58.7088 52.0169C58.7088 52.1174 58.6997 52.2158 58.6826 52.3116C59.213 52.3116 59.6171 52.4254 59.993 52.8012C60.2951 53.1032 60.4826 53.5207 60.4826 53.9802C60.4826 54.3871 60.5079 56.0609 60.4556 56.3472C61.3199 56.4114 62 57.1368 62 58.0112V60.0791C62 60.9982 61.2504 61.7478 60.3312 61.7478H43.1376C42.2185 61.7478 41.469 60.9982 41.469 60.0791V59.9209H34.3994C34.0199 59.9209 33.7124 59.6133 33.7124 59.2339V14.0019C33.7124 13.6226 34.02 13.3149 34.3994 13.3149H43.1151C43.4945 13.3149 43.8021 13.6226 43.8021 14.0019V24.4363C44.712 23.5646 45.8187 22.8968 47.0489 22.5061L47.049 22.5063ZM10.446 14.2509V2.93944C10.446 2.56007 10.7536 2.25244 11.133 2.25244H17.6087C17.9882 2.25244 18.2957 2.56007 18.2957 2.93944V14.2509H20.8465V14.2524C21.4254 14.2522 21.7477 14.9348 21.3699 15.3807L14.8136 23.0896C14.5246 23.3341 14.092 23.2981 13.8475 23.0091L7.40163 15.4159C6.96375 14.9332 7.3245 14.2509 7.89512 14.2509H10.446ZM11.8201 3.62644V14.9379C11.8201 15.3174 11.5125 15.6249 11.1331 15.6249H9.37775L14.371 21.5069L19.3643 15.6249H17.6089C17.2295 15.6249 16.9219 15.3173 16.9219 14.9379V3.62644H11.8201ZM4.47575 29.1629H20.376V23.8809C20.376 23.5014 20.6836 23.1939 21.063 23.1939H29.7789C30.1583 23.1939 30.4659 23.5016 30.4659 23.8809V59.2338C30.4659 59.6132 30.1583 59.9208 29.7789 59.9208H26.6555C26.3659 60.9821 25.3937 61.7477 24.2664 61.7477H4.47563C3.11275 61.7477 2 60.6349 2 59.2719V31.6386C2 30.2757 3.11275 29.1628 4.47563 29.1628L4.47575 29.1629Z" fill="url(#paint0_linear_133_5898)"/>
<defs>
<linearGradient id="paint0_linear_133_5898" x1="32.375" y1="32.0001" x2="63.9421" y2="59.98" gradientUnits="userSpaceOnUse">
<stop stop-color="#007BFF"/>
<stop offset="1" stop-color="#00D4FF"/>
</linearGradient>
</defs>
</svg>
