<svg height="48" viewBox="0 0 48 48" width="48" xmlns="http://www.w3.org/2000/svg"><g id="_30-Content_Marketing" data-name="30-Content Marketing"><path d="m47 10v26a4 4 0 0 1 -4 4h-15l-6 6v-6h-16c-2.21 0-5-1.79-5-4v-26z" fill="#f1f2f2"/><path d="m47 6v4h-46v-4a4 4 0 0 1 4-4h38s4 0 4 4z" fill="#fed049"/><path d="m22 19v12a1.955 1.955 0 0 1 -.59 1.41l-3.41-3.41-3-3-7 7a2.006 2.006 0 0 1 -2-2v-12a2.006 2.006 0 0 1 2-2h12a2.006 2.006 0 0 1 2 2z" fill="#49aaee"/><path d="m21.41 32.41a1.955 1.955 0 0 1 -1.41.59h-12l7-7z" fill="#35dc86"/><path d="m6 5a1 1 0 0 0 0 2h2a1 1 0 0 0 0-2z" fill="#f6b445"/><path d="m12 5a1 1 0 0 0 0 2h2a1 1 0 0 0 0-2z" fill="#f6b445"/><path d="m41 5a1 1 0 0 0 0 2h2a1 1 0 0 0 0-2z" fill="#f6b445"/><g fill="#d0d7df"><path d="m27 20h15a1 1 0 0 0 0-2h-15a1 1 0 0 0 0 2z"/><path d="m27 24h15a1 1 0 0 0 0-2h-15a1 1 0 0 0 0 2z"/><path d="m27 28h15a1 1 0 0 0 0-2h-15a1 1 0 0 0 0 2z"/><path d="m42 30h-3a1 1 0 0 0 0 2h3a1 1 0 0 0 0-2z"/><path d="m32 30a1 1 0 0 0 0 2h3a1 1 0 0 0 0-2z"/></g><circle cx="12" cy="22" fill="#fed049" r="2"/></g></svg>