<svg clip-rule="evenodd" fill-rule="evenodd" height="7.111in" image-rendering="optimizeQuality" shape-rendering="geometricPrecision" text-rendering="geometricPrecision" viewBox="0 0 7111 7111" width="7.111in" xmlns="http://www.w3.org/2000/svg"><g id="Layer_x0020_1"><path d="m5267 7110c-225 0-408-183-408-408 0-46 37-83 83-83h649c46 0 84 37 84 83 0 225-183 408-408 408z" fill="#656d78"/><path d="m5113 6376h-4210c-104 0-189-85-189-189v-5629c0-105 85-190 189-190h4210c104 0 189 85 189 190v5629c0 104-85 189-189 189z" fill="#e9f2ff"/><path d="m714 1416v-858c0-105 85-190 189-190h4210c104 0 189 85 189 190v858z" fill="#899be3"/><path d="m1665 883c-73 0-133-60-133-134v-615c0-73 60-133 133-133 74 0 133 60 133 133v615c0 74-59 134-133 134zm448 0c-74 0-133-60-133-134v-615c0-73 59-133 133-133 73 0 133 60 133 133v615c0 74-60 134-133 134zm447 0c-73 0-133-60-133-134v-615c0-73 60-133 133-133 74 0 134 60 134 133v615c0 74-60 134-134 134zm448 0c-73 0-133-60-133-134v-615c0-73 60-133 133-133 74 0 133 60 133 133v615c0 74-59 134-133 134zm448 0c-74 0-134-60-134-134v-615c0-73 60-133 134-133 73 0 133 60 133 133v615c0 74-60 134-133 134zm447 0c-73 0-133-60-133-134v-615c0-73 60-133 133-133 74 0 134 60 134 133v615c0 74-60 134-134 134zm448 0c-73 0-133-60-133-134v-615c0-73 60-133 133-133 74 0 133 60 133 133v615c0 74-59 134-133 134z" fill="#285680"/><g fill="#899be3"><path d="m4388 2294h-2760c-46 0-83-37-83-83s37-84 83-84h2760c46 0 84 38 84 84s-38 83-84 83z"/><path d="m4388 2891h-2760c-46 0-83-37-83-83s37-83 83-83h2760c46 0 84 37 84 83s-38 83-84 83z"/><path d="m4388 3489h-2760c-46 0-83-38-83-84s37-83 83-83h2760c46 0 84 37 84 83s-38 84-84 84z"/><path d="m2960 4086h-1332c-46 0-83-38-83-84s37-83 83-83h1332c46 0 83 37 83 83s-37 84-83 84z"/></g><path d="m5728 6149h-931c-46 0-84-38-83-85 0-7 0-22-1-41-2-39-5-97-5-185 0-126-169-278-227-327-767-646-182-2040 795-2026 962 14 1527 1385 769 2026-59 49-228 201-228 327 0 88-3 147-4 185-2 44 2 73-25 101-16 16-38 25-60 25z" fill="#ffd23b"/><path d="m5632 6785h-731c-121 0-220-99-220-220 0-122 99-221 220-221h731c122 0 221 99 221 221 0 121-99 220-221 220z" fill="#474e58"/><path d="m5787 6511h-1040c-146 0-265-118-265-264s119-264 265-264h1040c146 0 264 118 264 264s-118 264-264 264z" fill="#656d78"/><path d="m6045 5511c760-645 189-2012-769-2026-134-2-260 23-377 68 529-56 986 315 1165 812 165 461 59 924-276 1208-59 50-228 202-228 328 0 31 0 58-1 82 49 0 218-3 255 1 2-36 3-84 3-146 0-126 169-278 228-327z" fill="#ffaa30"/></g></svg>