<svg width="24" height="24" viewBox="0 0 24 24" fill="none" xmlns="http://www.w3.org/2000/svg">
<path d="M11.2931 9.88006C11.6837 10.2705 12.3168 10.2705 12.7073 9.87999L16.2432 6.34402C16.6337 5.95356 17.2668 5.95356 17.6572 6.34402C18.0477 6.73449 18.0477 7.36756 17.6572 7.75802L14.1213 11.2939C13.7308 11.6844 13.7308 12.3176 14.1213 12.7081L17.6569 16.2437C18.0475 16.6343 18.0472 17.2678 17.6565 17.6583C17.2659 18.0486 16.6328 18.0486 16.2424 17.6582L12.7064 14.1222C12.3159 13.7317 11.6826 13.7317 11.2921 14.1223L7.75759 17.6575C7.36698 18.0482 6.73346 18.048 6.34295 17.6572C5.95266 17.2667 5.95266 16.6336 6.34309 16.2432L9.87912 12.7071C10.2696 12.3166 10.2696 11.6834 9.87912 11.2929L6.34327 7.75706C5.95286 7.36666 5.95309 6.73362 6.34377 6.34349C6.73403 5.95378 7.36624 5.95397 7.75627 6.34392L11.2931 9.88006Z" fill="#062D57"/>
</svg>
