<svg width="50" height="50" viewBox="0 0 50 50" fill="none" xmlns="http://www.w3.org/2000/svg">
<path d="M6.8031 11.1887C7.71749 11.1887 8.46068 10.4455 8.46068 9.53112C8.46068 8.61673 7.71749 7.87354 6.8031 7.87354C5.8887 7.87354 5.14551 8.61673 5.14551 9.53112C5.14551 10.4455 5.88967 11.1887 6.8031 11.1887ZM6.8031 9.04085C7.07352 9.04085 7.29337 9.26069 7.29337 9.53112C7.29337 9.80155 7.07352 10.0214 6.8031 10.0214C6.53267 10.0214 6.31282 9.80155 6.31282 9.53112C6.31282 9.26069 6.53267 9.04085 6.8031 9.04085Z" fill="url(#paint0_linear_1072_22401)"/>
<path d="M11.224 11.1887C12.1384 11.1887 12.8816 10.4455 12.8816 9.53112C12.8816 8.61673 12.1384 7.87354 11.224 7.87354C10.3096 7.87354 9.56641 8.61673 9.56641 9.53112C9.56641 10.4455 10.3106 11.1887 11.224 11.1887ZM11.224 9.04085C11.4944 9.04085 11.7143 9.26069 11.7143 9.53112C11.7143 9.80155 11.4944 10.0214 11.224 10.0214C10.9536 10.0214 10.7337 9.80155 10.7337 9.53112C10.7337 9.26069 10.9536 9.04085 11.224 9.04085Z" fill="url(#paint1_linear_1072_22401)"/>
<path d="M15.6449 11.1887C16.5593 11.1887 17.3025 10.4455 17.3025 9.53112C17.3025 8.61673 16.5593 7.87354 15.6449 7.87354C14.7305 7.87354 13.9873 8.61673 13.9873 9.53112C13.9873 10.4455 14.7315 11.1887 15.6449 11.1887ZM15.6449 9.04085C15.9153 9.04085 16.1352 9.26069 16.1352 9.53112C16.1352 9.80155 15.9153 10.0214 15.6449 10.0214C15.3745 10.0214 15.1546 9.80155 15.1546 9.53112C15.1546 9.26069 15.3745 9.04085 15.6449 9.04085Z" fill="url(#paint2_linear_1072_22401)"/>
<path d="M47.0896 30.6157L44.7005 29.7305C44.6091 28.6887 44.3766 27.6721 44.0089 26.6974L45.7764 24.8638C45.9797 24.6527 45.9953 24.3239 45.8124 24.0943L42.5429 19.9951C42.36 19.7665 42.0361 19.7081 41.7851 19.8589L39.5984 21.178C39.363 21.0214 39.1217 20.8755 38.8756 20.7373V8.41534C38.8756 6.8025 37.5643 5.49121 35.9515 5.49121H5.45245C3.84058 5.49121 2.5293 6.8025 2.5293 8.41534V12.7704V12.7743C2.5293 12.7743 2.5293 12.7772 2.5293 12.7782V33.1167C2.5293 34.7295 3.84058 36.0408 5.45245 36.0408H20.1703L20.253 36.4046C20.3182 36.6906 20.5847 36.8832 20.8766 36.856L23.4087 36.6167C23.9427 37.5126 24.5935 38.3288 25.3513 39.0505L24.5546 41.4669C24.4632 41.7451 24.5916 42.0486 24.8552 42.176L29.5789 44.4513C29.6606 44.4902 29.7462 44.5087 29.8318 44.5087C30.0235 44.5087 30.2093 44.4144 30.3202 44.2441L31.7122 42.1157C32.756 42.2587 33.7842 42.2587 34.8279 42.1157L36.22 44.2441C36.3805 44.4893 36.6976 44.5778 36.9612 44.4504L41.6849 42.1751C41.9486 42.0476 42.0779 41.7451 41.9855 41.4669L41.1888 39.0505C41.9456 38.3288 42.5974 37.5126 43.1314 36.6167L45.6635 36.856C45.9544 36.8823 46.2219 36.6906 46.2871 36.4046L47.4534 31.2928C47.5215 31.0068 47.3649 30.7169 47.0896 30.6157ZM5.45245 6.65853H35.9534C36.9223 6.65853 37.7102 7.44646 37.7102 8.41534V12.1906H3.69661V8.41534C3.69661 7.44646 4.48455 6.65853 5.45245 6.65853ZM5.45245 34.8735C4.48455 34.8735 3.69661 34.0856 3.69661 33.1167V13.3579H37.7102V20.1692C37.4135 20.0447 37.111 19.9309 36.8036 19.8317L36.4719 17.3006C36.434 17.0097 36.1859 16.7928 35.8931 16.7928H30.6499C30.3571 16.7928 30.1091 17.0097 30.0711 17.3006L29.7394 19.8317C28.7501 20.1517 27.8124 20.6031 26.9427 21.179L24.756 19.8599C24.505 19.7081 24.181 19.7665 23.9982 19.9961L20.7297 24.0953C20.5468 24.3249 20.5624 24.6537 20.7657 24.8648L22.5332 26.6984C22.1655 27.6731 21.933 28.6897 21.8416 29.7315L19.4524 30.6167C19.1772 30.7188 19.0205 31.0077 19.0857 31.2937L19.9028 34.8745H5.45245V34.8735ZM45.2657 35.6459L42.8688 35.4202C42.6373 35.3988 42.4155 35.5155 42.3026 35.7198C41.7375 36.7441 41.0069 37.6605 40.1305 38.4426C39.9573 38.5972 39.8921 38.8404 39.9651 39.0603L40.719 41.3472L36.9174 43.178L35.6003 41.1644C35.4729 40.9698 35.2433 40.8696 35.0137 40.9085C34.4301 41.0077 33.8445 41.0583 33.2715 41.0583C32.6986 41.0583 32.112 41.0077 31.5293 40.9085C31.2997 40.8696 31.0702 40.9698 30.9427 41.1644L29.6256 43.178L25.824 41.3472L26.5779 39.0603C26.6509 38.8395 26.5857 38.5972 26.4126 38.4416C25.5361 37.6585 24.8046 36.7432 24.2404 35.7188C24.1285 35.5155 23.9058 35.3978 23.6742 35.4192L21.2774 35.6449L21.2093 35.3443C21.2083 35.3375 21.2063 35.3307 21.2044 35.3239L20.3386 31.5321L22.6003 30.6945C22.8182 30.6138 22.968 30.4114 22.9807 30.179C23.0449 29.0068 23.3046 27.8657 23.754 26.7879C23.8435 26.5729 23.7968 26.3258 23.6353 26.1585L21.9622 24.4231L24.5925 21.1245L26.6626 22.3735C26.861 22.4932 27.113 22.4844 27.3026 22.3492C28.2569 21.6702 29.3085 21.1634 30.4301 20.8424C30.6538 20.7782 30.8182 20.5875 30.8484 20.357L31.1626 17.9611H35.3814L35.6956 20.357C35.7258 20.5875 35.8902 20.7782 36.1139 20.8424C37.2355 21.1634 38.2881 21.6702 39.2414 22.3492C39.431 22.4844 39.682 22.4932 39.8814 22.3735L41.9515 21.1245L44.5818 24.4231L42.9087 26.1585C42.7472 26.3258 42.7005 26.5739 42.79 26.7879C43.2394 27.8657 43.4991 29.0068 43.5633 30.179C43.576 30.4114 43.7258 30.6138 43.9437 30.6945L46.2054 31.5321L45.2657 35.6459Z" fill="url(#paint3_linear_1072_22401)"/>
<path d="M35.4948 28.1332C35.1728 28.1332 34.9111 28.3949 34.9111 28.7168V32.5845C34.9111 32.9065 35.1728 33.1682 35.4948 33.1682C35.8168 33.1682 36.0784 32.9065 36.0784 32.5845V28.7168C36.0784 28.3949 35.8177 28.1332 35.4948 28.1332Z" fill="url(#paint4_linear_1072_22401)"/>
<path d="M33.9269 30.9192V29.8647C33.9269 28.9094 33.1497 28.1332 32.1954 28.1332C31.2411 28.1332 30.4639 28.9104 30.4639 29.8647V30.9192V30.9211C30.4639 30.9211 30.4639 30.9221 30.4639 30.9231V32.5845C30.4639 32.9065 30.7255 33.1682 31.0475 33.1682C31.3695 33.1682 31.6312 32.9065 31.6312 32.5845V31.5048H32.7596V32.5845C32.7596 32.9065 33.0213 33.1682 33.3432 33.1682C33.6652 33.1682 33.9269 32.9065 33.9269 32.5845V30.9231C33.9269 30.9221 33.9269 30.9221 33.9269 30.9211C33.9269 30.9201 33.9269 30.9201 33.9269 30.9192ZM31.6312 30.3375V29.8647C31.6312 29.5534 31.8841 29.3005 32.1954 29.3005C32.5067 29.3005 32.7596 29.5534 32.7596 29.8647V30.3375H31.6312Z" fill="url(#paint5_linear_1072_22401)"/>
<path d="M33.271 24.5388C29.9004 24.5388 27.1592 27.281 27.1592 30.6507C27.1592 34.0213 29.9014 36.7626 33.271 36.7626C36.6407 36.7626 39.3829 34.0203 39.3829 30.6507C39.3829 27.281 36.6417 24.5388 33.271 24.5388ZM33.271 35.5952C30.5444 35.5952 28.3265 33.3773 28.3265 30.6507C28.3265 27.924 30.5444 25.7061 33.271 25.7061C35.9977 25.7061 38.2156 27.924 38.2156 30.6507C38.2156 33.3773 35.9977 35.5952 33.271 35.5952Z" fill="url(#paint6_linear_1072_22401)"/>
<path d="M33.2718 22.4738C28.763 22.4738 25.0947 26.142 25.0947 30.6508C25.0947 35.1596 28.763 38.8278 33.2718 38.8278C37.7805 38.8278 41.4488 35.1596 41.4488 30.6508C41.4488 26.142 37.7805 22.4738 33.2718 22.4738ZM33.2718 37.6605C29.407 37.6605 26.262 34.5166 26.262 30.6508C26.262 26.785 29.407 23.6411 33.2718 23.6411C37.1366 23.6411 40.2815 26.786 40.2815 30.6508C40.2815 34.5156 37.1366 37.6605 33.2718 37.6605Z" fill="url(#paint7_linear_1072_22401)"/>
<path d="M10.1501 18.607H27.7435C28.0654 18.607 28.3271 18.3453 28.3271 18.0234C28.3271 17.7014 28.0654 17.4397 27.7435 17.4397H10.1501C9.82808 17.4397 9.56641 17.7014 9.56641 18.0234C9.56641 18.3453 9.82808 18.607 10.1501 18.607Z" fill="url(#paint8_linear_1072_22401)"/>
<path d="M10.1501 23.6411H19.6559C19.9779 23.6411 20.2396 23.3794 20.2396 23.0574C20.2396 22.7354 19.9779 22.4738 19.6559 22.4738H10.1501C9.82808 22.4738 9.56641 22.7354 9.56641 23.0574C9.56641 23.3794 9.82808 23.6411 10.1501 23.6411Z" fill="url(#paint9_linear_1072_22401)"/>
<path d="M21.2869 28.0923C21.2869 27.7703 21.0252 27.5087 20.7032 27.5087H9.81803C9.49605 27.5087 9.23438 27.7703 9.23438 28.0923C9.23438 28.4143 9.49605 28.676 9.81803 28.676H20.7032C21.0252 28.676 21.2869 28.4143 21.2869 28.0923Z" fill="url(#paint10_linear_1072_22401)"/>
<defs>
<linearGradient id="paint0_linear_1072_22401" x1="6.82382" y1="9.53112" x2="8.58094" y2="11.0755" gradientUnits="userSpaceOnUse">
<stop stop-color="#007BFF"/>
<stop offset="1" stop-color="#00D4FF"/>
</linearGradient>
<linearGradient id="paint1_linear_1072_22401" x1="11.2447" y1="9.53112" x2="13.0018" y2="11.0755" gradientUnits="userSpaceOnUse">
<stop stop-color="#007BFF"/>
<stop offset="1" stop-color="#00D4FF"/>
</linearGradient>
<linearGradient id="paint2_linear_1072_22401" x1="15.6656" y1="9.53112" x2="17.4227" y2="11.0755" gradientUnits="userSpaceOnUse">
<stop stop-color="#007BFF"/>
<stop offset="1" stop-color="#00D4FF"/>
</linearGradient>
<linearGradient id="paint3_linear_1072_22401" x1="25.2802" y1="25" x2="46.1314" y2="46.108" gradientUnits="userSpaceOnUse">
<stop stop-color="#007BFF"/>
<stop offset="1" stop-color="#00D4FF"/>
</linearGradient>
<linearGradient id="paint4_linear_1072_22401" x1="35.5021" y1="30.6507" x2="36.555" y2="30.8652" gradientUnits="userSpaceOnUse">
<stop stop-color="#007BFF"/>
<stop offset="1" stop-color="#00D4FF"/>
</linearGradient>
<linearGradient id="paint5_linear_1072_22401" x1="32.217" y1="30.6507" x2="34.5997" y2="32.091" gradientUnits="userSpaceOnUse">
<stop stop-color="#007BFF"/>
<stop offset="1" stop-color="#00D4FF"/>
</linearGradient>
<linearGradient id="paint6_linear_1072_22401" x1="33.3474" y1="30.6507" x2="39.8263" y2="36.345" gradientUnits="userSpaceOnUse">
<stop stop-color="#007BFF"/>
<stop offset="1" stop-color="#00D4FF"/>
</linearGradient>
<linearGradient id="paint7_linear_1072_22401" x1="33.374" y1="30.6508" x2="42.0421" y2="38.2692" gradientUnits="userSpaceOnUse">
<stop stop-color="#007BFF"/>
<stop offset="1" stop-color="#00D4FF"/>
</linearGradient>
<linearGradient id="paint8_linear_1072_22401" x1="19.064" y1="18.0234" x2="19.1519" y2="19.2649" gradientUnits="userSpaceOnUse">
<stop stop-color="#007BFF"/>
<stop offset="1" stop-color="#00D4FF"/>
</linearGradient>
<linearGradient id="paint9_linear_1072_22401" x1="14.9697" y1="23.0574" x2="15.1226" y2="24.2861" gradientUnits="userSpaceOnUse">
<stop stop-color="#007BFF"/>
<stop offset="1" stop-color="#00D4FF"/>
</linearGradient>
<linearGradient id="paint10_linear_1072_22401" x1="15.336" y1="28.0923" x2="15.4718" y2="29.3251" gradientUnits="userSpaceOnUse">
<stop stop-color="#007BFF"/>
<stop offset="1" stop-color="#00D4FF"/>
</linearGradient>
</defs>
</svg>
