<svg width="20" height="20" viewBox="0 0 20 20" fill="none" xmlns="http://www.w3.org/2000/svg">
<path d="M14.4812 0H5.50346C2.44427 0 0 2.44427 0 5.50346V14.4965C0 17.5404 2.44427 20 5.50346 20H14.4965C17.5404 20 20 17.5557 20 14.4965V5.50346C19.9846 2.44427 17.5404 0 14.4812 0ZM18.2321 13.6972C18.2321 16.1875 16.2029 18.2475 13.6818 18.2475H6.30284C3.81245 18.2475 1.7525 16.2183 1.7525 13.6972V6.30284C1.7525 3.81245 3.78171 1.7525 6.30284 1.7525H13.7279C16.2183 1.7525 18.2782 3.78171 18.2782 6.30284V13.6972H18.2321Z" fill="url(#paint0_linear_420_83)"/>
<path d="M13.6359 6.39517L13.5897 6.34905L13.5436 6.30294C12.5905 5.34982 11.3146 4.82715 9.99252 4.82715C7.16392 4.84252 4.87338 7.16381 4.88875 9.99241C4.88875 11.3606 5.44217 12.6673 6.39528 13.6358C7.3484 14.6042 8.63971 15.1423 9.99252 15.1423C12.8365 15.0962 15.1117 12.7134 15.0655 9.83868C15.0348 8.56274 14.5429 7.31754 13.6359 6.39517ZM9.99252 13.3898C8.11703 13.4205 6.59513 11.914 6.56438 10.0385C6.53364 8.16304 8.04017 6.64114 9.91565 6.61039C11.7911 6.57965 13.313 8.08618 13.3438 9.96166V10.0078C13.3438 11.8371 11.8373 13.359 9.99252 13.3898Z" fill="url(#paint1_linear_420_83)"/>
<path d="M16.5872 4.59652C16.5872 5.27293 16.0645 5.82635 15.3881 5.82635C15.0653 5.82635 14.7578 5.70336 14.5426 5.47277C14.0661 4.99621 14.0661 4.19683 14.5734 3.72027C14.804 3.48968 15.096 3.3667 15.4189 3.3667C15.6956 3.3667 15.9723 3.47431 16.1875 3.64341L16.2183 3.67416C16.2644 3.7049 16.2951 3.75102 16.3259 3.78176L16.3566 3.81251C16.4796 4.02773 16.5872 4.30444 16.5872 4.59652Z" fill="url(#paint2_linear_420_83)"/>
<defs>
<linearGradient id="paint0_linear_420_83" x1="1.60507" y1="1.60507" x2="18.3796" y2="18.3796" gradientUnits="userSpaceOnUse">
<stop stop-color="#FAE100"/>
<stop offset="0.15" stop-color="#FCB720"/>
<stop offset="0.3" stop-color="#FF7950"/>
<stop offset="0.5" stop-color="#FF1C74"/>
<stop offset="1" stop-color="#6C1CD1"/>
</linearGradient>
<linearGradient id="paint1_linear_420_83" x1="6.367" y1="6.36719" x2="13.591" y2="13.5912" gradientUnits="userSpaceOnUse">
<stop stop-color="#FAE100"/>
<stop offset="0.15" stop-color="#FCB720"/>
<stop offset="0.3" stop-color="#FF7950"/>
<stop offset="0.5" stop-color="#FF1C74"/>
<stop offset="1" stop-color="#6C1CD1"/>
</linearGradient>
<linearGradient id="paint2_linear_420_83" x1="14.5363" y1="3.72673" x2="16.2555" y2="5.44587" gradientUnits="userSpaceOnUse">
<stop stop-color="#FAE100"/>
<stop offset="0.15" stop-color="#FCB720"/>
<stop offset="0.3" stop-color="#FF7950"/>
<stop offset="0.5" stop-color="#FF1C74"/>
<stop offset="1" stop-color="#6C1CD1"/>
</linearGradient>
</defs>
</svg>
