<svg width="50" height="50" viewBox="0 0 50 50" fill="none" xmlns="http://www.w3.org/2000/svg">
<g clip-path="url(#clip0_1072_22399)">
<path fill-rule="evenodd" clip-rule="evenodd" d="M11.1229 37.3613V40.3648C11.1229 40.7438 10.8157 41.0511 10.4366 41.0511H1.47045C1.09143 41.0511 0.78418 40.7438 0.78418 40.3648V32.9852C0.78418 32.6062 1.09143 32.2989 1.47045 32.2989H10.4366C10.8157 32.2989 11.1229 32.6062 11.1229 32.9852V35.9887H15.9342V30.6754C15.3919 30.7771 14.8105 30.6183 14.3911 30.1991L12.143 27.9528C11.4683 27.278 11.4683 26.1804 12.143 25.5056C13.9235 23.7252 12.661 20.6747 10.1421 20.6747C9.18712 20.6747 8.41261 19.9001 8.41261 18.9452V15.7684C8.41261 14.8135 9.18712 14.0389 10.1421 14.0389C12.661 14.0389 13.9235 10.9884 12.143 9.20803C11.4679 8.53283 11.4679 7.43773 12.143 6.76263L14.3909 4.51479C15.066 3.8396 16.1611 3.8396 16.8362 4.51479C18.6167 6.29518 21.6672 5.03273 21.6672 2.51381C21.6672 1.55881 22.4418 0.784302 23.3967 0.784302H26.5734C27.5284 0.784302 28.303 1.55881 28.303 2.51381C28.303 5.03273 31.3535 6.29518 33.1339 4.51479C33.8087 3.83999 34.9063 3.83999 35.5811 4.51479L37.8271 6.76263C38.5023 7.43773 38.5023 8.53283 37.8271 9.20803C36.0467 10.9884 37.3106 14.0389 39.8281 14.0389C40.7861 14.0389 41.5576 14.8135 41.5576 15.7684V18.9452C41.5576 19.9001 40.7861 20.6747 39.8281 20.6747C37.3106 20.6747 36.0467 23.7252 37.8271 25.5056C38.5019 26.1804 38.5019 27.278 37.8271 27.9528L35.5811 30.1988C35.1694 30.6107 34.6002 30.7712 34.0656 30.6804V35.9887H38.8768V32.9852C38.8768 32.6062 39.1841 32.2989 39.5631 32.2989H48.5293C48.9083 32.2989 49.2156 32.6062 49.2156 32.9852V40.3648C49.2156 40.7438 48.9083 41.0511 48.5293 41.0511H39.5631C39.1841 41.0511 38.8768 40.7438 38.8768 40.3648V37.3613H33.3793C33.0003 37.3613 32.693 37.054 32.693 36.675V29.8349C30.8932 28.6247 28.303 29.8801 28.303 32.1998C28.303 33.1578 27.5284 33.9293 26.5734 33.9293H25.6861V40.4635H29.4682C29.8472 40.4635 30.1545 40.7708 30.1545 41.1498V48.5294C30.1545 48.9084 29.8472 49.2157 29.4682 49.2157H20.502C20.123 49.2157 19.8157 48.9084 19.8157 48.5294V41.1498C19.8157 40.7708 20.123 40.4635 20.502 40.4635H24.3136V33.9293H23.3967C22.4418 33.9293 21.6672 33.1578 21.6672 32.1998C21.6672 29.8898 19.1062 28.6366 17.3067 29.8151V36.675C17.3067 37.054 16.9995 37.3613 16.6205 37.3613H11.1229ZM9.75036 39.6785V33.6715H2.15673V39.6785H9.75036ZM23.3967 32.5568H26.5734C26.7706 32.5568 26.9305 32.3975 26.9305 32.1998C26.9305 28.4614 31.4605 26.5843 34.1045 29.2283C34.244 29.3679 34.471 29.3679 34.6106 29.2283L36.8566 26.9823C36.9961 26.8427 36.9961 26.6157 36.8566 26.4762C34.2126 23.8321 36.0897 19.3021 39.8281 19.3021C40.0258 19.3021 40.1851 19.1422 40.1851 18.9452V15.7684C40.1851 15.5714 40.0258 15.4115 39.8281 15.4115C36.0897 15.4115 34.2126 10.8815 36.8566 8.23744C36.9958 8.09822 36.9958 7.87234 36.8566 7.73313L34.6106 5.48528C34.471 5.34567 34.244 5.34567 34.1045 5.48528C31.4605 8.1293 26.9305 6.2545 26.9305 2.51381C26.9305 2.31675 26.7706 2.15685 26.5734 2.15685H23.3967C23.1997 2.15685 23.0398 2.31675 23.0398 2.51381C23.0398 6.2545 18.5098 8.1293 15.8657 5.48528C15.7265 5.34607 15.5007 5.34607 15.3614 5.48528L13.1136 7.73313C12.9744 7.87234 12.9744 8.09822 13.1136 8.23744C15.7576 10.8815 13.8828 15.4115 10.1421 15.4115C9.94506 15.4115 9.78516 15.5714 9.78516 15.7684V18.9452C9.78516 19.1422 9.94506 19.3021 10.1421 19.3021C13.8828 19.3021 15.7576 23.8321 13.1136 26.4762C12.974 26.6157 12.974 26.8427 13.1136 26.9823L15.3614 29.2283C15.5007 29.3675 15.7265 29.3675 15.8657 29.2283C18.512 26.582 23.0398 28.4569 23.0398 32.1998C23.0398 32.3975 23.1997 32.5568 23.3967 32.5568ZM40.2494 33.6715V39.6785H47.843V33.6715H40.2494ZM28.7819 41.8361H21.1883V47.8431H28.7819V41.8361ZM24.986 26.7324C19.8216 26.7324 15.6113 22.5198 15.6113 17.3577C15.6113 12.1933 19.8216 7.98303 24.986 7.98303C30.1481 7.98303 34.3607 12.1933 34.3607 17.3577C34.3607 22.5198 30.1481 26.7324 24.986 26.7324ZM24.986 25.3599C29.3923 25.3599 32.9882 21.764 32.9882 17.3577C32.9882 12.9495 29.3923 9.35558 24.986 9.35558C20.5778 9.35558 16.9839 12.9495 16.9839 17.3577C16.9839 21.764 20.5778 25.3599 24.986 25.3599ZM25.1064 19.5555C25.0084 19.9214 24.6318 20.1387 24.2659 20.0408C23.9001 19.9427 23.6826 19.5661 23.7807 19.2002L24.8638 15.1581C24.9617 14.7922 25.3384 14.5748 25.7043 14.6728C26.0702 14.7709 26.2875 15.1475 26.1896 15.5134L25.1064 19.5555ZM27.5885 19.6637C27.2606 19.8531 26.8405 19.7406 26.651 19.4125C26.4617 19.0845 26.5743 18.6645 26.9022 18.4751L28.8392 17.3568L26.9022 16.2385C26.5743 16.0491 26.4617 15.6291 26.651 15.3011C26.8405 14.973 27.2606 14.8605 27.5885 15.0499L30.5549 16.7624C30.7672 16.8851 30.898 17.1117 30.898 17.3568C30.898 17.6019 30.7672 17.8285 30.5549 17.9512L27.5885 19.6637ZM23.0679 18.4751C23.3959 18.6645 23.5085 19.0845 23.3192 19.4125C23.1298 19.7406 22.7097 19.8531 22.3816 19.6637L19.4154 17.9512C19.203 17.8285 19.0722 17.6019 19.0722 17.3568C19.0722 17.1117 19.203 16.8851 19.4154 16.7624L22.3816 15.0499C22.7097 14.8605 23.1298 14.973 23.3192 15.3011C23.5085 15.6291 23.3959 16.0491 23.0679 16.2385L21.131 17.3568L23.0679 18.4751Z" fill="url(#paint0_linear_1072_22399)"/>
</g>
<defs>
<linearGradient id="paint0_linear_1072_22399" x1="25.3026" y1="25" x2="50.9724" y2="47.5614" gradientUnits="userSpaceOnUse">
<stop stop-color="#007BFF"/>
<stop offset="1" stop-color="#00D4FF"/>
</linearGradient>
<clipPath id="clip0_1072_22399">
<rect width="50" height="50" fill="white"/>
</clipPath>
</defs>
</svg>
