<svg width="24" height="24" viewBox="0 0 24 24" fill="none" xmlns="http://www.w3.org/2000/svg">
<g clip-path="url(#clip0_109_2069)">
<path fill-rule="evenodd" clip-rule="evenodd" d="M2.82723 0.76672C3.08969 0.504653 3.40485 0.301358 3.75183 0.170305C4.0988 0.0392528 4.46966 -0.0165637 4.83984 0.00655466C5.21002 0.029673 5.57105 0.131198 5.89902 0.304402C6.227 0.477607 6.51441 0.718535 6.74223 1.01122L9.43473 4.47022C9.92823 5.10472 10.1022 5.93122 9.90723 6.71122L9.08673 9.99622C9.04431 10.1664 9.0466 10.3446 9.09338 10.5136C9.14017 10.6826 9.22985 10.8366 9.35373 10.9607L13.0392 14.6462C13.1635 14.7704 13.3178 14.8602 13.4871 14.907C13.6563 14.9538 13.8349 14.9559 14.0052 14.9132L17.2887 14.0927C17.6737 13.9965 18.0754 13.989 18.4636 14.0709C18.8519 14.1527 19.2164 14.3218 19.5297 14.5652L22.9887 17.2562C24.2322 18.2237 24.3462 20.0612 23.2332 21.1727L21.6822 22.7237C20.5722 23.8337 18.9132 24.3212 17.3667 23.7767C13.4085 22.384 9.81464 20.118 6.85173 17.1467C3.88066 14.1842 1.61464 10.5909 0.22173 6.63322C-0.32127 5.08822 0.16623 3.42772 1.27623 2.31772L2.82723 0.76672Z" fill="url(#paint0_linear_109_2069)"/>
</g>
<defs>
<linearGradient id="paint0_linear_109_2069" x1="12.1494" y1="12.0009" x2="24.8695" y2="23.1816" gradientUnits="userSpaceOnUse">
<stop stop-color="#007BFF"/>
<stop offset="1" stop-color="#00D4FF"/>
</linearGradient>
<clipPath id="clip0_109_2069">
<rect width="24" height="24" fill="white"/>
</clipPath>
</defs>
</svg>
