<svg width="64" height="64" viewBox="0 0 64 64" fill="none" xmlns="http://www.w3.org/2000/svg">
<path d="M62.25 10.65L60.05 44.95L39.15 0L62.25 10.65ZM47.75 55L32 64L16.25 55L19.45 47.25H44.6L47.75 55ZM32 17.05L40.25 37.15H23.75L32 17.05ZM3.95 44.95L1.75 10.65L24.85 0L3.95 44.95Z" fill="url(#paint0_linear_208_1294)"/>
<path d="M62.25 10.65L60.05 44.95L39.15 0L62.25 10.65ZM47.75 55L32 64L16.25 55L19.45 47.25H44.6L47.75 55ZM32 17.05L40.25 37.15H23.75L32 17.05ZM3.95 44.95L1.75 10.65L24.85 0L3.95 44.95Z" fill="url(#paint1_linear_208_1294)"/>
<defs>
<linearGradient id="paint0_linear_208_1294" x1="7.352" y1="41.865" x2="55.4925" y2="18.988" gradientUnits="userSpaceOnUse">
<stop stop-color="#E40035"/>
<stop offset="0.24" stop-color="#F60A48"/>
<stop offset="0.352" stop-color="#F20755"/>
<stop offset="0.494" stop-color="#DC087D"/>
<stop offset="0.745" stop-color="#9717E7"/>
<stop offset="1" stop-color="#6C00F5"/>
</linearGradient>
<linearGradient id="paint1_linear_208_1294" x1="14.3665" y1="6.4645" x2="45.871" y2="42.4025" gradientUnits="userSpaceOnUse">
<stop stop-color="#FF31D9"/>
<stop offset="1" stop-color="#FF5BE1" stop-opacity="0"/>
</linearGradient>
</defs>
</svg>
