<svg width="64" height="64" viewBox="0 0 64 64" fill="none" xmlns="http://www.w3.org/2000/svg">
<path d="M18.0404 30.748C18.0404 31.536 18.1204 32.176 18.2724 32.648C18.4404 33.116 18.6564 33.628 18.9524 34.184C19.0469 34.3309 19.0982 34.5014 19.1004 34.676C19.1004 34.888 18.9724 35.1041 18.7004 35.3161L17.3564 36.2121C17.1951 36.3285 17.0032 36.3953 16.8044 36.404C16.5884 36.404 16.3764 36.3001 16.1644 36.1081C15.8769 35.7987 15.6198 35.4625 15.3964 35.104C15.1585 34.6937 14.9383 34.2733 14.7364 33.8441C13.0764 35.8081 10.9924 36.792 8.48044 36.792C6.69244 36.792 5.26444 36.276 4.22444 35.252C3.18044 34.228 2.64844 32.86 2.64844 31.1521C2.64844 29.3361 3.28844 27.8641 4.58444 26.7521C5.88444 25.6401 7.60844 25.088 9.80044 25.088C10.5204 25.088 11.2684 25.1521 12.0564 25.2561C12.8444 25.3641 13.6564 25.5361 14.5044 25.7281V24.168C14.5044 22.544 14.1644 21.4121 13.5044 20.7521C12.8244 20.0881 11.6724 19.768 10.0324 19.768C9.28844 19.768 8.52444 19.856 7.73644 20.048C6.95353 20.2344 6.18491 20.4763 5.43644 20.772C5.19479 20.8815 4.94626 20.975 4.69244 21.052C4.58245 21.0884 4.46811 21.1099 4.35244 21.116C4.05244 21.116 3.90444 20.9 3.90444 20.452V19.404C3.90444 19.064 3.94444 18.804 4.05244 18.66C4.21363 18.4638 4.41932 18.3088 4.65244 18.208C5.39244 17.824 6.28844 17.504 7.33244 17.248C8.37244 16.968 9.48044 16.844 10.6524 16.844C13.1844 16.844 15.0364 17.4201 16.2284 18.5721C17.4004 19.7241 17.9964 21.476 17.9964 23.828V30.748H18.0364H18.0404ZM9.39644 33.9921C10.0964 33.9921 10.8204 33.8641 11.5884 33.6081C12.3524 33.3521 13.0364 32.8801 13.6084 32.2401C13.9514 31.8471 14.1992 31.3803 14.3324 30.876C14.4604 30.36 14.5484 29.7441 14.5484 29.0161V28.1201C13.9024 27.9634 13.248 27.8432 12.5884 27.76C11.9252 27.6743 11.2572 27.6302 10.5884 27.628C9.16044 27.628 8.11644 27.908 7.41644 28.484C6.71244 29.06 6.37644 29.8721 6.37644 30.9401C6.37644 31.9401 6.62844 32.688 7.16044 33.204C7.67244 33.736 8.41644 33.9921 9.39644 33.9921ZM26.4884 36.3C26.1044 36.3 25.8484 36.236 25.6804 36.084C25.5084 35.956 25.3604 35.66 25.2324 35.252L20.2324 18.744C20.1338 18.4674 20.068 18.1801 20.0364 17.8881C20.0364 17.5481 20.2084 17.3561 20.5484 17.3561H22.6364C23.0364 17.3561 23.3164 17.4201 23.4644 17.5681C23.6364 17.6961 23.7644 17.996 23.8924 18.4L27.4684 32.5401L30.7884 18.4C30.8924 17.976 31.0204 17.6961 31.1884 17.5681C31.4451 17.4108 31.7441 17.3368 32.0444 17.3561H33.7444C34.1524 17.3561 34.4244 17.4201 34.5964 17.5681C34.7684 17.6961 34.9164 17.996 35.0004 18.4L38.3644 32.7121L42.0444 18.4C42.1127 18.0903 42.2602 17.8037 42.4724 17.5681C42.7203 17.411 43.0116 17.3367 43.3044 17.3561H45.2844C45.6244 17.3561 45.8164 17.5281 45.8164 17.8881C45.8164 17.9961 45.7924 18.104 45.7764 18.232C45.742 18.4136 45.6912 18.5917 45.6244 18.764L40.4924 35.272C40.3644 35.7 40.2164 35.9801 40.0484 36.1081C39.8069 36.2625 39.5227 36.3367 39.2364 36.32H37.4084C37.0044 36.32 36.7284 36.2561 36.5564 36.1081C36.3844 35.9561 36.2364 35.68 36.1524 35.252L32.8524 21.48L29.5724 35.236C29.4684 35.664 29.3404 35.9401 29.1724 36.0881C29.0004 36.2401 28.7004 36.3041 28.3204 36.3041H26.4884V36.3ZM53.8404 36.876C52.7358 36.8775 51.6349 36.7486 50.5604 36.4921C49.4964 36.2361 48.6684 35.9561 48.1124 35.6361C47.7724 35.4441 47.5404 35.232 47.4524 35.036C47.3711 34.8478 47.3289 34.6451 47.3284 34.44V33.3521C47.3284 32.9041 47.4964 32.688 47.8164 32.688C47.9471 32.6883 48.0768 32.71 48.2004 32.752C48.3284 32.796 48.5204 32.88 48.7324 32.968C49.4524 33.288 50.2444 33.544 51.0724 33.716C51.9244 33.884 52.7524 33.972 53.6044 33.972C54.9484 33.972 55.9884 33.7361 56.7124 33.2681C57.0602 33.0575 57.346 32.7585 57.5407 32.4016C57.7353 32.0446 57.8318 31.6425 57.8204 31.236C57.8276 30.9617 57.7804 30.6885 57.6816 30.4325C57.5827 30.1764 57.4341 29.9424 57.2444 29.744C56.8644 29.336 56.1404 28.972 55.0964 28.632L52.0084 27.6721C50.4564 27.1801 49.3044 26.4521 48.6044 25.4921C47.9192 24.605 47.5452 23.5169 47.5404 22.396C47.5404 21.5 47.7324 20.708 48.1124 20.024C48.4964 19.344 49.0084 18.744 49.6484 18.272C50.2884 17.784 51.0084 17.42 51.8604 17.164C52.7124 16.908 53.6044 16.8 54.5404 16.8C55.0124 16.8 55.5004 16.8201 55.9684 16.8841C56.4564 16.9481 56.9044 17.0361 57.3524 17.1241C57.7764 17.2281 58.1844 17.3321 58.5644 17.4641C58.9484 17.5921 59.2444 17.72 59.4604 17.848C59.7116 17.9742 59.9305 18.1562 60.1004 18.38C60.2374 18.5883 60.3033 18.8353 60.2884 19.084V20.088C60.2884 20.536 60.1204 20.772 59.8004 20.772C59.5171 20.7397 59.2427 20.6528 58.9924 20.5161C57.7062 19.9457 56.3113 19.6619 54.9044 19.684C53.6924 19.684 52.7324 19.876 52.0724 20.284C51.4124 20.684 51.0724 21.308 51.0724 22.184C51.0724 22.78 51.2844 23.2921 51.7124 23.7001C52.1364 24.1041 52.9244 24.508 54.0524 24.872L57.0764 25.8321C58.6084 26.3241 59.7164 27.0081 60.3764 27.8841C61.0364 28.7601 61.3524 29.764 61.3524 30.876C61.3524 31.796 61.1644 32.6241 60.8004 33.3521C60.4236 34.0825 59.8943 34.7236 59.2484 35.232C58.5884 35.764 57.8004 36.1521 56.8844 36.4281C55.9244 36.7281 54.9244 36.876 53.8404 36.876Z" fill="#252F3E"/>
<path fill-rule="evenodd" clip-rule="evenodd" d="M57.8597 47.2519C50.8597 52.4399 40.6837 55.1959 31.9357 55.1959C19.6757 55.1959 8.62772 50.6479 0.283721 43.0879C-0.376279 42.4879 0.219721 41.6759 1.00372 42.1479C10.0317 47.3999 21.1637 50.5839 32.6837 50.5839C40.4477 50.5839 48.9837 48.9599 56.8397 45.6279C58.0117 45.0959 59.0117 46.3959 57.8597 47.2519Z" fill="#FF9900"/>
<path fill-rule="evenodd" clip-rule="evenodd" d="M60.7755 43.9199C59.8835 42.7719 54.8595 43.3679 52.5835 43.6439C51.9035 43.7319 51.7955 43.1319 52.4115 42.6839C56.4115 39.8639 62.9915 40.6759 63.7555 41.6159C64.5235 42.5759 63.5435 49.1759 59.7955 52.3359C59.2235 52.8279 58.6715 52.5759 58.9235 51.9359C59.7755 49.8159 61.6715 45.0559 60.7755 43.9239V43.9199Z" fill="#FF9900"/>
</svg>
