<svg width="64" height="64" viewBox="0 0 64 64" fill="none" xmlns="http://www.w3.org/2000/svg">
<path d="M15.3805 38.9535H14.5105V33.972C14.5105 33.5785 14.536 33.0995 14.5825 32.5345H14.563C14.4807 32.8652 14.4067 33.1045 14.341 33.2525L11.8105 38.9535H11.3865L8.85103 33.294C8.77936 33.1354 8.70553 32.8822 8.62953 32.5345H8.61053C8.6382 32.8312 8.6522 33.3137 8.65253 33.982V38.9535H7.81303V31.535H8.96103L11.237 36.7085C11.408 37.0985 11.5202 37.3945 11.5735 37.5965H11.609C11.7577 37.1905 11.8762 36.8872 11.9645 36.6865L14.29 31.535H15.3795V38.9535H15.3805ZM18.0585 38.9535H17.2125V33.656H18.0585V38.9535ZM18.2045 31.7565C18.2045 31.9125 18.1499 32.0437 18.0405 32.15C17.9894 32.2024 17.928 32.2437 17.8602 32.2714C17.7925 32.2991 17.7197 32.3126 17.6465 32.311C17.4945 32.311 17.3642 32.2592 17.2555 32.1555C17.1479 32.0519 17.0942 31.9187 17.0945 31.756C17.0942 31.6027 17.1479 31.4729 17.2555 31.3665C17.3635 31.2605 17.495 31.2095 17.6465 31.2095C17.8022 31.2092 17.9335 31.2615 18.0405 31.3665C18.1499 31.4732 18.2045 31.6032 18.2045 31.7565ZM23.345 38.7085C22.9384 38.9575 22.4547 39.0819 21.894 39.0815C21.134 39.0815 20.523 38.8295 20.056 38.326C19.6017 37.837 19.3744 37.206 19.374 36.433C19.374 35.565 19.622 34.8625 20.1225 34.3285C20.6202 33.7942 21.2899 33.527 22.1315 33.527C22.5915 33.527 23.0002 33.6167 23.3575 33.796V34.6665C22.962 34.389 22.544 34.251 22.095 34.251C21.5557 34.251 21.1162 34.439 20.7765 34.815C20.422 35.2 20.2425 35.714 20.2425 36.356C20.2429 36.9724 20.406 37.4605 20.732 37.8205C21.0585 38.179 21.4935 38.3585 22.0425 38.3585C22.5055 38.3582 22.9399 38.2064 23.3455 37.903L23.345 38.7085ZM27.3925 34.5155C27.243 34.4005 27.028 34.345 26.7445 34.345C26.3999 34.3447 26.1104 34.4997 25.876 34.81C25.6104 35.157 25.4777 35.638 25.478 36.253V38.9535H24.6295V33.6555H25.478V34.748H25.4985C25.6235 34.362 25.8149 34.0637 26.0725 33.853C26.301 33.6647 26.588 33.5622 26.884 33.563C27.11 33.563 27.2775 33.5875 27.392 33.6355V34.515L27.3925 34.5155ZM32.118 36.314C32.118 35.636 31.965 35.1175 31.659 34.7625C31.3624 34.4212 30.9465 34.2505 30.4115 34.2505C29.8842 34.2505 29.462 34.4232 29.145 34.7685C28.811 35.1375 28.644 35.6599 28.644 36.3355C28.644 36.9695 28.8025 37.467 29.124 37.822C29.443 38.1794 29.8722 38.358 30.4115 38.358C30.9699 38.3574 31.3955 38.1765 31.6885 37.8155C31.9752 37.4622 32.1184 36.9617 32.118 36.314ZM32.9875 36.2845C32.9875 37.1285 32.749 37.807 32.274 38.315C31.7974 38.8254 31.1554 39.0805 30.348 39.0805C29.553 39.0805 28.92 38.8255 28.456 38.315C28.001 37.8234 27.7734 37.1737 27.773 36.366C27.773 35.444 28.031 34.734 28.549 34.2295C29.028 33.7612 29.669 33.5267 30.472 33.526C31.262 33.526 31.879 33.7725 32.324 34.2605C32.7657 34.7505 32.9869 35.4252 32.9875 36.2845ZM37.193 37.5365C37.193 37.9705 37.0315 38.329 36.7065 38.616C36.352 38.926 35.865 39.081 35.2525 39.081C34.7515 39.081 34.312 38.976 33.9385 38.762V37.85C34.3535 38.188 34.8125 38.3572 35.3155 38.3575C35.9872 38.3572 36.3232 38.1105 36.3235 37.6175C36.3264 37.5212 36.3079 37.4253 36.2695 37.3369C36.231 37.2485 36.1735 37.1697 36.101 37.106C35.952 36.971 35.6622 36.8087 35.2315 36.619C34.7875 36.4254 34.472 36.2254 34.285 36.019C34.061 35.7737 33.9489 35.4545 33.9485 35.0615C33.9485 34.622 34.1245 34.256 34.4715 33.9645C34.8195 33.6722 35.268 33.526 35.817 33.526C36.2377 33.5257 36.6154 33.6085 36.95 33.7745V34.628C36.601 34.3764 36.2002 34.2505 35.7475 34.2505C35.4662 34.2512 35.2414 34.3199 35.073 34.4565C34.9919 34.5196 34.9266 34.6006 34.8823 34.6934C34.8381 34.7861 34.816 34.8878 34.818 34.9905C34.818 35.2249 34.8889 35.4075 35.0305 35.5385C35.1565 35.659 35.4235 35.8065 35.826 35.978C36.2787 36.168 36.6047 36.3637 36.804 36.565C37.063 36.819 37.1927 37.1429 37.193 37.5365ZM42.376 36.314C42.376 35.636 42.2225 35.1175 41.916 34.7625C41.619 34.4212 41.2034 34.2505 40.669 34.2505C40.1417 34.2505 39.719 34.4232 39.401 34.7685C39.0675 35.138 38.901 35.659 38.901 36.3355C38.901 36.9695 39.0605 37.467 39.378 37.822C39.701 38.1794 40.1314 38.358 40.669 38.358C41.2274 38.3574 41.653 38.1765 41.946 37.8155C42.2324 37.4622 42.3757 36.9617 42.376 36.314ZM43.247 36.2845C43.247 37.1285 43.0065 37.807 42.5305 38.315C42.0555 38.8254 41.4142 39.0805 40.6065 39.0805C39.8105 39.0805 39.178 38.8255 38.7135 38.315C38.2585 37.8234 38.0309 37.1737 38.0305 36.366C38.0305 35.444 38.291 34.734 38.806 34.2295C39.285 33.7612 39.9265 33.5267 40.7305 33.526C41.521 33.526 42.137 33.7725 42.5805 34.2605C43.022 34.7505 43.247 35.4255 43.247 36.2845ZM46.9835 31.8555C46.8108 31.7619 46.617 31.714 46.4205 31.7165C45.8265 31.7165 45.532 32.09 45.532 32.839V33.6555H46.7735V34.3745H45.532V38.9535H44.683V34.3745H43.782V33.6555H44.683V32.797C44.683 32.214 44.8615 31.7565 45.225 31.427C45.5354 31.141 45.9169 30.9982 46.3695 30.9985C46.6312 30.9989 46.8359 31.0295 46.9835 31.0905V31.8555ZM50.3305 38.9005C50.1305 39.015 49.8635 39.072 49.534 39.072C48.609 39.072 48.1467 38.5507 48.147 37.508V34.375H47.238V33.6555H48.147V32.363C48.418 32.2775 48.6995 32.1845 48.997 32.088V33.6555H50.3305V34.375H48.997V37.3645C48.997 37.7195 49.055 37.9735 49.1765 38.121C49.299 38.2735 49.4995 38.348 49.782 38.348C49.9934 38.348 50.1762 38.291 50.3305 38.177V38.9005ZM4.48853 59.631C4.48853 60.0465 4.34103 60.405 4.04103 60.7085C3.90122 60.8549 3.73268 60.9708 3.54597 61.049C3.35927 61.1273 3.15843 61.1661 2.95603 61.163C2.75763 61.166 2.56083 61.127 2.37852 61.0487C2.1962 60.9704 2.03247 60.8545 1.89803 60.7085C1.75768 60.5668 1.64701 60.3985 1.57249 60.2135C1.49797 60.0285 1.4611 59.8305 1.46403 59.631C1.46403 59.2047 1.6087 58.8429 1.89803 58.5455C2.03325 58.401 2.19727 58.2865 2.37951 58.2093C2.56175 58.1322 2.75815 58.0941 2.95603 58.0975C3.38103 58.0972 3.7427 58.2484 4.04103 58.551C4.34103 58.8545 4.48853 59.2145 4.48853 59.631ZM23.476 60.851H20.71L10.6705 45.347C10.4284 44.9608 10.2246 44.5519 10.062 44.126H9.97953C10.0515 44.5417 10.0875 45.4322 10.0875 46.7975V60.851H7.80803V41.3995H10.767L20.506 56.6595C20.8935 57.265 21.159 57.699 21.2935 57.96H21.3475C21.2569 57.4 21.2112 56.4467 21.2105 55.1V41.4H23.4765L23.476 60.851ZM38.0925 60.851H27.783V41.3995H37.645V43.461H30.061V49.9315H37.088V51.9935H30.061V58.789H38.0925V60.851ZM53.7295 43.461H48.1265V60.8515H45.8475V43.461H40.2335V41.3985H53.7295V43.461Z" fill="black"/>
<path d="M22.7031 7.80208C24.9026 14.5281 25.7351 26.5266 32.1671 26.5266C32.6566 26.5266 33.1516 26.4791 33.6481 26.3841C27.8016 25.0206 27.1086 13.1531 23.5411 7.00708C23.2567 7.26668 22.9773 7.53173 22.7031 7.80208Z" fill="url(#paint0_linear_208_1334)"/>
<path d="M23.541 7.00696C27.1085 13.153 27.8015 25.0205 33.648 26.384C34.1173 26.2955 34.579 26.1708 35.029 26.011C29.781 23.4395 28.3305 11.915 24.279 6.36646C24.0333 6.57146 23.7873 6.78496 23.541 7.00696Z" fill="url(#paint1_linear_208_1334)"/>
<path d="M28.6817 3.35209C28.1932 3.35209 27.6972 3.40009 27.1997 3.49459C25.8982 3.74009 24.5762 4.30009 23.2432 5.14859C23.6207 5.52659 23.9673 5.93423 24.2797 6.36759C25.6352 5.24309 26.9817 4.41209 28.3232 3.91209C28.8129 3.72887 29.3176 3.58868 29.8317 3.49309C29.4558 3.39781 29.0694 3.35044 28.6817 3.35209Z" fill="#14559A"/>
<path d="M39.1255 23.6411C39.6848 23.1944 40.2234 22.7224 40.7395 22.2266C38.5045 15.5321 37.7045 3.36206 31.228 3.36206C30.765 3.36206 30.2975 3.40506 29.832 3.49156C35.731 4.95856 36.4865 17.7941 39.1255 23.6411Z" fill="url(#paint2_linear_208_1334)"/>
<path d="M29.8321 3.49209C29.456 3.39746 29.0695 3.35026 28.6816 3.35159L31.2286 3.36109C30.7651 3.36109 30.2981 3.40409 29.8321 3.49209Z" fill="#3092C4"/>
<path d="M39.0128 25.0629C38.7548 24.8138 38.511 24.5502 38.2828 24.2734C37.1933 25.0449 36.1073 25.6299 35.0293 26.0109C35.4128 26.1984 35.8153 26.3374 36.2423 26.4239C36.5824 26.4932 36.9287 26.5275 37.2758 26.5264C38.4863 26.5264 39.4428 26.3834 40.2573 25.9924C39.8088 25.7499 39.3973 25.4364 39.0128 25.0629Z" fill="#1969BC"/>
<path d="M28.3232 3.91246C33.6077 6.67646 34.0667 19.1925 38.2832 24.274C38.5652 24.075 38.8459 23.8641 39.1252 23.6415C36.4857 17.794 35.7312 4.95746 29.8327 3.49146C29.3183 3.58763 28.8132 3.7285 28.3232 3.91246Z" fill="url(#paint3_linear_208_1334)"/>
<path d="M24.2793 6.3671C28.3308 11.9156 29.7813 23.4401 35.0293 26.0116C36.1083 25.6306 37.1933 25.0456 38.2828 24.2741C34.0663 19.1926 33.6068 6.6766 28.3228 3.9126C26.9813 4.4116 25.6348 5.2426 24.2793 6.3671Z" fill="url(#paint4_linear_208_1334)"/>
<path d="M20.111 7.6401C19.4755 9.0761 18.827 10.9631 18.043 13.4271C19.602 11.2296 21.157 9.3366 22.703 7.8021C22.5077 7.19093 22.278 6.59131 22.015 6.0061C21.3517 6.51648 20.7161 7.06192 20.111 7.6401Z" fill="url(#paint5_linear_208_1334)"/>
<path d="M22.5781 5.59204C22.3916 5.72554 22.2036 5.86204 22.0156 6.00604C22.2785 6.59126 22.508 7.19088 22.7031 7.80204C22.978 7.53217 23.2575 7.26713 23.5416 7.00704C23.2561 6.51209 22.934 6.03912 22.5781 5.59204Z" fill="#2B74B1"/>
<path d="M23.2426 5.14795C23.0216 5.28862 22.7998 5.43645 22.5771 5.59145C22.9342 6.03831 23.2565 6.51186 23.5411 7.00795C23.7878 6.78462 24.0338 6.57095 24.2791 6.36695C23.9675 5.93304 23.6208 5.52535 23.2426 5.14795Z" fill="#125A9E"/>
<path d="M59.2865 2.83991C56.298 14.3649 50.056 23.6224 44.823 25.9559H44.8125L44.53 26.0764L44.496 26.0899L44.4155 26.1209L44.3795 26.1359L44.249 26.1819L44.195 26.2009L44.13 26.2224L44.067 26.2444L44.011 26.2629L43.8995 26.2969L43.852 26.3094L43.7765 26.3299L43.7255 26.3439L43.6435 26.3649L43.543 26.3869C43.7795 26.4744 44.026 26.5184 44.2915 26.5184C49.2535 26.5184 54.2575 17.6254 62.536 2.83691H59.2855L59.2865 2.83991Z" fill="url(#paint6_linear_208_1334)"/>
<path d="M16.9659 3.81994L16.9749 3.81144L16.9864 3.80394H16.9929L17.0734 3.77294L17.0894 3.76494L17.1099 3.75594L17.1964 3.72494H17.2009L17.3914 3.65844L17.4194 3.65094L17.5014 3.62644L17.5389 3.61444L17.6209 3.58994L17.6524 3.58194L17.9249 3.51094L17.9624 3.50244L18.0419 3.48694L18.0814 3.47494L18.1614 3.45994H18.1799L18.3459 3.42894H18.3789L18.4554 3.41594L18.4984 3.40794L18.5714 3.39694L18.6124 3.38944L18.7909 3.37344C18.6152 3.35596 18.4389 3.34695 18.2624 3.34644C12.6739 3.34644 4.97436 13.7154 1.50586 27.1434H2.17436C3.21116 25.2901 4.21747 23.4198 5.19286 21.5334C7.62236 12.0224 12.5699 5.53544 16.9649 3.81694" fill="url(#paint7_linear_208_1334)"/>
<path d="M20.1113 7.64006C20.7164 7.06188 21.352 6.51643 22.0153 6.00606C21.8803 5.70582 21.7289 5.41321 21.5618 5.12956C21.0508 5.75006 20.5838 6.56806 20.1113 7.64006ZM20.5708 3.89856C20.9358 4.20406 21.2623 4.62556 21.5618 5.12956C21.6529 5.01731 21.7494 4.90952 21.8508 4.80656C21.4492 4.42741 20.9942 4.1092 20.5003 3.86206L20.5598 3.89056L20.5708 3.89856Z" fill="#0D82CA"/>
<path d="M5.19434 21.5361C10.2898 11.7161 12.7043 5.50158 16.9663 3.81958C12.5718 5.53908 7.62334 12.0256 5.19434 21.5361Z" fill="url(#paint8_linear_208_1334)"/>
<path d="M21.8495 4.80688C21.75 4.90838 21.656 5.01438 21.5605 5.12988C21.7205 5.39788 21.8695 5.68938 22.015 6.00638C22.203 5.86188 22.391 5.72588 22.5775 5.59188C22.3539 5.31321 22.1106 5.05088 21.8495 4.80688Z" fill="#127BCA"/>
<path d="M7.50761 27.1016L7.41511 27.1126H7.39761L7.31911 27.1206H7.30611L7.11911 27.1331H7.09961C12.2566 26.9886 14.6146 24.4066 15.7846 20.6611C16.6731 17.8221 17.4036 15.4301 18.0436 13.4231C15.8836 16.4636 13.7131 20.0881 11.5316 24.1486C10.4796 26.1056 8.87961 26.9231 7.50761 27.0976" fill="url(#paint9_linear_208_1334)"/>
<path d="M7.50781 27.0994C8.87981 26.9244 10.4798 26.1079 11.5318 24.1499C13.7133 20.0909 15.8848 16.4654 18.0428 13.4244C18.8283 10.9599 19.4758 9.07394 20.1118 7.63794C15.8098 11.7324 11.4918 18.5409 7.50781 27.0974" fill="url(#paint10_linear_208_1334)"/>
<path d="M5.1943 21.5359C4.21842 23.4222 3.21179 25.2925 2.1748 27.1459H4.1193C4.36465 25.2564 4.72346 23.3833 5.1938 21.5369" fill="#05A1E6"/>
<path d="M18.6125 3.39543L18.571 3.40343L18.498 3.41393L18.4555 3.42143L18.379 3.43493L18.346 3.44293L18.18 3.47193H18.1615L18.0805 3.48793L18.04 3.49843L17.9615 3.51393L17.9245 3.52293L17.6515 3.59393L17.62 3.60343L17.5375 3.62793L17.5 3.63743L17.4185 3.66143L17.3885 3.66943L17.199 3.73593L17.113 3.76593L17.077 3.78093L16.997 3.81093L16.9705 3.82393C12.709 5.50593 10.2945 11.7204 5.19902 21.5399C4.72851 23.3863 4.36953 25.2594 4.12402 27.1489H4.39702L6.26652 27.1409H7.12352L7.31052 27.1284H7.32252L7.40102 27.1204H7.42002L7.51252 27.1094C11.496 18.5534 15.8145 11.7449 20.1165 7.65043C20.589 6.57843 21.0555 5.75993 21.5655 5.14043C21.267 4.63643 20.9405 4.21393 20.5755 3.90793L20.565 3.89993L20.504 3.87043L20.444 3.83993L20.3855 3.81143L20.3165 3.78243L20.2625 3.75893L20.1495 3.71193L20.1015 3.69343L20.0175 3.65993L19.972 3.64493L19.855 3.60493H19.8455L19.71 3.56643L19.6795 3.55693L19.5655 3.52493L19.539 3.51743C19.4454 3.49285 19.3508 3.47217 19.2555 3.45543L19.226 3.44743L19.103 3.42743L19.079 3.41993L18.9335 3.40093H18.908L18.796 3.38843L18.6175 3.40493" fill="url(#paint11_linear_208_1334)"/>
<path d="M47.613 9.22059C46.6325 12.3611 45.8385 14.9521 45.1475 17.0841C47.838 13.3821 50.4875 8.72509 53.0115 3.35059C50.067 4.27509 48.497 6.39109 47.613 9.22059Z" fill="url(#paint12_linear_208_1334)"/>
<path d="M45.2323 25.7601C45.0946 25.8301 44.9579 25.8956 44.8223 25.9566C50.0553 23.6226 56.2978 14.3651 59.2858 2.84009H58.6803C51.8138 15.1051 49.6058 23.3161 45.2323 25.7601Z" fill="url(#paint13_linear_208_1334)"/>
<path d="M41.8153 24.7295C42.9538 23.34 43.8813 20.9775 45.1478 17.0835C43.6873 19.0895 42.2173 20.8145 40.7458 22.2205L40.7383 22.233C41.0593 23.1945 41.4113 24.044 41.8128 24.729" fill="#079AE1"/>
<path d="M41.8153 24.7295C41.4278 25.2025 41.0173 25.5625 40.5608 25.8295C40.4608 25.8882 40.3595 25.9425 40.2568 25.9925C40.7388 26.2525 41.2648 26.4265 41.8533 26.496L42.1143 26.519H42.1298L42.2553 26.527H42.6813L42.7293 26.519L42.8233 26.511H42.8688L42.9713 26.5H42.9788L43.0103 26.4925L43.1193 26.4755H43.1513L43.2738 26.455H43.2933L43.5378 26.403C42.8623 26.1565 42.2973 25.573 41.8103 24.743" fill="#1969BC"/>
<path d="M32.168 26.5264C32.658 26.5264 33.1515 26.4786 33.6485 26.3829C34.108 26.2994 34.5685 26.1719 35.0295 26.0109C35.7287 26.3537 36.4977 26.5301 37.2765 26.5264H32.168ZM37.2765 26.5264C38.486 26.5264 39.4435 26.3829 40.2575 25.9924C40.7525 26.2609 41.2945 26.4318 41.854 26.4959L42.115 26.5184H42.1305L42.256 26.5264H42.4065H37.2765Z" fill="#1E5CB3"/>
<path d="M42.4062 26.5265H42.6858L42.7338 26.5185L42.8288 26.5105H42.8753L42.9768 26.4995H42.9853L43.0163 26.492L43.1253 26.4755L43.1583 26.468L43.2812 26.448H43.3008L43.5452 26.396C43.7851 26.484 44.0388 26.5285 44.2943 26.5275L42.4078 26.5355L42.4062 26.5265Z" fill="#1D60B5"/>
<path d="M40.7412 22.2336V22.2256C40.225 22.7216 39.6864 23.1937 39.1272 23.6406C38.8467 23.8631 38.5672 24.0741 38.2842 24.2731C38.5126 24.5498 38.7565 24.8134 39.0147 25.0626C39.3997 25.4356 39.8102 25.7496 40.2587 25.9921C40.3613 25.9418 40.4625 25.8874 40.5622 25.8291C41.0197 25.5621 41.4292 25.2021 41.8172 24.7291C41.4157 24.0441 41.0637 23.1946 40.7432 22.2331" fill="#175FAB"/>
<path d="M56.762 2.84009H53.714L53.231 2.86359L53.006 3.34459C50.483 8.71909 47.833 13.3761 45.1425 17.0786C43.8775 20.9716 42.949 23.3341 41.8105 24.7241C42.297 25.5546 42.8635 26.1386 43.5365 26.3861L43.5895 26.3746H43.6005L43.6375 26.3661L43.722 26.3451L43.772 26.3306L43.8475 26.3106L43.8945 26.2976L44.0065 26.2636L44.0625 26.2451L44.1255 26.2221L44.19 26.2016L44.2425 26.1816L44.374 26.1356L44.4105 26.1221L44.491 26.0906L44.5255 26.0781L44.808 25.9576H44.8175C44.9535 25.8973 45.09 25.8318 45.227 25.7611C49.602 23.3171 51.81 15.1061 58.676 2.84109H56.7585L56.762 2.84009Z" fill="url(#paint14_linear_208_1334)"/>
<path d="M18.791 3.37905L18.8225 3.38705L18.902 3.39555H18.929L19.074 3.41405L19.099 3.42205L19.2215 3.44255L19.252 3.45005L19.535 3.51255L19.5605 3.52055L19.674 3.55255L19.7055 3.56205L19.84 3.60055L19.85 3.60855L19.968 3.64905L20.013 3.66355L20.0975 3.69805L20.1455 3.71505L20.2575 3.76205L20.3125 3.78555L20.38 3.81505L20.44 3.84305L20.4995 3.87405C20.9936 4.12129 21.4488 4.43968 21.8505 4.81905C22.0032 4.65838 22.1628 4.51338 22.3295 4.38405C21.422 3.74005 20.3925 3.37305 19.2065 3.37305C19.069 3.37305 18.932 3.38105 18.792 3.39155" fill="#7DCBEC"/>
<path d="M21.8496 4.80707C22.1036 5.04357 22.3471 5.30757 22.5776 5.59207C22.7996 5.4364 23.0214 5.28857 23.2431 5.14857C22.9607 4.864 22.6544 4.60421 22.3276 4.37207C22.1573 4.50458 21.9975 4.65001 21.8496 4.80707Z" fill="#5EC5ED"/>
<path d="M18.6603 3.41211L19.0744 3.39439C20.2607 3.39439 21.2903 3.76043 22.1964 4.40405C23.1555 3.64938 24.3117 3.3843 25.922 3.3843H18.1328L18.6603 3.41211Z" fill="url(#paint15_linear_208_1334)"/>
<path d="M25.9209 3.38439C24.3131 3.38439 23.1544 3.64947 22.1953 4.40415C22.515 4.62962 22.8197 4.88785 23.1092 5.17896C24.4418 4.33089 25.7644 3.77063 27.0668 3.52327C27.5648 3.42904 28.0588 3.38193 28.5484 3.38193L25.9209 3.38439Z" fill="url(#paint16_linear_208_1334)"/>
<path d="M45.1476 17.0859C45.8396 14.9524 46.6316 12.3624 47.6141 9.22088C48.4996 6.39038 50.0666 4.27389 53.0101 3.35038L53.2371 2.86938C48.4386 3.15688 46.1961 5.59788 45.0676 9.21288C43.0941 15.5239 41.8981 19.6144 40.7471 22.2214C42.2171 20.8154 43.6871 19.0899 45.1476 17.0859Z" fill="url(#paint17_linear_208_1334)"/>
<defs>
<linearGradient id="paint0_linear_208_1334" x1="28.2945" y1="3.27588" x2="28.2945" y2="32.3245" gradientUnits="userSpaceOnUse">
<stop stop-color="#0994DC"/>
<stop offset="0.35" stop-color="#66CEF5"/>
<stop offset="0.846" stop-color="#127BCA"/>
<stop offset="1" stop-color="#127BCA"/>
</linearGradient>
<linearGradient id="paint1_linear_208_1334" x1="29.3187" y1="2.4151" x2="29.3187" y2="32.2808" gradientUnits="userSpaceOnUse">
<stop stop-color="#0E76BC"/>
<stop offset="0.36" stop-color="#36AEE8"/>
<stop offset="0.846" stop-color="#00ADEF"/>
<stop offset="1" stop-color="#00ADEF"/>
</linearGradient>
<linearGradient id="paint2_linear_208_1334" x1="35.2759" y1="25.8043" x2="35.2759" y2="2.10172" gradientUnits="userSpaceOnUse">
<stop stop-color="#1C63B7"/>
<stop offset="0.5" stop-color="#33BDF2"/>
<stop offset="1" stop-color="#33BDF2" stop-opacity="0.42"/>
</linearGradient>
<linearGradient id="paint3_linear_208_1334" x1="33.6805" y1="-0.606345" x2="33.6805" y2="30.4018" gradientUnits="userSpaceOnUse">
<stop stop-color="#166AB8"/>
<stop offset="0.4" stop-color="#36AEE8"/>
<stop offset="0.846" stop-color="#0798DD"/>
<stop offset="1" stop-color="#0798DD"/>
</linearGradient>
<linearGradient id="paint4_linear_208_1334" x1="31.4249" y1="-0.39083" x2="31.4249" y2="32.5824" gradientUnits="userSpaceOnUse">
<stop stop-color="#124379"/>
<stop offset="0.39" stop-color="#1487CB"/>
<stop offset="0.78" stop-color="#165197"/>
<stop offset="1" stop-color="#165197"/>
</linearGradient>
<linearGradient id="paint5_linear_208_1334" x1="17.7928" y1="9.31809" x2="22.4527" y2="9.31809" gradientUnits="userSpaceOnUse">
<stop stop-color="#33BDF2" stop-opacity="0.698"/>
<stop offset="1" stop-color="#1DACD8"/>
</linearGradient>
<linearGradient id="paint6_linear_208_1334" x1="53.0611" y1="25.2" x2="53.0611" y2="2.05095" gradientUnits="userSpaceOnUse">
<stop stop-color="#136AB4"/>
<stop offset="0.6" stop-color="#59CAF5" stop-opacity="0.549"/>
<stop offset="1" stop-color="#59CAF5" stop-opacity="0.235"/>
</linearGradient>
<linearGradient id="paint7_linear_208_1334" x1="1.25964" y1="14.848" x2="18.5403" y2="14.848" gradientUnits="userSpaceOnUse">
<stop stop-color="#05A1E6" stop-opacity="0.247"/>
<stop offset="1" stop-color="#05A1E6"/>
</linearGradient>
<linearGradient id="paint8_linear_208_1334" x1="11.1729" y1="25.8206" x2="11.1729" y2="2.1788" gradientUnits="userSpaceOnUse">
<stop stop-color="#318ED5"/>
<stop offset="1" stop-color="#38A7E4"/>
</linearGradient>
<linearGradient id="paint9_linear_208_1334" x1="12.4963" y1="25.8952" x2="12.4963" y2="2.85477" gradientUnits="userSpaceOnUse">
<stop stop-color="#05A1E6"/>
<stop offset="1" stop-color="#05A1E6" stop-opacity="0.549"/>
</linearGradient>
<linearGradient id="paint10_linear_208_1334" x1="13.8837" y1="27.1428" x2="13.8837" y2="7.67334" gradientUnits="userSpaceOnUse">
<stop stop-color="#1959A6"/>
<stop offset="0.5" stop-color="#05A1E6"/>
<stop offset="0.918" stop-color="#7EC5EA"/>
<stop offset="1" stop-color="#7EC5EA"/>
</linearGradient>
<linearGradient id="paint11_linear_208_1334" x1="14.5177" y1="25.8274" x2="10.805" y2="4.77132" gradientUnits="userSpaceOnUse">
<stop stop-color="#165096"/>
<stop offset="1" stop-color="#0D82CA"/>
</linearGradient>
<linearGradient id="paint12_linear_208_1334" x1="48.9788" y1="13.8893" x2="48.9788" y2="2.85711" gradientUnits="userSpaceOnUse">
<stop stop-color="#05A1E6"/>
<stop offset="0.874" stop-color="#0495D6"/>
<stop offset="1" stop-color="#0495D6"/>
</linearGradient>
<linearGradient id="paint13_linear_208_1334" x1="54.323" y1="1.90404" x2="49.8489" y2="27.2783" gradientUnits="userSpaceOnUse">
<stop stop-color="#38A7E4" stop-opacity="0.329"/>
<stop offset="0.962" stop-color="#0E88D3"/>
<stop offset="1" stop-color="#0E88D3"/>
</linearGradient>
<linearGradient id="paint14_linear_208_1334" x1="50.1183" y1="2.80043" x2="50.1183" y2="26.8064" gradientUnits="userSpaceOnUse">
<stop stop-color="#168CD4"/>
<stop offset="0.5" stop-color="#1C87CC"/>
<stop offset="1" stop-color="#154B8D"/>
</linearGradient>
<linearGradient id="paint15_linear_208_1334" x1="17.5718" y1="0.404935" x2="45.5575" y2="12.012" gradientUnits="userSpaceOnUse">
<stop stop-color="#97D6EE"/>
<stop offset="0.703" stop-color="#55C1EA"/>
<stop offset="1" stop-color="#55C1EA"/>
</linearGradient>
<linearGradient id="paint16_linear_208_1334" x1="25.2229" y1="7.07192" x2="47.3263" y2="-2.94835" gradientUnits="userSpaceOnUse">
<stop stop-color="#7ACCEC"/>
<stop offset="1" stop-color="#3FB7ED"/>
</linearGradient>
<linearGradient id="paint17_linear_208_1334" x1="46.8954" y1="4.07374" x2="46.8954" y2="27.6145" gradientUnits="userSpaceOnUse">
<stop stop-color="#1DA7E7"/>
<stop offset="1" stop-color="#37ABE7" stop-opacity="0"/>
</linearGradient>
</defs>
</svg>
