<svg width="62" height="25" viewBox="0 0 62 25" fill="none" xmlns="http://www.w3.org/2000/svg">
<path d="M21.1973 4.96517C23.3968 11.6912 24.2293 23.6897 30.6613 23.6897C31.1508 23.6897 31.6458 23.6422 32.1423 23.5472C26.2958 22.1837 25.6028 10.3162 22.0353 4.17017C21.7509 4.42976 21.4715 4.69481 21.1973 4.96517Z" fill="url(#paint0_linear_792_710)"/>
<path d="M22.0352 4.17004C25.6027 10.316 26.2957 22.1835 32.1422 23.547C32.6114 23.4585 33.0731 23.3338 33.5232 23.174C28.2752 20.6025 26.8247 9.07804 22.7732 3.52954C22.5275 3.73454 22.2815 3.94804 22.0352 4.17004Z" fill="url(#paint1_linear_792_710)"/>
<path d="M27.1758 0.515179C26.6873 0.515179 26.1913 0.563179 25.6938 0.657679C24.3923 0.903179 23.0703 1.46318 21.7373 2.31168C22.1148 2.68967 22.4614 3.09731 22.7738 3.53068C24.1293 2.40618 25.4758 1.57518 26.8173 1.07518C27.307 0.891958 27.8118 0.751762 28.3258 0.656179C27.9499 0.560898 27.5635 0.513522 27.1758 0.515179Z" fill="#14559A"/>
<path d="M37.6197 20.8041C38.1789 20.3575 38.7175 19.8855 39.2337 19.3896C36.9987 12.6951 36.1987 0.525146 29.7222 0.525146C29.2592 0.525146 28.7917 0.568146 28.3262 0.654646C34.2252 2.12165 34.9807 14.9571 37.6197 20.8041Z" fill="url(#paint2_linear_792_710)"/>
<path d="M28.3263 0.655176C27.9501 0.560544 27.5636 0.513344 27.1758 0.514676L29.7228 0.524176C29.2593 0.524176 28.7923 0.567176 28.3263 0.655176Z" fill="#3092C4"/>
<path d="M37.5069 22.226C37.2489 21.9768 37.0052 21.7133 36.7769 21.4365C35.6874 22.208 34.6014 22.793 33.5234 23.174C33.9069 23.3615 34.3094 23.5005 34.7364 23.587C35.0766 23.6563 35.4228 23.6906 35.7699 23.6895C36.9804 23.6895 37.9369 23.5465 38.7514 23.1555C38.3029 22.913 37.8914 22.5995 37.5069 22.226Z" fill="#1969BC"/>
<path d="M26.8174 1.07554C32.1019 3.83954 32.5609 16.3555 36.7774 21.437C37.0594 21.238 37.34 21.0272 37.6194 20.8045C34.9799 14.957 34.2254 2.12054 28.3269 0.654541C27.8124 0.750718 27.3074 0.891585 26.8174 1.07554Z" fill="url(#paint3_linear_792_710)"/>
<path d="M22.7734 3.53018C26.8249 9.07868 28.2754 20.6032 33.5234 23.1747C34.6024 22.7937 35.6874 22.2087 36.7769 21.4372C32.5604 16.3557 32.1009 3.83968 26.8169 1.07568C25.4754 1.57468 24.1289 2.40568 22.7734 3.53018Z" fill="url(#paint4_linear_792_710)"/>
<path d="M18.6051 4.80319C17.9696 6.23919 17.3211 8.12619 16.5371 10.5902C18.0961 8.39269 19.6511 6.49969 21.1971 4.96519C21.0019 4.35402 20.7722 3.75439 20.5091 3.16919C19.8458 3.67956 19.2102 4.22501 18.6051 4.80319Z" fill="url(#paint5_linear_792_710)"/>
<path d="M21.0723 2.75513C20.8858 2.88863 20.6978 3.02513 20.5098 3.16913C20.7726 3.75434 21.0022 4.35397 21.1973 4.96513C21.4721 4.69525 21.7516 4.43021 22.0358 4.17013C21.7502 3.67518 21.4281 3.2022 21.0723 2.75513Z" fill="#2B74B1"/>
<path d="M21.7368 2.31104C21.5158 2.4517 21.294 2.59954 21.0713 2.75454C21.4283 3.20139 21.7506 3.67495 22.0353 4.17104C22.282 3.9477 22.528 3.73404 22.7733 3.53004C22.4616 3.09613 22.1149 2.68844 21.7368 2.31104Z" fill="#125A9E"/>
<path d="M57.7806 0.00300002C54.7921 11.528 48.5501 20.7855 43.3171 23.119H43.3066L43.0241 23.2395L42.9901 23.253L42.9096 23.284L42.8736 23.299L42.7431 23.345L42.6891 23.364L42.6241 23.3855L42.5611 23.4075L42.5051 23.426L42.3936 23.46L42.3461 23.4725L42.2706 23.493L42.2196 23.507L42.1376 23.528L42.0371 23.55C42.2736 23.6375 42.5201 23.6815 42.7856 23.6815C47.7476 23.6815 52.7516 14.7885 61.0301 0H57.7796L57.7806 0.00300002Z" fill="url(#paint6_linear_792_710)"/>
<path d="M15.46 0.983021L15.469 0.974522L15.4805 0.967021H15.487L15.5675 0.936022L15.5835 0.928022L15.604 0.919022L15.6905 0.888021H15.695L15.8855 0.821522L15.9135 0.814022L15.9955 0.789521L16.033 0.777522L16.115 0.753021L16.1465 0.745022L16.419 0.674021L16.4565 0.665522L16.536 0.650022L16.5755 0.638021L16.6555 0.623022H16.674L16.84 0.592021H16.873L16.9495 0.579021L16.9925 0.571022L17.0655 0.560022L17.1065 0.552521L17.285 0.536522C17.1094 0.519047 16.933 0.510036 16.7565 0.509521C11.168 0.509521 3.4685 10.8785 0 24.3065H0.6685C1.7053 22.4532 2.71161 20.5829 3.687 18.6965C6.1165 9.18552 11.064 2.69852 15.459 0.980021" fill="url(#paint7_linear_792_710)"/>
<path d="M18.6055 4.80315C19.2106 4.22496 19.8462 3.67952 20.5095 3.16915C20.3744 2.86891 20.2231 2.5763 20.056 2.29265C19.545 2.91315 19.078 3.73115 18.6055 4.80315ZM19.065 1.06165C19.43 1.36715 19.7565 1.78865 20.056 2.29265C20.1471 2.1804 20.2435 2.07261 20.345 1.96965C19.9434 1.5905 19.4884 1.27228 18.9945 1.02515L19.054 1.05365L19.065 1.06165Z" fill="#0D82CA"/>
<path d="M3.68848 18.6992C8.78398 8.87917 11.1985 2.66467 15.4605 0.982666C11.066 2.70217 6.11748 9.18867 3.68848 18.6992Z" fill="url(#paint8_linear_792_710)"/>
<path d="M20.3437 1.96997C20.2442 2.07147 20.1502 2.17747 20.0547 2.29297C20.2147 2.56097 20.3637 2.85247 20.5092 3.16947C20.6972 3.02497 20.8852 2.88897 21.0717 2.75497C20.848 2.4763 20.6047 2.21396 20.3437 1.96997Z" fill="#127BCA"/>
<path d="M6.00175 24.2647L5.90925 24.2757H5.89175L5.81325 24.2837H5.80025L5.61325 24.2962H5.59375C10.7508 24.1517 13.1087 21.5697 14.2787 17.8242C15.1672 14.9852 15.8978 12.5932 16.5378 10.5862C14.3778 13.6267 12.2072 17.2512 10.0257 21.3117C8.97375 23.2687 7.37375 24.0862 6.00175 24.2607" fill="url(#paint9_linear_792_710)"/>
<path d="M6.00195 24.2625C7.37395 24.0875 8.97395 23.271 10.026 21.313C12.2075 17.254 14.379 13.6285 16.537 10.5875C17.3225 8.12303 17.97 6.23703 18.606 4.80103C14.304 8.89553 9.98595 15.704 6.00195 24.2605" fill="url(#paint10_linear_792_710)"/>
<path d="M3.68845 18.699C2.71256 20.5853 1.70593 22.4555 0.668945 24.309H2.61345C2.85879 22.4194 3.2176 20.5464 3.68795 18.7" fill="#05A1E6"/>
<path d="M17.1067 0.558514L17.0652 0.566514L16.9922 0.577014L16.9497 0.584514L16.8732 0.598014L16.8402 0.606014L16.6742 0.635014H16.6557L16.5747 0.651014L16.5342 0.661514L16.4557 0.677014L16.4187 0.686014L16.1457 0.757014L16.1142 0.766514L16.0317 0.791014L15.9942 0.800514L15.9127 0.824514L15.8827 0.832514L15.6932 0.899014L15.6072 0.929014L15.5712 0.944014L15.4912 0.974014L15.4647 0.987014C11.2032 2.66901 8.78866 8.88351 3.69316 18.703C3.22265 20.5494 2.86367 22.4225 2.61816 24.312H2.89116L4.76066 24.304H5.61766L5.80466 24.2915H5.81666L5.89516 24.2835H5.91416L6.00666 24.2725C9.99016 15.7165 14.3087 8.90801 18.6107 4.81351C19.0832 3.74151 19.5497 2.92301 20.0597 2.30351C19.7612 1.79951 19.4347 1.37701 19.0697 1.07101L19.0592 1.06301L18.9982 1.03351L18.9382 1.00301L18.8797 0.974514L18.8107 0.945514L18.7567 0.922014L18.6437 0.875014L18.5957 0.856514L18.5117 0.823014L18.4662 0.808014L18.3492 0.768014H18.3397L18.2042 0.729514L18.1737 0.720014L18.0597 0.688014L18.0332 0.680514C17.9396 0.655936 17.845 0.635252 17.7497 0.618514L17.7202 0.610514L17.5972 0.590514L17.5732 0.583014L17.4277 0.564014H17.4022L17.2902 0.551514L17.1117 0.568014" fill="url(#paint11_linear_792_710)"/>
<path d="M46.1071 6.38367C45.1266 9.52417 44.3326 12.1152 43.6416 14.2472C46.3321 10.5452 48.9816 5.88817 51.5056 0.513672C48.5611 1.43817 46.9911 3.55417 46.1071 6.38367Z" fill="url(#paint12_linear_792_710)"/>
<path d="M43.7264 22.9232C43.5887 22.9932 43.4521 23.0587 43.3164 23.1197C48.5494 20.7857 54.7919 11.5282 57.7799 0.00317383H57.1744C50.3079 12.2682 48.0999 20.4792 43.7264 22.9232Z" fill="url(#paint13_linear_792_710)"/>
<path d="M40.3094 21.8926C41.4479 20.5031 42.3754 18.1406 43.6419 14.2466C42.1814 16.2526 40.7114 17.9776 39.2399 19.3836L39.2324 19.3961C39.5534 20.3576 39.9054 21.2071 40.3069 21.8921" fill="#079AE1"/>
<path d="M40.3095 21.8926C39.922 22.3656 39.5115 22.7256 39.055 22.9926C38.955 23.0512 38.8536 23.1056 38.751 23.1556C39.233 23.4156 39.759 23.5896 40.3475 23.6591L40.6085 23.6821H40.624L40.7495 23.6901H41.1755L41.2235 23.6821L41.3175 23.6741H41.363L41.4655 23.6631H41.473L41.5045 23.6556L41.6135 23.6386H41.6455L41.768 23.6181H41.7875L42.032 23.5661C41.3565 23.3196 40.7915 22.7361 40.3045 21.9061" fill="#1969BC"/>
<path d="M30.6621 23.6895C31.1521 23.6895 31.6456 23.6417 32.1426 23.546C32.6021 23.4625 33.0626 23.335 33.5236 23.174C34.2228 23.5168 34.9919 23.6932 35.7706 23.6895H30.6621ZM35.7706 23.6895C36.9801 23.6895 37.9376 23.546 38.7516 23.1555C39.2467 23.424 39.7886 23.5949 40.3481 23.659L40.6091 23.6815H40.6246L40.7501 23.6895H40.9006H35.7706Z" fill="#1E5CB3"/>
<path d="M40.9004 23.6896H41.1799L41.2279 23.6816L41.3229 23.6736H41.3694L41.4709 23.6626H41.4794L41.5104 23.6551L41.6194 23.6386L41.6524 23.6311L41.7754 23.6111H41.7949L42.0394 23.5591C42.2793 23.6471 42.5329 23.6916 42.7884 23.6906L40.9019 23.6986L40.9004 23.6896Z" fill="#1D60B5"/>
<path d="M39.2353 19.3967V19.3887C38.7192 19.8847 38.1806 20.3568 37.6213 20.8037C37.3408 21.0262 37.0613 21.2372 36.7783 21.4362C37.0067 21.7129 37.2506 21.9765 37.5088 22.2257C37.8938 22.5987 38.3043 22.9127 38.7528 23.1552C38.8555 23.1048 38.9567 23.0505 39.0563 22.9922C39.5138 22.7252 39.9233 22.3652 40.3113 21.8922C39.9098 21.2072 39.5578 20.3577 39.2373 19.3962" fill="#175FAB"/>
<path d="M55.2562 0.00317383H52.2082L51.7252 0.026674L51.5002 0.507674C48.9772 5.88217 46.3272 10.5392 43.6367 14.2417C42.3717 18.1347 41.4432 20.4972 40.3047 21.8872C40.7912 22.7177 41.3577 23.3017 42.0307 23.5492L42.0837 23.5377H42.0947L42.1317 23.5292L42.2162 23.5082L42.2662 23.4937L42.3417 23.4737L42.3887 23.4607L42.5007 23.4267L42.5567 23.4082L42.6197 23.3852L42.6842 23.3647L42.7367 23.3447L42.8682 23.2987L42.9047 23.2852L42.9852 23.2537L43.0197 23.2412L43.3022 23.1207H43.3117C43.4477 23.0603 43.5842 22.9948 43.7212 22.9242C48.0962 20.4802 50.3042 12.2692 57.1702 0.00417399H55.2527L55.2562 0.00317383Z" fill="url(#paint14_linear_792_710)"/>
<path d="M17.2852 0.542133L17.3167 0.550133L17.3962 0.558633H17.4232L17.5682 0.577133L17.5932 0.585133L17.7157 0.605633L17.7462 0.613133L18.0292 0.675633L18.0547 0.683633L18.1682 0.715633L18.1997 0.725133L18.3342 0.763633L18.3442 0.771633L18.4622 0.812133L18.5072 0.826633L18.5917 0.861133L18.6397 0.878133L18.7517 0.925133L18.8067 0.948633L18.8742 0.978133L18.9342 1.00613L18.9937 1.03713C19.4878 1.28438 19.943 1.60277 20.3447 1.98213C20.4973 1.82147 20.657 1.67647 20.8237 1.54713C19.9162 0.903133 18.8867 0.536133 17.7007 0.536133C17.5632 0.536133 17.4262 0.544133 17.2862 0.554633" fill="#7DCBEC"/>
<path d="M20.3438 1.97016C20.5978 2.20666 20.8412 2.47066 21.0717 2.75516C21.2937 2.59949 21.5156 2.45166 21.7372 2.31166C21.4549 2.02708 21.1486 1.7673 20.8217 1.53516C20.6515 1.66766 20.4917 1.81309 20.3438 1.97016Z" fill="#5EC5ED"/>
<path d="M17.1544 0.575193L17.5685 0.557477C18.7548 0.557477 19.7844 0.923519 20.6906 1.56714C21.6497 0.812463 22.8059 0.547387 24.4162 0.547387H16.627L17.1544 0.575193Z" fill="url(#paint15_linear_792_710)"/>
<path d="M24.4151 0.547481C22.8073 0.547481 21.6486 0.812557 20.6895 1.56723C21.0092 1.79271 21.3139 2.05094 21.6033 2.34204C22.936 1.49398 24.2585 0.933711 25.5609 0.686359C26.059 0.59213 26.5529 0.545016 27.0426 0.545016L24.4151 0.547481Z" fill="url(#paint16_linear_792_710)"/>
<path d="M43.6417 14.249C44.3337 12.1155 45.1257 9.52547 46.1082 6.38397C46.9937 3.55347 48.5607 1.43697 51.5042 0.513471L51.7312 0.0324707C46.9327 0.319971 44.6902 2.76097 43.5617 6.37597C41.5882 12.687 40.3922 16.7775 39.2412 19.3845C40.7112 17.9785 42.1812 16.253 43.6417 14.249Z" fill="url(#paint17_linear_792_710)"/>
<defs>
<linearGradient id="paint0_linear_792_710" x1="26.7887" y1="0.438961" x2="26.7887" y2="29.4876" gradientUnits="userSpaceOnUse">
<stop stop-color="#0994DC"/>
<stop offset="0.35" stop-color="#66CEF5"/>
<stop offset="0.846" stop-color="#127BCA"/>
<stop offset="1" stop-color="#127BCA"/>
</linearGradient>
<linearGradient id="paint1_linear_792_710" x1="27.8128" y1="-0.421811" x2="27.8128" y2="29.4439" gradientUnits="userSpaceOnUse">
<stop stop-color="#0E76BC"/>
<stop offset="0.36" stop-color="#36AEE8"/>
<stop offset="0.846" stop-color="#00ADEF"/>
<stop offset="1" stop-color="#00ADEF"/>
</linearGradient>
<linearGradient id="paint2_linear_792_710" x1="33.77" y1="22.9673" x2="33.77" y2="-0.735191" gradientUnits="userSpaceOnUse">
<stop stop-color="#1C63B7"/>
<stop offset="0.5" stop-color="#33BDF2"/>
<stop offset="1" stop-color="#33BDF2" stop-opacity="0.42"/>
</linearGradient>
<linearGradient id="paint3_linear_792_710" x1="32.1746" y1="-3.44326" x2="32.1746" y2="27.5649" gradientUnits="userSpaceOnUse">
<stop stop-color="#166AB8"/>
<stop offset="0.4" stop-color="#36AEE8"/>
<stop offset="0.846" stop-color="#0798DD"/>
<stop offset="1" stop-color="#0798DD"/>
</linearGradient>
<linearGradient id="paint4_linear_792_710" x1="29.9191" y1="-3.22774" x2="29.9191" y2="29.7455" gradientUnits="userSpaceOnUse">
<stop stop-color="#124379"/>
<stop offset="0.39" stop-color="#1487CB"/>
<stop offset="0.78" stop-color="#165197"/>
<stop offset="1" stop-color="#165197"/>
</linearGradient>
<linearGradient id="paint5_linear_792_710" x1="16.287" y1="6.48117" x2="20.9468" y2="6.48117" gradientUnits="userSpaceOnUse">
<stop stop-color="#33BDF2" stop-opacity="0.698"/>
<stop offset="1" stop-color="#1DACD8"/>
</linearGradient>
<linearGradient id="paint6_linear_792_710" x1="51.5553" y1="22.363" x2="51.5553" y2="-0.785964" gradientUnits="userSpaceOnUse">
<stop stop-color="#136AB4"/>
<stop offset="0.6" stop-color="#59CAF5" stop-opacity="0.549"/>
<stop offset="1" stop-color="#59CAF5" stop-opacity="0.235"/>
</linearGradient>
<linearGradient id="paint7_linear_792_710" x1="-0.246224" y1="12.011" x2="17.0344" y2="12.011" gradientUnits="userSpaceOnUse">
<stop stop-color="#05A1E6" stop-opacity="0.247"/>
<stop offset="1" stop-color="#05A1E6"/>
</linearGradient>
<linearGradient id="paint8_linear_792_710" x1="9.66707" y1="22.9837" x2="9.66707" y2="-0.658114" gradientUnits="userSpaceOnUse">
<stop stop-color="#318ED5"/>
<stop offset="1" stop-color="#38A7E4"/>
</linearGradient>
<linearGradient id="paint9_linear_792_710" x1="10.9904" y1="23.0583" x2="10.9904" y2="0.0178528" gradientUnits="userSpaceOnUse">
<stop stop-color="#05A1E6"/>
<stop offset="1" stop-color="#05A1E6" stop-opacity="0.549"/>
</linearGradient>
<linearGradient id="paint10_linear_792_710" x1="12.3778" y1="24.3059" x2="12.3778" y2="4.83642" gradientUnits="userSpaceOnUse">
<stop stop-color="#1959A6"/>
<stop offset="0.5" stop-color="#05A1E6"/>
<stop offset="0.918" stop-color="#7EC5EA"/>
<stop offset="1" stop-color="#7EC5EA"/>
</linearGradient>
<linearGradient id="paint11_linear_792_710" x1="13.0119" y1="22.9905" x2="9.29909" y2="1.93441" gradientUnits="userSpaceOnUse">
<stop stop-color="#165096"/>
<stop offset="1" stop-color="#0D82CA"/>
</linearGradient>
<linearGradient id="paint12_linear_792_710" x1="47.4729" y1="11.0524" x2="47.4729" y2="0.0201986" gradientUnits="userSpaceOnUse">
<stop stop-color="#05A1E6"/>
<stop offset="0.874" stop-color="#0495D6"/>
<stop offset="1" stop-color="#0495D6"/>
</linearGradient>
<linearGradient id="paint13_linear_792_710" x1="52.8172" y1="-0.932879" x2="48.343" y2="24.4414" gradientUnits="userSpaceOnUse">
<stop stop-color="#38A7E4" stop-opacity="0.329"/>
<stop offset="0.962" stop-color="#0E88D3"/>
<stop offset="1" stop-color="#0E88D3"/>
</linearGradient>
<linearGradient id="paint14_linear_792_710" x1="48.6124" y1="-0.0364852" x2="48.6124" y2="23.9695" gradientUnits="userSpaceOnUse">
<stop stop-color="#168CD4"/>
<stop offset="0.5" stop-color="#1C87CC"/>
<stop offset="1" stop-color="#154B8D"/>
</linearGradient>
<linearGradient id="paint15_linear_792_710" x1="16.0659" y1="-2.43198" x2="44.0516" y2="9.17511" gradientUnits="userSpaceOnUse">
<stop stop-color="#97D6EE"/>
<stop offset="0.703" stop-color="#55C1EA"/>
<stop offset="1" stop-color="#55C1EA"/>
</linearGradient>
<linearGradient id="paint16_linear_792_710" x1="23.717" y1="4.23501" x2="45.8204" y2="-5.78526" gradientUnits="userSpaceOnUse">
<stop stop-color="#7ACCEC"/>
<stop offset="1" stop-color="#3FB7ED"/>
</linearGradient>
<linearGradient id="paint17_linear_792_710" x1="45.3895" y1="1.23683" x2="45.3895" y2="24.7776" gradientUnits="userSpaceOnUse">
<stop stop-color="#1DA7E7"/>
<stop offset="1" stop-color="#37ABE7" stop-opacity="0"/>
</linearGradient>
</defs>
</svg>
