<svg width="64" height="64" viewBox="0 0 64 64" fill="none" xmlns="http://www.w3.org/2000/svg">
<g clip-path="url(#clip0_208_1297)">
<path d="M0 0H64V64H0V0Z" fill="#F7DF1E"/>
<path d="M16.8284 53.4831L21.7259 50.5191C22.6709 52.1943 23.5304 53.6118 25.5921 53.6118C27.5684 53.6118 28.8146 52.8388 28.8146 49.8318V29.3823H34.8289V49.9168C34.8289 56.1461 31.1774 58.9816 25.8499 58.9816C21.0386 58.9816 18.2459 56.4898 16.8281 53.4826M38.0956 52.8386L42.9926 50.0033C44.2819 52.1086 45.9574 53.6551 48.9214 53.6551C51.4136 53.6551 53.0026 52.4091 53.0026 50.6906C53.0026 48.6286 51.3701 47.8981 48.6206 46.6956L47.1174 46.0506C42.7781 44.2038 39.8999 41.8838 39.8999 36.9863C39.8999 32.4753 43.3366 29.0383 48.7069 29.0383C52.5304 29.0383 55.2799 30.3703 57.2559 33.8501L52.5729 36.8576C51.5416 35.0103 50.4251 34.2801 48.7066 34.2801C46.9451 34.2801 45.8281 35.3971 45.8281 36.8576C45.8281 38.6618 46.9451 39.3926 49.5226 40.5096L51.0261 41.1538C56.1386 43.3451 59.0169 45.5788 59.0169 50.6048C59.0169 56.0183 54.7639 58.9823 49.0501 58.9823C43.4654 58.9823 39.8566 56.3188 38.0954 52.8388" fill="black"/>
</g>
<defs>
<clipPath id="clip0_208_1297">
<rect width="64" height="64" fill="white"/>
</clipPath>
</defs>
</svg>
