<svg width="64" height="64" viewBox="0 0 64 64" fill="none" xmlns="http://www.w3.org/2000/svg">
<g clip-path="url(#clip0_637_805)">
<path d="M64 32C64 43.7734 57.6418 54.063 48.1698 59.6193C47.915 59.7695 47.6565 59.9157 47.3965 60.0581C42.829 62.5711 37.5824 64 32 64C27.682 64 23.565 63.1445 19.8074 61.5941C19.204 61.346 18.6096 61.0795 18.0259 60.7948C7.35475 55.6081 0 44.6629 0 32C0 14.3269 14.3269 0 32 0C49.6731 0 64 14.3269 64 32Z" fill="#F2F2F2"/>
<path d="M36.2027 0.575684C37.1511 4.19681 36.8925 6.00743 31.8919 10.1459C26.8912 14.2844 26.1152 14.3706 26.1152 16.9571C26.1152 19.5436 29.952 23.6389 31.8056 24.8029C31.8056 24.8029 31.5039 24.0701 30.8141 22.9493C30.1244 21.8286 28.0121 19.9317 28.4 17.0434C28.7879 14.1552 34.8879 10.4693 36.4614 7.68881C38.0347 4.90806 37.6685 2.55868 36.2027 0.575684Z" fill="#DE0A17"/>
<path d="M41.7208 9.7146C37.41 11.1372 32.0645 13.3788 32.0645 17.7329C32.0645 22.0869 34.8233 21.2677 34.8233 23.5956C34.8233 25.9235 33.3145 26.6132 33.3145 26.6132C33.3145 26.6132 37.2805 25.1043 37.1081 22.0867C36.9357 19.0691 34.5647 19.5002 34.5647 16.6981C34.5647 13.1514 41.7208 9.7146 41.7208 9.7146Z" fill="#DE0A17"/>
<path d="M26.4602 25.1478C22.1493 25.1478 19.1748 26.7428 19.1748 27.6481C19.1748 28.5533 24.4772 29.4156 30.2107 29.0276C35.9442 28.6396 38.9618 28.1655 41.2466 26.7858C41.2466 26.7858 37.1943 27.7342 34.0904 27.7342C30.9866 27.7342 22.1162 28.289 22.3218 26.9582C22.5274 25.6276 27.6674 25.1477 27.6674 25.1477L26.4602 25.1478Z" fill="#DE0A17"/>
<path d="M24.8657 30.1914C22.5809 31.0105 21.9773 31.8295 23.3138 32.6918C24.6502 33.5539 27.2798 33.8125 30.9009 33.8125C34.522 33.8125 39.5659 32.5623 39.5659 32.5623L37.9278 31.2689C37.9278 31.2689 35.686 32.088 31.4183 32.088C27.1505 32.088 22.8612 32.196 24.8657 30.1914Z" fill="#DE0A17"/>
<path d="M25.8998 35.0627C23.658 35.8387 23.1839 36.8732 25.1669 37.8216C27.1499 38.77 30.9435 38.9424 33.7455 38.5545C36.5475 38.1666 38.9185 37.3042 38.9185 37.3042C38.9185 37.3042 37.3882 36.7222 36.6768 36.0109C36.6768 36.0109 33.4005 36.7006 30.2967 36.7006C27.1928 36.7006 24.6928 36.2697 25.8998 35.0627Z" fill="#DE0A17"/>
<path d="M42.6269 25.4062C42.6269 25.4062 43.7045 23.9405 46.4205 25.0613C49.1364 26.1821 49.0501 29.1998 46.5929 31.0103C44.1356 32.8208 41.1611 33.4245 41.1611 33.4245C41.1611 33.4245 46.6791 31.0103 46.5498 28.0358C46.4205 25.0615 43.8769 25.1477 42.6269 25.4062Z" fill="#DE0A17"/>
<path d="M20.5547 41.0975C29.0476 42.6494 41.9802 41.0547 44.2642 40.4949C46.5495 39.9336 45.7127 38.7179 45.7127 38.7179C46.2713 39.1124 46.5197 39.5469 46.2908 40.0202C45.0402 42.6067 33.1422 43.0374 29.6503 43.0374C26.1585 43.0374 15.5537 42.8226 15.5537 40.9255C15.5537 39.0516 20.5573 37.8927 22.4248 38.3235C18.9122 39.3284 16.8275 40.416 20.5547 41.0975Z" fill="#DE0A17"/>
<path d="M21.5244 43.8676C21.5244 43.8676 24.5313 46.1631 39.5008 44.8374C45.4822 44.3524 47.9717 42.8652 48.295 41.2163C48.295 41.2163 45.5468 42.7682 42.1519 43.4149C38.7573 44.0617 33.1638 45.0639 21.5244 43.8676Z" fill="#DE0A17"/>
<path d="M21.2355 47.1863H18.75C18.8049 49.2722 18.8597 51.1047 18.8597 53.009C18.8597 54.4602 18.8049 56.1647 18.8049 57.8692C18.8049 58.995 18.5476 59.9445 18.0264 60.7949C18.6102 61.0797 19.2045 61.346 19.8079 61.5943C20.7012 60.5128 21.2094 59.1714 21.1806 57.4892C21.144 56.1099 21.144 54.3335 21.144 53.0092C21.144 51.0315 21.1806 49.1089 21.2355 47.1863Z" fill="#DE0A17"/>
<path d="M37.9707 50.7051L36.4647 55.1669C36.1931 55.9832 35.9932 56.763 35.8117 57.5427H35.6484C35.5217 56.7447 35.3402 56.0197 35.0319 55.1669L34.5422 53.734C34.1791 52.7191 33.8708 51.6481 33.5992 50.615L31.0967 50.9232L34.5788 59.9551L36.3747 59.7736L38.4958 54.2787C38.9138 53.209 39.4571 51.9381 39.9652 50.8136L37.9707 50.7051Z" fill="#DE0A17"/>
<path d="M44.9588 50.6135C43.9439 50.6135 42.7828 50.8317 41.2416 51.6845L41.6399 53.099L41.7849 53.1892C42.7828 52.4643 43.6723 52.1194 44.3606 52.1194C45.2853 52.1194 45.9749 52.7359 45.9749 53.7168V54.5135C42.0031 55.113 41.0234 56.346 41.0234 57.7788C41.0234 59.2848 42.0944 60.0998 43.2908 60.0998C44.2887 60.0998 45.1586 59.5015 45.9397 58.8485L46.1017 58.8852C46.2637 59.7002 46.8018 60.0084 47.3973 60.058C47.6572 59.9157 47.9158 59.7694 48.1706 59.6192V53.4438C48.1706 51.5397 47.0277 50.6135 44.9588 50.6135ZM45.9751 57.7424C45.3233 58.3054 44.7787 58.5953 44.2888 58.5953C43.6723 58.5953 43.1642 58.1969 43.1642 57.4159C43.1642 56.5813 43.7258 55.9648 45.9749 55.6383V57.7424H45.9751Z" fill="#DE0A17"/>
<path d="M26.8768 50.615C25.8619 50.615 24.7008 50.8319 23.1583 51.6847L23.5579 53.0992L23.7029 53.1906C24.7008 52.4644 25.5889 52.1196 26.2785 52.1196C27.2033 52.1196 27.8929 52.7361 27.8929 53.7157V54.5137C23.921 55.1132 22.9414 56.3462 22.9414 57.779C22.9414 59.285 24.0112 60.1 25.2088 60.1C26.2054 60.1 27.0765 59.5017 27.8563 58.8487L28.0195 58.8854C28.201 59.8101 28.8724 60.0831 29.5608 60.0647C29.7305 60.0647 29.9082 60.0439 30.0872 60.006V53.444C30.0872 51.5397 28.9443 50.615 26.8768 50.615ZM27.8929 57.7425C27.2399 58.3055 26.6952 58.5954 26.2054 58.5954C25.5889 58.5954 25.0808 58.1957 25.0808 57.416C25.0808 56.5814 25.6438 55.9649 27.8929 55.6384V57.7425Z" fill="#DE0A17"/>
</g>
<defs>
<clipPath id="clip0_637_805">
<rect width="64" height="64" fill="white"/>
</clipPath>
</defs>
</svg>
