<svg width="64" height="64" viewBox="0 0 64 64" fill="none" xmlns="http://www.w3.org/2000/svg">
<path fill-rule="evenodd" clip-rule="evenodd" d="M43.6299 50.0694C43.7144 49.9069 43.7954 49.7634 43.8644 49.6149C43.9079 49.5199 43.9749 49.5009 44.0694 49.5034C44.6359 49.5194 45.2024 49.5369 45.7694 49.5424C46.2509 49.5474 46.7334 49.5384 47.2154 49.5329C47.7584 49.5264 48.3014 49.4979 48.8439 49.5134C49.5664 49.5344 50.2704 49.6759 50.9239 49.9974C51.7044 50.3819 52.2949 50.9674 52.6974 51.7389C52.9505 52.228 53.1085 52.7608 53.1629 53.3089C53.2489 54.1129 53.1924 54.8984 52.9374 55.6674C52.6214 56.6204 52.0214 57.3499 51.1879 57.8964C50.5464 58.3169 49.8429 58.5654 49.0889 58.7074C48.2909 58.8579 47.4904 58.8094 46.6899 58.8119C45.8119 58.8154 44.9344 58.7964 44.0564 58.7864C43.9029 58.7849 43.8809 58.7559 43.9214 58.6094L43.9589 58.4744C44.0444 58.2054 44.0904 58.1934 44.3634 58.1484C44.557 58.1183 44.7422 58.048 44.9069 57.9419C44.9989 57.8809 45.0369 57.7219 45.0729 57.5994C45.1039 57.4924 45.1054 57.3749 45.1064 57.2619C45.1189 55.5494 45.1319 53.8374 45.1389 52.1259C45.1408 51.693 45.13 51.2601 45.1064 50.8279C45.0894 50.5254 44.9279 50.3184 44.5679 50.2469C44.2879 50.1914 44.0059 50.1484 43.7244 50.0989L43.6299 50.0694ZM51.6679 54.2159C51.6299 53.8749 51.6114 53.5309 51.5504 53.1949C51.4044 52.3884 51.0514 51.6859 50.4314 51.1354C49.4289 50.2459 48.2219 50.1089 46.9569 50.2149C46.6689 50.2389 46.6069 50.3374 46.6024 50.6334C46.5954 51.0534 46.5884 51.4734 46.5879 51.8934C46.5859 53.2254 46.5859 54.5574 46.5879 55.8894C46.5879 56.2687 46.593 56.6474 46.6034 57.0254C46.6154 57.4124 46.7559 57.7399 47.1349 57.8899C47.7324 58.1264 48.3609 58.1544 48.9879 58.0579C49.9894 57.9044 50.6899 57.3209 51.1599 56.4464C51.5319 55.7524 51.6369 54.9949 51.6679 54.2159ZM54.1024 58.7514C54.0904 58.5439 54.1754 58.3724 54.2804 58.2149C54.3089 58.1724 54.4069 58.1744 54.4744 58.1609L55.0474 58.0474C55.2499 58.0044 55.3564 57.8684 55.3849 57.6699C55.4039 57.5389 55.4219 57.4064 55.4234 57.2739C55.437 56.2254 55.4468 55.1769 55.4529 54.1284C55.4579 53.0784 55.4539 52.0284 55.4539 50.9784L55.4494 50.7779C55.4289 50.4404 55.2659 50.2654 54.9309 50.2159L54.2044 50.1054C54.1149 50.0934 54.0824 50.0504 54.1149 49.9709C54.1709 49.8354 54.2244 49.6949 54.3034 49.5729C54.3329 49.5279 54.4324 49.5104 54.4994 49.5119C54.8464 49.5169 55.1934 49.5429 55.5404 49.5424L58.5609 49.5244C59.1429 49.5239 59.7049 49.6254 60.2269 49.9039C60.8014 50.2099 61.1229 50.6834 61.2149 51.3284C61.3109 52.0059 61.1054 52.5769 60.6104 53.0304C60.4069 53.2174 60.1434 53.3394 59.9074 53.4914L59.8304 53.5394C60.0494 53.6199 60.2579 53.6894 60.4609 53.7724C61.0549 54.0159 61.5274 54.3964 61.7774 55.0039C61.9749 55.4834 61.9749 55.9834 61.8579 56.4804C61.6759 57.2584 61.1634 57.7759 60.4969 58.1674C59.8714 58.5349 59.1944 58.7489 58.4734 58.7849C57.8084 58.8184 57.1404 58.8059 56.4739 58.8134L56.0879 58.8154C55.4455 58.8006 54.8032 58.7846 54.1609 58.7674L54.1024 58.7514ZM56.8709 55.7069H56.8774C56.8774 56.0359 56.8729 56.3649 56.8789 56.6939C56.8829 56.9069 56.8754 57.1259 56.9214 57.3309C56.9904 57.6374 57.1304 57.9139 57.4744 58.0019C57.9343 58.1223 58.4146 58.1434 58.8834 58.0639C59.4719 57.9614 59.9414 57.6664 60.1989 57.1059C60.3899 56.6894 60.4184 56.2479 60.3529 55.7969C60.2659 55.2029 59.9504 54.7719 59.4259 54.4894C59.0819 54.3039 58.7149 54.1904 58.3239 54.1754C57.8859 54.1589 57.4474 54.1579 57.0094 54.1444C56.8864 54.1409 56.8694 54.2034 56.8699 54.3044C56.8724 54.7714 56.8709 55.2389 56.8709 55.7069ZM57.8034 53.4694C58.0429 53.4574 58.3139 53.4539 58.5834 53.4269C59.0994 53.3754 59.4629 53.1159 59.6524 52.6224C59.7489 52.3719 59.7449 52.1139 59.7474 51.8534C59.7549 51.1749 59.3589 50.6189 58.7144 50.3889C58.2169 50.2114 57.7039 50.2084 57.1879 50.2224C56.9789 50.2279 56.8854 50.3194 56.8824 50.5299L56.8514 53.2744C56.8499 53.3834 56.8969 53.4304 57.0029 53.4339L57.8034 53.4694Z" fill="#94795D"/>
<path fill-rule="evenodd" clip-rule="evenodd" d="M5.27174 58.224L5.23524 58.696C4.89524 58.696 4.58174 58.6935 4.26824 58.697C3.67774 58.703 3.08724 58.7125 2.49624 58.721L2.43924 58.7245C2.35474 58.7145 2.20124 58.7145 2.19724 58.6895C2.17224 58.549 2.18024 58.4015 2.18674 58.256C2.18724 58.2395 2.24474 58.2185 2.27824 58.2105L2.73774 58.108C3.02424 58.0335 3.12524 57.91 3.13874 57.614C3.15424 57.2805 3.16974 56.9465 3.17124 56.613C3.17574 55.792 3.17074 54.972 3.17424 54.151C3.17474 53.959 3.10824 53.816 2.92924 53.738C2.71653 53.6436 2.50233 53.5526 2.28674 53.465C2.18474 53.424 2.05224 53.4015 2.06424 53.2645C2.07624 53.125 2.20474 53.0885 2.32574 53.061C2.82674 52.9465 3.32824 52.835 3.82774 52.713C3.98874 52.6735 4.14274 52.607 4.33524 52.54C4.34524 52.644 4.36374 52.743 4.36174 52.842L4.33224 53.3125C4.33174 53.3655 4.35924 53.4365 4.39874 53.466C4.42274 53.4845 4.50324 53.451 4.54324 53.42C4.97024 53.095 5.42224 52.8145 5.93774 52.651C6.73624 52.3975 7.42174 52.6325 7.90174 53.321C8.07074 53.5635 8.07124 53.5635 8.30574 53.394C8.70824 53.1015 9.12924 52.8435 9.60024 52.6735C10.6342 52.3 11.6277 52.774 11.9872 53.8155C12.1182 54.1935 12.1682 54.584 12.1672 54.983L12.1577 57.632C12.1572 57.8505 12.2297 57.975 12.4377 58.043C12.6712 58.1195 12.9132 58.172 13.1762 58.241L13.1152 58.6965C12.8162 58.6965 12.5412 58.6945 12.2662 58.697C11.5942 58.703 10.9222 58.7065 10.2507 58.722C10.1337 58.725 10.1032 58.696 10.0972 58.5865C10.0777 58.236 10.0747 58.2365 10.4047 58.1575L10.5157 58.129C10.8382 58.041 10.9457 57.942 10.9482 57.615C10.9557 56.676 10.9752 55.7345 10.9277 54.7975C10.8782 53.8255 10.1067 53.308 9.16474 53.557C8.86073 53.6404 8.5744 53.7783 8.31974 53.964C8.23224 54.0265 8.21574 54.0985 8.22274 54.208C8.24974 54.622 8.26524 55.0364 8.26924 55.451C8.27524 56.1765 8.26624 56.902 8.26924 57.628C8.27024 57.922 8.37074 58.0345 8.66124 58.1025L9.09274 58.202L9.17274 58.22C9.17874 58.358 9.18424 58.496 9.17774 58.634C9.17374 58.7205 9.10674 58.728 9.03174 58.7265C8.61224 58.716 8.19224 58.702 7.77274 58.703C7.26224 58.704 6.75224 58.7185 6.24224 58.7275H6.12224C6.12224 58.581 6.11524 58.441 6.12724 58.3015C6.12974 58.268 6.18874 58.221 6.22924 58.2105L6.73224 58.104C6.94574 58.0515 7.04774 57.942 7.05974 57.725C7.11674 56.72 7.15774 55.7145 7.06324 54.71C7.04016 54.5117 6.98512 54.3183 6.90024 54.1375C6.64274 53.5685 6.06324 53.331 5.39474 53.502C5.07724 53.583 4.79074 53.7285 4.51974 53.912C4.46081 53.9486 4.41241 53.9999 4.37927 54.0608C4.34614 54.1217 4.32941 54.1902 4.33074 54.2595C4.3314 55.2622 4.33357 56.2645 4.33724 57.2665L4.34274 57.653C4.34874 57.9225 4.46324 58.0645 4.73074 58.1225C4.90274 58.1615 5.07674 58.188 5.27174 58.224Z" fill="#50382B"/>
<path fill-rule="evenodd" clip-rule="evenodd" d="M35.5006 52.6425C35.5781 53.0195 35.5766 53.3585 35.2996 53.6155C35.0246 53.871 34.6766 53.785 34.3371 53.728C34.3686 53.907 34.4036 54.059 34.4206 54.213C34.5441 55.3575 34.0516 56.207 32.9901 56.6925C32.5891 56.8755 32.1636 56.9435 31.7291 56.9785C31.5131 56.9955 31.3241 57.1605 31.3036 57.338C31.2826 57.518 31.3956 57.703 31.6216 57.757C31.8881 57.8205 32.1661 57.8385 32.4396 57.87C33.0266 57.937 33.6201 57.9675 34.2001 58.0725C35.0771 58.2305 35.5666 58.996 35.4121 59.877C35.2746 60.661 34.8206 61.2315 34.1876 61.669C33.1211 62.408 31.9511 62.624 30.7051 62.247C29.9926 62.031 29.4901 61.5625 29.3166 60.8045C29.2296 60.425 29.3221 60.0815 29.6076 59.824C29.9471 59.519 30.3166 59.247 30.6721 58.959L30.7871 58.8435L30.6551 58.751C30.2926 58.579 30.0026 58.3435 29.8901 57.9345C29.8516 57.796 29.8916 57.705 30.0091 57.634C30.2091 57.5137 30.4079 57.3912 30.6056 57.2665C30.6986 57.2085 30.7906 57.1485 30.8771 57.0815C30.9951 56.9915 30.9846 56.9245 30.8436 56.8725C30.5156 56.7515 30.2241 56.576 29.9981 56.306C29.6206 55.8555 29.5136 55.319 29.5446 54.7525C29.5931 53.8675 30.0736 53.2845 30.8546 52.9095C31.7831 52.464 32.7146 52.436 33.6611 52.842C34.0111 52.992 34.3801 53.024 34.7556 52.998C35.0361 52.978 35.2811 52.872 35.5006 52.6425ZM32.0791 58.983C31.3821 58.977 31.1636 59.063 30.7546 59.4795C30.2966 59.9465 30.2991 60.594 30.7561 61.063C31.1031 61.4185 31.5361 61.585 32.0176 61.635C32.5801 61.693 33.1341 61.6695 33.6451 61.388C34.1901 61.0865 34.4611 60.5265 34.3386 59.9625C34.2371 59.497 33.8941 59.284 33.4766 59.1615C33.0016 59.0225 32.5106 58.996 32.0791 58.983ZM30.7101 54.529C30.7356 54.7225 30.7461 54.9185 30.7891 55.108C30.9006 55.599 31.1141 56.0305 31.6026 56.249C32.1761 56.5065 32.9086 56.396 33.1596 55.591C33.3312 55.0553 33.3112 54.4766 33.1031 53.954C33.0153 53.7149 32.8565 53.5084 32.6481 53.362C32.1501 53.0145 31.2516 52.9685 30.8856 53.7365C30.7666 53.986 30.7201 54.2515 30.7101 54.529Z" fill="#4F382B"/>
<path fill-rule="evenodd" clip-rule="evenodd" d="M23.6751 52.5191C23.6936 52.6046 23.7306 52.7016 23.7316 52.7991C23.7331 52.9846 23.7131 53.1701 23.7026 53.3556V53.5166L23.8596 53.3966C24.2896 53.0426 24.7516 52.7411 25.2896 52.5786C26.2606 52.2861 27.2306 52.8176 27.5471 53.8066C27.6671 54.1826 27.7146 54.5691 27.7191 54.9621C27.7291 55.8351 27.7351 56.7081 27.7441 57.5811C27.7471 57.8946 27.7831 57.9506 28.0796 58.0411C28.2483 58.0915 28.4204 58.1297 28.5946 58.1556C28.6901 58.1706 28.7311 58.2081 28.7261 58.3016L28.7271 58.3876C28.7236 58.7491 28.6986 58.7656 28.3481 58.7646C27.5091 58.7631 26.6706 58.7681 25.8316 58.7751C25.5816 58.7771 25.5811 58.7846 25.5561 58.5376L25.5511 58.3956C25.5666 58.1826 25.5716 58.1846 25.7811 58.1536C25.9221 58.1326 26.0621 58.1001 26.1996 58.0641C26.3411 58.0276 26.4091 57.9231 26.4281 57.7831C26.4376 57.7121 26.4501 57.6411 26.4496 57.5701C26.4376 56.6161 26.4531 55.6611 26.4011 54.7086C26.3591 53.9381 25.7711 53.4791 24.9976 53.5316C24.6247 53.5575 24.2663 53.6861 23.9621 53.9031C23.7556 54.0476 23.7141 54.2561 23.7151 54.4806C23.7197 55.3726 23.7271 56.2648 23.7371 57.1571C23.7391 57.3526 23.7446 57.5481 23.7631 57.7421C23.7826 57.9541 23.8571 58.0396 24.0651 58.0856C24.2641 58.1296 24.4671 58.1551 24.6796 58.1906L24.6976 58.3546C24.7046 58.7371 24.6646 58.7656 24.2931 58.7641C23.4256 58.7606 22.5581 58.7661 21.6911 58.7756C21.5546 58.7776 21.4966 58.7346 21.5001 58.6016L21.4981 58.5446C21.4756 58.2001 21.4856 58.1871 21.8116 58.1311L21.9656 58.1001C22.3186 58.0206 22.4091 57.9266 22.4141 57.5681C22.4306 56.4326 22.4366 55.2976 22.4481 54.1621C22.4496 53.9991 22.3881 53.8726 22.2361 53.8051C22.0227 53.7117 21.8082 53.621 21.5926 53.5331C21.4736 53.4841 21.3376 53.4531 21.3331 53.2886C21.3301 53.1726 21.4541 53.0701 21.6236 53.0356C21.9641 52.9666 22.3076 52.9091 22.6441 52.8246C22.9791 52.7411 23.3081 52.6291 23.6751 52.5191Z" fill="#4F372B"/>
<path fill-rule="evenodd" clip-rule="evenodd" d="M42.4323 55.4851C42.4163 56.5456 42.1408 57.4031 41.3908 58.0466C40.4408 58.8631 38.9588 59.1406 37.7473 58.5301C37.2303 58.2696 36.8503 57.8701 36.6028 57.3516C36.2233 56.5541 36.1283 55.7156 36.3263 54.8566C36.5223 54.0071 37.0368 53.3916 37.8068 52.9931C38.5988 52.5836 39.4328 52.4236 40.3123 52.6386C41.4248 52.9101 42.2243 53.8171 42.3833 54.9721C42.4118 55.1746 42.4228 55.3796 42.4323 55.4851ZM41.1438 56.0596L41.1008 56.0546C41.1008 55.9546 41.1063 55.8546 41.0998 55.7546C41.0633 55.1316 40.9233 54.5381 40.5623 54.0166C40.2198 53.5226 39.7533 53.2311 39.1463 53.1886C38.4668 53.1406 37.8958 53.5206 37.6953 54.2146C37.3943 55.2566 37.4963 56.2721 38.0253 57.2266C38.2558 57.6426 38.5973 57.9496 39.0548 58.1111C39.9513 58.4266 40.7463 58.0181 40.9798 57.1001C41.0658 56.7611 41.0908 56.4066 41.1438 56.0596Z" fill="#4F382B"/>
<path fill-rule="evenodd" clip-rule="evenodd" d="M20.4094 55.5669C20.3909 56.3279 20.2114 57.0314 19.7414 57.6429C19.2379 58.2979 18.5459 58.6479 17.7589 58.7954C16.8284 58.9694 15.9544 58.8114 15.2069 58.1869C14.8519 57.8899 14.6094 57.5094 14.4494 57.0764C14.1869 56.3664 14.1214 55.6389 14.2829 54.8974C14.4554 54.1039 14.9034 53.4974 15.5979 53.0904C16.4009 52.6209 17.2674 52.4114 18.1929 52.6224C19.3829 52.8944 20.0699 53.6699 20.3239 54.8439C20.3749 55.0809 20.3819 55.3259 20.4094 55.5669ZM19.1064 56.0689L19.0719 56.0639V55.9209C19.0524 55.2229 18.9159 54.5579 18.4994 53.9779C18.1909 53.5474 17.7779 53.2774 17.2484 53.2019C16.3854 53.0789 15.8214 53.5909 15.6344 54.2864C15.3904 55.1949 15.4669 56.0924 15.8444 56.9539C16.0799 57.4909 16.4519 57.9094 17.0234 58.1124C17.9144 58.4289 18.7214 58.0099 18.9469 57.0954C19.0299 56.7609 19.0549 56.4119 19.1064 56.0689Z" fill="#4F372B"/>
<path fill-rule="evenodd" clip-rule="evenodd" d="M41.181 16.772C41.7945 18.5455 42.2355 20.356 42.381 22.232C42.561 24.56 42.479 26.872 41.988 29.1615L41.925 29.3445C41.771 29.345 41.614 29.3255 41.4635 29.349C40.192 29.549 38.922 29.756 37.6515 29.962C36.338 30.175 35.0235 30.3795 33.7125 30.6065C33.248 30.6865 32.673 30.591 32.4855 31.233L32.3955 31.2635L32.459 27.4245L32.3945 18.1615L33.0065 18.0565C34.007 17.893 35.0075 17.7265 36.0095 17.567C37.2045 17.3775 38.4005 17.1925 39.5965 17.0075C40.1245 16.9265 40.653 16.851 41.181 16.772Z" fill="#439934"/>
<path fill-rule="evenodd" clip-rule="evenodd" d="M31.1329 42.4555C30.4874 41.9005 29.8194 41.37 29.2009 40.786C25.8719 37.646 23.4364 33.9495 22.2369 29.493C21.9064 28.267 21.6864 27.0205 21.6154 25.7535C21.5654 24.8665 21.4939 23.972 21.5569 23.0895C21.7234 20.743 22.0629 18.419 22.7509 16.1585L22.7889 16.106C22.8559 16.195 22.9519 16.274 22.9859 16.3745C23.6576 18.3525 24.3249 20.3323 24.9879 22.314C27.0724 28.5395 29.1544 34.7665 31.2424 40.991C31.2834 41.1125 31.3889 41.212 31.4649 41.3215L31.1329 42.4555Z" fill="#45A538"/>
<path fill-rule="evenodd" clip-rule="evenodd" d="M41.1805 16.7721C40.652 16.8506 40.1235 16.9266 39.596 17.0076C38.4 17.1926 37.204 17.3776 36.009 17.5671C35.0075 17.7261 34.007 17.8926 33.006 18.0566L32.394 18.1616L32.389 17.7626C32.3685 17.4346 32.3345 17.1066 32.33 16.7786L32.2615 10.5016C32.2455 9.19207 32.2215 7.88257 32.195 6.57357C32.1816 5.75998 32.1581 4.94658 32.1245 4.13357C32.1045 3.69707 32.034 3.26257 32.006 2.82607C31.9895 2.57507 32.0115 2.32207 32.017 2.07007C32.329 2.67457 32.6345 3.28357 32.955 3.88357C33.4615 4.83207 34.269 5.53107 34.9965 6.29357C37.8695 9.30907 39.909 12.8131 41.1805 16.7721Z" fill="#46A037"/>
<path fill-rule="evenodd" clip-rule="evenodd" d="M32.3961 31.2635L32.4861 31.233C32.6736 30.591 33.2486 30.6865 33.7131 30.6065C35.0241 30.3795 36.3386 30.175 37.6521 29.962C38.9226 29.7565 40.1926 29.5495 41.4641 29.349C41.6146 29.3255 41.7716 29.345 41.9256 29.3445C41.6881 30.1925 41.5011 31.059 41.1996 31.8835C40.8571 32.8185 40.4431 33.7315 40.0036 34.6265C39.3452 35.9612 38.5307 37.2129 37.5771 38.3555C36.8441 39.2365 36.0271 40.052 35.2086 40.8565C34.7556 41.301 34.2226 41.6635 33.7256 42.0635L33.5966 41.9755L33.1331 41.5795L32.6536 40.5275C32.3262 39.3007 32.1474 38.039 32.1211 36.7695L32.1301 36.5555L32.1956 35.6285C32.2171 35.312 32.2461 34.996 32.2596 34.6795C32.3076 33.5415 32.3506 32.4025 32.3961 31.2635Z" fill="#409433"/>
<path fill-rule="evenodd" clip-rule="evenodd" d="M32.3956 31.2635C32.3506 32.4025 32.3076 33.542 32.2591 34.681C32.2456 34.998 32.2171 35.314 32.1951 35.63L31.9031 35.7405C31.2541 33.83 30.6046 31.9395 29.9696 30.0445C28.9191 26.909 27.8816 23.769 26.8326 20.6325C25.9855 18.1012 25.1325 15.5719 24.2736 13.0445C24.2331 12.9265 24.1181 12.8335 24.0381 12.729L25.9081 9.29053C25.9726 9.40203 26.0571 9.50653 26.0976 9.62653C26.9626 12.1865 27.8261 14.747 28.6821 17.31C29.7961 20.645 30.9026 23.9815 32.0156 27.317C32.0601 27.45 32.1331 27.573 32.2031 27.7225L32.4591 27.4245L32.3956 31.2635Z" fill="#4FAA41"/>
<path fill-rule="evenodd" clip-rule="evenodd" d="M24.0381 12.729C24.1186 12.8335 24.2336 12.9265 24.2736 13.0445C25.1326 15.5718 25.9856 18.1012 26.8326 20.6325C27.8816 23.769 28.9191 26.909 29.9696 30.0445C30.6046 31.9395 31.2541 33.8295 31.9031 35.7405L32.1951 35.63L32.1296 36.557L32.0701 36.7705C31.9686 37.785 31.8831 38.8015 31.7591 39.814C31.6971 40.3215 31.5646 40.8195 31.4641 41.3215C31.3886 41.212 31.2826 41.1125 31.2416 40.991C29.1531 34.7665 27.0716 28.5395 24.9871 22.314C24.3239 20.3328 23.6565 18.3529 22.9851 16.3745C22.9511 16.274 22.8551 16.195 22.7881 16.106L24.0381 12.729Z" fill="#4AA73C"/>
<path fill-rule="evenodd" clip-rule="evenodd" d="M32.4592 27.4245L32.2032 27.7225C32.1332 27.573 32.0602 27.45 32.0157 27.317C30.9027 23.9815 29.7962 20.645 28.6822 17.31C27.8252 14.7474 26.9637 12.1862 26.0977 9.62654C26.0572 9.50654 25.9727 9.40203 25.9082 9.29053L28.2207 6.24854C28.2937 6.34554 28.3977 6.43204 28.4352 6.54154C29.0769 8.42154 29.7139 10.303 30.3462 12.186C30.9372 13.945 31.5192 15.706 32.1172 17.462C32.1572 17.5795 32.2967 17.6625 32.3897 17.7625L32.3947 18.1615L32.4592 27.4245Z" fill="#57AE47"/>
<path fill-rule="evenodd" clip-rule="evenodd" d="M32.3897 17.7626C32.2962 17.6631 32.1572 17.5801 32.1172 17.4621C31.5197 15.7061 30.9372 13.9451 30.3462 12.1861C29.7137 10.303 29.0767 8.42153 28.4352 6.54156C28.3977 6.43206 28.2937 6.34556 28.2207 6.24856C28.9727 5.51206 29.7012 4.74906 30.4837 4.04656C31.1792 3.42256 31.7382 2.75356 31.7642 1.76706L31.8192 1.57056L32.0172 2.06956C32.0122 2.32156 31.9897 2.57456 32.0062 2.82556C32.0347 3.26206 32.1052 3.69656 32.1247 4.13306C32.1612 4.94556 32.1787 5.75956 32.1952 6.57306C32.2217 7.88206 32.2457 9.19156 32.2617 10.5011L32.3302 16.7781C32.3352 17.1066 32.3697 17.4346 32.3897 17.7626Z" fill="#60B24F"/>
<path fill-rule="evenodd" clip-rule="evenodd" d="M31.4643 41.3211C31.5648 40.8191 31.6973 40.3211 31.7593 39.8136C31.8833 38.8016 31.9688 37.7846 32.0703 36.7701L32.0958 36.7661L32.1208 36.7706C32.1472 38.0401 32.3259 39.3018 32.6533 40.5286C32.5858 40.6176 32.4913 40.6961 32.4553 40.7961C32.1778 41.5791 31.9158 42.3686 31.6368 43.1511C31.5988 43.2581 31.4918 43.3416 31.4173 43.4351L31.1318 42.4551L31.4643 41.3211Z" fill="#A9AA88"/>
<path fill-rule="evenodd" clip-rule="evenodd" d="M31.418 43.4356C31.4925 43.3416 31.5995 43.2586 31.6375 43.1516C31.9165 42.3691 32.1785 41.5796 32.456 40.7966C32.4915 40.6966 32.5865 40.6181 32.654 40.5291L33.1335 41.5811C33.039 41.7151 32.908 41.8366 32.8555 41.9861L31.9375 44.6821C31.8995 44.7906 31.771 44.8666 31.684 44.9581L31.418 43.4356Z" fill="#B6B598"/>
<path fill-rule="evenodd" clip-rule="evenodd" d="M31.6836 44.9576C31.7701 44.8661 31.8991 44.7901 31.9371 44.6816L32.8551 41.9856C32.9071 41.8361 33.0386 41.7146 33.1331 41.5806L33.5971 41.9761C33.3731 42.1976 33.2486 42.4536 33.3236 42.7771L33.1826 43.2386C33.1186 43.3176 33.0256 43.3866 32.9941 43.4771C32.6736 44.3951 32.3681 45.3181 32.0451 46.2356C32.0041 46.3516 31.8906 46.4431 31.8111 46.5461L31.6836 44.9576Z" fill="#C2C1A7"/>
<path fill-rule="evenodd" clip-rule="evenodd" d="M31.8107 46.5455C31.8907 46.4425 32.0042 46.351 32.0447 46.235C32.3677 45.3175 32.6737 44.3945 32.9937 43.4765C33.0252 43.386 33.1182 43.3175 33.1822 43.238L32.9877 45.356C32.9357 45.416 32.8607 45.4685 32.8357 45.538L32.1887 47.392C32.1432 47.5185 32.0562 47.6315 31.9882 47.75C31.9277 47.671 31.8197 47.5945 31.8147 47.5125C31.7957 47.1915 31.8092 46.868 31.8107 46.5455Z" fill="#CECDB7"/>
<path fill-rule="evenodd" clip-rule="evenodd" d="M31.9883 47.7504C32.0563 47.6319 32.1433 47.5189 32.1888 47.3924L32.8358 45.5384C32.8608 45.4684 32.9363 45.4164 32.9878 45.3564L32.9928 46.7464L32.5273 47.9399L31.9883 47.7504Z" fill="#DBDAC7"/>
<path fill-rule="evenodd" clip-rule="evenodd" d="M32.5273 47.9401L32.9928 46.7466L33.0888 48.1586L32.5273 47.9401Z" fill="#EBE9DC"/>
<path fill-rule="evenodd" clip-rule="evenodd" d="M33.3234 42.7771C33.2489 42.4541 33.3729 42.1981 33.5969 41.9761L33.7259 42.0641L33.3234 42.7771Z" fill="#CECDB7"/>
<path fill-rule="evenodd" clip-rule="evenodd" d="M32.1208 36.7709L32.0958 36.7664L32.0703 36.7704L32.1298 36.5569L32.1208 36.7709Z" fill="#4FAA41"/>
</svg>
