<svg width="16" height="16" viewBox="0 0 16 16" fill="none" xmlns="http://www.w3.org/2000/svg">
<path fill-rule="evenodd" clip-rule="evenodd" d="M11.0044 5.3515C11.205 5.93188 11.3495 6.52438 11.397 7.1385C11.456 7.90038 11.429 8.65688 11.2684 9.40625C11.264 9.42688 11.2548 9.44625 11.2479 9.46625C11.1975 9.46638 11.1462 9.46013 11.0969 9.46775C10.6808 9.53313 10.265 9.60088 9.84928 9.66825C9.41953 9.73788 8.98916 9.80475 8.56016 9.87913C8.40816 9.90538 8.22003 9.874 8.15866 10.0843C8.15691 10.09 8.13941 10.091 8.12928 10.0943L8.15003 8.83788L8.12891 5.80638L8.32916 5.772C8.65666 5.71838 8.98416 5.664 9.31191 5.61188C9.70303 5.54975 10.0945 5.48938 10.4859 5.42875C10.6585 5.40188 10.8314 5.37725 11.0044 5.3515Z" fill="#439934"/>
<path fill-rule="evenodd" clip-rule="evenodd" d="M7.71634 13.7567C7.50509 13.5751 7.28647 13.4015 7.08397 13.2105C5.99434 12.1827 5.19734 10.9731 4.80484 9.51474C4.69672 9.11336 4.62459 8.70549 4.60147 8.29074C4.58522 8.00049 4.56172 7.70761 4.58222 7.41886C4.63684 6.65086 4.74784 5.89024 4.97309 5.15049L4.98547 5.13324C5.00734 5.16236 5.03884 5.18811 5.04997 5.22099C5.2698 5.86849 5.48822 6.51645 5.70522 7.16486C6.38747 9.20236 7.06884 11.2404 7.75222 13.2774C7.76559 13.3171 7.80022 13.3497 7.82509 13.3856L7.71634 13.7567Z" fill="#45A538"/>
<path fill-rule="evenodd" clip-rule="evenodd" d="M11.0046 5.35148C10.8316 5.37723 10.6586 5.40186 10.486 5.42848C10.0946 5.48911 9.70313 5.54948 9.312 5.61161C8.98425 5.66373 8.65675 5.71811 8.32925 5.77173L8.129 5.80611L8.1275 5.67548C8.12088 5.56811 8.1095 5.46086 8.10825 5.35348C8.09963 4.66873 8.09425 3.98398 8.08575 3.29923C8.0805 2.87061 8.07263 2.44211 8.06388 2.01361C8.0585 1.74736 8.05275 1.48098 8.04075 1.21511C8.03425 1.07223 8.01125 0.930106 8.00188 0.787231C7.99663 0.705106 8.00388 0.622356 8.0055 0.539856C8.10763 0.737731 8.2075 0.937106 8.3125 1.13348C8.47838 1.44398 8.74263 1.67273 8.9805 1.92236C9.92088 2.90886 10.5885 4.05586 11.0046 5.35148Z" fill="#46A037"/>
<path fill-rule="evenodd" clip-rule="evenodd" d="M8.12919 10.0942C8.13931 10.0909 8.15694 10.0899 8.15856 10.0842C8.21994 9.8739 8.40806 9.90528 8.56006 9.87903C8.98906 9.80478 9.41944 9.73778 9.84919 9.66815C10.2649 9.60078 10.6807 9.53303 11.0968 9.46765C11.1461 9.4599 11.1974 9.46628 11.2478 9.46615C11.1701 9.74365 11.1088 10.0272 11.0102 10.297C10.8982 10.6032 10.7627 10.9019 10.6188 11.1948C10.4036 11.6317 10.137 12.0414 9.82469 12.4152C9.58481 12.7037 9.31744 12.9703 9.04944 13.2337C8.90131 13.3793 8.72669 13.4979 8.56419 13.6288L8.52206 13.6L8.37031 13.4703L8.21331 13.1262C8.10607 12.7247 8.04757 12.3118 8.03906 11.8964L8.04194 11.8263L8.06331 11.523C8.07044 11.4195 8.07994 11.3162 8.08431 11.2124C8.10044 10.8397 8.11444 10.4669 8.12919 10.0942Z" fill="#409433"/>
<path fill-rule="evenodd" clip-rule="evenodd" d="M8.12978 10.0941C8.11503 10.4669 8.10103 10.8396 8.08516 11.2125C8.08078 11.3163 8.07128 11.4196 8.06416 11.5231L7.96853 11.5593C7.75616 10.934 7.54366 10.3154 7.33578 9.69514C6.99203 8.66901 6.65241 7.64126 6.30916 6.61489C6.03192 5.78645 5.75275 4.95865 5.47166 4.13151C5.45853 4.09276 5.42078 4.06252 5.39453 4.02827L6.00653 2.90302C6.02753 2.93952 6.05528 2.97364 6.06853 3.01289C6.35197 3.85065 6.63397 4.68891 6.91453 5.52764C7.27903 6.61889 7.64128 7.71102 8.00553 8.80239C8.02003 8.84602 8.04403 8.88627 8.06691 8.93514L8.15066 8.83764L8.12978 10.0941Z" fill="#4FAA41"/>
<path fill-rule="evenodd" clip-rule="evenodd" d="M5.39435 4.02838C5.4206 4.06263 5.45823 4.09288 5.47148 4.13163C5.75257 4.95877 6.03174 5.78656 6.30898 6.61501C6.65223 7.64138 6.99185 8.66913 7.3356 9.69526C7.54335 10.3154 7.75585 10.9341 7.96835 11.5594L8.06398 11.5233L8.0426 11.8265L8.02323 11.8964C7.98998 12.2284 7.96198 12.5611 7.92148 12.8924C7.9011 13.0584 7.85785 13.2214 7.82498 13.3858C7.80023 13.3499 7.76548 13.3173 7.7521 13.2775C7.06873 11.2404 6.38735 9.20251 5.7051 7.16501C5.48805 6.51659 5.26963 5.86863 5.04985 5.22113C5.03873 5.18826 5.00735 5.16251 4.98535 5.13338L5.39435 4.02838Z" fill="#4AA73C"/>
<path fill-rule="evenodd" clip-rule="evenodd" d="M8.14998 8.83772L8.06623 8.93522C8.04336 8.88635 8.01936 8.84597 8.00486 8.80247C7.64073 7.7111 7.27836 6.61897 6.91386 5.52772C6.6333 4.68899 6.3513 3.85073 6.06786 3.01297C6.05473 2.97372 6.02698 2.93947 6.00586 2.9031L6.76273 1.90747C6.78661 1.93935 6.82061 1.96772 6.83298 2.0036C7.04298 2.61876 7.25144 3.23451 7.45836 3.85085C7.65173 4.42635 7.84223 5.00272 8.03786 5.57747C8.05098 5.61597 8.09661 5.64322 8.12711 5.67572L8.12861 5.80635C8.13586 6.81668 8.14298 7.82714 8.14998 8.83772Z" fill="#57AE47"/>
<path fill-rule="evenodd" clip-rule="evenodd" d="M8.12805 5.67553C8.09755 5.64303 8.05192 5.61578 8.0388 5.57728C7.84317 5.00253 7.65267 4.42615 7.4593 3.85065C7.25238 3.2344 7.04392 2.61865 6.83392 2.0034C6.82155 1.96753 6.78755 1.93915 6.76367 1.90728C7.0098 1.66628 7.2483 1.41665 7.5043 1.18678C7.73192 0.982526 7.91492 0.763526 7.9233 0.440776C7.92367 0.427401 7.93067 0.414026 7.94142 0.376526L8.0063 0.539776C8.00467 0.622401 7.9973 0.705026 8.00267 0.787151C8.01205 0.930026 8.03505 1.07215 8.04155 1.21503C8.05355 1.4809 8.0593 1.74728 8.06467 2.01353C8.0733 2.44203 8.08117 2.87053 8.08655 3.29915C8.09492 3.9839 8.10042 4.66865 8.10905 5.3534C8.11005 5.46103 8.1213 5.56815 8.12805 5.67553Z" fill="#60B24F"/>
<path fill-rule="evenodd" clip-rule="evenodd" d="M7.82457 13.3856C7.85745 13.2213 7.9007 13.0581 7.92107 12.8923C7.9617 12.5611 7.98957 12.2283 8.02282 11.8963L8.03107 11.895L8.03932 11.8964C8.04782 12.3118 8.10633 12.7247 8.21357 13.1261C8.19157 13.1551 8.16045 13.181 8.14882 13.2138C8.05795 13.47 7.97232 13.7283 7.88095 13.9845C7.86845 14.0195 7.8337 14.0468 7.8092 14.0775L7.71582 13.7568L7.82457 13.3856Z" fill="#A9AA88"/>
<path fill-rule="evenodd" clip-rule="evenodd" d="M7.80957 14.0776C7.83407 14.0468 7.86894 14.0196 7.88132 13.9846C7.9727 13.7283 8.05845 13.4702 8.1492 13.2138C8.16082 13.1811 8.19182 13.1552 8.21394 13.1262L8.37082 13.4705C8.33982 13.5145 8.29707 13.5541 8.27982 13.6031L7.97932 14.4855C7.96695 14.5208 7.9247 14.5458 7.89645 14.5757L7.80957 14.0776Z" fill="#B6B598"/>
<path fill-rule="evenodd" clip-rule="evenodd" d="M7.89648 14.5756C7.92486 14.5459 7.96698 14.5208 7.97936 14.4854L8.27986 13.603C8.29698 13.5541 8.33986 13.5144 8.37086 13.4704L8.52273 13.6C8.44936 13.6725 8.40861 13.7563 8.43311 13.8621L8.38698 14.0131C8.36598 14.039 8.33561 14.0615 8.32523 14.0911C8.22036 14.3915 8.12023 14.6935 8.01461 14.9939C8.00123 15.032 7.96411 15.0619 7.93786 15.0954C7.92419 14.9221 7.9104 14.7489 7.89648 14.5756Z" fill="#C2C1A7"/>
<path fill-rule="evenodd" clip-rule="evenodd" d="M7.93834 15.0954C7.96446 15.0617 8.00159 15.0319 8.01509 14.9939C8.12071 14.6936 8.22084 14.3916 8.32571 14.0911C8.33609 14.0616 8.36634 14.039 8.38746 14.0131L8.32384 14.7062C8.30684 14.7259 8.28221 14.743 8.27409 14.7659C8.20221 14.9676 8.13446 15.1709 8.06234 15.3726C8.04746 15.4142 8.01896 15.451 7.99671 15.4899C7.97696 15.464 7.94159 15.439 7.93996 15.412C7.93359 15.3069 7.93796 15.201 7.93834 15.0954Z" fill="#CECDB7"/>
<path fill-rule="evenodd" clip-rule="evenodd" d="M7.99609 15.4899C8.01834 15.4509 8.04684 15.4141 8.06172 15.3726C8.13397 15.171 8.20159 14.9677 8.27347 14.7659C8.28159 14.743 8.30634 14.726 8.32322 14.7062L8.32472 15.1612L8.17247 15.5517L7.99609 15.4899Z" fill="#DBDAC7"/>
<path fill-rule="evenodd" clip-rule="evenodd" d="M8.17285 15.5519L8.3251 15.1614L8.35648 15.6234L8.17285 15.5519Z" fill="#EBE9DC"/>
<path fill-rule="evenodd" clip-rule="evenodd" d="M8.43293 13.8622C8.40843 13.7563 8.44905 13.6725 8.52255 13.6001L8.56468 13.6288L8.43293 13.8622Z" fill="#CECDB7"/>
<path fill-rule="evenodd" clip-rule="evenodd" d="M8.03994 11.8965L8.03169 11.8951L8.02344 11.8964L8.04281 11.8265L8.03994 11.8965Z" fill="#4FAA41"/>
</svg>
