<svg width="64" height="44" viewBox="0 0 64 44" fill="none" xmlns="http://www.w3.org/2000/svg">
<g clip-path="url(#clip0_208_1375)">
<path d="M19.0387 29.0345L20.9837 35.3997C21.4207 36.8448 21.603 37.8537 21.53 38.4287C22.5938 35.5552 23.337 32.4238 23.7599 29.0345H26.0986C25.0929 34.5524 23.7668 38.562 22.1203 41.0633C20.8375 42.9909 19.4323 43.9546 17.902 43.9546C17.494 43.9546 16.991 43.8303 16.3941 43.5834V42.2533C16.6857 42.2964 17.0279 42.3195 17.4214 42.3195C18.1351 42.3193 18.7108 42.1201 19.1484 41.7217C19.6725 41.2364 19.9349 40.691 19.9349 40.0865C19.9349 39.6737 19.7302 38.8266 19.3229 37.5452L16.6129 29.0345H19.0387ZM4.15287 25.1223L7.71537 36.0852H7.73737L11.3217 25.1223H14.2502C14.8915 30.5592 15.2703 35.5337 15.3865 40.0427H12.9175C12.8305 35.8278 12.5902 31.864 12.1965 28.1514H12.175L8.41525 40.0427H6.535L2.798 28.1514H2.776C2.49892 31.7169 2.32408 35.6807 2.2515 40.0427H0C0.1455 34.7375 0.509625 29.7645 1.09238 25.1223H4.15287Z" fill="#00758F"/>
<path d="M44.0619 24.901C47.894 24.901 49.8101 27.3703 49.8101 32.3065C49.8101 34.9889 49.2339 37.015 48.0825 38.3838C47.875 38.6339 47.6456 38.85 47.4041 39.0502L50.116 40.4026L50.1134 40.4025L49.1505 42.0795L45.6189 40.0012C45.0334 40.176 44.3896 40.2634 43.6875 40.2634C41.8059 40.2634 40.4004 39.7103 39.4711 38.6056C38.4511 37.3834 37.9414 35.4594 37.9414 32.8368C37.9414 30.1695 38.5166 28.1511 39.6684 26.7805C40.7174 25.5268 42.1821 24.901 44.0619 24.901ZM32.3269 24.9226C33.6965 24.9226 34.9419 25.2922 36.0636 26.0289L35.4939 27.3094C34.534 26.8979 33.5876 26.6913 32.6544 26.6913C31.8971 26.6913 31.3136 26.8751 30.9069 27.245C30.4979 27.6116 30.2449 28.0834 30.2449 28.6585C30.2449 29.5423 30.8691 30.3087 32.0218 30.9562C32.3994 31.1644 32.7757 31.375 33.1506 31.588L33.2366 31.6368L33.2798 31.6612L33.3659 31.71L33.4089 31.7345L33.4949 31.7834C34.3674 32.2795 35.1884 32.753 35.1884 32.753C36.3409 33.5782 36.9154 34.458 36.9154 35.9069C36.9154 37.1723 36.4556 38.2111 35.5391 39.0239C34.622 39.833 33.3899 40.2387 31.8469 40.2387C30.4038 40.2387 29.0051 39.7717 27.6504 38.8456L28.2841 37.5639C29.45 38.1533 30.505 38.4477 31.4524 38.4477C32.3409 38.4477 33.0364 38.2476 33.5395 37.8525C34.0416 37.4545 34.3425 36.8994 34.3425 36.1955C34.3425 35.3096 33.7315 34.5523 32.6106 33.917C32.2598 33.7215 31.91 33.5241 31.5613 33.3248L31.4754 33.2758C31.3176 33.1859 31.1588 33.0948 31.0031 33.0057L30.9188 32.9573C30.1619 32.5231 29.5075 32.1437 29.5075 32.1437C28.387 31.3171 27.8251 30.4301 27.8251 28.9687C27.8251 27.76 28.2441 26.783 29.0809 26.0398C29.9197 25.295 31.0017 24.9226 32.3269 24.9226ZM54.3138 25.1223V38.2073H58.9685V40.0427H51.953V25.1224L54.3138 25.1223ZM61.555 38.213V38.5231H61.0433V40.041H60.652V38.5231H60.1204V38.213H61.555ZM62.5 38.213L62.9914 39.4591L63.4428 38.213H63.9974V40.041H63.6286V38.6498L63.1149 40.041H62.849L62.3344 38.6498H62.3146V40.041H61.9658V38.213H62.5ZM43.8209 26.7359C41.5626 26.7359 40.4329 28.6157 40.4329 32.3727C40.4329 34.5248 40.7323 36.0853 41.3299 37.058C41.8834 37.9582 42.7503 38.4074 43.9306 38.4074C46.1889 38.4074 47.3185 36.513 47.3185 32.7259C47.3185 30.604 47.0191 29.0568 46.4223 28.0836C45.8681 27.1855 45.0016 26.7359 43.821 26.7359" fill="#F29111"/>
<path d="M37.9026 0.924513C38.6517 -0.93206 41.2711 0.473923 42.2876 1.12245C42.5367 1.28471 42.8224 1.6275 43.1081 1.75421C43.5537 1.77186 43.9989 1.80703 44.4453 1.82582C45.2826 2.02426 46.0668 2.18639 46.7266 2.56537C49.7926 4.38652 51.7884 6.24234 53.6253 9.30771C54.0178 9.95699 54.2139 10.6596 54.5346 11.3622C54.9796 12.4095 55.4796 13.5089 55.9961 14.4992C56.2273 14.9687 56.4062 15.4908 56.7273 15.8873C56.8527 16.0686 57.2088 16.122 57.4217 16.2303C58.0102 16.5376 58.7232 16.7708 59.2767 17.1314C60.3103 17.7814 61.3097 18.556 62.2182 19.349C62.5568 19.6551 62.7876 20.0885 63.1102 20.4122V20.5756C62.8238 20.6642 62.5384 20.755 62.2528 20.8278C61.6289 20.9894 61.0763 20.9528 60.4711 21.1146C60.0971 21.224 59.6327 21.3684 59.2404 21.4051L59.2767 21.4419C59.5074 22.1069 60.7559 22.6478 61.3269 23.0455C62.0204 23.5503 62.6631 24.1626 63.1803 24.8657C63.3589 25.0451 63.5376 25.2084 63.7153 25.3873C63.8396 25.5685 63.8746 25.803 64.0003 25.9647V26.0194C63.8611 25.9698 63.7609 25.8753 63.6661 25.7764L63.6094 25.7168C63.5528 25.6576 63.4957 25.5993 63.4306 25.5513C63.0371 25.2802 62.6463 24.956 62.2528 24.7039C61.5763 24.271 60.7917 24.0197 60.0971 23.5851C59.7043 23.3329 59.3299 23.0455 58.9556 22.7568C58.6162 22.5038 58.2424 22.0179 58.0292 21.6573C57.9036 21.4581 57.8863 21.224 57.7428 21.0799C57.7684 20.8392 57.9871 20.7678 58.2077 20.709L58.2584 20.6955C58.3346 20.6756 58.4091 20.6557 58.4741 20.6293C59.4008 20.2324 60.5057 20.0885 61.9324 20.1245C61.8787 19.7632 60.9872 19.313 60.7026 19.0966C60.1313 18.6813 59.5264 18.248 58.9204 17.8701C58.5993 17.6721 58.0459 17.5276 57.6902 17.3659C57.2088 17.1674 56.1389 16.9691 55.8722 16.5912C55.4191 15.9953 55.0936 15.2846 54.7776 14.5668L54.6916 14.3709L54.6053 14.1751C54.2318 13.3106 53.7678 12.4093 53.3934 11.5241C53.1977 11.0923 53.1078 10.7133 52.8934 10.2992C51.5926 7.75775 49.6672 5.62999 47.3328 4.13361C46.5657 3.64671 45.7103 3.19612 44.7661 2.88989C44.2309 2.72687 43.5887 2.81702 43.0186 2.69195H42.6433C42.3231 2.60093 42.0557 2.25851 41.8058 2.07797C41.2539 1.7 40.7012 1.44621 40.0412 1.17654C39.8099 1.06836 39.1496 0.816467 38.9191 1.01478C38.7763 1.05097 38.7039 1.1053 38.6688 1.24979C38.5268 1.46537 38.6517 1.79014 38.7401 1.98896C39.0078 2.56512 39.3818 2.90754 39.7213 3.39444C40.0233 3.82624 40.3984 4.31314 40.6126 4.78264C41.0746 5.79187 41.2897 6.91003 41.7178 7.91913C41.8766 8.29861 42.1277 8.73041 42.3588 9.07271C42.5547 9.3444 42.9108 9.54082 43.0186 9.88475C43.2333 10.2453 42.6971 11.4351 42.5729 11.8129C42.1086 13.2914 42.1986 15.3466 42.7333 16.6281L42.7618 16.6957L42.7903 16.7641C42.9856 17.2335 43.1946 17.7389 43.7137 17.8702C43.7494 17.8344 43.7137 17.8532 43.7846 17.8344C43.9102 16.8424 43.9456 15.8872 44.2846 15.111C44.4804 14.6258 44.8716 14.2827 45.1397 13.8866C45.3184 13.9945 45.3184 14.3199 45.4249 14.5353C45.6569 15.0938 45.9061 15.7061 46.1921 16.2663C46.7791 17.4198 47.4396 18.5383 48.1879 19.5474C48.4386 19.9078 48.7942 20.3046 49.1149 20.6292C49.2578 20.7549 49.4178 20.8275 49.5252 20.9893H49.5602V21.0437C49.0254 20.8449 48.6864 20.2869 48.2599 19.9611C47.4569 19.3488 46.4953 18.4292 45.9418 17.5468C45.7103 17.0402 45.4601 16.5547 45.2106 16.0507V16.0142C45.1039 16.1582 45.1397 16.3012 45.0863 16.519C44.8548 17.4198 45.0331 18.4475 44.2309 18.7715C43.3217 19.151 42.6434 18.1591 42.3588 17.7084C41.4493 16.2124 41.2002 13.6887 41.8416 11.6514C41.9841 11.2005 42.0034 10.6596 42.2522 10.2995C42.1984 9.97401 41.9497 9.885 41.8058 9.68556C41.5563 9.34465 41.3427 8.94752 41.1473 8.56891C40.7721 7.82936 40.5051 6.9457 40.2202 6.15257C40.0949 5.82868 40.0591 5.50354 39.9342 5.19693C39.7212 4.72894 39.3286 4.25944 39.0257 3.84541C38.6156 3.25034 37.4211 2.09701 37.9026 0.924513ZM43.7491 4.45649C43.7967 4.50465 43.8542 4.54676 43.9137 4.58824L43.9854 4.63791C44.0811 4.70473 44.1737 4.77508 44.2304 4.8709C44.3204 4.99773 44.3372 5.12292 44.4449 5.25C44.4449 5.68332 44.3204 5.9714 44.0691 6.15093C44.0691 6.15093 44.0519 6.16984 44.0343 6.18749C43.8918 5.89866 43.7669 5.61133 43.6234 5.32275C43.4467 5.07085 43.1968 4.87102 43.0528 4.58319H43.0182V4.54701C43.2333 4.49343 43.4467 4.45649 43.7491 4.45649Z" fill="#00758F"/>
</g>
<defs>
<clipPath id="clip0_208_1375">
<rect width="64" height="44" fill="white"/>
</clipPath>
</defs>
</svg>
