<svg width="64" height="64" viewBox="0 0 64 64" fill="none" xmlns="http://www.w3.org/2000/svg">
<g clip-path="url(#clip0_208_1284)">
<path d="M32 64C49.6731 64 64 49.6731 64 32C64 14.3269 49.6731 0 32 0C14.3269 0 0 14.3269 0 32C0 49.6731 14.3269 64 32 64Z" fill="black"/>
<path d="M53.1587 56.007L24.5837 19.2H19.2002V44.7895H23.5072V24.6695L49.7772 58.6115C50.9611 57.8195 52.0907 56.9494 53.1587 56.007Z" fill="url(#paint0_linear_208_1284)"/>
<path d="M40.8887 19.2H45.1552V44.7999H40.8887V19.2Z" fill="url(#paint1_linear_208_1284)"/>
</g>
<defs>
<linearGradient id="paint0_linear_208_1284" x1="38.7557" y1="41.4221" x2="51.3779" y2="57.0665" gradientUnits="userSpaceOnUse">
<stop stop-color="white"/>
<stop offset="1" stop-color="white" stop-opacity="0"/>
</linearGradient>
<linearGradient id="paint1_linear_208_1284" x1="43.0218" y1="19.1999" x2="42.9504" y2="37.9999" gradientUnits="userSpaceOnUse">
<stop stop-color="white"/>
<stop offset="1" stop-color="white" stop-opacity="0"/>
</linearGradient>
<clipPath id="clip0_208_1284">
<rect width="64" height="64" fill="white"/>
</clipPath>
</defs>
</svg>
