<svg width="64" height="39" viewBox="0 0 64 39" fill="none" xmlns="http://www.w3.org/2000/svg">
<g clip-path="url(#clip0_208_1311)">
<path d="M31.6389 38.8875C31.4223 38.8875 31.22 38.8301 31.0321 38.7296L29.1108 37.5956C28.8218 37.4377 28.9663 37.3803 29.053 37.3516C29.443 37.2224 29.5153 37.1936 29.9198 36.9641C29.9631 36.9352 30.021 36.9497 30.0643 36.9783L31.5379 37.854C31.5956 37.8827 31.6679 37.8827 31.7111 37.854L37.4755 34.538C37.5333 34.5093 37.5623 34.4518 37.5623 34.3801V27.7625C37.5623 27.6906 37.5333 27.6334 37.4755 27.6046L31.7111 24.303C31.6534 24.2742 31.5811 24.2742 31.5379 24.303L25.7735 27.6046C25.7158 27.6333 25.6868 27.705 25.6868 27.7624V34.38C25.6868 34.4375 25.7158 34.5092 25.7735 34.538L27.3483 35.4423C28.2006 35.8729 28.7351 35.3705 28.7351 34.8681V28.3366C28.7351 28.2505 28.8074 28.1643 28.9085 28.1643H29.6453C29.732 28.1643 29.8186 28.2361 29.8186 28.3366V34.8681C29.8186 36.0021 29.1974 36.6625 28.1139 36.6625C27.7816 36.6625 27.5216 36.6625 26.7848 36.3035L25.2679 35.4423C24.8923 35.2271 24.6611 34.825 24.6611 34.3944V27.7768C24.6611 27.3462 24.8923 26.9442 25.2679 26.7289L31.0321 23.4129C31.3934 23.212 31.8846 23.212 32.2458 23.4129L38.01 26.7289C38.3856 26.9442 38.6169 27.3462 38.6169 27.7768V34.3944C38.6169 34.825 38.3856 35.2271 38.01 35.4423L32.2458 38.7583C32.0579 38.8445 31.8411 38.8875 31.6389 38.8875ZM33.416 34.337C30.8879 34.337 30.3678 33.1886 30.3678 32.2125C30.3678 32.1263 30.44 32.0402 30.5411 32.0402H31.2924C31.379 32.0402 31.4513 32.0976 31.4513 32.1838C31.5669 32.9446 31.8991 33.3178 33.4305 33.3178C34.644 33.3178 35.1643 33.0451 35.1643 32.3991C35.1643 32.0258 35.0196 31.7532 33.1271 31.5665C31.5524 31.4086 30.57 31.0641 30.57 29.8153C30.57 28.6525 31.5525 27.9634 33.1994 27.9634C35.0485 27.9634 35.9588 28.5951 36.0744 29.973C36.0744 30.0161 36.0599 30.0592 36.031 30.1023C36.002 30.131 35.9588 30.1597 35.9154 30.1597H35.1641C35.0919 30.1597 35.0196 30.1023 35.0053 30.0305C34.8319 29.2411 34.384 28.9826 33.1994 28.9826C31.8703 28.9826 31.7113 29.442 31.7113 29.7864C31.7113 30.2028 31.8991 30.332 33.6905 30.5616C35.4675 30.7914 36.3055 31.1215 36.3055 32.356C36.291 33.6193 35.2509 34.337 33.416 34.337Z" fill="#539E43"/>
<path d="M13.7539 13.0057C13.7539 12.7473 13.6094 12.5031 13.3783 12.374L7.2528 8.87141C7.15155 8.81391 7.03605 8.78522 6.92055 8.77081H6.86267C6.74717 8.77081 6.63155 8.81391 6.53042 8.87141L0.404922 12.374C0.173672 12.5031 0.0292969 12.7472 0.0292969 13.0057L0.0437969 22.4224C0.0437969 22.5516 0.116047 22.6808 0.231547 22.7383C0.347172 22.8101 0.491547 22.8101 0.592797 22.7383L4.23342 20.6711C4.46455 20.542 4.60905 20.2979 4.60905 20.0396V15.6326C4.60905 15.3742 4.75342 15.1302 4.98467 15.001L6.53042 14.111C6.64605 14.0392 6.77605 14.0103 6.90605 14.0103C7.03605 14.0103 7.16605 14.0392 7.2673 14.111L8.81305 15.001C9.0443 15.1302 9.18867 15.3741 9.18867 15.6326V20.0396C9.18867 20.2979 9.33317 20.542 9.5643 20.6711L13.2049 22.7383C13.2612 22.7735 13.3263 22.7921 13.3927 22.7921C13.4592 22.7921 13.5243 22.7735 13.5805 22.7383C13.6962 22.6808 13.7684 22.5516 13.7684 22.4224L13.7539 13.0057ZM43.1968 0.0431298C43.0813 -0.0143766 42.9368 -0.0143766 42.8355 0.0431298C42.72 0.11492 42.6478 0.229684 42.6478 0.358856V9.68967C42.6478 9.77574 42.6045 9.86181 42.5178 9.91932C42.4311 9.9623 42.3445 9.9623 42.2578 9.91932L40.7264 9.04368C40.6141 8.9802 40.4872 8.94682 40.358 8.94682C40.2288 8.94682 40.1018 8.9802 39.9895 9.04368L33.864 12.5606C33.6329 12.6898 33.4884 12.9339 33.4884 13.1922V20.2117C33.4884 20.4701 33.6329 20.7142 33.864 20.8434L39.9895 24.3604C40.1018 24.4239 40.2288 24.4572 40.358 24.4572C40.4872 24.4572 40.6141 24.4239 40.7264 24.3604L46.8519 20.8434C47.083 20.7142 47.2275 20.4702 47.2275 20.2117V2.71314C47.2275 2.44039 47.083 2.19645 46.8519 2.06716L43.1968 0.0431298ZM42.6334 17.9007C42.6334 17.9724 42.6045 18.0298 42.5467 18.0585L40.4519 19.2643C40.4227 19.2785 40.3905 19.2859 40.358 19.2859C40.3254 19.2859 40.2933 19.2785 40.264 19.2643L38.1693 18.0585C38.1114 18.0298 38.0826 17.958 38.0826 17.9007V15.489C38.0826 15.4172 38.1114 15.3598 38.1693 15.3311L40.264 14.1252C40.2933 14.111 40.3254 14.1036 40.358 14.1036C40.3905 14.1036 40.4227 14.111 40.4519 14.1252L42.5467 15.3311C42.6045 15.3597 42.6334 15.4316 42.6334 15.489V17.9007ZM63.5814 15.4316C63.8127 15.3024 63.9427 15.0584 63.9427 14.7999V13.0917C63.9427 12.8334 63.7982 12.5893 63.5814 12.4602L57.4993 8.95761C57.387 8.89413 57.26 8.86075 57.1309 8.86075C57.0017 8.86075 56.8747 8.89413 56.7624 8.95761L50.6369 12.4744C50.4057 12.6036 50.2613 12.8477 50.2613 13.106V20.1256C50.2613 20.384 50.4058 20.628 50.6369 20.7572L56.719 24.2024C56.9503 24.3316 57.2248 24.3316 57.4415 24.2024L61.1254 22.1642C61.241 22.1067 61.3133 21.9775 61.3133 21.8484C61.3133 21.7192 61.241 21.59 61.1254 21.5325L54.9711 18.0155C54.8554 17.9438 54.7832 17.829 54.7832 17.6998V15.5035C54.7832 15.3744 54.8554 15.2452 54.9711 15.1877L56.8924 14.0967C56.9487 14.0615 57.0138 14.0428 57.0802 14.0428C57.1467 14.0428 57.2118 14.0615 57.268 14.0967L59.1895 15.1877C59.3052 15.2595 59.3773 15.3742 59.3773 15.5035V17.2261C59.3773 17.3553 59.4496 17.4844 59.5652 17.5418C59.6214 17.577 59.6865 17.5957 59.753 17.5957C59.8195 17.5957 59.8846 17.577 59.9408 17.5418L63.5814 15.4316Z" fill="#333333"/>
<path d="M57.0373 15.1014C57.0587 15.0873 57.0839 15.0798 57.1095 15.0798C57.1352 15.0798 57.1604 15.0873 57.1818 15.1014L58.352 15.776C58.3953 15.8049 58.4242 15.8478 58.4242 15.9052V17.2547C58.4242 17.3121 58.3954 17.3552 58.352 17.3839L57.1818 18.0585C57.1604 18.0726 57.1352 18.0801 57.1095 18.0801C57.0839 18.0801 57.0587 18.0726 57.0373 18.0585L55.8672 17.3839C55.8238 17.3552 55.7949 17.3121 55.7949 17.2547V15.9053C55.7949 15.8478 55.8237 15.8047 55.8672 15.7762L57.0373 15.1014Z" fill="#539E43"/>
<path d="M23.9965 8.98623C23.8843 8.92277 23.7573 8.8894 23.6282 8.8894C23.499 8.8894 23.372 8.92277 23.2598 8.98623L17.1777 12.4742C16.9464 12.6034 16.8164 12.8475 16.8164 13.1058V20.0968C16.8164 20.3551 16.9609 20.5992 17.1777 20.7283L23.2598 24.2166C23.372 24.2801 23.499 24.3134 23.6282 24.3134C23.7573 24.3134 23.8843 24.2801 23.9965 24.2166L30.0788 20.7283C30.3099 20.5992 30.44 20.3551 30.44 20.0968V13.1059C30.44 12.8476 30.2954 12.6035 30.0788 12.4744L23.9965 8.98623Z" fill="url(#paint0_linear_208_1311)"/>
<mask id="mask0_208_1311" style="mask-type:luminance" maskUnits="userSpaceOnUse" x="16" y="8" width="15" height="17">
<path d="M23.9965 8.98623C23.8843 8.92277 23.7573 8.8894 23.6282 8.8894C23.499 8.8894 23.372 8.92277 23.2598 8.98623L17.1777 12.4742C16.9464 12.6034 16.8164 12.8475 16.8164 13.1058V20.0968C16.8164 20.3551 16.9609 20.5992 17.1777 20.7283L23.2598 24.2166C23.372 24.2801 23.499 24.3134 23.6282 24.3134C23.7573 24.3134 23.8843 24.2801 23.9965 24.2166L30.0788 20.7283C30.3099 20.5992 30.44 20.3551 30.44 20.0968V13.1059C30.44 12.8476 30.2954 12.6035 30.0788 12.4744L23.9965 8.98623Z" fill="white"/>
</mask>
<g mask="url(#mask0_208_1311)">
<path d="M30.093 12.4745L23.982 8.98634C23.922 8.95619 23.8591 8.93214 23.7942 8.91455L16.9463 20.5708C17.003 20.6396 17.0716 20.6979 17.1487 20.7431L23.2597 24.2314C23.433 24.3318 23.6353 24.3605 23.823 24.303L30.252 12.6182C30.2087 12.5608 30.1508 12.5175 30.093 12.4745Z" fill="url(#paint1_linear_208_1311)"/>
</g>
<mask id="mask1_208_1311" style="mask-type:luminance" maskUnits="userSpaceOnUse" x="16" y="8" width="15" height="17">
<path d="M23.9965 8.98623C23.8843 8.92277 23.7573 8.8894 23.6282 8.8894C23.499 8.8894 23.372 8.92277 23.2598 8.98623L17.1777 12.4742C16.9464 12.6034 16.8164 12.8475 16.8164 13.1058V20.0968C16.8164 20.3551 16.9609 20.5992 17.1777 20.7283L23.2598 24.2166C23.372 24.2801 23.499 24.3134 23.6282 24.3134C23.7573 24.3134 23.8843 24.2801 23.9965 24.2166L30.0788 20.7283C30.3099 20.5992 30.44 20.3551 30.44 20.0968V13.1059C30.44 12.8476 30.2954 12.6035 30.0788 12.4744L23.9965 8.98623Z" fill="white"/>
</mask>
<g mask="url(#mask1_208_1311)">
<path fill-rule="evenodd" clip-rule="evenodd" d="M30.1079 20.7285C30.2812 20.628 30.4112 20.4557 30.4691 20.2691L23.7655 8.90003C23.5921 8.87134 23.4042 8.88562 23.2455 8.9861L17.1777 12.4601L23.7221 24.3172C23.8173 24.3018 23.9098 24.2728 23.9966 24.2311L30.1079 20.7285Z" fill="url(#paint2_linear_208_1311)"/>
<path fill-rule="evenodd" clip-rule="evenodd" d="M30.1075 20.7284L24.0108 24.2166C23.9247 24.2602 23.832 24.2893 23.7363 24.3027L23.852 24.5181L30.6131 20.628V20.5418L30.4397 20.2546C30.4108 20.4556 30.2808 20.6279 30.1075 20.7284Z" fill="url(#paint3_linear_208_1311)"/>
<path fill-rule="evenodd" clip-rule="evenodd" d="M30.1075 20.7284L24.0108 24.2166C23.9247 24.2602 23.832 24.2893 23.7363 24.3027L23.852 24.5181L30.6131 20.628V20.5418L30.4397 20.2546C30.4108 20.4556 30.2808 20.6279 30.1075 20.7284Z" fill="url(#paint4_linear_208_1311)"/>
</g>
</g>
<defs>
<linearGradient id="paint0_linear_208_1311" x1="945.784" y1="278.609" x2="285.178" y2="1323.28" gradientUnits="userSpaceOnUse">
<stop stop-color="#41873F"/>
<stop offset="0.3288" stop-color="#418B3D"/>
<stop offset="0.6352" stop-color="#419637"/>
<stop offset="0.9319" stop-color="#3FA92D"/>
<stop offset="1" stop-color="#3FAE2A"/>
</linearGradient>
<linearGradient id="paint1_linear_208_1311" x1="592.779" y1="859.5" x2="2257.52" y2="-50.7569" gradientUnits="userSpaceOnUse">
<stop offset="0.1376" stop-color="#41873F"/>
<stop offset="0.4032" stop-color="#54A044"/>
<stop offset="0.7136" stop-color="#66B848"/>
<stop offset="0.9081" stop-color="#6CC04A"/>
</linearGradient>
<linearGradient id="paint2_linear_208_1311" x1="-41.1581" y1="780.352" x2="1366.24" y2="780.352" gradientUnits="userSpaceOnUse">
<stop offset="0.09192" stop-color="#6CC04A"/>
<stop offset="0.2864" stop-color="#66B848"/>
<stop offset="0.5968" stop-color="#54A044"/>
<stop offset="0.8624" stop-color="#41873F"/>
</linearGradient>
<linearGradient id="paint3_linear_208_1311" x1="-690.49" y1="234.598" x2="716.892" y2="234.598" gradientUnits="userSpaceOnUse">
<stop offset="0.09192" stop-color="#6CC04A"/>
<stop offset="0.2864" stop-color="#66B848"/>
<stop offset="0.5968" stop-color="#54A044"/>
<stop offset="0.8624" stop-color="#41873F"/>
</linearGradient>
<linearGradient id="paint4_linear_208_1311" x1="921.929" y1="-879.621" x2="569.755" y2="977.592" gradientUnits="userSpaceOnUse">
<stop stop-color="#41873F"/>
<stop offset="0.3288" stop-color="#418B3D"/>
<stop offset="0.6352" stop-color="#419637"/>
<stop offset="0.9319" stop-color="#3FA92D"/>
<stop offset="1" stop-color="#3FAE2A"/>
</linearGradient>
<clipPath id="clip0_208_1311">
<rect width="64" height="39" fill="white"/>
</clipPath>
</defs>
</svg>
