<svg width="64" height="64" viewBox="0 0 64 64" fill="none" xmlns="http://www.w3.org/2000/svg">
<path d="M62.79 38.3238C62.4179 37.197 61.4432 36.412 60.1825 36.2235C59.5881 36.1348 58.9073 36.1726 58.1018 36.3388C56.6977 36.6284 55.656 36.7386 54.8958 36.7601C57.7652 31.9152 60.0986 26.3903 61.4419 21.1895C63.6138 12.7802 62.4532 8.94924 61.0969 7.21627C57.5074 2.62981 52.2704 0.165731 45.9521 0.0901976C42.5819 0.0490627 39.6229 0.71453 38.0796 1.19296C36.6424 0.939554 35.0971 0.797946 33.4756 0.771718C30.4366 0.723273 27.7513 1.38573 25.4568 2.74734C24.1862 2.31793 22.1476 1.71237 19.7932 1.32582C14.2556 0.416697 9.79269 1.12516 6.52827 3.43129C2.57531 6.22359 0.742732 11.0749 1.0817 17.8507C1.1892 20.002 2.39271 26.5474 4.2875 32.755C5.37649 36.3228 6.53773 39.2858 7.73895 41.5622C9.4424 44.79 11.2651 46.691 13.3114 47.3735C14.4584 47.7558 16.5422 48.0232 18.7341 46.1981C19.0119 46.5343 19.3824 46.8687 19.8745 47.1791C20.4991 47.5732 21.263 47.8951 22.0258 48.0858C24.7752 48.7732 27.3505 48.6012 29.5476 47.6379C29.5611 48.0286 29.5715 48.402 29.5804 48.7244C29.595 49.2474 29.6094 49.76 29.6286 50.2395C29.7587 53.4818 29.9793 56.0028 30.6329 57.7666C30.6687 57.8637 30.717 58.0115 30.768 58.1682C31.0939 59.1666 31.6393 60.8378 33.0263 62.1468C34.4628 63.5025 36.2003 63.9185 37.7915 63.9183C38.5895 63.9183 39.351 63.8137 40.0188 63.6705C42.3996 63.1604 45.1033 62.383 47.0591 59.5982C48.9082 56.9654 49.8072 53.0001 49.9698 46.7519C49.9909 46.5753 50.0104 46.4066 50.0292 46.2458C50.0418 46.1373 50.0547 46.0264 50.0677 45.9157L50.5034 45.954L50.6157 45.9616C53.0405 46.0721 56.0053 45.5578 57.8262 44.7121C59.265 44.0443 63.8756 41.6103 62.79 38.3238Z" fill="black"/>
<path d="M58.6436 38.963C51.434 40.4502 50.9384 38.0092 50.9384 38.0092C58.5506 26.7138 61.7327 12.3761 58.9866 8.86704C51.4949 -0.705055 38.5264 3.82193 38.31 3.93946L38.2403 3.95193C36.8159 3.65624 35.2218 3.48009 33.4302 3.45086C30.168 3.39739 27.6934 4.30609 25.8157 5.73004C25.8157 5.73004 2.68115 -3.80049 3.7571 17.7165C3.986 22.2941 10.318 52.3525 17.8707 43.2734C20.6311 39.9535 23.2983 37.1465 23.2983 37.1465C24.6231 38.0265 26.209 38.4754 27.8716 38.3142L28.0007 38.2045C27.9606 38.6167 27.9789 39.0199 28.0525 39.4972C26.1068 41.671 26.6785 42.0527 22.7891 42.8533C18.8535 43.6644 21.1655 45.1084 22.675 45.4858C24.505 45.9434 28.7387 46.5917 31.5994 42.5872L31.4853 43.0441C32.2476 43.6547 32.783 47.0158 32.6933 50.0627C32.6035 53.1097 32.5436 55.2015 33.1443 56.8354C33.745 58.4694 34.3437 62.1457 39.4567 61.0501C43.7291 60.1345 45.9431 57.7619 46.2511 53.8042C46.4697 50.9906 46.9643 51.4065 46.9956 48.891L47.3923 47.7001C47.8498 43.886 47.465 42.6555 50.0972 43.2278L50.7368 43.284C52.6742 43.3722 55.2098 42.9724 56.698 42.2807C59.9025 40.7936 61.803 38.3106 58.6433 38.963H58.6436Z" fill="#336791"/>
<path d="M27.1703 19.7636C26.5207 19.6732 25.9322 19.7569 25.6345 19.9822C25.467 20.109 25.4152 20.2559 25.4013 20.3571C25.3639 20.625 25.5517 20.9211 25.6669 21.0739C25.9931 21.5063 26.4698 21.8036 26.9417 21.8691C27.01 21.8785 27.078 21.8831 27.1456 21.8831C27.9325 21.8831 28.6477 21.2705 28.7108 20.8183C28.7896 20.2521 27.9675 19.8745 27.1703 19.7636Z" fill="white"/>
<path d="M48.6938 19.7816C48.6319 19.3377 47.8417 19.2112 47.0921 19.3154C46.3437 19.4197 45.6177 19.7575 45.6784 20.2024C45.7271 20.5484 46.3516 21.139 47.0911 21.1389C47.1535 21.1389 47.2165 21.1348 47.28 21.1259C47.7737 21.0575 48.1358 20.744 48.3078 20.5633C48.57 20.2881 48.7215 19.9811 48.6938 19.7816Z" fill="white"/>
<path d="M61.0427 38.7941C60.7678 37.9628 59.8831 37.6952 58.413 37.9989C54.0481 38.8997 52.4849 38.2756 51.9716 37.8977C55.3644 32.729 58.1554 26.4816 59.661 20.6523C60.3744 17.8911 60.7684 15.3268 60.8005 13.2368C60.836 10.9425 60.4455 9.2568 59.6396 8.227C56.3905 4.07538 51.6221 1.84851 45.8499 1.78731C41.8818 1.74274 38.5291 2.75835 37.8791 3.04386C36.5103 2.70346 35.0181 2.49449 33.3938 2.46783C30.4147 2.41967 27.8399 3.13287 25.7079 4.58649C24.7818 4.24193 22.3886 3.42038 19.462 2.94898C14.402 2.13416 10.3812 2.75147 7.5118 4.78428C4.088 7.20995 2.50739 11.5459 2.81368 17.6714C2.91673 19.7324 4.09087 26.0722 5.94408 32.1438C8.38337 40.135 11.0348 44.659 13.8248 45.5895C14.1513 45.6984 14.5279 45.7747 14.943 45.7747C15.9608 45.7747 17.2084 45.3159 18.5067 43.7552C20.6631 41.161 22.6764 38.9871 23.4185 38.1972C24.5153 38.786 25.7199 39.1147 26.9524 39.1477C26.9545 39.1799 26.9578 39.2121 26.9607 39.2443C26.7135 39.5375 26.5107 39.7945 26.3378 40.0139C25.484 41.0978 25.3063 41.3234 22.5578 41.8894C21.7761 42.0506 19.6995 42.4786 19.6692 43.9341C19.6361 45.5243 22.1236 46.1922 22.4071 46.263C23.3947 46.5102 24.3461 46.6322 25.2535 46.6322C27.4605 46.632 29.4024 45.9068 30.9545 44.5035C30.9066 50.1728 31.1431 55.7593 31.8238 57.4614C32.3812 58.8547 33.7432 62.2601 38.0455 62.2599C38.6765 62.2599 39.3715 62.1865 40.1359 62.0226C44.6258 61.0599 46.5754 59.0756 47.3298 54.7006C47.7334 52.3625 48.4261 46.7791 48.7517 43.7843C49.4393 43.9987 50.3244 44.0969 51.2813 44.0967C53.277 44.0967 55.5797 43.6728 57.0238 43.0024C58.646 42.2491 61.5736 40.4002 61.0427 38.7941ZM50.3504 18.5563C50.3355 19.4405 50.2138 20.2431 50.0848 21.081C49.9461 21.9821 49.8024 22.9137 49.7663 24.0447C49.7306 25.1453 49.8681 26.2896 50.0011 27.3961C50.2697 29.6312 50.5453 31.9323 49.4782 34.2029C49.3124 33.9083 49.1523 33.587 49.0055 33.2311C48.873 32.9096 48.585 32.3932 48.1864 31.6784C46.6351 28.8965 43.0023 22.3817 44.862 19.7233C45.4158 18.9318 46.8215 18.1184 50.3504 18.5563ZM46.0731 3.57775C51.2449 3.69198 55.3359 5.62676 58.2325 9.32803C60.4541 12.1671 58.0078 25.0851 50.9258 36.2295C50.8559 36.1407 50.7847 36.0509 50.711 35.9589C50.6816 35.9221 50.6517 35.8847 50.6214 35.8468C52.4514 32.8245 52.0935 29.8343 51.7751 27.183C51.6442 26.095 51.5206 25.0673 51.552 24.1022C51.5846 23.0788 51.7199 22.2015 51.8506 21.353C52.0115 20.3073 52.1751 19.2255 52.1299 17.95C52.1636 17.8163 52.1772 17.6582 52.1596 17.4706C52.0444 16.2474 50.6481 12.5873 47.8019 9.274C46.2452 7.46206 43.9748 5.43412 40.8749 4.06635C42.2083 3.79002 44.0317 3.53232 46.0731 3.57775ZM17.1329 42.6129C15.7026 44.3325 14.7148 44.003 14.3901 43.8948C12.2736 43.1888 9.81793 38.7157 7.65283 31.6223C5.7794 25.4846 4.68453 19.3128 4.59796 17.5821C4.32435 12.1087 5.65112 8.29407 8.5416 6.24421C13.2456 2.90827 20.9795 4.90496 24.0871 5.91771C24.0424 5.96171 23.996 6.00299 23.9517 6.04771C18.8523 11.1979 18.9732 19.997 18.9857 20.5348C18.9853 20.7423 19.0026 21.0361 19.0265 21.4403C19.1143 22.9202 19.2775 25.6746 18.8414 28.794C18.4359 31.6926 19.3294 34.5298 21.2924 36.5779C21.4956 36.7899 21.7078 36.989 21.9269 37.1763C21.053 38.1121 19.1541 40.1813 17.1329 42.6129ZM22.5823 35.3417C21.0002 33.691 20.2817 31.3948 20.6107 29.0414C21.0714 25.7461 20.9013 22.8763 20.81 21.3345C20.7972 21.1188 20.7859 20.9298 20.7791 20.7806C21.5242 20.1201 24.9765 18.2702 27.4384 18.8343C28.5621 19.0918 29.2465 19.8567 29.5311 21.1727C31.0042 27.9855 29.7262 30.8251 28.6993 33.1068C28.4876 33.577 28.2876 34.0213 28.1168 34.4811L27.9845 34.8364C27.6494 35.7349 27.3377 36.5702 27.1444 37.3635C25.4626 37.3584 23.8264 36.64 22.5823 35.3417ZM22.8405 44.5297C22.3494 44.407 21.9077 44.1939 21.6486 44.0172C21.865 43.9153 22.2503 43.7768 22.9183 43.6392C26.1516 42.9735 26.6508 42.5038 27.7413 41.1193C27.9914 40.8019 28.2747 40.442 28.6672 40.0037L28.6676 40.0032C29.2522 39.3487 29.5195 39.4597 30.0044 39.6608C30.3974 39.8234 30.7801 40.3159 30.9353 40.858C31.0087 41.114 31.0912 41.6 30.8214 41.9779C28.5435 45.1672 25.2243 45.1263 22.8405 44.5297ZM39.7614 60.2758C35.806 61.1233 34.4055 59.1051 33.4827 56.7979C32.887 55.3083 32.5943 48.5916 32.802 41.1743C32.8047 41.0755 32.7907 40.9802 32.7634 40.8906C32.7398 40.7177 32.7034 40.5427 32.6529 40.3665C32.3439 39.2872 31.5913 38.3844 30.6883 38.0102C30.3296 37.8616 29.671 37.5888 28.8797 37.7912C29.0485 37.0959 29.3412 36.3109 29.6584 35.4607L29.7916 35.103C29.9415 34.6998 30.1294 34.2821 30.3283 33.8401C31.403 31.4526 32.8748 28.1826 31.2774 20.7951C30.679 18.0281 28.6811 16.677 25.6521 16.9907C23.8362 17.1786 22.175 17.9113 21.3464 18.3314C21.1683 18.4217 21.0053 18.5088 20.8531 18.5938C21.0843 15.8058 21.9582 10.5958 25.2266 7.29938C27.2843 5.22401 30.025 4.19908 33.3643 4.25426C39.9437 4.36204 44.1628 7.73854 46.5439 10.5522C48.5956 12.9769 49.7067 15.4191 50.1502 16.7363C46.8156 16.3974 44.5478 17.0557 43.398 18.6992C40.897 22.2743 44.7664 29.2137 46.626 32.5486C46.967 33.1599 47.2614 33.688 47.354 33.9125C47.9595 35.3802 48.7435 36.3599 49.316 37.0753C49.4914 37.2944 49.6617 37.507 49.7911 37.6926C48.7812 37.9838 46.9671 38.6565 47.1324 42.0191C46.9991 43.7065 46.0509 51.6061 45.5693 54.3971C44.9335 58.0843 43.5766 59.4578 39.7614 60.2758ZM56.2715 41.382C55.2388 41.8614 53.5106 42.221 51.8688 42.2981C50.0554 42.3831 49.1324 42.095 48.9152 41.9179C48.8132 39.8224 49.5933 39.6034 50.4187 39.3717C50.5485 39.3351 50.675 39.2997 50.7971 39.257C50.8731 39.3188 50.9562 39.3801 51.0472 39.4402C52.5047 40.4022 55.1044 40.506 58.7743 39.7485C58.7878 39.7456 58.8012 39.743 58.8146 39.7403C58.3197 40.2031 57.4726 40.8243 56.2715 41.382Z" fill="white"/>
</svg>
