<svg width="64" height="64" viewBox="0 0 64 64" fill="none" xmlns="http://www.w3.org/2000/svg">
<path d="M31.6956 6.12393C29.5846 6.13393 27.5696 6.31343 25.7956 6.62743C20.5706 7.55043 19.6226 9.48243 19.6226 13.0459V17.7514H31.9691V19.3199H14.9886C11.4006 19.3199 8.2586 21.4764 7.2756 25.5804C6.1416 30.2829 6.0916 33.2179 7.2756 38.1284C8.1531 41.7839 10.2491 44.3879 13.8376 44.3879H18.0831V38.7469C18.0831 34.6714 21.6086 31.0769 25.7961 31.0769H38.1286C41.5616 31.0769 44.3016 28.2499 44.3016 24.8029V13.0464C44.3016 9.69993 41.4786 7.18643 38.1286 6.62793C36.0066 6.27493 33.8061 6.11443 31.6956 6.12393ZM25.0186 9.90843C26.2936 9.90843 27.3356 10.9669 27.3356 12.2689C27.3356 13.5654 26.2941 14.6139 25.0186 14.6139C23.7386 14.6139 22.7021 13.5654 22.7021 12.2689C22.7016 10.9669 23.7386 9.90843 25.0186 9.90843Z" fill="url(#paint0_linear_208_1371)"/>
<path d="M45.8406 19.3201V24.8031C45.8406 29.0531 42.2366 32.6306 38.1276 32.6306H25.7951C22.4171 32.6306 19.6221 35.5221 19.6221 38.9051V50.6626C19.6221 54.0081 22.5311 55.9766 25.7951 56.9361C29.7031 58.0846 33.4511 58.2926 38.1276 56.9361C41.2356 56.0356 44.3006 54.2246 44.3006 50.6626V45.9566H31.9686V44.3876H50.4746C54.0626 44.3876 55.4006 41.8851 56.6486 38.1281C57.9376 34.2606 57.8821 30.5411 56.6486 25.5801C55.7616 22.0076 54.0681 19.3196 50.4746 19.3196L45.8406 19.3201ZM38.9041 49.0936C40.1846 49.0936 41.2211 50.1421 41.2211 51.4396C41.2211 52.7406 40.1841 53.7991 38.9041 53.7991C37.6291 53.7991 36.5876 52.7406 36.5876 51.4396C36.5876 50.1421 37.6291 49.0936 38.9041 49.0936Z" fill="url(#paint1_linear_208_1371)"/>
<path opacity="0.444" d="M48.655 59.7986C48.655 61.5701 41.247 63.0066 32.1095 63.0066C22.9715 63.0066 15.5635 61.5701 15.5635 59.7986C15.5635 58.0271 22.971 56.5901 32.1095 56.5901C41.247 56.5901 48.655 58.0261 48.655 59.7986Z" fill="url(#paint2_radial_208_1371)"/>
<defs>
<linearGradient id="paint0_linear_208_1371" x1="5.16854" y1="7.59525" x2="33.6454" y2="31.8802" gradientUnits="userSpaceOnUse">
<stop stop-color="#5A9FD4"/>
<stop offset="1" stop-color="#306998"/>
</linearGradient>
<linearGradient id="paint1_linear_208_1371" x1="44.359" y1="46.9763" x2="34.1467" y2="32.6552" gradientUnits="userSpaceOnUse">
<stop stop-color="#FFD43B"/>
<stop offset="1" stop-color="#FFE873"/>
</linearGradient>
<radialGradient id="paint2_radial_208_1371" cx="0" cy="0" r="1" gradientUnits="userSpaceOnUse" gradientTransform="translate(32.0426 59.7067) rotate(-90) scale(3.20916 14.1069)">
<stop stop-color="#B8B8B8" stop-opacity="0.498"/>
<stop offset="1" stop-color="#7F7F7F" stop-opacity="0"/>
</radialGradient>
</defs>
</svg>
