<svg width="64" height="64" viewBox="0 0 64 64" fill="none" xmlns="http://www.w3.org/2000/svg">
<path d="M43.5216 0C40.2766 0 36.0291 2.313 31.7346 6.3245C27.4396 2.3365 23.1926 0.047 19.9481 0.047V0.0585C18.9571 0.0585 18.0601 0.2715 17.2811 0.72C13.9661 2.631 13.2231 8.5895 14.9336 16.0695C7.59513 18.3345 2.81663 21.957 2.81663 25.7795C2.81663 29.6145 7.61863 33.2475 14.9806 35.5005C13.2816 43.0045 14.0371 48.974 17.3646 50.8855C18.1311 51.3335 19.0276 51.5465 20.0186 51.5465C23.2636 51.5465 27.5111 49.2335 31.8056 45.2225C36.1006 49.21 40.3476 51.5 43.5921 51.5C44.5821 51.5 45.4791 51.2875 46.2581 50.839C49.5731 48.9275 50.3166 42.969 48.6056 35.489C55.9206 33.236 60.6991 29.6025 60.6991 25.779C60.6991 21.9455 55.8976 18.3115 48.5351 16.058C50.2341 8.5545 49.4786 2.585 46.1516 0.6735C45.3881 0.2265 44.4951 0.0145 43.5216 0.013V0ZM43.5091 2.632V2.6425C44.0516 2.6425 44.4891 2.749 44.8541 2.9495C46.4591 3.8695 47.1551 7.3745 46.6126 11.881C46.4826 12.99 46.2706 14.158 46.0106 15.3495C43.6981 14.7835 41.1731 14.347 38.5186 14.0635C36.9261 11.881 35.2736 9.8985 33.6106 8.1635C37.4506 4.596 41.0551 2.639 43.5091 2.632ZM19.9481 2.678C22.3906 2.678 26.0121 4.6245 29.8581 8.176C28.1012 10.0247 26.4732 11.9919 24.9856 14.0635C22.3191 14.347 19.7956 14.7835 17.4826 15.3615C17.222 14.2316 17.017 13.0895 16.8681 11.9395C16.3141 7.4325 16.9981 3.9295 18.5911 2.997C18.9446 2.785 19.4061 2.6905 19.9481 2.6905V2.678ZM31.7231 10.028C32.8807 11.2294 33.9755 12.4898 35.0031 13.804C33.9222 13.7526 32.8403 13.7253 31.7581 13.722C30.6486 13.722 29.5521 13.745 28.4786 13.804C29.491 12.4879 30.5739 11.2275 31.7226 10.0285L31.7231 10.028ZM31.7581 16.3645C33.5396 16.3645 35.3216 16.4475 37.0676 16.589C38.08 18.0439 39.0325 19.5397 39.9226 21.0725C40.8079 22.6015 41.6268 24.168 42.3771 25.7675C41.6264 27.3686 40.8115 28.9389 39.9346 30.4745C39.0146 32.067 38.0696 33.578 37.0911 34.982C35.3326 35.1355 33.5511 35.217 31.7581 35.217C29.9761 35.217 28.1951 35.1355 26.4491 34.994C25.4367 33.5392 24.4843 32.0436 23.5941 30.511C22.7089 28.9815 21.8899 27.4145 21.1396 25.8145C21.8857 24.2111 22.7007 22.6407 23.5821 21.1075C24.5021 19.515 25.4456 18.0045 26.4251 16.6005C28.1985 16.4447 29.9779 16.3659 31.7581 16.3645ZM22.9911 16.9775C22.4131 17.886 21.8361 18.8175 21.2931 19.7735C20.7592 20.7051 20.2477 21.6493 19.7591 22.6055C19.1398 21.0682 18.5964 19.5013 18.1311 17.9105C19.6761 17.5445 21.3041 17.2255 22.9911 16.9775ZM40.5011 16.9775C42.1761 17.2255 43.7921 17.5325 45.3381 17.9105C44.9011 19.4325 44.3581 21.0005 43.7451 22.5705C43.2571 21.6118 42.7416 20.6675 42.1991 19.7385C41.6566 18.7945 41.0791 17.8745 40.5011 16.9775ZM47.8861 18.6065C49.0097 18.9553 50.1163 19.3567 51.2021 19.8095C55.3786 21.591 58.0801 23.927 58.0801 25.7795C58.0681 27.632 55.3661 29.9795 51.1896 31.7495C50.1746 32.1855 49.0666 32.5755 47.9221 32.941C47.2496 30.629 46.3641 28.221 45.2671 25.756C46.3521 23.302 47.2251 20.9075 47.8856 18.606L47.8861 18.6065ZM15.5821 18.6185C16.2546 20.9305 17.1401 23.337 18.2371 25.803C17.1521 28.257 16.2786 30.6525 15.6181 32.953C14.498 32.6057 13.3955 32.2039 12.3146 31.749C8.13813 29.9675 5.43563 27.632 5.43563 25.779C5.43563 23.927 8.13813 21.579 12.3146 19.809C13.3296 19.373 14.4376 18.984 15.5821 18.6185ZM31.7461 20.388C28.7686 20.388 26.3546 22.8015 26.3546 25.7795C26.3546 28.7575 28.7686 31.171 31.7461 31.171C34.7241 31.171 37.1376 28.7575 37.1376 25.7795C37.1376 22.8015 34.7241 20.388 31.7461 20.388ZM43.7451 28.9415C44.3645 30.4788 44.9078 32.0457 45.3731 33.6365C43.7687 34.027 42.147 34.3424 40.5131 34.5815C41.1023 33.6635 41.6685 32.7308 42.2111 31.7845C42.7452 30.8493 43.2567 29.9014 43.7451 28.9415ZM19.7591 28.9885C20.247 29.9471 20.7624 30.8915 21.3046 31.8205C21.8522 32.7521 22.419 33.6723 23.0046 34.5805C21.3296 34.333 19.7116 34.0255 18.1661 33.648C18.6026 32.126 19.1461 30.558 19.7591 28.9885ZM46.0341 36.185C46.3056 37.377 46.5176 38.5215 46.6476 39.619C47.2016 44.1255 46.5176 47.629 44.9251 48.561C44.5711 48.7735 44.1116 48.869 43.5686 48.869C41.1261 48.869 37.5036 46.922 33.6571 43.3705C35.415 41.5223 37.0434 39.5552 38.5306 37.483C41.1966 37.2 43.7221 36.763 46.0341 36.185ZM17.5061 36.2085C19.8186 36.775 22.3426 37.2115 24.9971 37.4945C26.5896 39.6775 28.2421 41.6595 29.9056 43.3945C26.0591 46.9695 22.4491 48.9275 19.9956 48.9275C19.4646 48.9155 19.0161 48.8095 18.6621 48.609C17.0576 47.689 16.3621 44.1845 16.9046 39.6775C17.0346 38.5685 17.2461 37.4005 17.5061 36.2085ZM28.5021 37.7545C29.5641 37.8015 30.6491 37.8365 31.7461 37.8365C32.8551 37.8365 33.9526 37.8135 35.0261 37.7545C34.0134 39.0705 32.9301 40.3307 31.7811 41.5295C30.6841 40.397 29.5876 39.1345 28.5021 37.7545ZM49.6971 56.2135C49.5098 56.2138 49.3676 56.2678 49.2706 56.3755C49.1773 56.4835 49.1305 56.6153 49.1301 56.771C49.1301 56.927 49.1768 57.057 49.2701 57.161C49.3675 57.2647 49.51 57.3167 49.6976 57.317C49.9791 57.3175 50.0271 57.2645 50.1241 57.161C50.2217 57.055 50.2737 56.915 50.2691 56.771C50.2691 56.615 50.2208 56.4833 50.1241 56.376C50.0268 56.2677 49.8841 56.2135 49.6971 56.2135ZM2.66113 56.3185V63.895H3.66513V60.83H5.44513L7.09013 63.895H8.16213V63.8325L6.38213 60.617C6.8368 60.4433 7.19063 60.1812 7.44363 59.8305C7.7003 59.4805 7.82863 59.0695 7.82863 58.5975C7.82897 57.8548 7.5983 57.2893 7.13663 56.901C6.67897 56.5123 6.02313 56.318 5.16913 56.318L2.66113 56.3185ZM32.3926 56.3185V63.895H33.3976V58.0565L37.2121 63.895H38.2171V56.3185H37.2221V62.1835L33.3976 56.3185H32.3926ZM26.4551 56.901V58.2645H25.4301V59.0085H26.4551V62.5005C26.4551 62.9795 26.5641 63.349 26.7821 63.609C27.0015 63.869 27.3261 63.9992 27.7561 63.9995C27.9961 63.9995 28.2425 63.9647 28.4951 63.895V63.115C28.3008 63.1567 28.1481 63.1775 28.0371 63.1775C27.8118 63.1775 27.6523 63.1218 27.5586 63.0105C27.4653 62.8958 27.4186 62.7258 27.4186 62.5005V59.0085H28.4686V58.2645H27.4186V56.901H26.4551ZM45.9816 56.901V58.2645H44.9561V59.0085H45.9811V62.5005C45.9815 62.9795 46.0908 63.349 46.3091 63.609C46.5278 63.869 46.852 63.9992 47.2816 63.9995C47.5216 63.9995 47.7681 63.9647 48.0211 63.895V63.115C47.8265 63.1567 47.6738 63.1775 47.5631 63.1775C47.3378 63.1775 47.1783 63.1218 47.0846 63.0105C46.9913 62.8958 46.9445 62.7258 46.9441 62.5005V59.0085H47.9941V58.2645H46.9441V56.901H45.9816ZM3.66513 57.141H5.19513C5.72247 57.144 6.12497 57.2707 6.40263 57.521C6.68363 57.77 6.82413 58.1288 6.82413 58.5975C6.82413 59.0275 6.6768 59.3708 6.38213 59.6275C6.0908 59.8845 5.6968 60.0132 5.20013 60.0135H3.66513V57.141ZM11.3001 58.16C10.8521 58.16 10.4358 58.285 10.0511 58.535C9.66947 58.7813 9.37113 59.125 9.15613 59.566C8.9438 60.003 8.8378 60.5007 8.83813 61.059V61.236C8.83813 62.0753 9.07763 62.7465 9.55663 63.2495C10.0356 63.7495 10.6568 63.9995 11.4201 63.9995C12.3635 63.9995 13.0711 63.6368 13.5431 62.9115L12.9551 62.4535C12.7854 62.6752 12.575 62.8625 12.3351 63.0055C12.0991 63.1442 11.8113 63.2135 11.4716 63.2135C10.993 63.2135 10.5975 63.0435 10.2851 62.7035C9.97647 62.3602 9.81513 61.911 9.80113 61.356H13.6151V60.9545C13.6155 60.0558 13.4128 59.3655 13.0071 58.8835C12.6011 58.4012 12.0321 58.16 11.3001 58.16ZM16.9261 58.16C16.5378 58.1561 16.153 58.2345 15.7971 58.39C15.4568 58.542 15.186 58.7498 14.9846 59.0135C14.787 59.2738 14.688 59.5447 14.6876 59.826H15.6561C15.6561 59.5793 15.7725 59.3693 16.0051 59.196C16.2375 59.0227 16.5251 58.936 16.8681 58.936C17.2608 58.936 17.5578 59.0367 17.7591 59.238C17.9601 59.4353 18.0606 59.7022 18.0606 60.0385V60.481H17.1231C16.3148 60.481 15.6868 60.6442 15.2391 60.9705C14.7951 61.2935 14.5731 61.7482 14.5731 62.3345C14.5731 62.8165 14.7503 63.2153 15.1046 63.531C15.462 63.8433 15.918 63.9995 16.4726 63.9995C17.094 63.9995 17.6285 63.7672 18.0761 63.3025C18.1111 63.5868 18.1561 63.7843 18.2111 63.895H19.2211V63.812C19.0895 63.507 19.0236 63.0958 19.0236 62.5785V59.987C19.0096 59.418 18.8185 58.9723 18.4501 58.65C18.0828 58.3233 17.5748 58.16 16.9261 58.16ZM22.7851 58.16C22.2721 58.16 21.8265 58.2783 21.4481 58.515C21.0735 58.75 20.7855 59.0812 20.5841 59.5085C20.3828 59.9348 20.2821 60.4222 20.2821 60.9705V61.1315C20.2821 62.0202 20.5078 62.7213 20.9591 63.235C21.4138 63.745 22.0245 64 22.7911 64C23.1728 64 23.5335 63.913 23.8731 63.739C24.2009 63.5783 24.4836 63.3386 24.6956 63.0415C24.9006 62.7502 25.012 62.4432 25.0296 62.1205H24.1181C24.0905 62.4328 23.9483 62.693 23.6916 62.901C23.438 63.1083 23.1191 63.219 22.7916 63.2135C22.295 63.2135 21.913 63.0385 21.6456 62.6885C21.379 62.3378 21.2456 61.838 21.2456 61.189V61.0075C21.2456 60.3412 21.379 59.8328 21.6456 59.4825C21.9163 59.1285 22.2963 58.9518 22.7856 58.9525C23.15 58.9522 23.4551 59.0698 23.7011 59.3055C23.9518 59.5378 24.0908 59.8362 24.1181 60.2005H25.0296C25.0013 59.5972 24.7773 59.1063 24.3576 58.728C23.941 58.3497 23.4168 58.1603 22.7851 58.16ZM42.0311 58.16C41.6429 58.1562 41.2584 58.2345 40.9026 58.39C40.5623 58.542 40.2915 58.7498 40.0901 59.0135C39.8925 59.2738 39.7938 59.5447 39.7941 59.826H40.7616C40.7616 59.5793 40.878 59.3693 41.1106 59.196C41.343 59.0227 41.6306 58.936 41.9736 58.936C42.3663 58.936 42.6633 59.0367 42.8646 59.238C43.0656 59.4353 43.1661 59.7022 43.1661 60.0385V60.481H42.2296C41.4206 60.481 40.7923 60.6442 40.3446 60.9705C39.9006 61.2935 39.6786 61.7482 39.6786 62.3345C39.6786 62.8165 39.8558 63.2153 40.2101 63.531C40.5671 63.8433 41.0231 63.9995 41.5781 63.9995C42.1995 63.9995 42.734 63.7672 43.1816 63.3025C43.216 63.5868 43.261 63.7843 43.3166 63.895H44.3266V63.812C44.195 63.507 44.1291 63.0958 44.1291 62.5785V59.987C44.1148 59.418 43.9236 58.9723 43.5556 58.65C43.1883 58.3233 42.6805 58.16 42.0311 58.16ZM59.0236 58.16C58.5794 58.159 58.1448 58.2894 57.7746 58.535C57.3926 58.7813 57.0941 59.125 56.8791 59.566C56.6675 60.003 56.5616 60.5007 56.5616 61.059V61.236C56.5616 62.0753 56.8013 62.7465 57.2806 63.2495C57.759 63.7495 58.3796 63.9995 59.1426 63.9995C60.0866 63.9995 60.7946 63.6368 61.2666 62.9115L60.6786 62.4535C60.5089 62.6752 60.2985 62.8625 60.0586 63.0055C59.823 63.1442 59.5353 63.2135 59.1956 63.2135C58.7163 63.2135 58.3208 63.0435 58.0091 62.7035C57.7001 62.3602 57.5385 61.911 57.5241 61.356H61.3391V60.9545C61.3391 60.0558 61.1363 59.3655 60.7306 58.8835C60.325 58.4015 59.756 58.1603 59.0236 58.16ZM49.2081 58.265V63.895H50.1711V58.265H49.2081ZM51.1601 58.265L53.1991 63.895H53.9341L55.9531 58.265H54.9681L53.5741 62.5895L52.1441 58.2645L51.1601 58.265ZM11.3001 58.952C11.7021 58.952 12.0215 59.087 12.2581 59.357C12.4938 59.6243 12.6255 60.0027 12.6531 60.492V60.565H9.83213C9.89447 60.055 10.0578 59.6592 10.3221 59.3775C10.445 59.2405 10.596 59.1316 10.7648 59.0583C10.9335 58.985 11.1161 58.9484 11.3001 58.952ZM59.0236 58.952C59.426 58.952 59.745 59.087 59.9806 59.357C60.2166 59.6243 60.3483 60.0027 60.3756 60.492V60.565H57.5556C57.618 60.055 57.7811 59.6592 58.0451 59.3775C58.1681 59.2405 58.3191 59.1315 58.488 59.0582C58.6569 58.9849 58.8396 58.9483 59.0236 58.952ZM17.3056 61.1635H18.0606V62.3185C17.9393 62.5685 17.7433 62.7715 17.4726 62.9275C17.2122 63.0804 16.9157 63.1612 16.6136 63.1615C16.2976 63.1615 16.0393 63.0765 15.8386 62.9065C15.637 62.7365 15.5361 62.5007 15.5361 62.199C15.5361 61.509 16.1261 61.164 17.3061 61.164L17.3056 61.1635ZM42.4106 61.1635H43.1656V62.3185C43.0446 62.5685 42.8488 62.7715 42.5781 62.9275C42.3174 63.0806 42.0205 63.1614 41.7181 63.1615C41.4031 63.1615 41.1448 63.0765 40.9431 62.9065C40.7425 62.7365 40.642 62.5007 40.6416 62.199C40.6416 61.509 41.2316 61.164 42.4116 61.164L42.4106 61.1635Z" fill="#61DAFB"/>
</svg>
