<?xml version="1.0" encoding="iso-8859-1"?>
<!-- Generator: Adobe Illustrator 21.0.0, SVG Export Plug-In . SVG Version: 6.00 Build 0)  -->
<svg xmlns="http://www.w3.org/2000/svg" xmlns:xlink="http://www.w3.org/1999/xlink" version="1.1" id="Capa_1" x="0px" y="0px" viewBox="0 0 512 512" style="enable-background:new 0 0 512 512;" xml:space="preserve" width="512" height="512">
<g>
	<path style="fill:#CBE8F8;" d="M416.363,242.403h-3.88c-6.773-37.267-38.31-66.012-76.883-68.499   c-3.229-23.185-13.966-44.687-31.032-61.688c-20.644-20.566-47.878-31.893-76.685-31.893c-59.376,0-107.884,47.429-109.628,106.39   C52.664,188.966,0,243.028,0,309.158c0,67.558,54.961,122.52,122.519,122.52H250.01V331.395h-21.255l49.012-53.833l48.83,53.833   h-21.341v100.282h112.107c25.411,0,49.265-9.933,67.167-27.968c17.901-18.034,27.655-41.966,27.467-67.385   C511.614,284.536,468.712,242.403,416.363,242.403z"/>
	<path style="fill:#B2DCFD;" d="M416.363,242.403h-3.88c-6.773-37.267-38.31-66.012-76.883-68.499   c-3.229-23.185-13.966-44.687-31.032-61.688c-7.969-7.939-16.923-14.495-26.568-19.56v185.163l48.597,53.576h-21.341v100.282   h112.107c25.411,0,49.265-9.933,67.167-27.968c17.901-18.034,27.655-41.966,27.467-67.385   C511.614,284.536,468.712,242.403,416.363,242.403z"/>
</g>















</svg>
