<svg id="Layer_1" enable-background="new 0 0 371 363" height="512" viewBox="0 0 371 363" width="512" xmlns="http://www.w3.org/2000/svg" xmlns:xlink="http://www.w3.org/1999/xlink" xmlns:xodm="http://www.corel.com/coreldraw/odm/2003"><linearGradient id="SVGID_1_" gradientTransform="matrix(82.628 0 0 -82.628 70526.648 100929.906)" gradientUnits="userSpaceOnUse" x1="-853.544" x2="-849.054" y1="1219.3" y2="1219.3"><stop offset="0" stop-color="#d66dff"/><stop offset=".502" stop-color="#70beff"/><stop offset="1" stop-color="#52b2fe"/></linearGradient><g id="Layer_x0020_1"><path clip-rule="evenodd" d="m3.305 230.664c6.61 31.399 21.483 57.84 42.14 78.497v-27.267c-17.351-14.874-32.225-32.226-42.14-51.23zm181.782-200.787c85.933 0 155.341 57.84 155.341 128.074 0 71.06-69.408 128.9-155.341 128.9s-155.341-57.84-155.341-128.9c0-70.234 69.408-128.074 155.341-128.074zm-57.84 163.604c.826-.826 2.479-1.653 4.131-1.653h137.163c2.479 0 3.305 3.305 1.653 4.958l-27.267 27.267c-.826.826-2.479 1.653-3.305 1.653h-137.163c-2.479 0-4.131-3.305-2.479-4.958zm0-100.806c.826-.826 2.479-1.653 4.131-1.653h137.163c2.479 0 3.305 3.305 1.653 4.958l-27.267 26.441c-.826 1.653-2.479 1.653-3.305 1.653h-137.163c-2.479 0-4.131-2.479-2.479-4.131zm115.68 50.403c-.826-1.653-2.479-1.653-3.305-1.653h-137.163c-2.479 0-4.131 2.479-2.479 4.131l27.267 27.267c.826.826 2.479 1.653 4.131 1.653h137.163c2.479 0 3.305-2.479 1.653-4.958 0 .001-27.267-26.44-27.267-26.44zm-57.84-142.947c102.459 0 185.913 71.061 185.913 157.82 0 87.586-83.454 158.646-185.913 158.646s-185.087-71.06-185.087-158.646c0-86.759 82.628-157.82 185.087-157.82zm0 14.873c94.196 0 170.214 64.45 170.214 142.947 0 79.323-76.018 143.773-170.214 143.773s-170.214-64.45-170.214-143.773c0-78.497 76.018-142.947 170.214-142.947zm-124.769 307.377c4.958 4.131 9.915 7.437 14.873 10.742v-30.573c-4.958-2.479-9.915-5.784-14.873-9.089zm29.747 19.004c22.31 10.742 47.098 18.178 72.713 20.657v-32.225c-26.441-2.479-50.403-9.089-72.713-19.004zm87.585 21.484h14.873v-31.399c-2.479 0-4.958 0-7.437 0s-4.958 0-7.437 0zm30.573-.827c24.788-2.479 49.577-9.915 71.886-20.657v-30.572c-21.483 9.915-46.272 16.526-71.886 19.004zm87.585-28.92c4.958-3.305 9.915-6.61 14.873-10.742v-28.92c-4.958 3.305-9.915 6.61-14.873 9.089zm29.747-23.962c19.831-20.657 35.53-47.098 41.314-78.497-9.915 19.004-23.962 36.356-41.314 51.229z" fill="url(#SVGID_1_)" fill-rule="evenodd"/></g></svg>