<svg width="33" height="36" viewBox="0 0 33 36" fill="none" xmlns="http://www.w3.org/2000/svg">
<path d="M20.3585 16.4761L13.2904 18.784L7.14157 21.4979L5.42136 21.9519C4.98299 22.3687 4.52378 22.7908 4.02696 23.2183C3.48197 23.6884 2.97433 24.1157 2.58466 24.4255C2.1517 24.7675 1.51065 25.4086 1.18485 25.8145C0.698579 26.4233 0.314058 27.0701 0.148451 27.5669C-0.14542 28.4645 -0.00119032 29.3726 0.565176 30.2112C1.29174 31.2798 2.73945 32.3695 4.42772 33.112C5.28769 33.4914 6.7354 33.9777 7.82537 34.2499C9.63623 34.7094 13.141 35.2065 15.0693 35.2812C15.4593 35.2974 15.9829 35.2974 16.0043 35.2812C16.047 35.2544 16.3463 34.6829 16.6935 33.9723C17.8795 31.5523 18.7343 29.2817 19.1992 27.3426C19.4769 26.1673 19.6958 24.6019 19.84 22.748C19.8776 22.2298 19.8936 20.4937 19.8617 19.9059C19.8132 18.9445 19.7277 18.1643 19.5943 17.4004C19.5729 17.2881 19.5675 17.1867 19.5783 17.1813C19.5997 17.1653 19.6639 17.1442 20.5346 16.8928L20.3585 16.4761ZM18.7452 17.4218C18.809 17.4218 18.98 19.0617 19.0228 20.0981C19.0336 20.3172 19.0282 20.4615 19.0174 20.4615C18.9746 20.4615 18.1147 19.9541 17.5004 19.5696C16.966 19.2329 15.9509 18.5597 15.7908 18.4314C15.7372 18.3941 15.7426 18.3887 16.1807 18.2393C16.9232 17.9879 18.6864 17.4218 18.7452 17.4218ZM15.1443 18.6079C15.1925 18.6079 15.3153 18.6771 15.6092 18.8587C16.7094 19.5479 18.2056 20.3814 18.8466 20.6593C19.0442 20.7448 19.0656 20.7126 18.6112 21.0224C17.6392 21.6849 16.4264 22.3367 14.9413 22.9937C14.7809 23.0671 14.6188 23.1365 14.4551 23.2021C14.4445 23.2021 14.4767 23.0687 14.5192 22.9082C14.8772 21.578 15.0802 20.232 15.091 19.1526C15.0964 18.6184 15.0964 18.6184 15.1443 18.6024C15.1335 18.6079 15.1389 18.6079 15.1443 18.6079ZM14.4018 18.8909C14.4337 18.9228 14.4126 20.1194 14.3696 20.4455C14.2742 21.2331 14.1098 22.0107 13.8782 22.7694C13.8194 22.967 13.7659 23.1328 13.7553 23.1434C13.7337 23.1699 13.0019 22.4542 12.7617 22.1763C12.3449 21.6957 12.0191 21.2148 11.7786 20.7448C11.6557 20.5042 11.4636 20.0342 11.4796 20.0182C11.5651 19.9592 14.3804 18.8695 14.4018 18.8909ZM10.9078 20.2639C10.9132 20.2639 10.9186 20.2639 10.924 20.2693C10.9346 20.2799 10.9719 20.3654 11.0041 20.4615C11.1749 20.9264 11.5597 21.6102 11.8909 22.0483C12.254 22.5291 12.7297 23.0419 13.1248 23.3783C13.2531 23.4852 13.3705 23.5866 13.3865 23.6029C13.4189 23.6348 13.4295 23.6294 12.5584 23.9606C11.5491 24.3454 10.4483 24.7299 9.18757 25.1361C8.88639 25.2332 8.58548 25.3312 8.28485 25.43C8.23669 25.4459 8.25265 25.4191 8.39174 25.1999C9.01683 24.2225 9.96744 22.3045 10.5019 20.9477C10.5928 20.7123 10.6835 20.4774 10.6994 20.4241C10.7211 20.3492 10.7476 20.3227 10.8171 20.285C10.8545 20.2745 10.8918 20.2639 10.9078 20.2639ZM9.83945 20.7072C9.85568 20.718 9.58292 21.2895 9.31584 21.8131C8.79764 22.8227 8.23127 23.8166 7.47278 25.0238C7.34452 25.2321 7.22166 25.4245 7.2057 25.4459C7.17891 25.4833 7.16836 25.4727 7.08285 25.3071C6.90127 24.9491 6.75163 24.4896 6.67153 24.0678C6.59117 23.651 6.6074 22.9242 6.69805 22.4755C6.7676 22.1443 6.76219 22.1497 6.92265 22.0696C7.60619 21.7222 9.8178 20.6858 9.83945 20.7072ZM19.055 21.0811V21.3057C19.055 22.4969 18.9267 24.1316 18.7398 25.3231C18.7076 25.5314 18.6808 25.7022 18.6756 25.7076C18.6756 25.7076 18.5206 25.6651 18.339 25.6115C17.4877 25.341 16.6646 24.9885 15.8814 24.5589C15.3632 24.2761 14.6101 23.8112 14.6312 23.7899C14.6366 23.7844 14.8612 23.667 15.1229 23.5279C16.1701 22.9832 17.1743 22.3954 18.0454 21.8131C18.3709 21.5939 18.8626 21.2416 18.9695 21.1453L19.055 21.0811ZM5.80589 22.6625C5.82726 22.6625 5.82212 22.7053 5.78965 22.8977C5.76295 23.0874 5.74345 23.278 5.7312 23.4692C5.68844 24.2491 5.81671 24.8262 6.20123 25.6167C6.30812 25.8359 6.39363 26.0174 6.38822 26.0226C6.35087 26.055 2.8144 27.0914 1.70305 27.3959C1.37183 27.4865 1.08337 27.5669 1.06173 27.572C1.02465 27.5829 1.01924 27.5774 1.03521 27.4865C1.15806 26.7012 1.75636 25.6757 2.5898 24.8103C3.14535 24.2331 3.58886 23.8965 4.34735 23.4638C4.89234 23.1539 5.7312 22.6893 5.79506 22.6679C5.79506 22.6625 5.80047 22.6625 5.80589 22.6625ZM14.1401 24.153C14.1455 24.1476 14.2735 24.2171 14.4283 24.308C15.5716 24.9705 17.1638 25.5847 18.5206 25.9L18.6434 25.9268L18.4724 26.0228C17.7621 26.4179 15.4273 27.3905 13.0396 28.2826C12.6921 28.4109 12.3503 28.5392 12.2859 28.5657C12.2221 28.5925 12.1631 28.6084 12.1631 28.6033C12.1631 28.5979 12.2594 28.4109 12.3823 28.1811C13.0501 26.931 13.7231 25.4086 14.0651 24.3508C14.1079 24.2491 14.1344 24.1584 14.1401 24.153ZM13.2904 24.4309C13.2958 24.4363 13.2531 24.5483 13.1998 24.6766C12.7349 25.8039 12.1257 27.0327 11.3461 28.4109C11.1483 28.7635 10.9827 29.0468 10.9773 29.0468C10.9719 29.0468 10.8117 28.9505 10.6193 28.833C9.48659 28.1384 8.48239 27.2836 7.82537 26.4555L7.72904 26.3381L8.21531 26.2044C9.95689 25.729 11.4365 25.2162 12.9059 24.586C13.1143 24.5004 13.2853 24.4309 13.2904 24.4309ZM18.5687 26.2737C18.5741 26.3968 18.3017 27.4973 18.0773 28.2932C17.8903 28.961 17.7299 29.4846 17.436 30.4087C17.308 30.8149 17.1957 31.1515 17.1903 31.1515C17.1849 31.1515 17.153 31.1461 17.121 31.1353C15.5342 30.8468 14.1133 30.4463 12.7779 29.9122C12.4037 29.7625 11.8695 29.522 11.8373 29.4955C11.8267 29.4846 12.1474 29.335 12.5533 29.1588C14.9841 28.0954 17.5055 26.8882 18.3712 26.37C18.4724 26.3059 18.5525 26.2737 18.5687 26.2737ZM6.38281 26.6907C6.39363 26.7015 5.71523 27.6789 4.76408 29.0092C4.43286 29.4741 4.04834 30.0188 3.90411 30.222C3.73721 30.4573 3.57508 30.6959 3.41784 30.9377L3.19324 31.2849L2.95295 31.082C2.6699 30.8468 2.17849 30.3449 1.95958 30.0672C1.5001 29.4955 1.19026 28.8917 1.06741 28.3416C1.00842 28.0851 1.00842 27.9568 1.062 27.9409C1.14209 27.9192 2.56843 27.5829 3.90411 27.273C4.54217 27.1261 5.17962 26.9766 5.81644 26.8244C6.12655 26.7494 6.37766 26.6907 6.38281 26.6907ZM7.06661 26.9524L7.23763 27.1448C8.00695 28.005 8.79223 28.6406 9.74339 29.1962C9.91414 29.2925 10.0424 29.3777 10.0316 29.3832C9.99423 29.4102 6.73026 30.5692 5.21814 31.0928C4.70119 31.2759 4.18307 31.4557 3.66382 31.6321C3.6584 31.6321 3.61024 31.6002 3.55666 31.5628L3.46059 31.4933L3.61565 31.269C4.11761 30.5424 4.74811 29.7466 6.12141 28.0902L7.06661 26.9524ZM11.3299 30.0028C11.3353 29.9974 11.5702 30.0829 11.8587 30.1898C12.5533 30.4518 13.1034 30.6174 13.8408 30.8041C14.7489 31.0341 16.0633 31.2584 16.838 31.3225C16.9554 31.3331 17.0193 31.3439 16.9982 31.3599C16.9606 31.3813 16.1755 31.6429 15.5984 31.8248C14.6794 32.113 11.8749 32.9413 9.58833 33.5983C9.1662 33.7211 8.80305 33.8229 8.78167 33.828C8.72837 33.8389 8.55166 33.7904 8.55166 33.7693C8.55166 33.7585 8.6802 33.5929 8.83498 33.4113C9.6043 32.4923 10.3682 31.4668 11.0041 30.4942C11.1803 30.2272 11.3299 30.0082 11.3299 30.0028ZM10.3896 30.0299C10.395 30.035 10.0156 30.6441 9.35318 31.6911C9.07013 32.1343 8.75488 32.6366 8.64259 32.813C8.5357 32.9838 8.3755 33.2511 8.28485 33.4005L8.1298 33.673L8.0497 33.6516C7.85757 33.5983 6.50566 33.1228 6.14792 32.9786C5.72343 32.8096 5.30796 32.6187 4.90316 32.4068C4.47562 32.1771 3.94145 31.8353 3.98421 31.8245C3.99503 31.8191 4.72673 31.6216 5.60808 31.3813C7.94823 30.7454 9.24629 30.3768 10.0957 30.1097C10.2508 30.0615 10.3842 30.0245 10.3896 30.0299ZM17.0409 31.5896H17.0463C17.0674 31.6429 16.2021 34.0469 15.8868 34.8057C15.8175 34.9765 15.7908 35.0195 15.7534 35.0141C15.6625 35.0087 14.4072 34.8322 13.643 34.7202C12.313 34.5172 10.0797 34.127 9.51906 33.999L9.39079 33.972L10.1864 33.7907C11.8963 33.4059 12.7189 33.1975 13.5524 32.941C14.6285 32.6117 15.68 32.2065 16.6989 31.7284C16.8645 31.6535 17.0033 31.5948 17.0409 31.5896Z" fill="url(#paint0_linear_796_716)"/>
<path d="M13.071 0.000274521C12.9535 -0.0156909 11.0569 0.668116 9.83353 1.16494C8.18287 1.83819 6.90076 2.47924 6.11007 3.03478C5.8162 3.24314 5.44737 3.6117 5.38892 3.75593C5.36721 3.81409 5.35621 3.8757 5.35645 3.93777L6.07273 4.61617L7.7767 5.16116L11.8316 5.88772L16.4686 6.68355L16.5168 6.28306C16.5006 6.28306 16.49 6.27765 16.4741 6.27765L15.8652 6.18132L15.7421 5.9624C15.1116 4.85132 14.4172 3.47288 14.0113 2.54337C13.6961 1.82222 13.3971 0.988777 13.2312 0.39048C13.1405 0.0270643 13.1297 0.00568637 13.0713 0.000544972L13.071 0.000274521ZM12.9855 0.272768H12.9909C12.9963 0.27818 13.0177 0.427821 13.0391 0.603982C13.1297 1.35219 13.2953 2.07334 13.5573 2.85321C13.7548 3.44095 13.7548 3.40875 13.5251 3.33921C12.9803 3.18984 10.5387 2.7677 8.77061 2.522C8.48729 2.48465 8.247 2.44731 8.247 2.4419C8.22535 2.42052 9.52369 1.74213 10.0952 1.47504C10.8272 1.13842 12.8358 0.299557 12.9852 0.272768H12.9855ZM7.83541 2.66622L8.04378 2.7355C9.17651 3.12029 12.0238 3.66528 13.5946 3.79354C13.7708 3.80951 13.9204 3.82548 13.9255 3.82548C13.931 3.83089 13.7816 3.91099 13.5892 4.00191C12.8307 4.38102 11.9972 4.84591 11.4201 5.20391C11.2493 5.31053 11.0943 5.39604 11.0729 5.39604C11.0515 5.39604 10.9395 5.37466 10.822 5.3587L10.6083 5.32676L10.0741 4.80315C9.42433 4.17049 8.77073 3.54179 8.11332 2.91707L7.83541 2.66622ZM7.62164 2.83183L8.37499 3.77217C8.7863 4.29037 9.20303 4.79774 9.29395 4.91004C9.38487 5.02207 9.45956 5.11299 9.45442 5.1184C9.43277 5.13437 8.36444 4.92601 7.79834 4.79774C7.21574 4.66434 6.97545 4.6002 6.61744 4.4879L6.32357 4.39184V4.31688C6.32899 3.95888 6.78305 3.42472 7.55237 2.88L7.62164 2.83183ZM14.0219 4.11393C14.0435 4.11393 14.07 4.1621 14.1342 4.30606C14.3155 4.70682 14.8821 5.78624 15.0209 5.99461C15.0637 6.06388 15.1384 6.06929 14.385 5.94644C12.5742 5.65257 11.9918 5.5565 11.9918 5.54595C11.9918 5.54054 12.0451 5.50293 12.1147 5.46558C12.6756 5.15575 13.242 4.7604 13.7442 4.33826C13.8671 4.23679 13.9791 4.14072 14.0005 4.12449C14.0059 4.11393 14.0165 4.10852 14.0219 4.11393Z" fill="url(#paint1_linear_796_716)"/>
<path d="M5.42665 3.68115C5.42665 3.68115 5.30921 3.86841 5.42124 4.14631C5.49105 4.31706 5.694 4.52543 5.92347 4.7392C5.92347 4.7392 8.30096 7.0577 8.58942 7.38891C9.90346 8.90617 10.4752 10.402 10.5285 12.4643C10.5607 13.7891 10.3094 14.9538 9.68454 16.3055C8.57346 18.7308 6.22817 21.4073 2.61133 24.3775L3.14035 24.2016C3.48212 23.9448 3.94674 23.6725 5.03672 23.074C7.55302 21.6958 10.3843 20.4297 13.8569 19.1259C18.8573 17.2455 27.0793 15.0445 31.759 14.3287L32.245 14.2538L32.1703 14.1363C31.7428 13.4739 31.4492 13.0626 31.0963 12.6245C30.0707 11.3529 28.826 10.3219 27.3036 9.46712C25.2091 8.29732 22.5004 7.3835 19.0708 6.70511C18.4246 6.57684 17.0035 6.33114 15.8496 6.15498C13.9236 5.85866 12.0003 5.54521 10.0799 5.21464C9.4548 5.10776 8.51988 4.94756 7.9002 4.81416C7.57954 4.74461 6.96528 4.60038 6.48443 4.43477C6.0999 4.28513 5.54436 4.13522 5.42665 3.68115ZM6.80509 5.01711C6.8105 5.01169 6.89574 5.04362 7.00804 5.08124C7.21099 5.15051 7.47293 5.23061 7.78276 5.31612C8.01725 5.38061 8.25232 5.44295 8.48795 5.5031C8.80861 5.5832 9.07569 5.65816 9.08083 5.65816C9.11845 5.6955 9.65802 7.42084 9.83959 8.08327C9.90887 8.33466 9.96245 8.54816 9.95704 8.54816C9.95162 8.55358 9.8929 8.46266 9.82363 8.3398C9.19854 7.23927 8.21004 6.12278 7.06676 5.2252C6.91738 5.11858 6.80509 5.02252 6.80509 5.01711ZM9.43342 5.74367C9.46048 5.74367 9.57793 5.75963 9.72188 5.79156C10.6303 5.99451 12.2596 6.30462 13.3014 6.48078C13.4775 6.50757 13.6166 6.5395 13.6166 6.55033C13.6166 6.56115 13.5525 6.59822 13.4721 6.64098C13.2962 6.7319 12.5854 7.15376 12.3505 7.31423C11.7573 7.7093 11.2232 8.13685 10.8387 8.52165C10.7433 8.61689 10.647 8.71124 10.5499 8.80469C10.5499 8.80469 10.518 8.71377 10.4912 8.60174C10.2991 7.85895 9.89831 6.75842 9.5349 5.98396C9.47618 5.86111 9.42801 5.74881 9.42801 5.73825C9.42801 5.74908 9.42801 5.74367 9.43342 5.74367ZM14.0599 6.62501C14.0921 6.63583 14.1454 6.81714 14.252 7.21789C14.4526 8.01738 14.539 8.84122 14.5088 9.66493C14.498 9.88926 14.4871 10.0976 14.4766 10.1244L14.4604 10.1777L14.1827 10.0868C13.6112 9.90549 12.6817 9.63273 11.8856 9.4084C11.4315 9.28555 11.063 9.17325 11.063 9.1627C11.063 9.1305 11.7254 8.46807 12.0085 8.21695C12.548 7.74151 14.0117 6.60904 14.0599 6.62501ZM14.4284 6.67832C14.4447 6.66235 16.6403 7.04173 17.6394 7.23413C18.3819 7.37836 19.461 7.60269 19.5252 7.62921C19.5571 7.64003 19.4451 7.70416 19.0868 7.86463C17.6767 8.50027 16.6298 9.0715 15.5879 9.7664C15.3155 9.94771 15.0857 10.0976 15.0803 10.0976C15.0749 10.0976 15.0695 9.94257 15.0695 9.75558C15.0695 8.74083 14.8665 7.71499 14.4926 6.84934C14.4552 6.76383 14.423 6.68373 14.4284 6.67832ZM20.1075 7.8005C20.1237 7.81646 20.0539 8.24915 19.9898 8.50541C19.7977 9.30151 19.2795 10.4824 18.6438 11.5935C18.5315 11.791 18.4301 11.9512 18.4192 11.9566C18.4084 11.9621 18.2645 11.882 18.0988 11.7856C17.4792 11.4225 16.774 11.0804 16.0044 10.76C15.7909 10.6691 15.6039 10.5944 15.5985 10.5836C15.5612 10.5517 17.2814 9.41381 18.1895 8.86882C18.9106 8.43072 20.0861 7.77885 20.1075 7.8005ZM20.5134 7.86436C20.5616 7.86436 21.5338 8.13171 22.0412 8.28108C23.2968 8.65505 24.7391 9.18407 25.6794 9.61135L26.0691 9.78778L25.7969 9.85191C23.4998 10.3807 21.5338 10.9898 19.6372 11.7591C19.4824 11.8232 19.3433 11.8765 19.3328 11.8765C19.322 11.8765 19.3755 11.7537 19.4451 11.604C20.0166 10.3915 20.3851 9.12535 20.4761 8.04593C20.4815 7.94445 20.4974 7.86436 20.5134 7.86436ZM10.8332 10.0868C10.8492 10.0708 11.5917 10.2473 11.9925 10.3593C12.6013 10.5303 13.8943 10.9627 13.8943 10.9952C13.8943 11.0006 13.75 11.1232 13.5793 11.2728C12.8792 11.8552 12.2063 12.4694 11.3993 13.2496C11.159 13.4793 10.9561 13.6663 10.9455 13.6663C10.935 13.6663 10.9293 13.6341 10.9347 13.5913C11.0576 12.6938 11.031 11.5402 10.86 10.3701C10.8438 10.2205 10.8281 10.0922 10.8332 10.0868ZM26.4382 10.103C26.4488 10.1136 26.0962 10.6691 25.8718 10.9844C25.5512 11.4439 25.0811 12.053 24.018 13.3884C23.5496 13.9764 23.0831 14.5658 22.6184 15.1568C22.4046 15.4238 22.2282 15.6482 22.2228 15.6482C22.2174 15.6482 22.1484 15.5521 22.0734 15.4344C21.4751 14.5371 20.7591 13.7518 19.9097 13.0466C19.7802 12.9371 19.6485 12.8301 19.5146 12.726C19.4556 12.6832 19.4075 12.6404 19.4075 12.635C19.4075 12.6191 20.3156 12.2291 21.0048 11.9512C22.2122 11.4598 23.8575 10.8721 25.0917 10.4927C25.7384 10.2897 26.4274 10.0922 26.4382 10.103ZM26.8495 10.2096C26.8706 10.2042 26.9989 10.2686 27.1539 10.3593C28.4523 11.1018 29.7236 12.0581 30.728 13.0409C31.0111 13.3191 31.7108 14.0457 31.7003 14.0508C31.7003 14.0508 31.4543 14.0725 31.1661 14.0936C28.9169 14.2646 26.0374 14.74 23.27 15.4076C23.1494 15.4365 23.0284 15.4633 22.9069 15.488C22.896 15.488 23.1044 15.2796 23.3663 15.0285C24.9905 13.4631 25.733 12.4748 26.6089 10.7119C26.7318 10.4502 26.839 10.2259 26.8495 10.2096C26.8441 10.2096 26.8441 10.2096 26.8495 10.2096ZM14.952 11.4279C15.027 11.4439 15.7214 11.7697 16.245 12.0313C16.7258 12.2719 17.447 12.6564 17.4843 12.6886C17.4897 12.694 17.2332 12.8274 16.9182 12.9825C15.9765 13.4508 15.055 13.9587 14.1562 14.5049C13.8997 14.6599 13.6859 14.7882 13.6808 14.7882C13.6591 14.7882 13.6645 14.7666 13.8088 14.5049C14.2896 13.6289 14.6744 12.5817 14.8933 11.5613C14.9147 11.4812 14.9361 11.4279 14.952 11.4279ZM14.2577 11.5559C14.2736 11.5721 14.0921 12.2291 13.9798 12.5869C13.7606 13.2655 13.392 14.1149 13.0343 14.756C12.9488 14.9056 12.8205 15.1246 12.751 15.2474L12.6176 15.4612L12.3183 15.1727C11.9711 14.8361 11.6878 14.6277 11.3246 14.4407C11.1804 14.3661 11.0684 14.3019 11.0684 14.2914C11.0684 14.2486 11.9819 13.4206 12.6817 12.822C13.1837 12.3893 14.2417 11.5399 14.2577 11.5559ZM18.5047 13.3029L18.7667 13.4739C19.3647 13.8638 20.0699 14.382 20.6095 14.8361C20.9142 15.0872 21.5016 15.6162 21.6194 15.7442L21.6832 15.8138L21.2508 15.9366C18.804 16.615 16.9128 17.2187 14.7063 18.0311C14.4606 18.1217 14.2523 18.1964 14.2363 18.1964C14.2041 18.1964 14.1773 18.2232 14.7277 17.7156C16.1381 16.4175 17.3883 14.9857 18.3178 13.5916L18.5047 13.3029ZM17.3883 13.5808C17.3991 13.5916 16.6671 14.6226 16.229 15.2047C15.7054 15.8993 14.7759 17.0637 14.1346 17.8224C13.8677 18.1377 13.638 18.3994 13.6272 18.4048C13.6109 18.4102 13.6058 18.3301 13.6058 18.2072C13.6058 17.5605 13.4402 16.8715 13.1517 16.2838C13.0289 16.0381 13.0075 15.9794 13.0343 15.9526C13.1358 15.8619 14.6904 14.9749 15.6732 14.4462C16.3359 14.0936 17.372 13.57 17.3883 13.5808ZM10.6354 15.2369C10.6517 15.2369 10.7745 15.301 10.9133 15.3757C11.2385 15.5528 11.5462 15.7603 11.8323 15.9953C11.8428 16.0062 11.704 16.1185 11.5225 16.2519C10.9379 16.6738 10.3625 17.1084 9.79684 17.5554C9.32654 17.9293 9.31084 17.9401 9.36388 17.8601C9.71674 17.3205 9.8929 17.0158 10.0799 16.6261C10.2518 16.2632 10.4017 15.8903 10.5288 15.5093C10.5713 15.3543 10.6249 15.2369 10.6354 15.2369ZM12.436 16.6472C12.4625 16.6418 12.4947 16.69 12.639 16.9038C12.9434 17.3575 13.1785 17.9667 13.2372 18.4583L13.2481 18.5652L12.5161 18.8483C11.2072 19.3557 9.99979 19.8579 9.18231 20.2319C8.95284 20.3387 8.55181 20.5311 8.29041 20.6594C8.02847 20.7928 7.81469 20.8943 7.81469 20.8891C7.81469 20.884 7.9803 20.7609 8.18352 20.6112C9.78088 19.452 11.1645 18.1804 12.2008 16.9089C12.3131 16.7755 12.4146 16.6526 12.4254 16.6472H12.436ZM11.608 16.8502C11.6293 16.8718 11.0202 17.5608 10.6035 17.9826C9.57251 19.0353 8.55208 19.8579 7.28594 20.6594C7.12575 20.7609 6.98152 20.8515 6.96528 20.8624C6.92794 20.8837 6.97611 20.8302 7.53165 20.2264C7.8574 19.8767 8.16581 19.5113 8.45575 19.1313C8.6587 18.8697 8.69631 18.8323 8.99018 18.624C9.77546 18.0576 11.5866 16.8288 11.608 16.8502Z" fill="url(#paint2_radial_796_716)"/>
<defs>
<linearGradient id="paint0_linear_796_716" x1="5.32072" y1="31.8032" x2="7.87548" y2="30.2936" gradientUnits="userSpaceOnUse">
<stop stop-color="#909CA9"/>
<stop offset="1" stop-color="#EDEDEE"/>
</linearGradient>
<linearGradient id="paint1_linear_796_716" x1="5.37871" y1="3.34372" x2="7.43434" y2="3.34372" gradientUnits="userSpaceOnUse">
<stop stop-color="#939FAB"/>
<stop offset="1" stop-color="#DCDEE1"/>
</linearGradient>
<radialGradient id="paint2_radial_796_716" cx="0" cy="0" r="1" gradientTransform="matrix(-2.62231 -0.393711 -0.797142 5.24462 15.7547 12.7682)" gradientUnits="userSpaceOnUse">
<stop stop-color="#EE352C"/>
<stop offset="1" stop-color="#A91D22"/>
</radialGradient>
</defs>
</svg>
