<svg width="64" height="64" viewBox="0 0 64 64" fill="none" xmlns="http://www.w3.org/2000/svg">
<g clip-path="url(#clip0_208_1379)">
<path d="M43.3907 22.604L36.3226 24.912L30.1738 27.6258L28.4536 28.0799C28.0152 28.4966 27.556 28.9187 27.0592 29.3463C26.5142 29.8163 26.0066 30.2436 25.6169 30.5534C25.1839 30.8955 24.5429 31.5365 24.2171 31.9424C23.7308 32.5513 23.3463 33.198 23.1807 33.6948C22.8868 34.5924 23.031 35.5005 23.5974 36.3391C24.324 37.4077 25.7717 38.4974 27.4599 39.24C28.3199 39.6193 29.7676 40.1056 30.8576 40.3778C32.6685 40.8373 36.1733 41.3344 38.1016 41.4091C38.4915 41.4253 39.0151 41.4253 39.0365 41.4091C39.0792 41.3823 39.3785 40.8108 39.7257 40.1002C40.9117 37.6802 41.7666 35.4096 42.2315 33.4705C42.5091 32.2953 42.728 30.7299 42.8722 28.876C42.9099 28.3578 42.9258 26.6216 42.8939 26.0339C42.8455 25.0724 42.7599 24.2923 42.6265 23.5284C42.6052 23.4161 42.5997 23.3146 42.6106 23.3092C42.6319 23.2932 42.6961 23.2721 43.5669 23.0207L43.3907 22.604ZM41.7774 23.5498C41.8413 23.5498 42.0123 25.1896 42.055 26.226C42.0659 26.4452 42.0604 26.5894 42.0496 26.5894C42.0069 26.5894 41.1469 26.082 40.5326 25.6975C39.9982 25.3609 38.9832 24.6876 38.823 24.5594C38.7694 24.522 38.7748 24.5166 39.2129 24.3672C39.9554 24.1158 41.7187 23.5498 41.7774 23.5498ZM38.1765 24.7358C38.2247 24.7358 38.3475 24.8051 38.6414 24.9866C39.7417 25.6759 41.2378 26.5093 41.8789 26.7872C42.0764 26.8727 42.0978 26.8405 41.6434 27.1504C40.6714 27.8128 39.4586 28.4647 37.9736 29.1217C37.8132 29.195 37.651 29.2645 37.4873 29.33C37.4767 29.33 37.5089 29.1966 37.5514 29.0362C37.9094 27.7059 38.1124 26.3599 38.1232 25.2805C38.1286 24.7463 38.1286 24.7463 38.1765 24.7304C38.1657 24.7358 38.1711 24.7358 38.1765 24.7358ZM37.434 25.0188C37.4659 25.0508 37.4448 26.2474 37.4018 26.5734C37.3064 27.361 37.142 28.1386 36.9104 28.8973C36.8517 29.0949 36.7981 29.2608 36.7875 29.2713C36.7659 29.2978 36.0342 28.5821 35.7939 28.3042C35.3772 27.8236 35.0514 27.3428 34.8108 26.8727C34.6879 26.6322 34.4958 26.1621 34.5118 26.1462C34.5973 26.0872 37.4126 24.9975 37.434 25.0188ZM33.94 26.3919C33.9454 26.3919 33.9508 26.3919 33.9562 26.3973C33.9668 26.4078 34.0041 26.4933 34.0363 26.5894C34.2071 27.0543 34.5919 27.7381 34.9231 28.1762C35.2862 28.6571 35.762 29.1698 36.157 29.5062C36.2853 29.6131 36.4027 29.7146 36.4187 29.7308C36.4512 29.7627 36.4617 29.7573 35.5907 30.0885C34.5813 30.4733 33.4805 30.8578 32.2198 31.264C31.9186 31.3611 31.6177 31.4591 31.3171 31.5579C31.2689 31.5739 31.2849 31.5471 31.424 31.3279C32.0491 30.3505 32.9997 28.4325 33.5341 27.0757C33.625 26.8402 33.7157 26.6054 33.7316 26.5521C33.7533 26.4771 33.7798 26.4506 33.8494 26.413C33.8867 26.4024 33.924 26.3919 33.94 26.3919ZM32.8717 26.8351C32.8879 26.8459 32.6151 27.4174 32.3481 27.941C31.8299 28.9507 31.2635 29.9446 30.505 31.1517C30.3767 31.3601 30.2539 31.5525 30.2379 31.5739C30.2111 31.6112 30.2006 31.6006 30.1151 31.435C29.9335 31.077 29.7839 30.6176 29.7038 30.1957C29.6234 29.779 29.6396 29.0521 29.7303 28.6035C29.7998 28.2723 29.7944 28.2777 29.9549 28.1976C30.6384 27.8501 32.85 26.8137 32.8717 26.8351ZM42.0872 27.2091V27.4337C42.0872 28.6249 41.959 30.2595 41.772 31.451C41.7398 31.6594 41.713 31.8301 41.7078 31.8355C41.7078 31.8355 41.5528 31.793 41.3712 31.7395C40.5199 31.4689 39.6968 31.1164 38.9136 30.6868C38.3954 30.404 37.6424 29.9392 37.6635 29.9178C37.6689 29.9124 37.8935 29.7949 38.1551 29.6558C39.2024 29.1111 40.2066 28.5234 41.0776 27.941C41.4032 27.7219 41.8948 27.3695 42.0017 27.2732L42.0872 27.2091ZM28.8381 28.7905C28.8595 28.7905 28.8543 28.8332 28.8219 29.0256C28.7952 29.2153 28.7757 29.4059 28.7634 29.5971C28.7207 30.377 28.8489 30.9542 29.2335 31.7446C29.3403 31.9638 29.4259 32.1454 29.4204 32.1505C29.3831 32.183 25.8466 33.2194 24.7353 33.5238C24.4041 33.6144 24.1156 33.6948 24.094 33.7C24.0569 33.7108 24.0515 33.7054 24.0674 33.6144C24.1903 32.8292 24.7886 31.8036 25.622 30.9382C26.1776 30.361 26.6211 30.0244 27.3796 29.5917C27.9246 29.2819 28.7634 28.8173 28.8273 28.7959C28.8273 28.7905 28.8327 28.7905 28.8381 28.7905ZM37.1723 30.2809C37.1777 30.2755 37.3057 30.3451 37.4605 30.436C38.6038 31.0984 40.196 31.7127 41.5528 32.0279L41.6756 32.0547L41.5046 32.1508C40.7943 32.5458 38.4596 33.5184 36.0718 34.4106C35.7243 34.5388 35.3826 34.6671 35.3182 34.6936C35.2543 34.7204 35.1953 34.7364 35.1953 34.7312C35.1953 34.7258 35.2917 34.5388 35.4145 34.3091C36.0823 33.0589 36.7553 31.5365 37.0974 30.4787C37.1401 30.377 37.1666 30.2863 37.1723 30.2809ZM36.3226 30.5588C36.3281 30.5642 36.2853 30.6763 36.232 30.8045C35.7671 31.9319 35.158 33.1607 34.3784 34.5388C34.1806 34.8914 34.015 35.1747 34.0095 35.1747C34.0041 35.1747 33.8439 35.0784 33.6515 34.961C32.5188 34.2663 31.5146 33.4115 30.8576 32.5835L30.7613 32.466L31.2475 32.3323C32.9891 31.8569 34.4688 31.3441 35.9381 30.7139C36.1465 30.6284 36.3175 30.5588 36.3226 30.5588ZM41.601 32.4016C41.6064 32.5247 41.3339 33.6253 41.1096 34.4211C40.9226 35.0889 40.7621 35.6126 40.4682 36.5367C40.3402 36.9428 40.2279 37.2795 40.2225 37.2795C40.2171 37.2795 40.1852 37.274 40.1532 37.2632C38.5665 36.9748 37.1455 36.5743 35.8101 36.0401C35.4359 35.8905 34.9017 35.6499 34.8695 35.6234C34.859 35.6126 35.1796 35.4629 35.5855 35.2868C38.0163 34.2233 40.5378 33.0162 41.4034 32.498C41.5046 32.4338 41.5847 32.4016 41.601 32.4016ZM29.415 32.8186C29.4259 32.8294 28.7475 33.8068 27.7963 35.1371C27.4651 35.602 27.0806 36.1467 26.9363 36.3499C26.7694 36.5852 26.6073 36.8238 26.4501 37.0657L26.2255 37.4129L25.9852 37.2099C25.7021 36.9748 25.2107 36.4728 24.9918 36.1952C24.5323 35.6234 24.2225 35.0197 24.0996 34.4695C24.0406 34.213 24.0406 34.0848 24.0942 34.0688C24.1743 34.0471 25.6007 33.7108 26.9363 33.4009C27.5744 33.254 28.2118 33.1045 28.8487 32.9523C29.1588 32.8773 29.4099 32.8186 29.415 32.8186ZM30.0988 33.0803L30.2699 33.2727C31.0392 34.1329 31.8245 34.7686 32.7756 35.3241C32.9464 35.4204 33.0746 35.5057 33.0638 35.5111C33.0265 35.5381 29.7625 36.6971 28.2504 37.2207C27.7334 37.4038 27.2153 37.5836 26.696 37.76C26.6906 37.76 26.6425 37.7281 26.5889 37.6908L26.4928 37.6212L26.6479 37.3969C27.1498 36.6703 27.7803 35.8745 29.1536 34.2182L30.0988 33.0803ZM34.3621 36.1308C34.3676 36.1253 34.6024 36.2109 34.8909 36.3177C35.5855 36.5797 36.1357 36.7453 36.873 36.932C37.7812 37.162 39.0955 37.3863 39.8702 37.4505C39.9876 37.461 40.0515 37.4719 40.0304 37.4878C39.9928 37.5092 39.2078 37.7709 38.6306 37.9527C37.7116 38.2409 34.9071 39.0692 32.6206 39.7262C32.1984 39.8491 31.8353 39.9508 31.8139 39.956C31.7606 39.9668 31.5839 39.9183 31.5839 39.8972C31.5839 39.8864 31.7124 39.7208 31.8672 39.5392C32.6365 38.6203 33.4004 37.5947 34.0363 36.6222C34.2125 36.3551 34.3621 36.1362 34.3621 36.1308ZM33.4218 36.1578C33.4272 36.163 33.0478 36.7721 32.3854 37.819C32.1024 38.2623 31.7871 38.7645 31.6748 38.9409C31.5679 39.1117 31.4077 39.379 31.3171 39.5284L31.162 39.8009L31.0819 39.7795C30.8898 39.7262 29.5379 39.2508 29.1802 39.1065C28.7557 38.9375 28.3402 38.7467 27.9354 38.5348C27.5078 38.305 26.9737 37.9633 27.0164 37.9524C27.0273 37.947 27.759 37.7495 28.6403 37.5092C30.9805 36.8733 32.2785 36.5047 33.1279 36.2376C33.283 36.1895 33.4164 36.1524 33.4218 36.1578ZM40.0732 37.7176H40.0786C40.0997 37.7709 39.2343 40.1749 38.919 40.9336C38.8498 41.1044 38.823 41.1474 38.7856 41.142C38.6947 41.1366 37.4394 40.9602 36.6752 40.8481C35.3452 40.6452 33.112 40.255 32.5513 40.127L32.423 40.0999L33.2186 39.9186C34.9285 39.5338 35.7511 39.3255 36.5846 39.0689C37.6608 38.7396 38.7122 38.3344 39.7311 37.8564C39.8967 37.7814 40.0355 37.7227 40.0732 37.7176Z" fill="url(#paint0_linear_208_1379)"/>
<path d="M36.1032 6.1282C35.9858 6.11224 34.0891 6.79605 32.8658 7.29287C31.2151 7.96612 29.933 8.60717 29.1423 9.16271C28.8484 9.37107 28.4796 9.73963 28.4211 9.88386C28.3994 9.94202 28.3884 10.0036 28.3887 10.0657L29.105 10.7441L30.8089 11.2891L34.8639 12.0156L39.5009 12.8115L39.549 12.411C39.5328 12.411 39.5222 12.4056 39.5063 12.4056L38.8974 12.3092L38.7743 12.0903C38.1438 10.9792 37.4494 9.60081 37.0435 8.6713C36.7283 7.95015 36.4293 7.11671 36.2634 6.51841C36.1728 6.15499 36.1619 6.13362 36.1035 6.12847L36.1032 6.1282ZM36.0177 6.4007H36.0231C36.0285 6.40611 36.0499 6.55575 36.0713 6.73191C36.1619 7.48012 36.3275 8.20127 36.5895 8.98114C36.787 9.56888 36.787 9.53668 36.5573 9.46714C36.0126 9.31777 33.5709 8.89563 31.8028 8.64993C31.5195 8.61258 31.2792 8.57524 31.2792 8.56983C31.2576 8.54845 32.5559 7.87006 33.1274 7.60297C33.8594 7.26635 35.8681 6.42749 36.0174 6.4007H36.0177ZM30.8676 8.79415L31.076 8.86343C32.2087 9.24822 35.056 9.79321 36.6268 9.92147C36.803 9.93744 36.9526 9.95341 36.9578 9.95341C36.9632 9.95882 36.8138 10.0389 36.6214 10.1298C35.8629 10.5089 35.0295 10.9738 34.4523 11.3318C34.2815 11.4385 34.1265 11.524 34.1051 11.524C34.0837 11.524 33.9717 11.5026 33.8543 11.4866L33.6405 11.4547L33.1063 10.9311C32.4566 10.2984 31.803 9.66972 31.1455 9.045L30.8676 8.79415ZM30.6539 8.95976L31.4072 9.9001C31.8185 10.4183 32.2353 10.9257 32.3262 11.038C32.4171 11.15 32.4918 11.2409 32.4866 11.2463C32.465 11.2623 31.3967 11.0539 30.8306 10.9257C30.248 10.7923 30.0077 10.7281 29.6497 10.6158L29.3558 10.5198V10.4448C29.3612 10.0868 29.8153 9.55265 30.5846 9.00793L30.6539 8.95976ZM37.0541 10.2419C37.0757 10.2419 37.1023 10.29 37.1664 10.434C37.3477 10.8347 37.9143 11.9142 38.0532 12.1225C38.0959 12.1918 38.1706 12.1972 37.4172 12.0744C35.6064 11.7805 35.0241 11.6844 35.0241 11.6739C35.0241 11.6685 35.0774 11.6309 35.1469 11.5935C35.7079 11.2837 36.2742 10.8883 36.7765 10.4662C36.8993 10.3647 37.0113 10.2687 37.0327 10.2524C37.0381 10.2419 37.0487 10.2365 37.0541 10.2419Z" fill="url(#paint1_linear_208_1379)"/>
<path d="M28.4589 9.80908C28.4589 9.80908 28.3414 9.99634 28.4535 10.2742C28.5233 10.445 28.7262 10.6534 28.9557 10.8671C28.9557 10.8671 31.3332 13.1856 31.6217 13.5168C32.9357 15.0341 33.5075 16.53 33.5608 18.5922C33.593 19.9171 33.3416 21.0817 32.7168 22.4334C31.6057 24.8588 29.2604 27.5353 25.6436 30.5054L26.1726 30.3295C26.5143 30.0727 26.979 29.8005 28.0689 29.2019C30.5853 27.8237 33.4165 26.5576 36.8892 25.2538C41.8896 23.3734 50.1115 21.1724 54.7912 20.4567L55.2772 20.3817L55.2025 20.2643C54.775 19.6018 54.4814 19.1905 54.1285 18.7524C53.103 17.4809 51.8582 16.4499 50.3358 15.5951C48.2414 14.4252 45.5327 13.5114 42.1031 12.833C41.4569 12.7048 40.0357 12.4591 38.8818 12.2829C36.9559 11.9866 35.0325 11.6731 33.1121 11.3426C32.487 11.2357 31.5521 11.0755 30.9324 10.9421C30.6118 10.8725 29.9975 10.7283 29.5167 10.5627C29.1321 10.4131 28.5766 10.2631 28.4589 9.80908ZM29.8373 11.145C29.8427 11.1396 29.928 11.1716 30.0403 11.2092C30.2432 11.2784 30.5052 11.3585 30.815 11.444C31.0495 11.5085 31.2845 11.5709 31.5202 11.631C31.8408 11.7111 32.1079 11.7861 32.1131 11.7861C32.1507 11.8234 32.6902 13.5488 32.8718 14.2112C32.9411 14.4626 32.9947 14.6761 32.9893 14.6761C32.9839 14.6815 32.9251 14.5906 32.8559 14.4677C32.2308 13.3672 31.2423 12.2507 30.099 11.3531C29.9496 11.2465 29.8373 11.1504 29.8373 11.145ZM32.4657 11.8716C32.4927 11.8716 32.6102 11.8876 32.7541 11.9195C33.6625 12.1224 35.2918 12.4325 36.3336 12.6087C36.5098 12.6355 36.6489 12.6674 36.6489 12.6783C36.6489 12.6891 36.5847 12.7262 36.5044 12.7689C36.3285 12.8598 35.6176 13.2817 35.3827 13.4422C34.7896 13.8372 34.2554 14.2648 33.8709 14.6496C33.7755 14.7448 33.6793 14.8392 33.5821 14.9326C33.5821 14.9326 33.5502 14.8417 33.5234 14.7297C33.3313 13.9869 32.9305 12.8863 32.5671 12.1119C32.5084 11.989 32.4602 11.8767 32.4602 11.8662C32.4602 11.877 32.4602 11.8716 32.4657 11.8716ZM37.0921 12.7529C37.1243 12.7638 37.1776 12.9451 37.2842 13.3458C37.4848 14.1453 37.5712 14.9692 37.541 15.7929C37.5302 16.0172 37.5194 16.2256 37.5088 16.2523L37.4926 16.3056L37.215 16.2147C36.6434 16.0334 35.7139 15.7607 34.9178 15.5363C34.4638 15.4135 34.0952 15.3012 34.0952 15.2906C34.0952 15.2584 34.7576 14.596 35.0407 14.3449C35.5803 13.8694 37.0439 12.737 37.0921 12.7529ZM37.4607 12.8062C37.4769 12.7903 39.6725 13.1697 40.6716 13.3621C41.4141 13.5063 42.4933 13.7306 42.5574 13.7571C42.5893 13.768 42.4773 13.8321 42.119 13.9926C40.7089 14.6282 39.662 15.1994 38.6202 15.8943C38.3477 16.0756 38.1179 16.2255 38.1125 16.2255C38.1071 16.2255 38.1017 16.0705 38.1017 15.8835C38.1017 14.8688 37.8988 13.8429 37.5248 12.9773C37.4874 12.8918 37.4552 12.8117 37.4607 12.8062ZM43.1397 13.9284C43.156 13.9444 43.0862 14.3771 43.022 14.6333C42.8299 15.4294 42.3117 16.6103 41.6761 17.7214C41.5638 17.919 41.4623 18.0792 41.4515 18.0846C41.4406 18.09 41.2967 18.0099 41.1311 17.9136C40.5114 17.5504 39.8062 17.2084 39.0366 16.888C38.8231 16.7971 38.6361 16.7224 38.6307 16.7115C38.5934 16.6796 40.3136 15.5417 41.2217 14.9968C41.9429 14.5587 43.1184 13.9068 43.1397 13.9284ZM43.5456 13.9923C43.5938 13.9923 44.5661 14.2596 45.0734 14.409C46.329 14.783 47.7713 15.312 48.7117 15.7393L49.1013 15.9157L48.8291 15.9798C46.532 16.5086 44.5661 17.1177 42.6694 17.887C42.5147 17.9512 42.3756 18.0045 42.365 18.0045C42.3542 18.0045 42.4078 17.8816 42.4773 17.732C43.0488 16.5194 43.4174 15.2533 43.5083 14.1739C43.5137 14.0724 43.5297 13.9923 43.5456 13.9923ZM33.8655 16.2147C33.8814 16.1988 34.624 16.3752 35.0247 16.4872C35.6336 16.6582 36.9265 17.0907 36.9265 17.1231C36.9265 17.1285 36.7823 17.2511 36.6115 17.4008C35.9115 17.9831 35.2385 18.5974 34.4316 19.3775C34.1913 19.6072 33.9883 19.7942 33.9778 19.7942C33.9672 19.7942 33.9615 19.762 33.9669 19.7193C34.0898 18.8217 34.0633 17.6681 33.8923 16.498C33.876 16.3484 33.8603 16.2201 33.8655 16.2147ZM49.4704 16.231C49.481 16.2415 49.1284 16.7971 48.9041 17.1123C48.5834 17.5718 48.1134 18.1809 47.0502 19.5163C46.5818 20.1043 46.1153 20.6938 45.6506 21.2847C45.4369 21.5518 45.2604 21.7761 45.255 21.7761C45.2496 21.7761 45.1806 21.68 45.1056 21.5623C44.5074 20.665 43.7913 19.8797 42.9419 19.1745C42.8124 19.065 42.6807 18.9581 42.5469 18.8539C42.4879 18.8111 42.4397 18.7684 42.4397 18.763C42.4397 18.747 43.3478 18.3571 44.037 18.0792C45.2445 17.5878 46.8897 17 48.1239 16.6206C48.7707 16.4177 49.4596 16.2201 49.4704 16.231ZM49.8817 16.3376C49.9028 16.3322 50.0311 16.3966 50.1862 16.4872C51.4845 17.2297 52.7558 18.186 53.7602 19.1689C54.0433 19.447 54.7431 20.1736 54.7325 20.1787C54.7325 20.1787 54.4865 20.2004 54.1983 20.2215C51.9491 20.3925 49.0697 20.868 46.3022 21.5355C46.1817 21.5644 46.0606 21.5912 45.9391 21.6159C45.9283 21.6159 46.1366 21.4075 46.3986 21.1564C48.0227 19.591 48.7652 18.6028 49.6412 16.8398C49.764 16.5781 49.8712 16.3538 49.8817 16.3376C49.8763 16.3376 49.8763 16.3376 49.8817 16.3376ZM37.9843 17.5558C38.0592 17.5718 38.7536 17.8976 39.2772 18.1593C39.7581 18.3998 40.4792 18.7843 40.5165 18.8165C40.522 18.822 40.2654 18.9554 39.9504 19.1104C39.0087 19.5788 38.0873 20.0867 37.1884 20.6328C36.9319 20.7879 36.7181 20.9161 36.713 20.9161C36.6913 20.9161 36.6968 20.8945 36.841 20.6328C37.3218 19.7569 37.7066 18.7097 37.9255 17.6892C37.9469 17.6091 37.9683 17.5558 37.9843 17.5558ZM37.2899 17.6838C37.3059 17.7 37.1243 18.3571 37.012 18.7148C36.7928 19.3935 36.4243 20.2429 36.0665 20.8839C35.981 21.0336 35.8528 21.2525 35.7832 21.3753L35.6498 21.5891L35.3505 21.3007C35.0033 20.964 34.72 20.7557 34.3569 20.5687C34.2126 20.494 34.1006 20.4299 34.1006 20.4193C34.1006 20.3766 35.0142 19.5485 35.7139 18.9499C36.2159 18.5173 37.2739 17.6678 37.2899 17.6838ZM41.537 19.4308L41.7989 19.6018C42.3969 19.9918 43.1021 20.51 43.6417 20.964C43.9464 21.2151 44.5339 21.7442 44.6516 21.8722L44.7154 21.9417L44.283 22.0646C41.8363 22.743 39.945 23.3467 37.7386 24.159C37.4929 24.2497 37.2845 24.3243 37.2685 24.3243C37.2363 24.3243 37.2095 24.3511 37.7599 23.8435C39.1703 22.5454 40.4205 21.1137 41.35 19.7195L41.537 19.4308ZM40.4205 19.7087C40.4313 19.7195 39.6993 20.7505 39.2612 21.3326C38.7376 22.0272 37.8081 23.1916 37.1668 23.9504C36.9 24.2656 36.6702 24.5273 36.6594 24.5327C36.6432 24.5381 36.638 24.458 36.638 24.3352C36.638 23.6884 36.4724 22.9995 36.184 22.4117C36.0611 22.166 36.0397 22.1073 36.0665 22.0805C36.168 21.9899 37.7226 21.1028 38.7054 20.5741C39.3681 20.2215 40.4042 19.6979 40.4205 19.7087ZM33.6677 21.3648C33.6839 21.3648 33.8067 21.4289 33.9456 21.5036C34.2707 21.6807 34.5784 21.8882 34.8645 22.1233C34.8751 22.1341 34.7363 22.2464 34.5547 22.3798C33.9701 22.8018 33.3948 23.2363 32.8291 23.6833C32.3588 24.0573 32.3431 24.0681 32.3961 23.988C32.749 23.4484 32.9251 23.1437 33.1121 22.754C33.284 22.3911 33.4339 22.0182 33.561 21.6373C33.6035 21.4822 33.6571 21.3648 33.6677 21.3648ZM35.4682 22.7752C35.4947 22.7697 35.5269 22.8179 35.6712 23.0317C35.9756 23.4855 36.2108 24.0946 36.2695 24.5863L36.2803 24.6932L35.5483 24.9762C34.2394 25.4836 33.032 25.9858 32.2145 26.3598C31.9851 26.4667 31.584 26.6591 31.3226 26.7873C31.0607 26.9207 30.8469 27.0222 30.8469 27.0171C30.8469 27.0119 31.0125 26.8888 31.2158 26.7392C32.8131 25.5799 34.1967 24.3084 35.2331 23.0368C35.3454 22.9034 35.4469 22.7806 35.4577 22.7752H35.4682ZM34.6402 22.9781C34.6616 22.9997 34.0525 23.6887 33.6357 24.1106C32.6047 25.1632 31.5843 25.9858 30.3182 26.7873C30.158 26.8888 30.0137 26.9795 29.9975 26.9903C29.9602 27.0117 30.0083 26.9581 30.5639 26.3544C30.8896 26.0047 31.198 25.6392 31.488 25.2593C31.6909 24.9976 31.7285 24.9602 32.0224 24.7519C32.8077 24.1855 34.6188 22.9567 34.6402 22.9781Z" fill="url(#paint2_radial_208_1379)"/>
<path d="M11.506 45.099C11.407 45.099 11.3085 45.1085 11.211 45.1085C9.22054 45.2145 7.87804 46.0905 7.09304 47.8015C6.42154 49.3485 6.49504 51.3705 7.10054 52.9275C7.80454 54.4485 8.94254 55.2515 10.842 55.5545C11.2435 55.6205 11.513 55.841 12.292 56.7495L13.2495 57.872H14.9865L13.8315 56.707C13.193 56.069 12.6765 55.513 12.6765 55.464C12.6765 55.4155 12.9205 55.3085 13.2165 55.2185C14.191 54.9235 15 54.1705 15.5665 53.0165C16.0245 52.09 16.0905 51.8035 16.1565 50.6505C16.328 47.219 14.5185 45.0735 11.5055 45.098L11.506 45.099ZM13.0285 54.073C12.1835 54.482 10.9565 54.564 10.1555 54.27C9.32755 53.966 8.52555 53.106 8.16504 52.1325C7.76454 51.0675 7.82154 49.1035 8.28004 48.219C9.01654 46.8105 9.99154 46.163 11.415 46.163C13.528 46.163 14.73 47.4565 14.8865 49.888C15.0105 51.918 14.331 53.441 13.0295 54.0725L13.0285 54.073ZM43.0335 48.0305C42.305 48.0305 41.7475 48.3255 41.3715 48.9065L41.0765 49.3665V48.17H39.816V55.343H41.076V53.05C41.076 50.9535 41.1025 50.7085 41.3955 50.135C41.799 49.348 42.494 48.956 43.1655 49.1435L43.6155 49.275V48.032H43.034L43.0335 48.0305ZM35.6255 47.9645C35.3664 47.9671 35.1083 47.9972 34.8555 48.0545C33.1685 48.496 32.2175 50.111 32.2755 51.7725C32.2755 53.164 32.5465 53.86 33.2175 54.5895C34.593 55.718 35.8375 55.808 37.516 55.2025C37.802 55.0805 38.114 54.9395 38.114 54.9395V53.811L37.516 54.121C36.1575 54.7125 35.134 54.7125 34.314 54.016C33.7915 53.4835 33.561 52.845 33.4555 52.116H38.5395V51.1495C38.5395 49.1775 37.3525 47.9325 35.6245 47.9645H35.6255ZM33.5695 51.1095C33.5695 51.1095 33.7575 49.8795 34.4545 49.3975C34.7749 49.1697 35.158 49.0469 35.551 49.046C35.9285 49.046 36.3045 49.168 36.6155 49.406C37.254 49.897 37.3605 51.101 37.3605 51.101H33.57L33.5695 51.1095ZM3.17105 49.8165C1.80405 48.988 1.19755 48.391 1.27205 47.6865C1.48405 45.7385 3.89105 46.008 5.22455 46.745L5.23405 45.4345C5.23405 45.4345 4.49705 45.115 3.44055 45.098C1.82005 45.074 0.772045 45.605 0.281545 46.6865C-0.439955 48.283 0.198545 49.4865 2.50655 50.8295C3.80205 51.583 4.37454 52.2375 4.37454 52.951C4.37454 54.425 2.59755 54.94 0.764045 54.015C0.387045 53.827 0.0675451 53.67 0.0500451 53.67C-0.0159549 54.088 0.0180451 55.088 0.0180451 55.088C0.0180451 55.088 0.581545 55.3245 1.42655 55.488C3.52154 55.9055 5.42905 54.9225 5.60905 53.3265C5.76605 51.828 5.22404 51.0415 3.17105 49.815V49.8165ZM54.1935 47.948C53.9313 47.9515 53.6701 47.9819 53.414 48.0385C51.729 48.48 50.7795 50.095 50.844 51.757C50.844 53.1465 51.114 53.8355 51.785 54.564C53.1605 55.694 54.405 55.784 56.0915 55.178C56.291 55.0925 56.4898 55.0057 56.688 54.9175V53.787L56.091 54.0985C54.7295 54.6885 53.706 54.6885 52.889 53.9915C52.3635 53.46 52.1355 52.829 52.029 52.092H57.105V51.125C57.105 49.163 55.918 47.9165 54.1905 47.95L54.1935 47.948ZM52.137 51.093C52.137 51.093 52.327 49.865 53.0225 49.373C53.3426 49.1452 53.7253 49.0223 54.118 49.021C54.494 49.021 54.872 49.143 55.183 49.381C55.8215 49.8725 55.9285 51.0845 55.9285 51.0845H52.1385L52.137 51.093ZM29.025 49.832C27.658 49.006 27.053 48.407 27.1265 47.702C27.3385 45.7535 29.746 46.024 31.079 46.7605L31.089 45.4505C31.089 45.4505 30.3515 45.1305 29.2955 45.1155C27.6745 45.0915 26.627 45.623 26.1355 46.7045C25.415 48.3005 26.062 49.5045 28.362 50.847C29.656 51.6 30.2285 52.246 30.2285 52.9595C30.2285 54.4335 28.452 54.9565 26.6185 54.023C26.243 53.8355 25.9235 53.6805 25.905 53.6805C25.8395 54.098 25.873 55.0985 25.873 55.0985C25.873 55.0985 26.43 55.3265 27.272 55.4985C29.3695 55.917 31.277 54.9345 31.457 53.3385C31.6125 51.8475 31.072 51.062 29.025 49.8335V49.832ZM61.6015 48.0135C60.873 48.0135 60.309 48.3085 59.9395 48.8905L59.6445 49.3485V48.1545H58.384V55.3255H59.644V53.033C59.644 50.937 59.669 50.691 59.963 50.118C60.367 49.3325 61.062 48.9395 61.733 49.1285L62.184 49.2595V48.0135H61.6015ZM18.9975 49.791V45.222H17.7265V55.3415H23.0725V54.1465H18.9975V49.791ZM48.396 51.215L47.3485 53.9415L46.3405 51.1995L45.3175 48.1615H44.016C44.8698 50.57 45.765 52.9637 46.701 55.3415C47.1025 55.3505 47.504 55.3415 47.905 55.3415L49.32 51.7885L50.761 48.1625H49.5175C49.5175 48.1625 48.9675 49.6025 48.395 51.2155L48.396 51.215ZM21.9275 42.4645C22.132 42.4645 22.303 42.399 22.4435 42.258C22.5121 42.1927 22.5663 42.114 22.6029 42.0267C22.6395 41.9395 22.6576 41.8456 22.656 41.751C22.656 41.546 22.583 41.3755 22.4435 41.244C22.3765 41.1789 22.2971 41.1279 22.21 41.094C22.1229 41.06 22.03 41.0439 21.9365 41.0465C21.73 41.0465 21.5595 41.1125 21.4205 41.2515C21.2795 41.3905 21.2155 41.5615 21.2155 41.7585C21.2155 41.965 21.2815 42.136 21.4205 42.2655C21.552 42.397 21.7225 42.4625 21.9275 42.4625V42.4645ZM21.4765 41.3C21.5985 41.1785 21.747 41.1215 21.9365 41.1215C22.115 41.1215 22.2635 41.1785 22.3875 41.3C22.5095 41.4225 22.5755 41.571 22.5755 41.751C22.5768 41.8361 22.5607 41.9205 22.5284 41.9992C22.4961 42.0779 22.4482 42.1493 22.3875 42.209C22.2635 42.331 22.115 42.389 21.9365 42.389C21.7555 42.389 21.608 42.333 21.4865 42.209C21.4259 42.1493 21.378 42.0779 21.3457 41.9992C21.3134 41.9205 21.2973 41.8361 21.2985 41.751C21.2985 41.571 21.354 41.4225 21.4765 41.3ZM21.7795 41.817H21.8625C21.921 41.817 21.978 41.873 22.027 41.98L22.1255 42.2015H22.2805L22.1585 41.9555C22.1085 41.857 22.06 41.8 22.0025 41.784C22.075 41.767 22.1325 41.7425 22.1735 41.694C22.1934 41.6716 22.2086 41.6455 22.2182 41.6171C22.2278 41.5888 22.2317 41.5588 22.2295 41.529C22.2316 41.4965 22.226 41.4641 22.2133 41.4341C22.2007 41.4042 22.1812 41.3776 22.1565 41.3565C22.1 41.3095 22.01 41.2845 21.8935 41.2845H21.633V42.2015H21.764V41.8165L21.7795 41.817ZM21.7795 41.3905H21.8945C21.977 41.3905 22.035 41.4075 22.0675 41.432C22.098 41.456 22.107 41.488 22.107 41.546C22.107 41.6525 22.041 41.702 21.919 41.702H21.7785V41.3905H21.7795ZM0.781045 41.7355C0.781045 41.4155 0.771545 41.178 0.764045 41.0385H0.771545C0.804045 41.2035 0.845045 41.3265 0.878045 41.4085L2.09805 44.135H2.30305L3.52305 41.384C3.55655 41.309 3.58905 41.196 3.62954 41.039H3.63905C3.61788 41.2711 3.60687 41.504 3.60605 41.737V44.143H4.02404V40.566H3.50005L2.37805 43.055C2.33671 43.1533 2.27938 43.3003 2.20605 43.496H2.18904C2.14553 43.3506 2.09104 43.2087 2.02605 43.0715L0.929045 40.558H0.372545V44.1355H0.774045V41.737L0.781045 41.7355ZM4.93904 41.7415H5.30005V43.9695H4.93904V41.7415ZM5.11954 40.9245C5.1543 40.9257 5.18892 40.9197 5.2212 40.9068C5.25349 40.8939 5.28273 40.8743 5.30704 40.8495C5.33287 40.8255 5.35354 40.7965 5.36781 40.7643C5.38208 40.732 5.38964 40.6972 5.39004 40.662C5.39154 40.6265 5.38498 40.5912 5.37086 40.5586C5.35675 40.5261 5.33544 40.4971 5.30854 40.474C5.28341 40.4495 5.25368 40.4303 5.22106 40.4174C5.18845 40.4046 5.1536 40.3983 5.11855 40.399C5.08379 40.3978 5.04917 40.4038 5.01688 40.4167C4.9846 40.4296 4.95536 40.4491 4.93105 40.474C4.90548 40.4983 4.88502 40.5274 4.87085 40.5597C4.85668 40.592 4.8491 40.6267 4.84854 40.662C4.84854 40.7435 4.87355 40.8005 4.93105 40.8495C4.98149 40.8978 5.0487 40.9247 5.11855 40.9245H5.11954ZM7.87054 44.0185V43.626C7.67304 43.7735 7.46055 43.8465 7.24104 43.8465C6.97855 43.8465 6.76504 43.7565 6.60954 43.584C6.45454 43.413 6.37154 43.1755 6.37154 42.8795C6.37154 42.5695 6.45455 42.3235 6.62555 42.136C6.78988 41.956 7.00271 41.8658 7.26404 41.8655C7.47704 41.8655 7.68154 41.9315 7.87054 42.063V41.645C7.69854 41.555 7.50254 41.5135 7.28054 41.5135C6.87154 41.5135 6.55204 41.645 6.31354 41.8985C6.07704 42.152 5.95504 42.4965 5.95504 42.9125C5.95504 43.2825 6.06104 43.5935 6.28204 43.831C6.51204 44.075 6.80604 44.199 7.16604 44.199C7.44504 44.191 7.67304 44.133 7.87054 44.0185ZM8.90205 42.8305C8.90205 42.537 8.96805 42.2995 9.09004 42.1355C9.20438 41.9885 9.34354 41.9148 9.50754 41.9145C9.64654 41.9145 9.74555 41.9395 9.81754 41.997V41.5705C9.76155 41.546 9.67954 41.538 9.57354 41.538C9.42604 41.538 9.29504 41.588 9.17904 41.679C9.05704 41.7755 8.95955 41.923 8.90205 42.1105H8.89254V41.5875H8.48454V44.1415H8.89355V42.831L8.90205 42.8305ZM11.252 44.192C11.637 44.192 11.947 44.068 12.177 43.822C12.406 43.5773 12.5205 43.25 12.5205 42.84C12.5205 42.4225 12.4155 42.103 12.2015 41.8655C11.989 41.628 11.6945 41.513 11.3095 41.513C10.9245 41.513 10.6145 41.628 10.3845 41.8495C10.1385 42.0935 10.009 42.4385 10.009 42.8805C10.009 43.2655 10.114 43.5845 10.336 43.822C10.565 44.068 10.868 44.191 11.2525 44.191L11.252 44.192ZM10.67 42.1115C10.826 41.9472 11.0307 41.8652 11.284 41.8655C11.547 41.8655 11.744 41.947 11.8905 42.1115C12.038 42.2835 12.1115 42.528 12.1115 42.8565C12.1115 43.1675 12.0455 43.413 11.9065 43.577C11.768 43.749 11.563 43.84 11.2925 43.84C11.03 43.84 10.826 43.749 10.67 43.577C10.515 43.4045 10.441 43.1675 10.441 42.856C10.425 42.546 10.507 42.293 10.67 42.1115ZM14.313 43.9695C14.469 43.8305 14.5515 43.6595 14.5515 43.4455C14.5533 43.3591 14.5376 43.2732 14.5053 43.193C14.473 43.1128 14.4248 43.04 14.3635 42.979C14.264 42.8805 14.1105 42.791 13.8875 42.701C13.6905 42.6185 13.5685 42.5455 13.5025 42.488C13.4675 42.454 13.44 42.413 13.4217 42.3677C13.4035 42.3224 13.3949 42.2738 13.3965 42.225C13.3965 42.119 13.438 42.0375 13.519 41.9715C13.6015 41.906 13.7065 41.874 13.8475 41.874C14.0675 41.874 14.257 41.932 14.429 42.0555V41.6455C14.2582 41.5621 14.0701 41.5204 13.88 41.524C13.6175 41.524 13.3955 41.5965 13.2325 41.736C13.1516 41.7986 13.0865 41.8793 13.0424 41.9716C12.9983 42.0639 12.9764 42.1652 12.9785 42.2675C12.9785 42.455 13.035 42.611 13.142 42.7255C13.232 42.823 13.386 42.923 13.6005 43.012C13.8055 43.102 13.944 43.1835 14.018 43.2495C14.0524 43.28 14.0798 43.3176 14.0981 43.3597C14.1164 43.4019 14.1252 43.4475 14.124 43.4935C14.124 43.732 13.9605 43.855 13.6415 43.855C13.3959 43.8553 13.1745 43.774 12.9775 43.611V44.052C13.156 44.1595 13.37 44.208 13.607 44.208C13.91 44.192 14.1475 44.118 14.311 43.9705L14.313 43.9695ZM16.262 41.5135C15.877 41.5135 15.567 41.628 15.337 41.8495C15.093 42.094 14.962 42.4385 14.962 42.8805C14.962 43.2655 15.068 43.5845 15.2885 43.822C15.5185 44.068 15.821 44.1915 16.206 44.1915C16.6 44.1915 16.9005 44.0675 17.1305 43.8215C17.3605 43.5765 17.4755 43.249 17.4755 42.839C17.4755 42.4215 17.368 42.1025 17.1555 41.8645C16.9345 41.627 16.6395 41.5125 16.264 41.5125L16.262 41.5135ZM17.0565 42.856C17.0565 43.1675 16.9905 43.413 16.8515 43.577C16.7125 43.749 16.508 43.84 16.2375 43.84C15.9745 43.84 15.771 43.749 15.615 43.577C15.46 43.4045 15.386 43.1675 15.386 42.856C15.386 42.5275 15.4675 42.274 15.632 42.103C15.787 41.9393 15.9917 41.8573 16.246 41.857C16.4995 41.857 16.7035 41.9395 16.851 42.103C16.982 42.283 17.0565 42.5285 17.0565 42.856ZM18.1625 44.134H18.571V41.923H19.169V41.579H18.571V41.185C18.571 40.826 18.7095 40.646 18.997 40.646C19.0935 40.646 19.1925 40.6705 19.2655 40.7115V40.343C19.1925 40.31 19.0935 40.3025 18.9705 40.3025C18.7505 40.3025 18.5705 40.3685 18.4225 40.5075C18.2505 40.6705 18.1595 40.8825 18.1595 41.17V41.5885H17.7275V41.9325H18.1595V44.135L18.1625 44.134ZM19.8405 43.437C19.8405 43.937 20.0605 44.191 20.5115 44.191C20.675 44.191 20.798 44.165 20.8965 44.106V43.756C20.8203 43.8116 20.7279 43.8406 20.6335 43.8385C20.4945 43.8385 20.397 43.8055 20.34 43.7315C20.2815 43.658 20.2485 43.5345 20.2485 43.3635V41.922H20.8965V41.5785H20.2485V40.8255C20.108 40.874 19.97 40.9155 19.839 40.9565V41.578H19.398V41.922H19.839V43.4365L19.8405 43.437ZM63.7805 48.145C63.7135 48.08 63.634 48.0291 63.547 47.9952C63.4599 47.9614 63.3669 47.9453 63.2735 47.948C63.067 47.948 62.896 48.014 62.757 48.1545C62.618 48.2925 62.552 48.4645 62.552 48.6615C62.552 48.8665 62.618 49.0365 62.756 49.1685C62.8944 49.2998 63.0665 49.3655 63.2725 49.3655C63.476 49.3655 63.6475 49.3 63.789 49.1605C63.927 49.0205 64 48.858 64 48.654C63.9925 48.4475 63.9185 48.2765 63.7795 48.1455L63.7805 48.145ZM63.715 49.112C63.6561 49.1711 63.5857 49.2175 63.5081 49.2483C63.4305 49.279 63.3475 49.2936 63.264 49.291C63.0855 49.291 62.9375 49.234 62.8135 49.112C62.7529 49.0519 62.705 48.9802 62.6727 48.9011C62.6404 48.8221 62.6243 48.7374 62.6255 48.652C62.6255 48.4735 62.682 48.3255 62.8055 48.2015C62.9275 48.0795 63.0755 48.023 63.264 48.023C63.4425 48.023 63.591 48.0795 63.715 48.2015C63.8365 48.3255 63.9025 48.4735 63.9025 48.6515C63.9025 48.842 63.846 48.988 63.715 49.112ZM63.347 48.6945C63.4115 48.6812 63.471 48.65 63.5185 48.6045C63.5583 48.559 63.5786 48.4998 63.575 48.4395C63.5754 48.3655 63.551 48.3082 63.502 48.2675C63.4455 48.2205 63.3545 48.195 63.239 48.195H62.9775V49.111H63.109V48.726H63.191C63.247 48.726 63.3035 48.7825 63.3545 48.8895L63.452 49.1105H63.608L63.486 48.864C63.4435 48.757 63.3945 48.708 63.345 48.692L63.347 48.6945ZM63.2565 48.612H63.1155V48.302H63.231C63.313 48.302 63.37 48.317 63.403 48.342C63.436 48.367 63.443 48.3985 63.443 48.457C63.443 48.563 63.378 48.612 63.2555 48.612H63.2565ZM40.4145 41.4735H40.5285V40.556H40.832V40.441H40.111V40.556H40.4145V41.4735ZM41.109 40.7835C41.109 40.695 41.109 40.622 41.1025 40.5805C41.11 40.629 41.127 40.662 41.1345 40.6865L41.4865 41.4735H41.5425L41.896 40.6785C41.9055 40.6545 41.913 40.6225 41.9285 40.5805C41.921 40.662 41.921 40.7275 41.921 40.7775V41.4725H42.043V40.441H41.896L41.5765 41.153C41.569 41.178 41.5435 41.228 41.528 41.2845H41.518C41.512 41.2515 41.495 41.2185 41.4715 41.1625L41.152 40.4415H40.987V41.474H41.102V40.785L41.109 40.7835Z" fill="#231F1F"/>
</g>
<defs>
<linearGradient id="paint0_linear_208_1379" x1="28.3529" y1="37.9311" x2="30.9077" y2="36.4216" gradientUnits="userSpaceOnUse">
<stop stop-color="#909CA9"/>
<stop offset="1" stop-color="#EDEDEE"/>
</linearGradient>
<linearGradient id="paint1_linear_208_1379" x1="28.4109" y1="9.47165" x2="30.4666" y2="9.47165" gradientUnits="userSpaceOnUse">
<stop stop-color="#939FAB"/>
<stop offset="1" stop-color="#DCDEE1"/>
</linearGradient>
<radialGradient id="paint2_radial_208_1379" cx="0" cy="0" r="1" gradientTransform="matrix(-2.62231 -0.393711 -0.797142 5.24462 38.787 18.8961)" gradientUnits="userSpaceOnUse">
<stop stop-color="#EE352C"/>
<stop offset="1" stop-color="#A91D22"/>
</radialGradient>
<clipPath id="clip0_208_1379">
<rect width="64" height="64" fill="white"/>
</clipPath>
</defs>
</svg>
