<svg width="64" height="63" viewBox="0 0 64 63" fill="none" xmlns="http://www.w3.org/2000/svg">
<g clip-path="url(#clip0_664_911)">
<path d="M58.9118 48.553C55.4323 48.4662 52.7355 48.8142 50.4738 49.771C49.8213 50.0317 48.7773 50.032 48.6903 50.8585C49.0383 51.2065 49.0818 51.772 49.3863 52.2502C49.9088 53.12 50.8215 54.2945 51.648 54.9037C52.5613 55.5995 53.475 56.2952 54.4315 56.9042C56.128 57.9482 58.042 58.557 59.6948 59.601C60.652 60.2095 61.6083 60.993 62.5653 61.6452C63.0438 61.9927 63.348 62.5587 63.9573 62.776V62.6457C63.6525 62.254 63.5655 61.6887 63.2613 61.2537C62.8268 60.8187 62.3913 60.4272 61.9563 59.9922C60.695 58.2962 59.1293 56.8172 57.433 55.5995C56.0413 54.6425 52.9963 53.3377 52.431 51.7282C52.431 51.7282 52.3873 51.685 52.344 51.6415C53.3008 51.5545 54.4315 51.2065 55.3453 50.9455C56.824 50.5537 58.1723 50.641 59.6948 50.2495C60.3905 50.0755 61.0865 49.858 61.7823 49.6405V49.2492C60.9998 48.4662 60.4343 47.4225 59.6078 46.683C57.3895 44.7687 54.9535 42.8987 52.431 41.333C51.0825 40.463 49.3425 39.8975 47.9073 39.1582C47.3858 38.897 46.5155 38.7667 46.2113 38.3317C45.428 37.375 44.993 36.1137 44.4278 34.9827C43.1668 32.5902 41.9485 29.9372 40.861 27.4147C40.0785 25.7182 39.6 24.0217 38.643 22.4562C34.163 15.062 29.2915 10.582 21.8105 6.18873C20.201 5.27548 18.2873 4.88398 16.243 4.40573C15.156 4.36198 14.0683 4.27523 12.981 4.23148C12.285 3.92698 11.589 3.10073 10.98 2.70923C8.50127 1.14323 2.10702 -2.24902 0.280268 2.23098C-0.894232 5.05798 2.02027 7.84148 3.02027 9.27723C3.76027 10.2775 4.71677 11.4082 5.23877 12.5392C5.54327 13.2782 5.63002 14.0617 5.93452 14.8445C6.63077 16.7577 7.28277 18.8895 8.19652 20.673C8.67502 21.5862 9.19677 22.543 9.80577 23.3695C10.1538 23.8477 10.7625 24.0655 10.8933 24.8482C10.2845 25.7182 10.2408 27.0232 9.89252 28.1105C8.32677 33.0255 8.93602 39.1147 11.154 42.7247C11.8498 43.8117 13.5028 46.2047 15.721 45.291C17.6785 44.5082 17.2435 42.029 17.8085 39.8542C17.9395 39.3317 17.8525 38.9842 18.1133 38.6362V38.7235C18.7223 39.941 19.331 41.1157 19.8965 42.3335C21.245 44.4645 23.5935 46.683 25.5508 48.162C26.595 48.9445 27.4213 50.293 28.7263 50.7715V50.6407H28.639C28.378 50.2492 27.9865 50.0755 27.6388 49.7707C26.856 48.9882 25.9858 48.0312 25.377 47.1612C23.5505 44.7252 21.9408 42.0287 20.5055 39.245C19.8098 37.897 19.2005 36.418 18.6353 35.0697C18.374 34.5472 18.374 33.7647 17.9393 33.504C17.2868 34.4607 16.33 35.2872 15.8515 36.4615C15.0255 38.3317 14.9383 40.637 14.6338 43.029C14.4598 43.073 14.5465 43.029 14.4595 43.1165C13.068 42.768 12.5895 41.333 12.0673 40.115C10.7623 37.027 10.5448 32.0685 11.676 28.502C11.9805 27.5885 13.2855 24.718 12.7635 23.848C12.5025 23.0215 11.6323 22.543 11.154 21.8907C10.5888 21.0642 9.97952 20.0207 9.58827 19.107C8.54427 16.6712 8.02227 13.9745 6.89152 11.5387C6.36952 10.4077 5.45652 9.23373 4.71677 8.18973C3.89052 7.01548 2.97702 6.18873 2.32452 4.79698C2.10727 4.31873 1.80252 3.53573 2.15052 3.01373C2.23752 2.66573 2.41127 2.53548 2.75952 2.44848C3.32502 1.96973 4.93452 2.57873 5.49952 2.83973C7.10902 3.49173 8.45727 4.10123 9.80577 5.01448C10.4145 5.44948 11.067 6.27598 11.8498 6.49348H12.7633C14.1553 6.79773 15.7208 6.58048 17.0258 6.97173C19.3313 7.71098 21.4188 8.79848 23.2893 9.97298C28.9873 13.583 33.6843 18.7155 36.8598 24.8482C37.3818 25.8482 37.599 26.7622 38.0775 27.8057C38.9913 29.9372 40.122 32.112 41.035 34.1997C41.9485 36.2437 42.8183 38.3317 44.1233 40.0282C44.7758 40.9412 47.3853 41.42 48.5598 41.8985C49.4298 42.2897 50.7783 42.638 51.561 43.1162C53.0398 44.0292 54.5185 45.0737 55.9105 46.0737C56.6065 46.5957 58.781 47.6832 58.9118 48.553Z" fill="#00546B"/>
<path d="M14.5467 10.7555C13.8074 10.7555 13.2857 10.843 12.7637 10.9732V11.0602H12.8507C13.1989 11.7562 13.8074 12.2347 14.2422 12.8435C14.5904 13.5392 14.8947 14.2355 15.2429 14.9315C15.2862 14.8877 15.3297 14.8445 15.3297 14.8445C15.9389 14.4092 16.2432 13.7135 16.2432 12.6695C15.9822 12.3652 15.9387 12.0607 15.7212 11.7562C15.4604 11.321 14.8947 11.1037 14.5467 10.7555Z" fill="#00546B"/>
</g>
<defs>
<clipPath id="clip0_664_911">
<rect width="64" height="63" fill="white"/>
</clipPath>
</defs>
</svg>
