<svg id="Capa_1" enable-background="new 0 0 512.5 512.5" height="512" viewBox="0 0 512.5 512.5" width="512" xmlns="http://www.w3.org/2000/svg"><g><path d="m55.583 306.429 30 149.976 85.334-49.994 30-99.982z" fill="#625fb2"/><path d="m.25 306.429v99.982l85.333 49.994v-149.976z" fill="#7e7bc6"/><path d="m396.917 306.429 30 149.976 85.333-49.994v-99.982z" fill="#625fb2"/><path d="m311.583 306.429 30 99.982 85.334 49.994v-149.976z" fill="#7e7bc6"/><path d="m226.25 306.429 30 149.976 85.333-49.994v-99.982z" fill="#625fb2"/><path d="m170.917 306.429v99.982l85.333 49.994v-149.976z" fill="#7e7bc6"/><path d="m85.583 256.429-85.333 49.994 85.333 30 85.334-30z" fill="#b5b4d9"/><path d="m.25 306.423c0 .006 85.333 49.994 85.333 49.994l85.333-49.988c.001-.006-170.666-.006-170.666-.006z" fill="#9997cf"/><path d="m426.917 256.429-85.334 49.994 85.334 30 85.333-30z" fill="#b5b4d9"/><path d="m341.583 306.423c0 .006 85.333 49.994 85.333 49.994l85.333-49.988c.001-.006-170.666-.006-170.666-.006z" fill="#9997cf"/><path d="m256.25 256.429-85.333 49.994 85.333 30 85.333-30z" fill="#b5b4d9"/><path d="m170.917 306.423c0 .006 85.333 49.994 85.333 49.994l85.333-49.988c0-.006-170.666-.006-170.666-.006z" fill="#9997cf"/><g fill="#48484c"><path d="m333.761 56.095c-24.819 0-45.011 20.191-45.011 45.011h30c0-8.277 6.733-15.011 15.011-15.011s15.011 6.733 15.011 15.011-6.733 15.011-15.011 15.011v15l16.76 15 16.76-15c7.142-7.969 11.492-18.492 11.492-30.01-.002-24.821-20.193-45.012-45.012-45.012z"/><path d="m277.5 101.095c0-24.813-20.187-45-45-45h-45v75.021l15 15 63.532-15c7.121-7.988 11.468-18.507 11.468-30.021zm-45 15h-15v-30h15c8.271 0 15 6.729 15 15s-6.729 15-15 15z"/><path d="m142.5 116.095v-30h30v-30h-60v75.021l15 15 45-15v-15.021z"/><path d="m452.5 101.095c0-8.271 6.729-15 15-15s15 6.729 15 15v30.021l15 15 15-15v-30.021c0-24.813-20.187-45-45-45s-45 20.187-45 45v30.021l15 15 15-15z"/><path d="m30 56.095h-30v75.021l15 15 15-15z"/><path d="m48.75 116.09-9.024 15.026 9.024 15 9.024-15z"/><path d="m67.5 56.095v75.021l15 15 15-15v-75.021z"/></g><path d="m367.28 131.116h-33.519v15c8.277 0 15.011 6.733 15.011 15.011 0 8.276-6.733 15.01-15.011 15.01s-15.011-6.733-15.011-15.01h-30c0 24.818 20.191 45.01 45.011 45.01s45.011-20.191 45.011-45.01c-.001-11.519-4.35-22.041-11.492-30.011z" fill="#2c2c2f"/><path d="m187.5 131.116v74.979h45c24.813 0 45-20.187 45-45 0-11.505-4.34-22.015-11.468-29.979zm45 44.979h-15v-30h15c8.271 0 15 6.729 15 15s-6.729 15-15 15z" fill="#2c2c2f"/><path d="m112.5 206.095h60v-30h-30v-30h30v-14.979h-60z" fill="#2c2c2f"/><path d="m482.5 131.116v29.979c0 8.271-6.729 15-15 15s-15-6.729-15-15v-29.979h-30v29.979c0 24.813 20.187 45 45 45s45-20.187 45-45v-29.979z" fill="#2c2c2f"/><path d="m385.636 176.095h30v30h-30z" fill="#2c2c2f"/><path d="m67.5 147.31-9.726-16.194h-18.048l-9.726 16.194v-16.194h-30v74.979h29.689l19.061-31.738 19.061 31.738h29.689v-74.979h-30z" fill="#2c2c2f"/></g></svg>