<svg fill="none" height="512" viewBox="0 0 512 512" width="512" xmlns="http://www.w3.org/2000/svg"><path d="m0 256c0-141.385 114.615-256 256-256s256 114.615 256 256-114.615 256-256 256-256-114.615-256-256z" fill="#fbe9cc"/><path d="m255.671 353.093c57.916 0 104.866-46.95 104.866-104.867 0-57.916-46.95-104.867-104.866-104.867-57.917 0-104.867 46.951-104.867 104.867 0 57.917 46.95 104.867 104.867 104.867z" fill="#be7607"/><path d="m256.01 511.999c61.371 0 117.698-21.595 161.796-57.601-2.936-3.498-6.351-6.93-10.273-10.271-40.27-34.299-94.886-53.568-151.836-53.568-56.949 0-111.566 19.269-151.835 53.568-3.809 3.245-7.14 6.575-10.0182 9.968 44.1532 36.188 100.6232 57.904 162.1662 57.904z" fill="#eb8f00"/></svg>